<?xml version="1.0" encoding="utf-8"?>
<!-- Generator: Adobe Illustrator 22.0.1, SVG Export Plug-In . SVG Version: 6.00 Build 0)  -->
<svg version="1.1" id="图层_1" xmlns="http://www.w3.org/2000/svg" xmlns:xlink="http://www.w3.org/1999/xlink" x="0px" y="0px"
	 viewBox="0 0 112.5 156.5" style="enable-background:new 0 0 112.5 156.5;" xml:space="preserve">
<style type="text/css">
	.st0{fill:#E0CC1E;}
	.st1{fill:#1A1A1A;}
	.st2{fill:#FFFFFF;}
	.st3{fill:none;stroke:#1A1A1A;stroke-miterlimit:10;}
	.st4{fill:none;}
	.st5{enable-background:new    ;}
	.st6{fill:#9B9B9B;}
</style>
<rect x="54.3" y="22.3" class="st0" width="3" height="35.2"/>
<rect x="54.3" y="56.3" class="st0" width="3" height="71.3"/>
<polygon class="st0" points="60.2,125.1 55.8,132.8 51.4,125.1 "/>
<path class="st1" d="M100.8,9.3c0,5.3-4.8,9.6-10.8,9.6H21.6c-5.9,0-10.8-4.3-10.8-9.6s4.8-9.6,10.8-9.6H90
	C96-0.3,100.8,4,100.8,9.3"/>
<rect x="22.8" y="59.9" class="st2" width="66" height="10.9"/>
<path class="st3" d="M111.6,146.3c0,5.3-4.3,9.6-9.6,9.6H9.7c-5.3,0-9.6-4.3-9.6-9.6s4.3-9.6,9.6-9.6H102
	C107.3,136.7,111.6,141,111.6,146.3z"/>
<rect x="-0.4" class="st4" width="112.5" height="156.5"/>
<rect x="22.8" y="70" class="st2" width="66" height="10.9"/>
<rect x="-0.4" class="st4" width="112.5" height="156.5"/>
<g class="st5">
	<path class="st2" d="M20.3,6.8v3.7c0,0.7-0.2,1.3-0.6,1.6c-0.4,0.3-1,0.5-1.7,0.5c-0.3,0-0.6,0-0.9-0.1c-0.4-0.1-0.7-0.3-0.9-0.6
		c-0.3-0.3-0.4-0.8-0.4-1.4V6.8h1.2v3.7c0,0.4,0.1,0.7,0.3,0.9s0.4,0.3,0.7,0.3c0.4,0,0.7-0.1,0.9-0.3c0.2-0.2,0.3-0.5,0.3-0.8V6.8
		H20.3z"/>
	<path class="st2" d="M24.9,9.6h-1.1c0-0.2-0.1-0.3-0.2-0.4C23.5,9.1,23.3,9,23,9c-0.3,0-0.5,0-0.6,0.1c-0.1,0.1-0.1,0.2-0.1,0.3
		c0,0.2,0.2,0.3,0.7,0.4c0.7,0.1,1.1,0.3,1.3,0.4c0.5,0.2,0.7,0.6,0.7,1c0,0.5-0.2,0.9-0.7,1.2c-0.3,0.2-0.7,0.3-1.2,0.3
		c-0.6,0-1-0.1-1.4-0.3c-0.4-0.3-0.7-0.6-0.7-1.2h1.2c0,0.2,0.1,0.4,0.2,0.5c0.1,0.1,0.4,0.2,0.7,0.2c0.3,0,0.4-0.1,0.6-0.2
		c0.1-0.1,0.1-0.2,0.1-0.3c0-0.2-0.2-0.3-0.7-0.4c-0.7-0.1-1.1-0.3-1.3-0.3c-0.5-0.2-0.7-0.5-0.7-1c0-0.4,0.1-0.7,0.4-0.9
		c0.3-0.3,0.8-0.5,1.4-0.5c0.5,0,1,0.1,1.3,0.2C24.7,8.6,24.9,9,24.9,9.6z"/>
	<path class="st2" d="M28.3,11.3h1.1c-0.1,0.5-0.4,0.8-0.8,1.1c-0.3,0.2-0.7,0.3-1.1,0.3c-0.7,0-1.2-0.2-1.5-0.5
		c-0.4-0.4-0.6-1-0.6-1.8c0-0.5,0.1-0.9,0.3-1.3c0.3-0.6,0.9-0.9,1.7-0.9c0.5,0,1,0.1,1.3,0.4c0.5,0.4,0.7,1,0.7,1.9l0,0.2h-2.9
		c0,0.4,0.1,0.6,0.3,0.8c0.2,0.2,0.4,0.2,0.7,0.2c0.2,0,0.3,0,0.5-0.1S28.3,11.4,28.3,11.3z M26.6,10h1.7c0-0.3-0.1-0.5-0.3-0.7
		c-0.1-0.1-0.3-0.2-0.5-0.2c-0.3,0-0.5,0.1-0.6,0.2C26.8,9.5,26.7,9.7,26.6,10z"/>
	<path class="st2" d="M30.3,12.5l0-4.3h1.1l0,0.7c0.2-0.3,0.3-0.5,0.4-0.6c0.2-0.2,0.5-0.3,0.8-0.3h0.2l0,1.1c0,0-0.1,0-0.1,0
		s-0.1,0-0.2,0c-0.4,0-0.7,0.1-0.8,0.3c-0.1,0.2-0.2,0.4-0.2,0.7v2.2H30.3z"/>
	<path class="st2" d="M33.4,7.8v-1h1.1v0.8c0,0.4-0.1,0.8-0.4,1C34,8.8,33.7,8.9,33.4,9l0-0.4c0.2-0.1,0.4-0.2,0.5-0.3
		C34,8.1,34,8,34,7.8H33.4z"/>
	<path class="st2" d="M39.1,9.6H38c0-0.2-0.1-0.3-0.2-0.4C37.7,9.1,37.5,9,37.3,9c-0.3,0-0.5,0-0.6,0.1c-0.1,0.1-0.1,0.2-0.1,0.3
		c0,0.2,0.2,0.3,0.7,0.4c0.7,0.1,1.1,0.3,1.3,0.4c0.5,0.2,0.7,0.6,0.7,1c0,0.5-0.2,0.9-0.7,1.2c-0.3,0.2-0.7,0.3-1.2,0.3
		c-0.6,0-1-0.1-1.4-0.3c-0.4-0.3-0.7-0.6-0.7-1.2h1.2c0,0.2,0.1,0.4,0.2,0.5c0.1,0.1,0.4,0.2,0.7,0.2c0.3,0,0.4-0.1,0.6-0.2
		c0.1-0.1,0.1-0.2,0.1-0.3c0-0.2-0.2-0.3-0.7-0.4c-0.7-0.1-1.1-0.3-1.3-0.3c-0.5-0.2-0.7-0.5-0.7-1c0-0.4,0.1-0.7,0.4-0.9
		c0.3-0.3,0.8-0.5,1.4-0.5c0.5,0,1,0.1,1.3,0.2C38.9,8.6,39.1,9,39.1,9.6z"/>
	<path class="st2" d="M47.9,8.3l-1.2,4.3h-1.2l-0.7-3.1l-0.7,3.1H43l-1.2-4.3H43l0.7,3.1l0.6-3.1h1.1l0.6,3.1l0.7-3.1H47.9z"/>
	<path class="st2" d="M52,9.4v2.3c0,0.2,0,0.4,0.1,0.5s0.1,0.1,0.2,0.2v0.2H51c-0.1-0.2-0.1-0.3-0.1-0.5c-0.2,0.2-0.3,0.3-0.5,0.4
		c-0.2,0.1-0.5,0.2-0.9,0.2c-0.4,0-0.7-0.1-0.9-0.3c-0.3-0.2-0.4-0.5-0.4-1c0-0.4,0.1-0.7,0.3-0.9c0.2-0.2,0.5-0.4,0.9-0.4l1-0.2
		c0.2,0,0.3-0.1,0.3-0.1s0.1-0.1,0.1-0.2c0-0.2-0.1-0.3-0.3-0.4c-0.1,0-0.3-0.1-0.5-0.1c-0.2,0-0.4,0.1-0.5,0.2
		c-0.1,0.1-0.1,0.2-0.1,0.4h-1.1c0.1-0.6,0.3-1,0.7-1.2c0.3-0.2,0.7-0.3,1.2-0.3c0.4,0,0.8,0.1,1.1,0.2C51.7,8.6,52,8.9,52,9.4z
		 M50.9,11v-0.5c-0.1,0-0.1,0.1-0.3,0.1c-0.1,0-0.3,0.1-0.5,0.1s-0.4,0.1-0.5,0.2c-0.1,0.1-0.2,0.3-0.2,0.5c0,0.2,0.1,0.3,0.2,0.4
		c0.1,0.1,0.2,0.1,0.3,0.1c0.3,0,0.5-0.1,0.7-0.2C50.8,11.5,50.9,11.3,50.9,11z"/>
	<path class="st2" d="M54.1,6.8v5.7H53V6.8H54.1z"/>
	<path class="st2" d="M56.3,6.8v5.7h-1.1V6.8H56.3z"/>
	<path class="st2" d="M59.9,11.3h1.1c-0.1,0.5-0.4,0.8-0.8,1.1c-0.3,0.2-0.7,0.3-1.1,0.3c-0.7,0-1.2-0.2-1.5-0.5
		c-0.4-0.4-0.6-1-0.6-1.8c0-0.5,0.1-0.9,0.3-1.3c0.3-0.6,0.9-0.9,1.7-0.9c0.5,0,1,0.1,1.3,0.4c0.5,0.4,0.7,1,0.7,1.9l0,0.2h-2.9
		c0,0.4,0.2,0.6,0.3,0.8c0.2,0.2,0.4,0.2,0.7,0.2c0.2,0,0.3,0,0.5-0.1S59.9,11.4,59.9,11.3z M58.2,10H60c0-0.3-0.1-0.5-0.3-0.7
		c-0.1-0.1-0.3-0.2-0.5-0.2c-0.3,0-0.5,0.1-0.6,0.2C58.3,9.5,58.3,9.7,58.2,10z"/>
	<path class="st2" d="M63.1,7.1v1.2h0.7v0.8h-0.7v2.3c0,0.1,0,0.2,0.1,0.3c0.1,0,0.2,0.1,0.4,0.1h0.2v0.8l-0.5,0h-0.1
		c-0.5,0-0.8-0.1-0.9-0.2C62.1,12.2,62,12,62,11.7V9.1h-0.6l0-0.8H62l0-1.2H63.1z"/>
	<path class="st2" d="M70.2,9.4v2.3c0,0.2,0,0.4,0.1,0.5s0.1,0.1,0.2,0.2v0.2h-1.2c-0.1-0.2-0.1-0.3-0.1-0.5
		c-0.2,0.2-0.3,0.3-0.5,0.4c-0.2,0.1-0.5,0.2-0.9,0.2c-0.4,0-0.7-0.1-0.9-0.3c-0.3-0.2-0.4-0.5-0.4-1c0-0.4,0.1-0.7,0.3-0.9
		c0.2-0.2,0.5-0.4,0.9-0.4l1-0.2c0.2,0,0.3-0.1,0.3-0.1c0.1-0.1,0.1-0.1,0.1-0.2c0-0.2-0.1-0.3-0.3-0.4c-0.1,0-0.3-0.1-0.5-0.1
		c-0.2,0-0.4,0.1-0.5,0.2c-0.1,0.1-0.1,0.2-0.1,0.4h-1.1c0.1-0.6,0.3-1,0.7-1.2c0.3-0.2,0.7-0.3,1.2-0.3c0.4,0,0.8,0.1,1.1,0.2
		C70,8.6,70.2,8.9,70.2,9.4z M69.1,11v-0.5c-0.1,0-0.1,0.1-0.3,0.1c-0.1,0-0.3,0.1-0.5,0.1s-0.4,0.1-0.5,0.2
		c-0.1,0.1-0.2,0.3-0.2,0.5c0,0.2,0.1,0.3,0.2,0.4c0.1,0.1,0.2,0.1,0.3,0.1c0.3,0,0.5-0.1,0.7-0.2C69,11.5,69.1,11.3,69.1,11z"/>
	<path class="st2" d="M75.1,6.8v5.7H74V12c-0.1,0.2-0.3,0.4-0.6,0.5c-0.2,0.1-0.4,0.1-0.7,0.1c-0.6,0-1-0.2-1.4-0.7
		c-0.3-0.4-0.4-0.9-0.4-1.6c0-0.7,0.2-1.3,0.5-1.6c0.3-0.4,0.7-0.5,1.2-0.5c0.3,0,0.6,0.1,0.8,0.2c0.2,0.1,0.3,0.2,0.4,0.4l0-2H75.1
		z M72.1,10.4c0,0.3,0.1,0.6,0.2,0.8c0.2,0.3,0.4,0.5,0.7,0.5c0.3,0,0.6-0.1,0.8-0.4c0.2-0.2,0.2-0.5,0.2-0.8c0-0.4-0.1-0.7-0.2-0.9
		c-0.2-0.3-0.4-0.4-0.8-0.4c-0.3,0-0.6,0.1-0.7,0.4C72.2,9.8,72.1,10.1,72.1,10.4z"/>
	<path class="st2" d="M80,6.8v5.7h-1.1V12c-0.1,0.2-0.3,0.4-0.6,0.5c-0.2,0.1-0.4,0.1-0.7,0.1c-0.6,0-1-0.2-1.4-0.7
		c-0.3-0.4-0.4-0.9-0.4-1.6c0-0.7,0.2-1.3,0.5-1.6c0.3-0.4,0.7-0.5,1.2-0.5c0.3,0,0.6,0.1,0.8,0.2c0.2,0.1,0.3,0.2,0.4,0.4l0-2H80z
		 M77,10.4c0,0.3,0.1,0.6,0.2,0.8c0.2,0.3,0.4,0.5,0.7,0.5c0.3,0,0.6-0.1,0.8-0.4c0.2-0.2,0.2-0.5,0.2-0.8c0-0.4-0.1-0.7-0.2-0.9
		c-0.2-0.3-0.4-0.4-0.8-0.4c-0.3,0-0.6,0.1-0.7,0.4C77.1,9.8,77,10.1,77,10.4z"/>
	<path class="st2" d="M81,12.5l0-4.3H82L82,9c0.2-0.3,0.3-0.5,0.4-0.6c0.2-0.2,0.5-0.3,0.8-0.3h0.2l0,1.1c0,0-0.1,0-0.1,0
		c0,0-0.1,0-0.2,0c-0.4,0-0.7,0.1-0.8,0.3c-0.1,0.2-0.2,0.4-0.2,0.7v2.2H81z"/>
	<path class="st2" d="M86.6,11.3h1.1c-0.1,0.5-0.4,0.8-0.8,1.1c-0.3,0.2-0.7,0.3-1.1,0.3c-0.7,0-1.2-0.2-1.5-0.5
		c-0.4-0.4-0.6-1-0.6-1.8c0-0.5,0.1-0.9,0.3-1.3c0.3-0.6,0.9-0.9,1.7-0.9c0.5,0,1,0.1,1.3,0.4c0.5,0.4,0.7,1,0.7,1.9l0,0.2h-2.9
		c0,0.4,0.2,0.6,0.3,0.8c0.2,0.2,0.4,0.2,0.7,0.2c0.2,0,0.3,0,0.5-0.1S86.5,11.4,86.6,11.3z M84.9,10h1.7c0-0.3-0.1-0.5-0.3-0.7
		c-0.1-0.1-0.3-0.2-0.5-0.2c-0.3,0-0.5,0.1-0.6,0.2C85,9.5,84.9,9.7,84.9,10z"/>
	<path class="st2" d="M92,9.6h-1.1c0-0.2-0.1-0.3-0.2-0.4C90.7,9.1,90.5,9,90.2,9c-0.3,0-0.5,0-0.6,0.1c-0.1,0.1-0.1,0.2-0.1,0.3
		c0,0.2,0.2,0.3,0.7,0.4c0.7,0.1,1.1,0.3,1.3,0.4c0.5,0.2,0.7,0.6,0.7,1c0,0.5-0.2,0.9-0.7,1.2c-0.3,0.2-0.7,0.3-1.2,0.3
		c-0.6,0-1-0.1-1.4-0.3c-0.4-0.3-0.7-0.6-0.7-1.2h1.2c0,0.2,0.1,0.4,0.2,0.5c0.1,0.1,0.4,0.2,0.7,0.2c0.3,0,0.4-0.1,0.6-0.2
		c0.1-0.1,0.1-0.2,0.1-0.3c0-0.2-0.2-0.3-0.7-0.4c-0.7-0.1-1.1-0.3-1.3-0.3c-0.5-0.2-0.7-0.5-0.7-1c0-0.4,0.1-0.7,0.4-0.9
		c0.3-0.3,0.8-0.5,1.4-0.5c0.5,0,1,0.1,1.3,0.2C91.8,8.6,92,9,92,9.6z"/>
	<path class="st2" d="M96.5,9.6h-1.1c0-0.2-0.1-0.3-0.2-0.4C95.1,9.1,94.9,9,94.6,9c-0.3,0-0.5,0-0.6,0.1c-0.1,0.1-0.1,0.2-0.1,0.3
		c0,0.2,0.2,0.3,0.7,0.4c0.7,0.1,1.1,0.3,1.3,0.4c0.5,0.2,0.7,0.6,0.7,1c0,0.5-0.2,0.9-0.7,1.2c-0.3,0.2-0.7,0.3-1.2,0.3
		c-0.6,0-1-0.1-1.4-0.3c-0.4-0.3-0.7-0.6-0.7-1.2h1.2c0,0.2,0.1,0.4,0.2,0.5c0.1,0.1,0.4,0.2,0.7,0.2c0.3,0,0.4-0.1,0.6-0.2
		c0.1-0.1,0.1-0.2,0.1-0.3c0-0.2-0.2-0.3-0.7-0.4c-0.7-0.1-1.1-0.3-1.3-0.3c-0.5-0.2-0.7-0.5-0.7-1c0-0.4,0.1-0.7,0.4-0.9
		c0.3-0.3,0.8-0.5,1.4-0.5c0.5,0,1,0.1,1.3,0.2C96.3,8.6,96.5,9,96.5,9.6z"/>
</g>
<g class="st5">
	<path class="st1" d="M7.4,142.8v4.7h2.9v1H6.2v-5.7H7.4z"/>
	<path class="st1" d="M15.1,146.4c0,0.7-0.2,1.3-0.7,1.7c-0.4,0.4-0.9,0.5-1.5,0.5c-0.6,0-1.1-0.2-1.5-0.5c-0.4-0.4-0.7-1-0.7-1.7
		c0-0.7,0.2-1.3,0.7-1.7c0.4-0.4,0.9-0.5,1.5-0.5s1.1,0.2,1.5,0.5C14.9,145.1,15.1,145.7,15.1,146.4z M14,146.4
		c0-0.4-0.1-0.6-0.2-0.8c-0.2-0.3-0.5-0.4-0.8-0.4c-0.4,0-0.7,0.1-0.8,0.4c-0.1,0.2-0.2,0.5-0.2,0.9c0,0.4,0.1,0.6,0.2,0.8
		c0.2,0.3,0.5,0.4,0.8,0.4c0.4,0,0.7-0.1,0.8-0.4C13.9,147,14,146.8,14,146.4z"/>
	<path class="st1" d="M18.4,147h1.1c0,0.4-0.2,0.7-0.4,1c-0.4,0.4-0.9,0.7-1.5,0.7c-0.7,0-1.2-0.2-1.6-0.7c-0.3-0.4-0.4-0.8-0.4-1.4
		c0-0.7,0.2-1.3,0.5-1.7c0.3-0.4,0.9-0.7,1.6-0.7c0.4,0,0.8,0.1,1.2,0.3c0.4,0.3,0.7,0.7,0.7,1.3h-1.1c0-0.2-0.1-0.4-0.3-0.5
		c-0.1-0.1-0.3-0.1-0.5-0.1c-0.3,0-0.6,0.1-0.7,0.4c-0.1,0.2-0.2,0.5-0.2,0.8c0,0.5,0.1,0.9,0.2,1.1s0.4,0.3,0.7,0.3
		c0.2,0,0.4-0.1,0.6-0.3C18.4,147.3,18.4,147.1,18.4,147z"/>
	<path class="st1" d="M21.5,147.2v1.3h-1.1v-5.7h1.1v3.1l1.4-1.6h1.4l-1.5,1.6l1.6,2.6H23l-1-1.8L21.5,147.2z"/>
	<path class="st1" d="M27.5,147.3h1.1c-0.1,0.5-0.4,0.8-0.8,1.1c-0.3,0.2-0.7,0.3-1.1,0.3c-0.7,0-1.2-0.2-1.5-0.5
		c-0.4-0.4-0.6-1-0.6-1.8c0-0.5,0.1-0.9,0.3-1.3c0.3-0.6,0.9-0.9,1.7-0.9c0.5,0,1,0.1,1.3,0.4c0.5,0.4,0.7,1,0.7,1.9l0,0.2h-2.9
		c0,0.4,0.1,0.6,0.3,0.8c0.2,0.2,0.4,0.2,0.7,0.2c0.2,0,0.3,0,0.5-0.1S27.4,147.4,27.5,147.3z M25.8,146h1.7c0-0.3-0.1-0.5-0.3-0.7
		c-0.1-0.1-0.3-0.2-0.5-0.2c-0.3,0-0.5,0.1-0.6,0.2C25.9,145.5,25.8,145.7,25.8,146z"/>
	<path class="st1" d="M33.3,142.8v5.7h-1.1V148c-0.1,0.2-0.3,0.4-0.6,0.5c-0.2,0.1-0.4,0.1-0.7,0.1c-0.6,0-1-0.2-1.4-0.7
		c-0.3-0.4-0.4-0.9-0.4-1.6c0-0.7,0.2-1.3,0.5-1.6c0.3-0.4,0.7-0.5,1.2-0.5c0.3,0,0.6,0.1,0.8,0.2c0.2,0.1,0.3,0.2,0.4,0.4l0-2H33.3
		z M30.3,146.4c0,0.3,0.1,0.6,0.2,0.8c0.2,0.3,0.4,0.5,0.7,0.5c0.3,0,0.6-0.1,0.8-0.4c0.2-0.2,0.2-0.5,0.2-0.8
		c0-0.4-0.1-0.7-0.2-0.9c-0.2-0.3-0.4-0.4-0.8-0.4c-0.3,0-0.6,0.1-0.7,0.4C30.4,145.8,30.3,146.1,30.3,146.4z"/>
	<path class="st1" d="M37.6,142.8v2c0.2-0.2,0.4-0.4,0.6-0.5s0.4-0.1,0.7-0.1c0.5,0,0.9,0.2,1.2,0.5c0.4,0.4,0.5,0.9,0.5,1.6
		c0,0.6-0.1,1.2-0.4,1.6c-0.3,0.5-0.8,0.7-1.4,0.7c-0.3,0-0.5,0-0.7-0.1c-0.2-0.1-0.4-0.3-0.5-0.5l0,0.5h-1.1v-5.7H37.6z
		 M39.5,146.4c0-0.4-0.1-0.7-0.2-0.9c-0.2-0.3-0.4-0.4-0.8-0.4c-0.4,0-0.6,0.1-0.8,0.4c-0.1,0.2-0.2,0.5-0.2,0.9
		c0,0.3,0.1,0.6,0.2,0.8c0.2,0.2,0.4,0.4,0.8,0.4c0.3,0,0.6-0.2,0.7-0.5C39.4,147,39.5,146.8,39.5,146.4z"/>
	<path class="st1" d="M45.2,144.3l-1.5,4.2c-0.3,0.8-0.5,1.3-0.6,1.5c-0.2,0.2-0.5,0.3-1,0.3h-0.5v-0.9l0.2,0c0.2,0,0.4,0,0.5-0.1
		c0.1-0.1,0.2-0.3,0.3-0.5l-1.6-4.4h1.2l0.9,3.1l0.9-3.1H45.2z"/>
	<path class="st1" d="M47.9,146.8H49c0,0.2,0.1,0.4,0.2,0.6c0.2,0.2,0.5,0.3,1,0.3c0.3,0,0.6,0,0.8-0.1c0.3-0.1,0.4-0.3,0.4-0.6
		c0-0.2-0.1-0.4-0.3-0.5c-0.1-0.1-0.4-0.1-0.8-0.2l-0.6-0.1c-0.6-0.1-1-0.3-1.3-0.4c-0.4-0.3-0.6-0.7-0.6-1.2c0-0.4,0.1-0.8,0.4-1.1
		c0.4-0.4,1-0.6,1.8-0.6c0.8,0,1.4,0.2,1.8,0.7c0.3,0.3,0.5,0.7,0.5,1.2h-1.1c0-0.2-0.1-0.4-0.2-0.5c-0.2-0.2-0.5-0.3-1-0.3
		c-0.3,0-0.5,0-0.7,0.1c-0.2,0.1-0.3,0.3-0.3,0.5c0,0.2,0.1,0.3,0.2,0.4c0.1,0.1,0.2,0.1,0.4,0.2l1.4,0.3c0.5,0.1,0.8,0.3,1,0.5
		c0.3,0.3,0.5,0.6,0.5,1.1c0,0.6-0.2,1-0.6,1.4c-0.4,0.4-1,0.5-1.7,0.5c-0.9,0-1.6-0.2-2-0.7C48,147.7,47.9,147.3,47.9,146.8z"/>
	<path class="st1" d="M59.5,145.6v2.9h-1.1V146c0-0.3-0.1-0.5-0.2-0.6c-0.1-0.1-0.3-0.2-0.4-0.2c-0.3,0-0.5,0.1-0.6,0.2
		c-0.1,0.2-0.2,0.4-0.2,0.6v2.6h-1.1V146c0-0.3,0-0.5-0.1-0.6c-0.1-0.2-0.3-0.3-0.6-0.3c-0.2,0-0.4,0.1-0.5,0.2s-0.2,0.4-0.2,0.6
		v2.6h-1.1l0-4.3h1.1v0.6c0.1-0.2,0.3-0.4,0.4-0.5c0.2-0.2,0.5-0.3,0.8-0.3c0.3,0,0.5,0.1,0.7,0.2c0.2,0.1,0.3,0.3,0.5,0.5
		c0.1-0.2,0.3-0.3,0.4-0.4c0.2-0.2,0.5-0.3,0.8-0.3c0.4,0,0.8,0.1,1.1,0.4C59.3,144.8,59.5,145.1,59.5,145.6z"/>
	<path class="st1" d="M64,145.4v2.3c0,0.2,0,0.4,0.1,0.5s0.1,0.1,0.2,0.2v0.2H63c-0.1-0.2-0.1-0.3-0.1-0.5c-0.2,0.2-0.3,0.3-0.5,0.4
		c-0.2,0.1-0.5,0.2-0.9,0.2c-0.4,0-0.7-0.1-0.9-0.3c-0.3-0.2-0.4-0.5-0.4-1c0-0.4,0.1-0.7,0.3-0.9c0.2-0.2,0.5-0.4,0.9-0.4l1-0.2
		c0.2,0,0.3-0.1,0.3-0.1c0.1-0.1,0.1-0.1,0.1-0.2c0-0.2-0.1-0.3-0.3-0.4c-0.1,0-0.3-0.1-0.5-0.1c-0.2,0-0.4,0.1-0.5,0.2
		c-0.1,0.1-0.1,0.2-0.1,0.4h-1.1c0.1-0.6,0.3-1,0.7-1.2c0.3-0.2,0.7-0.3,1.2-0.3c0.4,0,0.8,0.1,1.1,0.2
		C63.7,144.6,64,144.9,64,145.4z M62.9,147v-0.5c-0.1,0-0.1,0.1-0.3,0.1c-0.1,0-0.3,0.1-0.5,0.1s-0.4,0.1-0.5,0.2
		c-0.1,0.1-0.2,0.3-0.2,0.5c0,0.2,0.1,0.3,0.2,0.4c0.1,0.1,0.2,0.1,0.3,0.1c0.3,0,0.5-0.1,0.7-0.2C62.8,147.5,62.9,147.3,62.9,147z"
		/>
	<path class="st1" d="M65,148.5l0-4.3H66l0,0.7c0.2-0.3,0.3-0.5,0.4-0.6c0.2-0.2,0.5-0.3,0.8-0.3h0.2l0,1.1c0,0-0.1,0-0.1,0
		c0,0-0.1,0-0.2,0c-0.4,0-0.7,0.1-0.8,0.3c-0.1,0.2-0.2,0.4-0.2,0.7v2.2H65z"/>
	<path class="st1" d="M69.3,143.1v1.2H70v0.8h-0.7v2.3c0,0.1,0,0.2,0.1,0.3c0,0,0.2,0.1,0.4,0.1H70v0.8l-0.5,0h-0.1
		c-0.5,0-0.8-0.1-0.9-0.2c-0.1-0.1-0.2-0.4-0.2-0.7v-2.6h-0.6l0-0.8h0.6l0-1.2H69.3z"/>
	<path class="st1" d="M77.9,144.7h-1.2c-0.1-0.3-0.2-0.5-0.3-0.6c-0.2-0.2-0.5-0.4-1-0.4c-0.4,0-0.7,0.1-0.9,0.4
		c-0.3,0.4-0.5,0.9-0.5,1.6c0,0.6,0.1,1,0.3,1.4c0.3,0.4,0.6,0.6,1.1,0.6c0.3,0,0.6-0.1,0.8-0.3s0.4-0.5,0.4-0.8h1.2
		c-0.1,0.7-0.4,1.2-0.8,1.5c-0.4,0.4-1,0.6-1.7,0.6c-0.8,0-1.4-0.3-1.9-0.8c-0.5-0.5-0.7-1.3-0.7-2.3s0.3-1.7,0.8-2.3
		c0.5-0.5,1.1-0.8,1.9-0.8c0.8,0,1.4,0.2,1.9,0.7C77.7,143.7,77.9,144.2,77.9,144.7z"/>
	<path class="st1" d="M82.8,146.4c0,0.7-0.2,1.3-0.7,1.7c-0.4,0.4-0.9,0.5-1.5,0.5c-0.6,0-1.1-0.2-1.5-0.5c-0.4-0.4-0.7-1-0.7-1.7
		c0-0.7,0.2-1.3,0.7-1.7c0.4-0.4,0.9-0.5,1.5-0.5s1.1,0.2,1.5,0.5C82.6,145.1,82.8,145.7,82.8,146.4z M81.7,146.4
		c0-0.4-0.1-0.6-0.2-0.8c-0.2-0.3-0.5-0.4-0.8-0.4c-0.4,0-0.7,0.1-0.8,0.4c-0.1,0.2-0.2,0.5-0.2,0.9c0,0.4,0.1,0.6,0.2,0.8
		c0.2,0.3,0.5,0.4,0.8,0.4c0.4,0,0.7-0.1,0.8-0.4C81.6,147,81.7,146.8,81.7,146.4z"/>
	<path class="st1" d="M87.5,145.6v2.9h-1.1V146c0-0.2,0-0.4-0.1-0.5c-0.1-0.2-0.3-0.3-0.6-0.3c-0.3,0-0.5,0.1-0.6,0.3
		c-0.2,0.2-0.2,0.4-0.2,0.7v2.4h-1.1v-4.3h1.1v0.6c0.2-0.3,0.4-0.5,0.6-0.6s0.4-0.2,0.7-0.2c0.4,0,0.8,0.1,1.1,0.4
		S87.5,145.1,87.5,145.6z"/>
	<path class="st1" d="M89.8,143.1v1.2h0.7v0.8h-0.7v2.3c0,0.1,0,0.2,0.1,0.3c0.1,0,0.2,0.1,0.4,0.1h0.2v0.8l-0.5,0h-0.1
		c-0.5,0-0.8-0.1-0.9-0.2c-0.1-0.1-0.2-0.4-0.2-0.7v-2.6h-0.6l0-0.8h0.6l0-1.2H89.8z"/>
	<path class="st1" d="M91.2,148.5l0-4.3h1.1l0,0.7c0.2-0.3,0.3-0.5,0.4-0.6c0.2-0.2,0.5-0.3,0.8-0.3h0.2l0,1.1c0,0-0.1,0-0.1,0
		c0,0-0.1,0-0.2,0c-0.4,0-0.7,0.1-0.8,0.3c-0.1,0.2-0.2,0.4-0.2,0.7v2.2H91.2z"/>
	<path class="st1" d="M97.7,145.4v2.3c0,0.2,0,0.4,0.1,0.5s0.1,0.1,0.2,0.2v0.2h-1.2c-0.1-0.2-0.1-0.3-0.1-0.5
		c-0.2,0.2-0.3,0.3-0.5,0.4c-0.2,0.1-0.5,0.2-0.9,0.2c-0.4,0-0.7-0.1-0.9-0.3c-0.3-0.2-0.4-0.5-0.4-1c0-0.4,0.1-0.7,0.3-0.9
		c0.2-0.2,0.5-0.4,0.9-0.4l1-0.2c0.2,0,0.3-0.1,0.3-0.1c0.1-0.1,0.1-0.1,0.1-0.2c0-0.2-0.1-0.3-0.3-0.4c-0.1,0-0.3-0.1-0.5-0.1
		c-0.2,0-0.4,0.1-0.5,0.2c-0.1,0.1-0.1,0.2-0.1,0.4h-1.1c0.1-0.6,0.3-1,0.7-1.2c0.3-0.2,0.7-0.3,1.2-0.3c0.4,0,0.8,0.1,1.1,0.2
		C97.5,144.6,97.7,144.9,97.7,145.4z M96.6,147v-0.5c-0.1,0-0.1,0.1-0.3,0.1c-0.1,0-0.3,0.1-0.5,0.1s-0.4,0.1-0.5,0.2
		c-0.1,0.1-0.2,0.3-0.2,0.5c0,0.2,0.1,0.3,0.2,0.4c0.1,0.1,0.2,0.1,0.3,0.1c0.3,0,0.5-0.1,0.7-0.2C96.5,147.5,96.6,147.3,96.6,147z"
		/>
	<path class="st1" d="M101.3,147h1.1c0,0.4-0.2,0.7-0.4,1c-0.4,0.4-0.9,0.7-1.5,0.7c-0.7,0-1.2-0.2-1.6-0.7
		c-0.3-0.4-0.4-0.8-0.4-1.4c0-0.7,0.2-1.3,0.5-1.7c0.3-0.4,0.9-0.7,1.6-0.7c0.4,0,0.8,0.1,1.2,0.3c0.4,0.3,0.7,0.7,0.7,1.3h-1.1
		c0-0.2-0.1-0.4-0.3-0.5c-0.1-0.1-0.3-0.1-0.5-0.1c-0.3,0-0.6,0.1-0.7,0.4c-0.1,0.2-0.2,0.5-0.2,0.8c0,0.5,0.1,0.9,0.2,1.1
		c0.1,0.2,0.4,0.3,0.7,0.3c0.2,0,0.4-0.1,0.6-0.3C101.2,147.3,101.3,147.1,101.3,147z"/>
	<path class="st1" d="M104.4,143.1v1.2h0.7v0.8h-0.7v2.3c0,0.1,0,0.2,0.1,0.3c0.1,0,0.2,0.1,0.4,0.1h0.2v0.8l-0.5,0h-0.1
		c-0.5,0-0.8-0.1-0.9-0.2c-0.1-0.1-0.2-0.4-0.2-0.7v-2.6h-0.6l0-0.8h0.6l0-1.2H104.4z"/>
</g>
<g>
	<g class="st5">
		<path class="st6" d="M21.4,67.9v-4.3h2.2c0.5,0,0.9,0.2,1.1,0.5c0.2,0.2,0.2,0.5,0.2,0.7c0,0.2-0.1,0.5-0.2,0.6
			c-0.1,0.2-0.3,0.3-0.5,0.4c0.2,0.1,0.3,0.2,0.4,0.3c0.1,0.2,0.1,0.4,0.1,0.8c0,0.3,0,0.6,0,0.7c0,0.1,0.1,0.2,0.2,0.2v0.1h-1
			c0-0.1-0.1-0.2-0.1-0.4c0-0.1,0-0.3,0-0.5c0-0.3,0-0.5-0.1-0.6c-0.1-0.1-0.3-0.2-0.6-0.2h-0.9v1.7H21.4z M22.3,65.5h1.1
			c0.2,0,0.4,0,0.5-0.1c0.1-0.1,0.2-0.2,0.2-0.5c0-0.1,0-0.3-0.1-0.4c-0.1-0.1-0.3-0.2-0.5-0.2h-1.1V65.5z"/>
		<path class="st6" d="M27.6,66.9h0.9c-0.1,0.4-0.3,0.6-0.6,0.8c-0.2,0.1-0.5,0.2-0.8,0.2c-0.5,0-0.9-0.1-1.1-0.4
			c-0.3-0.3-0.5-0.7-0.5-1.4c0-0.4,0.1-0.7,0.2-0.9c0.3-0.4,0.7-0.7,1.3-0.7c0.4,0,0.7,0.1,1,0.3c0.3,0.3,0.5,0.8,0.5,1.4l0,0.1
			h-2.2c0,0.3,0.1,0.5,0.2,0.6s0.3,0.2,0.5,0.2c0.1,0,0.2,0,0.3-0.1C27.5,67.1,27.6,67,27.6,66.9z M26.3,66h1.3
			c0-0.2-0.1-0.4-0.2-0.5c-0.1-0.1-0.2-0.1-0.4-0.1c-0.2,0-0.3,0.1-0.5,0.2C26.4,65.6,26.3,65.7,26.3,66z"/>
		<path class="st6" d="M31.2,64.7H32l0,4.4h-0.8v-1.6c-0.2,0.3-0.5,0.5-0.9,0.5c-0.5,0-0.8-0.2-1-0.6c-0.2-0.3-0.3-0.7-0.3-1.1
			c0-0.5,0.1-0.9,0.3-1.2c0.2-0.4,0.6-0.5,1.1-0.5c0.2,0,0.4,0.1,0.6,0.2c0.1,0.1,0.2,0.2,0.3,0.4L31.2,64.7z M29.7,66.3
			c0,0.3,0.1,0.5,0.2,0.7c0.1,0.2,0.3,0.2,0.6,0.2c0.2,0,0.4-0.1,0.5-0.2c0.1-0.2,0.2-0.4,0.2-0.7c0-0.4-0.1-0.7-0.3-0.8
			c-0.1-0.1-0.3-0.2-0.4-0.2c-0.2,0-0.4,0.1-0.5,0.2C29.8,65.7,29.7,66,29.7,66.3z"/>
		<path class="st6" d="M35.6,64.7v3.2h-0.8v-0.5c-0.2,0.4-0.5,0.5-1,0.5c-0.3,0-0.6-0.1-0.8-0.3c-0.2-0.2-0.3-0.5-0.3-0.9v-2.1h0.8
			v2c0,0.2,0.1,0.4,0.2,0.5c0.1,0.1,0.2,0.1,0.4,0.1c0.2,0,0.3,0,0.4-0.1c0.1-0.1,0.2-0.3,0.2-0.6v-1.8H35.6z"/>
		<path class="st6" d="M38.3,66.9h0.9c-0.1,0.4-0.3,0.6-0.6,0.8C38.3,67.9,38,68,37.7,68c-0.5,0-0.9-0.1-1.1-0.4
			c-0.3-0.3-0.5-0.7-0.5-1.4c0-0.4,0.1-0.7,0.2-0.9c0.3-0.4,0.7-0.7,1.3-0.7c0.4,0,0.7,0.1,1,0.3c0.3,0.3,0.5,0.8,0.5,1.4l0,0.1H37
			c0,0.3,0.1,0.5,0.2,0.6s0.3,0.2,0.5,0.2c0.1,0,0.2,0,0.3-0.1C38.2,67.1,38.2,67,38.3,66.9z M37,66h1.3c0-0.2-0.1-0.4-0.2-0.5
			c-0.1-0.1-0.2-0.1-0.4-0.1c-0.2,0-0.3,0.1-0.5,0.2C37.1,65.6,37,65.7,37,66z"/>
		<path class="st6" d="M42.3,65.7h-0.8c0-0.1-0.1-0.2-0.1-0.3c-0.1-0.1-0.2-0.1-0.4-0.1c-0.2,0-0.3,0-0.4,0.1
			c-0.1,0-0.1,0.1-0.1,0.2c0,0.1,0.2,0.2,0.5,0.3c0.5,0.1,0.8,0.2,1,0.3c0.3,0.2,0.5,0.4,0.5,0.8c0,0.4-0.2,0.7-0.5,0.9
			C41.7,67.9,41.4,68,41,68c-0.4,0-0.8-0.1-1-0.2c-0.3-0.2-0.5-0.5-0.5-0.9h0.9c0,0.1,0.1,0.3,0.2,0.3s0.3,0.1,0.5,0.1
			c0.2,0,0.3,0,0.4-0.1c0.1-0.1,0.1-0.1,0.1-0.2c0-0.1-0.2-0.2-0.5-0.3c-0.5-0.1-0.8-0.2-1-0.3c-0.3-0.2-0.5-0.4-0.5-0.8
			c0-0.3,0.1-0.5,0.3-0.7c0.2-0.2,0.6-0.4,1-0.4c0.4,0,0.7,0.1,1,0.2C42.2,65,42.3,65.2,42.3,65.7z"/>
		<path class="st6" d="M44,63.8v0.9h0.5v0.6H44V67c0,0.1,0,0.2,0.1,0.2c0,0,0.1,0.1,0.3,0.1h0.2v0.6l-0.4,0H44
			c-0.3,0-0.6-0.1-0.7-0.2c-0.1-0.1-0.2-0.3-0.2-0.5v-1.9h-0.4l0-0.6h0.4l0-0.9H44z"/>
		<path class="st6" d="M47.7,65.3v2.6h-0.8v-2.6h-0.5l0-0.6h0.5v-0.3c0-0.3,0.1-0.5,0.2-0.7c0.2-0.1,0.4-0.2,0.7-0.2h0.4v0.7H48
			c-0.1,0-0.2,0-0.2,0.1c0,0,0,0.1,0,0.3v0.1h0.5l0,0.6H47.7z"/>
		<path class="st6" d="M51.8,66.3c0,0.5-0.2,1-0.5,1.3C51,67.8,50.6,68,50.2,68s-0.8-0.1-1.1-0.4c-0.3-0.3-0.5-0.7-0.5-1.3
			c0-0.5,0.2-1,0.5-1.3c0.3-0.3,0.7-0.4,1.1-0.4s0.8,0.1,1.1,0.4C51.6,65.3,51.8,65.7,51.8,66.3z M50.9,66.3c0-0.3,0-0.5-0.1-0.6
			c-0.1-0.2-0.3-0.3-0.6-0.3c-0.3,0-0.5,0.1-0.6,0.3c-0.1,0.2-0.1,0.4-0.1,0.6c0,0.3,0,0.5,0.1,0.6c0.1,0.2,0.3,0.3,0.6,0.3
			c0.3,0,0.5-0.1,0.6-0.3C50.9,66.7,50.9,66.5,50.9,66.3z"/>
		<path class="st6" d="M52.4,67.9l0-3.2h0.8l0,0.6c0.1-0.2,0.2-0.4,0.3-0.4c0.1-0.1,0.3-0.2,0.6-0.2h0.2l0,0.9c0,0-0.1,0-0.1,0
			s-0.1,0-0.1,0c-0.3,0-0.5,0.1-0.6,0.2c-0.1,0.1-0.1,0.3-0.1,0.5v1.7H52.4z"/>
		<path class="st6" d="M57.2,63.6v4.3h-0.8v-4.3H57.2z"/>
		<path class="st6" d="M61.1,66.3c0,0.5-0.2,1-0.5,1.3C60.3,67.8,60,68,59.5,68c-0.5,0-0.8-0.1-1.1-0.4c-0.3-0.3-0.5-0.7-0.5-1.3
			c0-0.5,0.2-1,0.5-1.3c0.3-0.3,0.7-0.4,1.1-0.4c0.5,0,0.8,0.1,1.1,0.4C61,65.3,61.1,65.7,61.1,66.3z M60.3,66.3
			c0-0.3,0-0.5-0.1-0.6c-0.1-0.2-0.3-0.3-0.6-0.3c-0.3,0-0.5,0.1-0.6,0.3c-0.1,0.2-0.1,0.4-0.1,0.6c0,0.3,0,0.5,0.1,0.6
			c0.1,0.2,0.3,0.3,0.6,0.3c0.3,0,0.5-0.1,0.6-0.3C60.2,66.7,60.3,66.5,60.3,66.3z"/>
		<path class="st6" d="M63.6,66.7h0.9c0,0.3-0.1,0.5-0.3,0.7C63.9,67.8,63.5,68,63,68c-0.5,0-0.9-0.2-1.2-0.5
			c-0.2-0.3-0.3-0.6-0.3-1c0-0.5,0.1-1,0.4-1.3c0.3-0.3,0.7-0.5,1.2-0.5c0.3,0,0.6,0.1,0.9,0.2c0.3,0.2,0.5,0.5,0.6,1h-0.9
			c0-0.2-0.1-0.3-0.2-0.4c-0.1-0.1-0.2-0.1-0.3-0.1c-0.2,0-0.4,0.1-0.5,0.3c-0.1,0.2-0.1,0.4-0.1,0.6c0,0.4,0.1,0.6,0.2,0.8
			c0.1,0.2,0.3,0.2,0.5,0.2c0.2,0,0.3-0.1,0.4-0.2C63.6,66.9,63.6,66.8,63.6,66.7z"/>
		<path class="st6" d="M65.9,66.9v1h-0.8v-4.3h0.8v2.3l1.1-1.2h1l-1.1,1.2l1.2,2h-1l-0.8-1.4L65.9,66.9z"/>
		<path class="st6" d="M69.4,63.5v0.8h-0.8v-0.8H69.4z M68.5,64.7h0.8v3.2h-0.8V64.7z"/>
		<path class="st6" d="M73.1,65.7v2.2h-0.8v-1.9c0-0.2,0-0.3-0.1-0.4c-0.1-0.2-0.2-0.2-0.5-0.2c-0.2,0-0.3,0.1-0.5,0.2
			S71,65.8,71,66v1.8h-0.8v-3.2H71v0.5c0.1-0.2,0.3-0.3,0.4-0.4s0.3-0.1,0.5-0.1c0.3,0,0.6,0.1,0.8,0.3C73,65.1,73.1,65.3,73.1,65.7
			z"/>
		<path class="st6" d="M76,64.7h0.8v3c0,0.4-0.1,0.7-0.2,0.9c-0.2,0.4-0.7,0.5-1.4,0.5c-0.4,0-0.7-0.1-0.9-0.2
			c-0.3-0.2-0.4-0.4-0.4-0.7h0.9c0,0.1,0.1,0.2,0.1,0.2c0.1,0.1,0.2,0.1,0.5,0.1c0.4,0,0.7-0.2,0.7-0.7v-0.4l0,0
			c-0.1,0.1-0.2,0.3-0.3,0.3c-0.1,0.1-0.3,0.1-0.6,0.1c-0.4,0-0.7-0.1-1-0.4c-0.3-0.3-0.4-0.7-0.4-1.2c0-0.5,0.1-0.9,0.4-1.2
			c0.2-0.3,0.5-0.4,0.9-0.4c0.3,0,0.5,0.1,0.7,0.2c0.1,0.1,0.2,0.2,0.3,0.4L76,64.7z M74.6,66.3c0,0.2,0,0.4,0.1,0.6
			c0.1,0.2,0.3,0.3,0.5,0.3c0.3,0,0.4-0.1,0.6-0.3c0.1-0.2,0.2-0.4,0.2-0.6c0-0.3-0.1-0.5-0.2-0.7c-0.1-0.2-0.3-0.3-0.5-0.3
			c-0.2,0-0.3,0.1-0.4,0.2C74.6,65.7,74.6,66,74.6,66.3z"/>
		<path class="st6" d="M82.4,63.6v0.8h-2.3v0.9h2.1V66h-2.1v1.1h2.4v0.8h-3.3v-4.3H82.4z"/>
		<path class="st6" d="M85.1,64.3v3.5h-0.9v-3.5h-1.3v-0.8h3.5v0.8H85.1z"/>
		<path class="st6" d="M89.5,65.9h-1.7v1.9h-0.9v-4.3h0.9v1.6h1.7v-1.6h0.9v4.3h-0.9V65.9z"/>
	</g>
</g>
<g class="st5">
	<path class="st6" d="M9,77.2v-4.3h1.9c0.6,0,1.1,0.2,1.4,0.7c0.2,0.4,0.3,0.8,0.3,1.3c0,0.6-0.1,1.1-0.4,1.5
		c-0.3,0.5-0.8,0.8-1.4,0.8H9z M9.9,73.6l0,2.8h0.9c0.3,0,0.6-0.2,0.8-0.5c0.1-0.3,0.2-0.6,0.2-1c0-0.6-0.1-0.9-0.4-1.2
		c-0.2-0.1-0.4-0.2-0.6-0.2H9.9z"/>
	<path class="st6" d="M15.1,76.3H16c-0.1,0.4-0.3,0.6-0.6,0.8c-0.2,0.1-0.5,0.2-0.8,0.2c-0.5,0-0.9-0.1-1.1-0.4
		c-0.3-0.3-0.5-0.7-0.5-1.4c0-0.4,0.1-0.7,0.2-0.9c0.3-0.4,0.7-0.7,1.3-0.7c0.4,0,0.7,0.1,1,0.3c0.3,0.3,0.5,0.8,0.5,1.4l0,0.1h-2.2
		c0,0.3,0.1,0.5,0.2,0.6s0.3,0.2,0.5,0.2c0.1,0,0.2,0,0.3-0.1C15,76.5,15.1,76.4,15.1,76.3z M13.9,75.3h1.3c0-0.2-0.1-0.4-0.2-0.5
		c-0.1-0.1-0.2-0.1-0.4-0.1c-0.2,0-0.3,0.1-0.5,0.2C14,74.9,13.9,75.1,13.9,75.3z"/>
	<path class="st6" d="M17.4,74l0,0.5c0.1-0.2,0.2-0.3,0.3-0.4c0.2-0.1,0.4-0.2,0.6-0.2c0.4,0,0.7,0.1,0.9,0.4
		c0.3,0.3,0.4,0.7,0.4,1.2c0,0.5-0.1,0.9-0.3,1.2c-0.2,0.4-0.6,0.5-1,0.5c-0.3,0-0.5-0.1-0.6-0.2c-0.1-0.1-0.2-0.2-0.3-0.3l0,1.7
		h-0.8V74H17.4z M17.4,75.7c0,0.3,0.1,0.5,0.2,0.6c0.1,0.2,0.3,0.3,0.6,0.3c0.2,0,0.4-0.1,0.6-0.3c0.1-0.2,0.1-0.4,0.1-0.6
		c0-0.3-0.1-0.5-0.2-0.7c-0.1-0.2-0.3-0.3-0.6-0.3c-0.3,0-0.5,0.1-0.6,0.3C17.4,75.1,17.4,75.4,17.4,75.7z"/>
	<path class="st6" d="M23.3,75.6c0,0.5-0.2,1-0.5,1.3c-0.3,0.3-0.7,0.4-1.1,0.4s-0.8-0.1-1.1-0.4c-0.3-0.3-0.5-0.7-0.5-1.3
		c0-0.5,0.2-1,0.5-1.3c0.3-0.3,0.7-0.4,1.1-0.4s0.8,0.1,1.1,0.4C23.2,74.6,23.3,75.1,23.3,75.6z M22.5,75.6c0-0.3,0-0.5-0.1-0.6
		c-0.1-0.2-0.3-0.3-0.6-0.3c-0.3,0-0.5,0.1-0.6,0.3c-0.1,0.2-0.1,0.4-0.1,0.6c0,0.3,0,0.5,0.1,0.6c0.1,0.2,0.3,0.3,0.6,0.3
		c0.3,0,0.5-0.1,0.6-0.3C22.4,76.1,22.5,75.9,22.5,75.6z"/>
	<path class="st6" d="M26.6,75h-0.8c0-0.1-0.1-0.2-0.1-0.3c-0.1-0.1-0.2-0.1-0.4-0.1c-0.2,0-0.3,0-0.4,0.1c-0.1,0-0.1,0.1-0.1,0.2
		c0,0.1,0.2,0.2,0.5,0.3c0.5,0.1,0.8,0.2,1,0.3c0.3,0.2,0.5,0.4,0.5,0.8c0,0.4-0.2,0.7-0.5,0.9c-0.2,0.1-0.5,0.2-0.9,0.2
		c-0.4,0-0.8-0.1-1-0.2c-0.3-0.2-0.5-0.5-0.5-0.9h0.9c0,0.1,0.1,0.3,0.2,0.3s0.3,0.1,0.5,0.1c0.2,0,0.3,0,0.4-0.1
		c0.1-0.1,0.1-0.1,0.1-0.2c0-0.1-0.2-0.2-0.5-0.3c-0.5-0.1-0.8-0.2-1-0.3c-0.3-0.2-0.5-0.4-0.5-0.8c0-0.3,0.1-0.5,0.3-0.7
		c0.2-0.2,0.6-0.4,1-0.4c0.4,0,0.7,0.1,1,0.2C26.4,74.3,26.6,74.6,26.6,75z"/>
	<path class="st6" d="M28.1,72.9v0.8h-0.8v-0.8H28.1z M27.3,74h0.8v3.2h-0.8V74z"/>
	<path class="st6" d="M29.9,73.1V74h0.5v0.6h-0.5v1.7c0,0.1,0,0.2,0.1,0.2c0,0,0.1,0.1,0.3,0.1h0.2v0.6l-0.4,0h-0.1
		c-0.3,0-0.6-0.1-0.7-0.2C29.1,77,29,76.8,29,76.5v-1.9h-0.4l0-0.6H29l0-0.9H29.9z"/>
	<path class="st6" d="M35.8,72.9v0.8h-2.3v0.9h2.1v0.8h-2.1v1.1h2.4v0.8h-3.3v-4.3H35.8z"/>
	<path class="st6" d="M38.5,73.7v3.5h-0.9v-3.5h-1.3v-0.8h3.5v0.8H38.5z"/>
	<path class="st6" d="M42.9,75.3h-1.7v1.9h-0.9v-4.3h0.9v1.6h1.7v-1.6h0.9v4.3h-0.9V75.3z"/>
	<path class="st6" d="M47.2,73.1V74h0.5v0.6h-0.5v1.7c0,0.1,0,0.2,0.1,0.2c0,0,0.1,0.1,0.3,0.1h0.2v0.6l-0.4,0h-0.1
		c-0.3,0-0.6-0.1-0.7-0.2c-0.1-0.1-0.2-0.3-0.2-0.5v-1.9h-0.4l0-0.6h0.4l0-0.9H47.2z"/>
	<path class="st6" d="M51.3,75.6c0,0.5-0.2,1-0.5,1.3c-0.3,0.3-0.7,0.4-1.1,0.4s-0.8-0.1-1.1-0.4c-0.3-0.3-0.5-0.7-0.5-1.3
		c0-0.5,0.2-1,0.5-1.3c0.3-0.3,0.7-0.4,1.1-0.4s0.8,0.1,1.1,0.4C51.2,74.6,51.3,75.1,51.3,75.6z M50.5,75.6c0-0.3,0-0.5-0.1-0.6
		c-0.1-0.2-0.3-0.3-0.6-0.3c-0.3,0-0.5,0.1-0.6,0.3c-0.1,0.2-0.1,0.4-0.1,0.6c0,0.3,0,0.5,0.1,0.6c0.1,0.2,0.3,0.3,0.6,0.3
		c0.3,0,0.5-0.1,0.6-0.3C50.4,76.1,50.5,75.9,50.5,75.6z"/>
	<path class="st6" d="M57.3,74.3h-0.9c-0.1-0.2-0.1-0.4-0.2-0.5c-0.2-0.2-0.4-0.3-0.7-0.3c-0.3,0-0.5,0.1-0.7,0.3
		c-0.2,0.3-0.4,0.7-0.4,1.2c0,0.4,0.1,0.8,0.2,1c0.2,0.3,0.5,0.4,0.8,0.4c0.3,0,0.5-0.1,0.6-0.2s0.3-0.3,0.3-0.6h0.9
		c-0.1,0.5-0.3,0.9-0.6,1.1c-0.3,0.3-0.8,0.4-1.3,0.4c-0.6,0-1.1-0.2-1.4-0.6c-0.4-0.4-0.6-1-0.6-1.7c0-0.7,0.2-1.3,0.6-1.7
		c0.4-0.4,0.8-0.6,1.4-0.6s1,0.2,1.4,0.5C57.1,73.6,57.3,73.9,57.3,74.3z"/>
	<path class="st6" d="M61,75.6c0,0.5-0.2,1-0.5,1.3c-0.3,0.3-0.7,0.4-1.1,0.4s-0.8-0.1-1.1-0.4c-0.3-0.3-0.5-0.7-0.5-1.3
		c0-0.5,0.2-1,0.5-1.3c0.3-0.3,0.7-0.4,1.1-0.4s0.8,0.1,1.1,0.4C60.8,74.6,61,75.1,61,75.6z M60.1,75.6c0-0.3,0-0.5-0.1-0.6
		c-0.1-0.2-0.3-0.3-0.6-0.3c-0.3,0-0.5,0.1-0.6,0.3c-0.1,0.2-0.1,0.4-0.1,0.6c0,0.3,0,0.5,0.1,0.6c0.1,0.2,0.3,0.3,0.6,0.3
		c0.3,0,0.5-0.1,0.6-0.3C60.1,76.1,60.1,75.9,60.1,75.6z"/>
	<path class="st6" d="M64.5,75v2.2h-0.8v-1.9c0-0.2,0-0.3-0.1-0.4c-0.1-0.2-0.2-0.2-0.5-0.2c-0.2,0-0.3,0.1-0.5,0.2
		c-0.1,0.1-0.2,0.3-0.2,0.5v1.8h-0.8V74h0.8v0.5c0.1-0.2,0.3-0.3,0.4-0.4c0.2-0.1,0.3-0.1,0.5-0.1c0.3,0,0.6,0.1,0.8,0.3
		C64.4,74.4,64.5,74.7,64.5,75z"/>
	<path class="st6" d="M66.2,73.1V74h0.5v0.6h-0.5v1.7c0,0.1,0,0.2,0.1,0.2c0,0,0.1,0.1,0.3,0.1h0.2v0.6l-0.4,0h-0.1
		c-0.3,0-0.6-0.1-0.7-0.2c-0.1-0.1-0.2-0.3-0.2-0.5v-1.9h-0.4l0-0.6h0.4l0-0.9H66.2z"/>
	<path class="st6" d="M67.3,77.2l0-3.2h0.8l0,0.6c0.1-0.2,0.2-0.4,0.3-0.4c0.1-0.1,0.3-0.2,0.6-0.2h0.2l0,0.9c0,0-0.1,0-0.1,0
		s-0.1,0-0.1,0c-0.3,0-0.5,0.1-0.6,0.2c-0.1,0.1-0.1,0.3-0.1,0.5v1.7H67.3z"/>
	<path class="st6" d="M72.2,74.9v1.7c0,0.2,0,0.3,0,0.4s0.1,0.1,0.1,0.1v0.1h-0.9c0-0.1-0.1-0.2-0.1-0.4c-0.1,0.1-0.3,0.2-0.4,0.3
		c-0.2,0.1-0.4,0.2-0.7,0.2c-0.3,0-0.5-0.1-0.7-0.2c-0.2-0.2-0.3-0.4-0.3-0.7c0-0.3,0.1-0.5,0.2-0.7s0.4-0.3,0.7-0.3l0.8-0.1
		c0.1,0,0.2,0,0.2-0.1s0.1-0.1,0.1-0.2c0-0.2-0.1-0.3-0.2-0.3c-0.1,0-0.2-0.1-0.4-0.1c-0.2,0-0.3,0-0.4,0.1
		c-0.1,0.1-0.1,0.2-0.1,0.3h-0.8c0-0.4,0.2-0.7,0.5-0.9c0.2-0.1,0.5-0.2,0.9-0.2c0.3,0,0.6,0.1,0.8,0.2C72,74.2,72.2,74.5,72.2,74.9
		z M71.4,76.1v-0.4c0,0-0.1,0.1-0.2,0.1s-0.2,0.1-0.4,0.1c-0.2,0-0.3,0.1-0.4,0.1c-0.1,0.1-0.2,0.2-0.2,0.4c0,0.1,0,0.2,0.1,0.3
		c0.1,0.1,0.2,0.1,0.3,0.1c0.2,0,0.4-0.1,0.5-0.2C71.3,76.4,71.4,76.2,71.4,76.1z"/>
	<path class="st6" d="M74.8,76h0.9c0,0.3-0.1,0.5-0.3,0.7c-0.3,0.3-0.6,0.5-1.2,0.5c-0.5,0-0.9-0.2-1.2-0.5c-0.2-0.3-0.3-0.6-0.3-1
		c0-0.5,0.1-1,0.4-1.3c0.3-0.3,0.6-0.5,1.2-0.5c0.3,0,0.6,0.1,0.9,0.2c0.3,0.2,0.5,0.5,0.6,1h-0.9c0-0.2-0.1-0.3-0.2-0.4
		c-0.1-0.1-0.2-0.1-0.3-0.1c-0.2,0-0.4,0.1-0.5,0.3c-0.1,0.2-0.1,0.4-0.1,0.6c0,0.4,0.1,0.6,0.2,0.8c0.1,0.2,0.3,0.2,0.5,0.2
		c0.2,0,0.3-0.1,0.4-0.2C74.8,76.3,74.8,76.1,74.8,76z"/>
	<path class="st6" d="M77.2,73.1V74h0.5v0.6h-0.5v1.7c0,0.1,0,0.2,0.1,0.2c0,0,0.1,0.1,0.3,0.1h0.2v0.6l-0.4,0h-0.1
		c-0.3,0-0.6-0.1-0.7-0.2c-0.1-0.1-0.2-0.3-0.2-0.5v-1.9h-0.4l0-0.6h0.4l0-0.9H77.2z"/>
	<path class="st6" d="M82.5,74.9v1.7c0,0.2,0,0.3,0,0.4s0.1,0.1,0.1,0.1v0.1h-0.9c0-0.1-0.1-0.2-0.1-0.4c-0.1,0.1-0.3,0.2-0.4,0.3
		c-0.2,0.1-0.4,0.2-0.7,0.2c-0.3,0-0.5-0.1-0.7-0.2c-0.2-0.2-0.3-0.4-0.3-0.7c0-0.3,0.1-0.5,0.2-0.7s0.4-0.3,0.7-0.3l0.8-0.1
		c0.1,0,0.2,0,0.2-0.1s0.1-0.1,0.1-0.2c0-0.2-0.1-0.3-0.2-0.3c-0.1,0-0.2-0.1-0.4-0.1c-0.2,0-0.3,0-0.4,0.1
		c-0.1,0.1-0.1,0.2-0.1,0.3h-0.8c0-0.4,0.2-0.7,0.5-0.9c0.2-0.1,0.5-0.2,0.9-0.2c0.3,0,0.6,0.1,0.8,0.2
		C82.4,74.2,82.5,74.5,82.5,74.9z M81.7,76.1v-0.4c0,0-0.1,0.1-0.2,0.1s-0.2,0.1-0.4,0.1c-0.2,0-0.3,0.1-0.4,0.1
		c-0.1,0.1-0.2,0.2-0.2,0.4c0,0.1,0,0.2,0.1,0.3c0.1,0.1,0.2,0.1,0.3,0.1c0.2,0,0.4-0.1,0.5-0.2C81.6,76.4,81.7,76.2,81.7,76.1z"/>
	<path class="st6" d="M86.2,72.9v4.3h-0.8v-0.4c-0.1,0.2-0.2,0.3-0.4,0.4c-0.2,0.1-0.3,0.1-0.5,0.1c-0.4,0-0.8-0.2-1-0.5
		c-0.2-0.3-0.3-0.7-0.3-1.2c0-0.5,0.1-0.9,0.4-1.2c0.2-0.3,0.5-0.4,0.9-0.4c0.2,0,0.5,0.1,0.6,0.2c0.1,0.1,0.2,0.2,0.3,0.3l0-1.5
		H86.2z M83.9,75.6c0,0.2,0,0.5,0.1,0.6c0.1,0.2,0.3,0.3,0.5,0.3c0.3,0,0.4-0.1,0.6-0.3c0.1-0.2,0.2-0.4,0.2-0.6
		c0-0.3,0-0.5-0.1-0.7c-0.1-0.2-0.3-0.3-0.6-0.3c-0.2,0-0.4,0.1-0.6,0.3C84,75.1,83.9,75.4,83.9,75.6z"/>
	<path class="st6" d="M89.9,72.9v4.3H89v-0.4c-0.1,0.2-0.2,0.3-0.4,0.4c-0.2,0.1-0.3,0.1-0.5,0.1c-0.4,0-0.8-0.2-1-0.5
		c-0.2-0.3-0.3-0.7-0.3-1.2c0-0.5,0.1-0.9,0.4-1.2c0.2-0.3,0.5-0.4,0.9-0.4c0.2,0,0.5,0.1,0.6,0.2c0.1,0.1,0.2,0.2,0.3,0.3l0-1.5
		H89.9z M87.6,75.6c0,0.2,0,0.5,0.1,0.6c0.1,0.2,0.3,0.3,0.5,0.3c0.3,0,0.4-0.1,0.6-0.3c0.1-0.2,0.2-0.4,0.2-0.6
		c0-0.3,0-0.5-0.1-0.7c-0.1-0.2-0.3-0.3-0.6-0.3c-0.2,0-0.4,0.1-0.6,0.3C87.7,75.1,87.6,75.4,87.6,75.6z"/>
	<path class="st6" d="M90.6,77.2l0-3.2h0.8l0,0.6c0.1-0.2,0.2-0.4,0.3-0.4c0.1-0.1,0.3-0.2,0.6-0.2h0.2l0,0.9c0,0-0.1,0-0.1,0
		s-0.1,0-0.1,0c-0.3,0-0.5,0.1-0.6,0.2c-0.1,0.1-0.1,0.3-0.1,0.5v1.7H90.6z"/>
	<path class="st6" d="M94.8,76.3h0.9c-0.1,0.4-0.3,0.6-0.6,0.8c-0.2,0.1-0.5,0.2-0.8,0.2c-0.5,0-0.9-0.1-1.1-0.4
		c-0.3-0.3-0.5-0.7-0.5-1.4c0-0.4,0.1-0.7,0.2-0.9c0.3-0.4,0.7-0.7,1.3-0.7c0.4,0,0.7,0.1,1,0.3c0.3,0.3,0.5,0.8,0.5,1.4l0,0.1h-2.2
		c0,0.3,0.1,0.5,0.2,0.6c0.1,0.1,0.3,0.2,0.5,0.2c0.1,0,0.2,0,0.3-0.1C94.7,76.5,94.8,76.4,94.8,76.3z M93.5,75.3h1.3
		c0-0.2-0.1-0.4-0.2-0.5c-0.1-0.1-0.2-0.1-0.4-0.1c-0.2,0-0.3,0.1-0.5,0.2S93.6,75.1,93.5,75.3z"/>
	<path class="st6" d="M98.9,75h-0.8c0-0.1-0.1-0.2-0.1-0.3c-0.1-0.1-0.2-0.1-0.4-0.1c-0.2,0-0.3,0-0.4,0.1c-0.1,0-0.1,0.1-0.1,0.2
		c0,0.1,0.2,0.2,0.5,0.3c0.5,0.1,0.8,0.2,1,0.3c0.3,0.2,0.5,0.4,0.5,0.8c0,0.4-0.2,0.7-0.5,0.9c-0.2,0.1-0.5,0.2-0.9,0.2
		c-0.4,0-0.8-0.1-1-0.2c-0.3-0.2-0.5-0.5-0.5-0.9h0.9c0,0.1,0.1,0.3,0.2,0.3c0.1,0.1,0.3,0.1,0.5,0.1c0.2,0,0.3,0,0.4-0.1
		c0.1-0.1,0.1-0.1,0.1-0.2c0-0.1-0.2-0.2-0.5-0.3c-0.5-0.1-0.8-0.2-1-0.3c-0.3-0.2-0.5-0.4-0.5-0.8c0-0.3,0.1-0.5,0.3-0.7
		c0.2-0.2,0.6-0.4,1-0.4c0.4,0,0.7,0.1,1,0.2C98.7,74.3,98.9,74.6,98.9,75z"/>
	<path class="st6" d="M102.2,75h-0.8c0-0.1-0.1-0.2-0.1-0.3c-0.1-0.1-0.2-0.1-0.4-0.1c-0.2,0-0.3,0-0.4,0.1c-0.1,0-0.1,0.1-0.1,0.2
		c0,0.1,0.2,0.2,0.5,0.3c0.5,0.1,0.8,0.2,1,0.3c0.3,0.2,0.5,0.4,0.5,0.8c0,0.4-0.2,0.7-0.5,0.9c-0.2,0.1-0.5,0.2-0.9,0.2
		c-0.4,0-0.8-0.1-1-0.2c-0.3-0.2-0.5-0.5-0.5-0.9h0.9c0,0.1,0.1,0.3,0.2,0.3c0.1,0.1,0.3,0.1,0.5,0.1c0.2,0,0.3,0,0.4-0.1
		c0.1-0.1,0.1-0.1,0.1-0.2c0-0.1-0.2-0.2-0.5-0.3c-0.5-0.1-0.8-0.2-1-0.3c-0.3-0.2-0.5-0.4-0.5-0.8c0-0.3,0.1-0.5,0.3-0.7
		c0.2-0.2,0.6-0.4,1-0.4c0.4,0,0.7,0.1,1,0.2C102.1,74.3,102.2,74.6,102.2,75z"/>
</g>
</svg>
