<?xml version="1.0" encoding="utf-8"?>
<!-- Generator: Adobe Illustrator 22.0.1, SVG Export Plug-In . SVG Version: 6.00 Build 0)  -->
<svg version="1.1" id="图层_1" xmlns="http://www.w3.org/2000/svg" xmlns:xlink="http://www.w3.org/1999/xlink" x="0px" y="0px"
	 viewBox="0 0 225.1 174.6" style="enable-background:new 0 0 225.1 174.6;" xml:space="preserve">
<style type="text/css">
	.st0{fill:#E0CC1E;}
	.st1{fill:none;stroke:#1A1A1A;stroke-miterlimit:10;}
	.st2{fill:#FFFFFF;}
	.st3{fill:#1A1A1A;}
	.st4{enable-background:new    ;}
	.st5{fill:#9B9B9B;}
</style>
<rect x="108.1" y="32.7" class="st0" width="3" height="35.3"/>
<polygon class="st0" points="114,65.5 109.6,73.1 105.2,65.5 "/>
<rect x="108.1" y="101.8" class="st0" width="3" height="36.2"/>
<polygon class="st0" points="114,135.6 109.6,143.2 105.2,135.6 "/>
<path class="st1" d="M153.4,17.8c0,5.3-4.7,9.6-10.5,9.6H76.3c-5.8,0-10.5-4.3-10.5-9.6s4.7-9.6,10.5-9.6h66.6
	C148.7,8.2,153.4,12.5,153.4,17.8z"/>
<rect x="76.6" y="39.3" class="st2" width="66" height="10.9"/>
<path class="st1" d="M165.3,156.8c0,5.3-4.3,9.6-9.6,9.6H63.5c-5.3,0-9.6-4.3-9.6-9.6s4.3-9.6,9.6-9.6h92.3
	C161,147.2,165.3,151.5,165.3,156.8z"/>
<rect x="76.6" y="111.5" class="st2" width="66" height="10.9"/>
<path class="st3" d="M153.4,86.9c0,5.3-4.7,9.6-10.5,9.6H76.3c-5.8,0-10.5-4.3-10.5-9.6s4.7-9.6,10.5-9.6h66.6
	C148.7,77.3,153.4,81.6,153.4,86.9"/>
<g class="st4">
	<path d="M82.2,16.8H81c-0.1-0.3-0.2-0.5-0.3-0.6c-0.2-0.2-0.5-0.4-1-0.4c-0.4,0-0.7,0.1-0.9,0.4c-0.3,0.4-0.5,0.9-0.5,1.6
		c0,0.6,0.1,1,0.3,1.4c0.3,0.4,0.6,0.6,1.1,0.6c0.3,0,0.6-0.1,0.8-0.3s0.4-0.5,0.4-0.8h1.2c-0.1,0.7-0.4,1.2-0.8,1.5
		c-0.4,0.4-1,0.6-1.7,0.6c-0.8,0-1.4-0.3-1.9-0.8c-0.5-0.5-0.7-1.3-0.7-2.3s0.3-1.7,0.8-2.3c0.5-0.5,1.1-0.8,1.9-0.8
		c0.8,0,1.4,0.2,1.9,0.7C81.9,15.8,82.1,16.3,82.2,16.8z"/>
	<path d="M87.1,18.5c0,0.7-0.2,1.3-0.7,1.7c-0.4,0.4-0.9,0.5-1.5,0.5c-0.6,0-1.1-0.2-1.5-0.5c-0.4-0.4-0.7-1-0.7-1.7
		c0-0.7,0.2-1.3,0.7-1.7c0.4-0.4,0.9-0.5,1.5-0.5s1.1,0.2,1.5,0.5C86.9,17.2,87.1,17.8,87.1,18.5z M85.9,18.5c0-0.4-0.1-0.6-0.2-0.8
		c-0.2-0.3-0.5-0.4-0.8-0.4c-0.4,0-0.7,0.1-0.8,0.4c-0.1,0.2-0.2,0.5-0.2,0.9c0,0.4,0.1,0.6,0.2,0.8c0.2,0.3,0.5,0.4,0.8,0.4
		c0.4,0,0.7-0.1,0.8-0.4C85.9,19.2,85.9,18.9,85.9,18.5z"/>
	<path d="M91.7,17.7v2.9h-1.1v-2.6c0-0.2,0-0.4-0.1-0.5c-0.1-0.2-0.3-0.3-0.6-0.3c-0.3,0-0.5,0.1-0.6,0.3S89,17.9,89,18.2v2.4h-1.1
		v-4.3h1.1V17c0.2-0.3,0.4-0.5,0.6-0.6c0.2-0.1,0.4-0.2,0.7-0.2c0.4,0,0.8,0.1,1.1,0.4S91.7,17.3,91.7,17.7z"/>
	<path d="M94,15.3v1.2h0.7v0.8H94v2.3c0,0.1,0,0.2,0.1,0.3c0.1,0,0.2,0.1,0.4,0.1h0.2v0.8l-0.5,0H94c-0.5,0-0.8-0.1-0.9-0.2
		c-0.1-0.1-0.2-0.4-0.2-0.7v-2.6h-0.6l0-0.8h0.6l0-1.2H94z"/>
	<path d="M95.4,20.7l0-4.3h1.1l0,0.7c0.2-0.3,0.3-0.5,0.4-0.6c0.2-0.2,0.5-0.3,0.8-0.3h0.2l0,1.1c0,0-0.1,0-0.1,0s-0.1,0-0.2,0
		c-0.4,0-0.7,0.1-0.8,0.3c-0.1,0.2-0.2,0.4-0.2,0.7v2.2H95.4z"/>
	<path d="M102,17.5v2.3c0,0.2,0,0.4,0.1,0.5s0.1,0.1,0.2,0.2v0.2H101c-0.1-0.2-0.1-0.3-0.1-0.5c-0.2,0.2-0.3,0.3-0.5,0.4
		c-0.2,0.1-0.5,0.2-0.9,0.2c-0.4,0-0.7-0.1-0.9-0.3c-0.3-0.2-0.4-0.5-0.4-1c0-0.4,0.1-0.7,0.3-0.9c0.2-0.2,0.5-0.4,0.9-0.4l1-0.2
		c0.2,0,0.3-0.1,0.3-0.1s0.1-0.1,0.1-0.2c0-0.2-0.1-0.3-0.3-0.4c-0.1,0-0.3-0.1-0.5-0.1c-0.2,0-0.4,0.1-0.5,0.2
		c-0.1,0.1-0.1,0.2-0.1,0.4h-1.1c0.1-0.6,0.3-1,0.7-1.2c0.3-0.2,0.7-0.3,1.2-0.3c0.4,0,0.8,0.1,1.1,0.2
		C101.8,16.7,102,17.1,102,17.5z M100.9,19.1v-0.5c-0.1,0-0.1,0.1-0.3,0.1c-0.1,0-0.3,0.1-0.5,0.1s-0.4,0.1-0.5,0.2
		c-0.1,0.1-0.2,0.3-0.2,0.5c0,0.2,0.1,0.3,0.2,0.4c0.1,0.1,0.2,0.1,0.3,0.1c0.3,0,0.5-0.1,0.7-0.2C100.8,19.6,100.9,19.4,100.9,19.1
		z"/>
	<path d="M105.5,19.1h1.1c0,0.4-0.2,0.7-0.4,1c-0.4,0.4-0.9,0.7-1.5,0.7c-0.7,0-1.2-0.2-1.6-0.7c-0.3-0.4-0.4-0.8-0.4-1.4
		c0-0.7,0.2-1.3,0.5-1.7c0.3-0.4,0.9-0.7,1.6-0.7c0.4,0,0.8,0.1,1.2,0.3c0.4,0.3,0.7,0.7,0.7,1.3h-1.1c0-0.2-0.1-0.4-0.3-0.5
		c-0.1-0.1-0.3-0.1-0.5-0.1c-0.3,0-0.6,0.1-0.7,0.4c-0.1,0.2-0.2,0.5-0.2,0.8c0,0.5,0.1,0.9,0.2,1.1s0.4,0.3,0.7,0.3
		c0.2,0,0.4-0.1,0.6-0.3C105.5,19.4,105.5,19.3,105.5,19.1z"/>
	<path d="M108.7,15.3v1.2h0.7v0.8h-0.7v2.3c0,0.1,0,0.2,0.1,0.3c0.1,0,0.2,0.1,0.4,0.1h0.2v0.8l-0.5,0h-0.1c-0.5,0-0.8-0.1-0.9-0.2
		c-0.1-0.1-0.2-0.4-0.2-0.7v-2.6H107l0-0.8h0.6l0-1.2H108.7z"/>
	<path d="M115.8,17.5v2.3c0,0.2,0,0.4,0.1,0.5s0.1,0.1,0.2,0.2v0.2h-1.2c-0.1-0.2-0.1-0.3-0.1-0.5c-0.2,0.2-0.3,0.3-0.5,0.4
		c-0.2,0.1-0.5,0.2-0.9,0.2c-0.4,0-0.7-0.1-0.9-0.3c-0.3-0.2-0.4-0.5-0.4-1c0-0.4,0.1-0.7,0.3-0.9c0.2-0.2,0.5-0.4,0.9-0.4l1-0.2
		c0.2,0,0.3-0.1,0.3-0.1c0.1-0.1,0.1-0.1,0.1-0.2c0-0.2-0.1-0.3-0.3-0.4c-0.1,0-0.3-0.1-0.5-0.1c-0.2,0-0.4,0.1-0.5,0.2
		c-0.1,0.1-0.1,0.2-0.1,0.4h-1.1c0.1-0.6,0.3-1,0.7-1.2c0.3-0.2,0.7-0.3,1.2-0.3c0.4,0,0.8,0.1,1.1,0.2
		C115.6,16.7,115.8,17.1,115.8,17.5z M114.7,19.1v-0.5c-0.1,0-0.1,0.1-0.3,0.1s-0.3,0.1-0.5,0.1c-0.2,0-0.4,0.1-0.5,0.2
		c-0.1,0.1-0.2,0.3-0.2,0.5c0,0.2,0.1,0.3,0.2,0.4c0.1,0.1,0.2,0.1,0.3,0.1c0.3,0,0.5-0.1,0.7-0.2S114.7,19.4,114.7,19.1z"/>
	<path d="M120.7,14.9v5.7h-1.1v-0.5c-0.1,0.2-0.3,0.4-0.6,0.5c-0.2,0.1-0.4,0.1-0.7,0.1c-0.6,0-1-0.2-1.4-0.7
		c-0.3-0.4-0.4-0.9-0.4-1.6c0-0.7,0.2-1.3,0.5-1.6c0.3-0.4,0.7-0.5,1.2-0.5c0.3,0,0.6,0.1,0.8,0.2c0.2,0.1,0.3,0.2,0.4,0.4l0-2
		H120.7z M117.7,18.6c0,0.3,0.1,0.6,0.2,0.8c0.2,0.3,0.4,0.5,0.7,0.5c0.3,0,0.6-0.1,0.8-0.4c0.2-0.2,0.2-0.5,0.2-0.8
		c0-0.4-0.1-0.7-0.2-0.9c-0.2-0.3-0.4-0.4-0.8-0.4c-0.3,0-0.6,0.1-0.7,0.4C117.7,17.9,117.7,18.2,117.7,18.6z"/>
	<path d="M125.5,14.9v5.7h-1.1v-0.5c-0.1,0.2-0.3,0.4-0.6,0.5c-0.2,0.1-0.4,0.1-0.7,0.1c-0.6,0-1-0.2-1.4-0.7
		c-0.3-0.4-0.4-0.9-0.4-1.6c0-0.7,0.2-1.3,0.5-1.6c0.3-0.4,0.7-0.5,1.2-0.5c0.3,0,0.6,0.1,0.8,0.2c0.2,0.1,0.3,0.2,0.4,0.4l0-2
		H125.5z M122.6,18.6c0,0.3,0.1,0.6,0.2,0.8c0.2,0.3,0.4,0.5,0.7,0.5c0.3,0,0.6-0.1,0.8-0.4c0.2-0.2,0.2-0.5,0.2-0.8
		c0-0.4-0.1-0.7-0.2-0.9c-0.2-0.3-0.4-0.4-0.8-0.4c-0.3,0-0.6,0.1-0.7,0.4C122.6,17.9,122.6,18.2,122.6,18.6z"/>
	<path d="M126.5,20.7l0-4.3h1.1l0,0.7c0.2-0.3,0.3-0.5,0.4-0.6c0.2-0.2,0.5-0.3,0.8-0.3h0.2l0,1.1c0,0-0.1,0-0.1,0c0,0-0.1,0-0.2,0
		c-0.4,0-0.7,0.1-0.8,0.3c-0.1,0.2-0.2,0.4-0.2,0.7v2.2H126.5z"/>
	<path d="M132.2,19.4h1.1c-0.1,0.5-0.4,0.8-0.8,1.1c-0.3,0.2-0.7,0.3-1.1,0.3c-0.7,0-1.2-0.2-1.5-0.5c-0.4-0.4-0.6-1-0.6-1.8
		c0-0.5,0.1-0.9,0.3-1.3c0.3-0.6,0.9-0.9,1.7-0.9c0.5,0,1,0.1,1.3,0.4c0.5,0.4,0.7,1,0.7,1.9l0,0.2h-2.9c0,0.4,0.1,0.6,0.3,0.8
		c0.2,0.2,0.4,0.2,0.7,0.2c0.2,0,0.3,0,0.5-0.1S132.1,19.6,132.2,19.4z M130.5,18.1h1.7c0-0.3-0.1-0.5-0.3-0.7
		c-0.1-0.1-0.3-0.2-0.5-0.2c-0.3,0-0.5,0.1-0.6,0.2C130.6,17.6,130.5,17.8,130.5,18.1z"/>
	<path d="M137.6,17.7h-1.1c0-0.2-0.1-0.3-0.2-0.4c-0.1-0.1-0.3-0.2-0.6-0.2c-0.3,0-0.5,0-0.6,0.1c-0.1,0.1-0.1,0.2-0.1,0.3
		c0,0.2,0.2,0.3,0.7,0.4c0.7,0.1,1.1,0.3,1.3,0.4c0.5,0.2,0.7,0.6,0.7,1c0,0.5-0.2,0.9-0.7,1.2c-0.3,0.2-0.7,0.3-1.2,0.3
		c-0.6,0-1-0.1-1.4-0.3c-0.4-0.3-0.7-0.6-0.7-1.2h1.2c0,0.2,0.1,0.4,0.2,0.5c0.1,0.1,0.4,0.2,0.7,0.2c0.3,0,0.4-0.1,0.6-0.2
		c0.1-0.1,0.1-0.2,0.1-0.3c0-0.2-0.2-0.3-0.7-0.4c-0.7-0.1-1.1-0.3-1.3-0.3c-0.5-0.2-0.7-0.5-0.7-1c0-0.4,0.1-0.7,0.4-0.9
		c0.3-0.3,0.8-0.5,1.4-0.5c0.5,0,1,0.1,1.3,0.2C137.4,16.8,137.6,17.2,137.6,17.7z"/>
	<path d="M142.1,17.7H141c0-0.2-0.1-0.3-0.2-0.4c-0.1-0.1-0.3-0.2-0.6-0.2c-0.3,0-0.5,0-0.6,0.1c-0.1,0.1-0.1,0.2-0.1,0.3
		c0,0.2,0.2,0.3,0.7,0.4c0.7,0.1,1.1,0.3,1.3,0.4c0.5,0.2,0.7,0.6,0.7,1c0,0.5-0.2,0.9-0.7,1.2c-0.3,0.2-0.7,0.3-1.2,0.3
		c-0.6,0-1-0.1-1.4-0.3c-0.4-0.3-0.7-0.6-0.7-1.2h1.2c0,0.2,0.1,0.4,0.2,0.5c0.1,0.1,0.4,0.2,0.7,0.2c0.3,0,0.4-0.1,0.6-0.2
		c0.1-0.1,0.1-0.2,0.1-0.3c0-0.2-0.2-0.3-0.7-0.4c-0.7-0.1-1.1-0.3-1.3-0.3c-0.5-0.2-0.7-0.5-0.7-1c0-0.4,0.1-0.7,0.4-0.9
		c0.3-0.3,0.8-0.5,1.4-0.5c0.5,0,1,0.1,1.3,0.2C141.8,16.8,142.1,17.2,142.1,17.7z"/>
</g>
<g class="st4">
	<path d="M61.5,153.9v4.7h2.9v1h-4.1v-5.7H61.5z"/>
	<path d="M69.2,157.5c0,0.7-0.2,1.3-0.7,1.7c-0.4,0.4-0.9,0.5-1.5,0.5c-0.6,0-1.1-0.2-1.5-0.5c-0.4-0.4-0.7-1-0.7-1.7
		c0-0.7,0.2-1.3,0.7-1.7c0.4-0.4,0.9-0.5,1.5-0.5s1.1,0.2,1.5,0.5C69,156.2,69.2,156.8,69.2,157.5z M68.1,157.5
		c0-0.4-0.1-0.6-0.2-0.8c-0.2-0.3-0.5-0.4-0.8-0.4c-0.4,0-0.7,0.1-0.8,0.4c-0.1,0.2-0.2,0.5-0.2,0.9c0,0.4,0.1,0.6,0.2,0.8
		c0.2,0.3,0.5,0.4,0.8,0.4c0.4,0,0.7-0.1,0.8-0.4C68,158.2,68.1,157.9,68.1,157.5z"/>
	<path d="M72.5,158.1h1.1c0,0.4-0.2,0.7-0.4,1c-0.4,0.4-0.9,0.7-1.5,0.7c-0.7,0-1.2-0.2-1.6-0.7c-0.3-0.4-0.4-0.8-0.4-1.4
		c0-0.7,0.2-1.3,0.5-1.7c0.3-0.4,0.9-0.7,1.6-0.7c0.4,0,0.8,0.1,1.2,0.3c0.4,0.3,0.7,0.7,0.7,1.3h-1.1c0-0.2-0.1-0.4-0.3-0.5
		c-0.1-0.1-0.3-0.1-0.5-0.1c-0.3,0-0.6,0.1-0.7,0.4c-0.1,0.2-0.2,0.5-0.2,0.8c0,0.5,0.1,0.9,0.2,1.1s0.4,0.3,0.7,0.3
		c0.2,0,0.4-0.1,0.6-0.3C72.5,158.4,72.5,158.3,72.5,158.1z"/>
	<path d="M75.6,158.3v1.3h-1.1v-5.7h1.1v3.1l1.4-1.6h1.4l-1.5,1.6l1.6,2.6h-1.3l-1-1.8L75.6,158.3z"/>
	<path d="M81.6,158.4h1.1c-0.1,0.5-0.4,0.8-0.8,1.1c-0.3,0.2-0.7,0.3-1.1,0.3c-0.7,0-1.2-0.2-1.5-0.5c-0.4-0.4-0.6-1-0.6-1.8
		c0-0.5,0.1-0.9,0.3-1.3c0.3-0.6,0.9-0.9,1.7-0.9c0.5,0,1,0.1,1.3,0.4c0.5,0.4,0.7,1,0.7,1.9l0,0.2h-2.9c0,0.4,0.1,0.6,0.3,0.8
		c0.2,0.2,0.4,0.2,0.7,0.2c0.2,0,0.3,0,0.5-0.1S81.5,158.6,81.6,158.4z M79.9,157.1h1.7c0-0.3-0.1-0.5-0.3-0.7
		c-0.1-0.1-0.3-0.2-0.5-0.2c-0.3,0-0.5,0.1-0.6,0.2C80,156.6,79.9,156.8,79.9,157.1z"/>
	<path d="M87.4,153.9v5.7h-1.1v-0.5c-0.1,0.2-0.3,0.4-0.6,0.5c-0.2,0.1-0.4,0.1-0.7,0.1c-0.6,0-1-0.2-1.4-0.7
		c-0.3-0.4-0.4-0.9-0.4-1.6c0-0.7,0.2-1.3,0.5-1.6c0.3-0.4,0.7-0.5,1.2-0.5c0.3,0,0.6,0.1,0.8,0.2c0.2,0.1,0.3,0.2,0.4,0.4l0-2H87.4
		z M84.4,157.6c0,0.3,0.1,0.6,0.2,0.8c0.2,0.3,0.4,0.5,0.7,0.5c0.3,0,0.6-0.1,0.8-0.4c0.2-0.2,0.2-0.5,0.2-0.8
		c0-0.4-0.1-0.7-0.2-0.9c-0.2-0.3-0.4-0.4-0.8-0.4c-0.3,0-0.6,0.1-0.7,0.4C84.5,156.9,84.4,157.2,84.4,157.6z"/>
	<path d="M91.7,153.9v2c0.2-0.2,0.4-0.4,0.6-0.5s0.4-0.1,0.7-0.1c0.5,0,0.9,0.2,1.2,0.5c0.4,0.4,0.5,0.9,0.5,1.6
		c0,0.6-0.1,1.2-0.4,1.6c-0.3,0.5-0.8,0.7-1.4,0.7c-0.3,0-0.5,0-0.7-0.1c-0.2-0.1-0.4-0.3-0.5-0.5l0,0.5h-1.1v-5.7H91.7z
		 M93.6,157.6c0-0.4-0.1-0.7-0.2-0.9c-0.2-0.3-0.4-0.4-0.8-0.4c-0.4,0-0.6,0.1-0.8,0.4c-0.1,0.2-0.2,0.5-0.2,0.9
		c0,0.3,0.1,0.6,0.2,0.8c0.2,0.2,0.4,0.4,0.8,0.4c0.3,0,0.6-0.2,0.7-0.5C93.5,158.2,93.6,157.9,93.6,157.6z"/>
	<path d="M99.3,155.4l-1.5,4.2c-0.3,0.8-0.5,1.3-0.6,1.5c-0.2,0.2-0.5,0.3-1,0.3h-0.5v-0.9l0.2,0c0.2,0,0.4,0,0.5-0.1
		c0.1-0.1,0.2-0.3,0.3-0.5l-1.6-4.4h1.2l0.9,3.1l0.9-3.1H99.3z"/>
	<path d="M102,157.9h1.2c0,0.2,0.1,0.4,0.2,0.6c0.2,0.2,0.5,0.3,1,0.3c0.3,0,0.6,0,0.8-0.1c0.3-0.1,0.4-0.3,0.4-0.6
		c0-0.2-0.1-0.4-0.3-0.5c-0.1-0.1-0.4-0.1-0.8-0.2l-0.6-0.1c-0.6-0.1-1-0.3-1.3-0.4c-0.4-0.3-0.6-0.7-0.6-1.2c0-0.4,0.1-0.8,0.4-1.1
		c0.4-0.4,1-0.6,1.8-0.6c0.8,0,1.4,0.2,1.8,0.7c0.3,0.3,0.5,0.7,0.5,1.2h-1.1c0-0.2-0.1-0.4-0.2-0.5c-0.2-0.2-0.5-0.3-1-0.3
		c-0.3,0-0.5,0-0.7,0.1c-0.2,0.1-0.3,0.3-0.3,0.5c0,0.2,0.1,0.3,0.2,0.4c0.1,0.1,0.2,0.1,0.4,0.2l1.4,0.3c0.5,0.1,0.8,0.3,1,0.5
		c0.3,0.3,0.5,0.6,0.5,1.1c0,0.6-0.2,1-0.6,1.4c-0.4,0.4-1,0.5-1.7,0.5c-0.9,0-1.6-0.2-2-0.7C102.1,158.8,102,158.4,102,157.9z"/>
	<path d="M113.6,156.7v2.9h-1.1v-2.6c0-0.3-0.1-0.5-0.2-0.6c-0.1-0.1-0.3-0.2-0.4-0.2c-0.3,0-0.5,0.1-0.6,0.2
		c-0.1,0.2-0.2,0.4-0.2,0.6v2.6H110v-2.6c0-0.3,0-0.5-0.1-0.6c-0.1-0.2-0.3-0.3-0.6-0.3c-0.2,0-0.4,0.1-0.5,0.2s-0.2,0.4-0.2,0.6
		v2.6h-1.1l0-4.3h1.1v0.6c0.1-0.2,0.3-0.4,0.4-0.5c0.2-0.2,0.5-0.3,0.8-0.3c0.3,0,0.5,0.1,0.7,0.2c0.2,0.1,0.3,0.3,0.5,0.5
		c0.1-0.2,0.3-0.3,0.4-0.4c0.2-0.2,0.5-0.3,0.8-0.3c0.4,0,0.8,0.1,1.1,0.4C113.5,155.9,113.6,156.3,113.6,156.7z"/>
	<path d="M118.1,156.5v2.3c0,0.2,0,0.4,0.1,0.5s0.1,0.1,0.2,0.2v0.2h-1.2c-0.1-0.2-0.1-0.3-0.1-0.5c-0.2,0.2-0.3,0.3-0.5,0.4
		c-0.2,0.1-0.5,0.2-0.9,0.2c-0.4,0-0.7-0.1-0.9-0.3c-0.3-0.2-0.4-0.5-0.4-1c0-0.4,0.1-0.7,0.3-0.9c0.2-0.2,0.5-0.4,0.9-0.4l1-0.2
		c0.2,0,0.3-0.1,0.3-0.1c0.1-0.1,0.1-0.1,0.1-0.2c0-0.2-0.1-0.3-0.3-0.4c-0.1,0-0.3-0.1-0.5-0.1c-0.2,0-0.4,0.1-0.5,0.2
		c-0.1,0.1-0.1,0.2-0.1,0.4h-1.1c0.1-0.6,0.3-1,0.7-1.2c0.3-0.2,0.7-0.3,1.2-0.3c0.4,0,0.8,0.1,1.1,0.2
		C117.9,155.7,118.1,156.1,118.1,156.5z M117,158.1v-0.5c-0.1,0-0.1,0.1-0.3,0.1c-0.1,0-0.3,0.1-0.5,0.1s-0.4,0.1-0.5,0.2
		c-0.1,0.1-0.2,0.3-0.2,0.5c0,0.2,0.1,0.3,0.2,0.4c0.1,0.1,0.2,0.1,0.3,0.1c0.3,0,0.5-0.1,0.7-0.2C116.9,158.6,117,158.4,117,158.1z
		"/>
	<path d="M119.1,159.7l0-4.3h1.1l0,0.7c0.2-0.3,0.3-0.5,0.4-0.6c0.2-0.2,0.5-0.3,0.8-0.3h0.2l0,1.1c0,0-0.1,0-0.1,0c0,0-0.1,0-0.2,0
		c-0.4,0-0.7,0.1-0.8,0.3c-0.1,0.2-0.2,0.4-0.2,0.7v2.2H119.1z"/>
	<path d="M123.5,154.3v1.2h0.7v0.8h-0.7v2.3c0,0.1,0,0.2,0.1,0.3c0,0,0.2,0.1,0.4,0.1h0.2v0.8l-0.5,0h-0.1c-0.5,0-0.8-0.1-0.9-0.2
		c-0.1-0.1-0.2-0.4-0.2-0.7v-2.6h-0.6l0-0.8h0.6l0-1.2H123.5z"/>
	<path d="M132,155.8h-1.2c-0.1-0.3-0.2-0.5-0.3-0.6c-0.2-0.2-0.5-0.4-1-0.4c-0.4,0-0.7,0.1-0.9,0.4c-0.3,0.4-0.5,0.9-0.5,1.6
		c0,0.6,0.1,1,0.3,1.4c0.3,0.4,0.6,0.6,1.1,0.6c0.3,0,0.6-0.1,0.8-0.3s0.4-0.5,0.4-0.8h1.2c-0.1,0.7-0.4,1.2-0.8,1.5
		c-0.4,0.4-1,0.6-1.7,0.6c-0.8,0-1.4-0.3-1.9-0.8c-0.5-0.5-0.7-1.3-0.7-2.3s0.3-1.7,0.8-2.3c0.5-0.5,1.1-0.8,1.9-0.8
		c0.8,0,1.4,0.2,1.9,0.7C131.8,154.8,132,155.3,132,155.8z"/>
	<path d="M137,157.5c0,0.7-0.2,1.3-0.7,1.7c-0.4,0.4-0.9,0.5-1.5,0.5c-0.6,0-1.1-0.2-1.5-0.5c-0.4-0.4-0.7-1-0.7-1.7
		c0-0.7,0.2-1.3,0.7-1.7c0.4-0.4,0.9-0.5,1.5-0.5s1.1,0.2,1.5,0.5C136.7,156.2,137,156.8,137,157.5z M135.8,157.5
		c0-0.4-0.1-0.6-0.2-0.8c-0.2-0.3-0.5-0.4-0.8-0.4c-0.4,0-0.7,0.1-0.8,0.4c-0.1,0.2-0.2,0.5-0.2,0.9c0,0.4,0.1,0.6,0.2,0.8
		c0.2,0.3,0.5,0.4,0.8,0.4c0.4,0,0.7-0.1,0.8-0.4C135.8,158.2,135.8,157.9,135.8,157.5z"/>
	<path d="M141.6,156.7v2.9h-1.1v-2.6c0-0.2,0-0.4-0.1-0.5c-0.1-0.2-0.3-0.3-0.6-0.3c-0.3,0-0.5,0.1-0.6,0.3
		c-0.2,0.2-0.2,0.4-0.2,0.7v2.4h-1.1v-4.3h1.1v0.6c0.2-0.3,0.4-0.5,0.6-0.6s0.4-0.2,0.7-0.2c0.4,0,0.8,0.1,1.1,0.4
		S141.6,156.3,141.6,156.7z"/>
	<path d="M143.9,154.3v1.2h0.7v0.8h-0.7v2.3c0,0.1,0,0.2,0.1,0.3c0.1,0,0.2,0.1,0.4,0.1h0.2v0.8l-0.5,0h-0.1c-0.5,0-0.8-0.1-0.9-0.2
		c-0.1-0.1-0.2-0.4-0.2-0.7v-2.6h-0.6l0-0.8h0.6l0-1.2H143.9z"/>
	<path d="M145.3,159.7l0-4.3h1.1l0,0.7c0.2-0.3,0.3-0.5,0.4-0.6c0.2-0.2,0.5-0.3,0.8-0.3h0.2l0,1.1c0,0-0.1,0-0.1,0c0,0-0.1,0-0.2,0
		c-0.4,0-0.7,0.1-0.8,0.3c-0.1,0.2-0.2,0.4-0.2,0.7v2.2H145.3z"/>
	<path d="M151.9,156.5v2.3c0,0.2,0,0.4,0.1,0.5s0.1,0.1,0.2,0.2v0.2h-1.2c-0.1-0.2-0.1-0.3-0.1-0.5c-0.2,0.2-0.3,0.3-0.5,0.4
		c-0.2,0.1-0.5,0.2-0.9,0.2c-0.4,0-0.7-0.1-0.9-0.3c-0.3-0.2-0.4-0.5-0.4-1c0-0.4,0.1-0.7,0.3-0.9c0.2-0.2,0.5-0.4,0.9-0.4l1-0.2
		c0.2,0,0.3-0.1,0.3-0.1c0.1-0.1,0.1-0.1,0.1-0.2c0-0.2-0.1-0.3-0.3-0.4c-0.1,0-0.3-0.1-0.5-0.1c-0.2,0-0.4,0.1-0.5,0.2
		c-0.1,0.1-0.1,0.2-0.1,0.4h-1.1c0.1-0.6,0.3-1,0.7-1.2c0.3-0.2,0.7-0.3,1.2-0.3c0.4,0,0.8,0.1,1.1,0.2
		C151.6,155.7,151.9,156.1,151.9,156.5z M150.8,158.1v-0.5c-0.1,0-0.1,0.1-0.3,0.1c-0.1,0-0.3,0.1-0.5,0.1s-0.4,0.1-0.5,0.2
		c-0.1,0.1-0.2,0.3-0.2,0.5c0,0.2,0.1,0.3,0.2,0.4c0.1,0.1,0.2,0.1,0.3,0.1c0.3,0,0.5-0.1,0.7-0.2
		C150.7,158.6,150.8,158.4,150.8,158.1z"/>
	<path d="M155.4,158.1h1.1c0,0.4-0.2,0.7-0.4,1c-0.4,0.4-0.9,0.7-1.5,0.7c-0.7,0-1.2-0.2-1.6-0.7c-0.3-0.4-0.4-0.8-0.4-1.4
		c0-0.7,0.2-1.3,0.5-1.7c0.3-0.4,0.9-0.7,1.6-0.7c0.4,0,0.8,0.1,1.2,0.3c0.4,0.3,0.7,0.7,0.7,1.3h-1.1c0-0.2-0.1-0.4-0.3-0.5
		c-0.1-0.1-0.3-0.1-0.5-0.1c-0.3,0-0.6,0.1-0.7,0.4c-0.1,0.2-0.2,0.5-0.2,0.8c0,0.5,0.1,0.9,0.2,1.1c0.1,0.2,0.4,0.3,0.7,0.3
		c0.2,0,0.4-0.1,0.6-0.3C155.3,158.4,155.4,158.3,155.4,158.1z"/>
	<path d="M158.6,154.3v1.2h0.7v0.8h-0.7v2.3c0,0.1,0,0.2,0.1,0.3c0.1,0,0.2,0.1,0.4,0.1h0.2v0.8l-0.5,0h-0.1c-0.5,0-0.8-0.1-0.9-0.2
		c-0.1-0.1-0.2-0.4-0.2-0.7v-2.6h-0.6l0-0.8h0.6l0-1.2H158.6z"/>
</g>
<g class="st4">
	<path class="st5" d="M59.1,47l-1.2-4.3h1c0.2,0.7,0.3,1.2,0.4,1.7c0.1,0.3,0.1,0.6,0.2,0.8c0.1,0.3,0.1,0.5,0.1,0.6
		c0.1-0.3,0.1-0.6,0.2-0.9c0.1-0.4,0.2-1.2,0.5-2.3h1c0.2,1.1,0.4,1.8,0.5,2.2c0.1,0.3,0.1,0.6,0.2,0.9c0.1-0.3,0.1-0.6,0.2-0.9
		c0.1-0.3,0.2-1.1,0.5-2.3h0.9L62.1,47h-0.9c-0.1-0.3-0.2-0.8-0.3-1.6c-0.1-0.3-0.1-0.6-0.2-0.9s-0.1-0.6-0.1-0.8
		c0,0.3-0.1,0.5-0.1,0.7c-0.1,0.3-0.1,0.6-0.2,0.9c-0.1,0.6-0.2,1.1-0.4,1.7H59.1z"/>
	<path class="st5" d="M64.7,42.7v0.8h-0.8v-0.8H64.7z M63.8,43.8h0.8V47h-0.8V43.8z"/>
	<path class="st5" d="M66.4,42.9v0.9h0.5v0.6h-0.5v1.7c0,0.1,0,0.2,0.1,0.2c0,0,0.1,0.1,0.3,0.1h0.2V47l-0.4,0h-0.1
		c-0.3,0-0.6-0.1-0.7-0.2c-0.1-0.1-0.2-0.3-0.2-0.5v-1.9h-0.4l0-0.6h0.4l0-0.9H66.4z"/>
	<path class="st5" d="M70.3,44.8V47h-0.8v-1.9c0-0.2,0-0.3-0.1-0.4c-0.1-0.2-0.2-0.2-0.5-0.2c-0.2,0-0.3,0.1-0.5,0.2
		s-0.2,0.3-0.2,0.5V47h-0.8v-4.3h0.8v1.5c0.1-0.1,0.2-0.3,0.4-0.4s0.4-0.1,0.6-0.1c0.3,0,0.6,0.1,0.8,0.3
		C70.2,44.2,70.3,44.5,70.3,44.8z"/>
	<path class="st5" d="M74,42.7V47h-0.8v-0.4c-0.1,0.2-0.2,0.3-0.4,0.4c-0.2,0.1-0.3,0.1-0.5,0.1c-0.4,0-0.8-0.2-1-0.5
		c-0.2-0.3-0.3-0.7-0.3-1.2c0-0.5,0.1-0.9,0.4-1.2c0.2-0.3,0.5-0.4,0.9-0.4c0.2,0,0.5,0.1,0.6,0.2c0.1,0.1,0.2,0.2,0.3,0.3l0-1.5H74
		z M71.8,45.4c0,0.2,0,0.5,0.1,0.6c0.1,0.2,0.3,0.3,0.5,0.3c0.3,0,0.4-0.1,0.6-0.3c0.1-0.2,0.2-0.4,0.2-0.6c0-0.3,0-0.5-0.1-0.7
		c-0.1-0.2-0.3-0.3-0.6-0.3c-0.2,0-0.4,0.1-0.6,0.3C71.9,44.9,71.8,45.1,71.8,45.4z"/>
	<path class="st5" d="M74.8,47l0-3.2h0.8l0,0.6c0.1-0.2,0.2-0.4,0.3-0.4c0.1-0.1,0.3-0.2,0.6-0.2h0.2l0,0.9c0,0-0.1,0-0.1,0
		s-0.1,0-0.1,0c-0.3,0-0.5,0.1-0.6,0.2c-0.1,0.1-0.1,0.3-0.1,0.5V47H74.8z"/>
	<path class="st5" d="M79.7,44.6v1.7c0,0.2,0,0.3,0,0.4s0.1,0.1,0.1,0.1V47H79c0-0.1-0.1-0.2-0.1-0.4c-0.1,0.1-0.3,0.2-0.4,0.3
		c-0.2,0.1-0.4,0.2-0.7,0.2c-0.3,0-0.5-0.1-0.7-0.2c-0.2-0.2-0.3-0.4-0.3-0.7c0-0.3,0.1-0.5,0.2-0.7s0.4-0.3,0.7-0.3l0.8-0.1
		c0.1,0,0.2,0,0.2-0.1s0.1-0.1,0.1-0.2c0-0.2-0.1-0.3-0.2-0.3c-0.1,0-0.2-0.1-0.4-0.1c-0.2,0-0.3,0-0.4,0.1
		c-0.1,0.1-0.1,0.2-0.1,0.3H77c0-0.4,0.2-0.7,0.5-0.9c0.2-0.1,0.5-0.2,0.9-0.2c0.3,0,0.6,0.1,0.8,0.2C79.6,44,79.7,44.3,79.7,44.6z
		 M78.9,45.9v-0.4c0,0-0.1,0.1-0.2,0.1s-0.2,0.1-0.4,0.1c-0.2,0-0.3,0.1-0.4,0.1c-0.1,0.1-0.2,0.2-0.2,0.4c0,0.1,0,0.2,0.1,0.3
		c0.1,0.1,0.2,0.1,0.3,0.1c0.2,0,0.4-0.1,0.5-0.2C78.8,46.2,78.9,46,78.9,45.9z"/>
	<path class="st5" d="M84.7,43.8L83.8,47h-0.9l-0.5-2.3L81.9,47H81l-0.9-3.2H81l0.5,2.3l0.5-2.3h0.8l0.5,2.3l0.5-2.3H84.7z"/>
	<path class="st5" d="M90.3,42.7v2.8c0,0.6-0.2,1-0.5,1.2c-0.3,0.3-0.7,0.4-1.3,0.4c-0.3,0-0.5,0-0.7-0.1c-0.3-0.1-0.5-0.2-0.7-0.4
		c-0.2-0.3-0.3-0.6-0.3-1v-2.9h0.9v2.8c0,0.3,0.1,0.5,0.2,0.6c0.1,0.1,0.3,0.2,0.6,0.2c0.3,0,0.5-0.1,0.7-0.2s0.2-0.3,0.2-0.6v-2.8
		H90.3z"/>
	<path class="st5" d="M91,45.7h0.9c0,0.2,0.1,0.3,0.2,0.4c0.2,0.2,0.4,0.3,0.8,0.3c0.3,0,0.5,0,0.6-0.1c0.2-0.1,0.3-0.2,0.3-0.5
		c0-0.2-0.1-0.3-0.2-0.4c-0.1-0.1-0.3-0.1-0.6-0.2l-0.5-0.1c-0.5-0.1-0.8-0.2-0.9-0.3c-0.3-0.2-0.4-0.5-0.4-0.9
		c0-0.3,0.1-0.6,0.3-0.8c0.3-0.3,0.7-0.5,1.4-0.5c0.6,0,1,0.2,1.3,0.5c0.2,0.3,0.3,0.5,0.3,0.9h-0.9c0-0.2-0.1-0.3-0.1-0.4
		c-0.1-0.2-0.4-0.3-0.7-0.3c-0.2,0-0.4,0-0.5,0.1c-0.2,0.1-0.2,0.2-0.2,0.4c0,0.1,0.1,0.3,0.2,0.3c0.1,0,0.2,0.1,0.3,0.1l1.1,0.3
		c0.4,0.1,0.6,0.2,0.8,0.3c0.2,0.2,0.3,0.5,0.3,0.8c0,0.4-0.1,0.8-0.4,1c-0.3,0.3-0.7,0.4-1.3,0.4c-0.7,0-1.2-0.2-1.5-0.5
		C91.1,46.4,91,46,91,45.7z"/>
	<path class="st5" d="M95.2,47v-4.3h1.9c0.6,0,1.1,0.2,1.4,0.7c0.2,0.4,0.3,0.8,0.3,1.3c0,0.6-0.1,1.1-0.4,1.5
		c-0.3,0.5-0.8,0.8-1.4,0.8H95.2z M96.1,43.4l0,2.8H97c0.3,0,0.6-0.2,0.8-0.5c0.1-0.3,0.2-0.6,0.2-1c0-0.6-0.1-0.9-0.4-1.2
		c-0.2-0.1-0.4-0.2-0.6-0.2H96.1z"/>
	<path class="st5" d="M101.4,43.5V47h-0.9v-3.5h-1.3v-0.8h3.5v0.8H101.4z"/>
	<path class="st5" d="M109,43.8l-0.9,3.2h-0.9l-0.5-2.3l-0.5,2.3h-0.9l-0.9-3.2h0.9l0.5,2.3l0.5-2.3h0.8l0.5,2.3l0.5-2.3H109z"/>
	<path class="st5" d="M112.4,44.8V47h-0.8v-1.9c0-0.2,0-0.3-0.1-0.4c-0.1-0.2-0.2-0.2-0.5-0.2c-0.2,0-0.3,0.1-0.5,0.2
		s-0.2,0.3-0.2,0.5V47h-0.8v-4.3h0.8v1.5c0.1-0.1,0.2-0.3,0.4-0.4s0.4-0.1,0.6-0.1c0.3,0,0.6,0.1,0.8,0.3
		C112.2,44.2,112.4,44.5,112.4,44.8z"/>
	<path class="st5" d="M115,46.1h0.9c-0.1,0.4-0.3,0.6-0.6,0.8c-0.2,0.1-0.5,0.2-0.8,0.2c-0.5,0-0.9-0.1-1.1-0.4
		c-0.3-0.3-0.5-0.7-0.5-1.4c0-0.4,0.1-0.7,0.2-0.9c0.3-0.4,0.7-0.7,1.3-0.7c0.4,0,0.7,0.1,1,0.3c0.3,0.3,0.5,0.8,0.5,1.4l0,0.1h-2.2
		c0,0.3,0.1,0.5,0.2,0.6c0.1,0.1,0.3,0.2,0.5,0.2c0.1,0,0.2,0,0.3-0.1C114.9,46.3,115,46.2,115,46.1z M113.8,45.1h1.3
		c0-0.2-0.1-0.4-0.2-0.5c-0.1-0.1-0.2-0.1-0.4-0.1c-0.2,0-0.3,0.1-0.5,0.2C113.8,44.7,113.8,44.9,113.8,45.1z"/>
	<path class="st5" d="M119.4,44.8V47h-0.8v-1.9c0-0.2,0-0.3-0.1-0.4c-0.1-0.2-0.2-0.2-0.5-0.2c-0.2,0-0.3,0.1-0.5,0.2
		c-0.1,0.1-0.2,0.3-0.2,0.5V47h-0.8v-3.2h0.8v0.5c0.1-0.2,0.3-0.3,0.4-0.4s0.3-0.1,0.5-0.1c0.3,0,0.6,0.1,0.8,0.3
		C119.2,44.2,119.4,44.5,119.4,44.8z"/>
	<path class="st5" d="M121.8,47l0-3.2h0.8l0,0.6c0.1-0.2,0.2-0.4,0.3-0.4c0.1-0.1,0.3-0.2,0.6-0.2h0.2l0,0.9c0,0-0.1,0-0.1,0
		s-0.1,0-0.1,0c-0.3,0-0.5,0.1-0.6,0.2c-0.1,0.1-0.1,0.3-0.1,0.5V47H121.8z"/>
	<path class="st5" d="M126,46.1h0.9c-0.1,0.4-0.3,0.6-0.6,0.8c-0.2,0.1-0.5,0.2-0.8,0.2c-0.5,0-0.9-0.1-1.1-0.4
		c-0.3-0.3-0.5-0.7-0.5-1.4c0-0.4,0.1-0.7,0.2-0.9c0.3-0.4,0.7-0.7,1.3-0.7c0.4,0,0.7,0.1,1,0.3c0.3,0.3,0.5,0.8,0.5,1.4l0,0.1h-2.2
		c0,0.3,0.1,0.5,0.2,0.6c0.1,0.1,0.3,0.2,0.5,0.2c0.1,0,0.2,0,0.3-0.1C125.9,46.3,126,46.2,126,46.1z M124.8,45.1h1.3
		c0-0.2-0.1-0.4-0.2-0.5c-0.1-0.1-0.2-0.1-0.4-0.1c-0.2,0-0.3,0.1-0.5,0.2S124.8,44.9,124.8,45.1z"/>
	<path class="st5" d="M129.4,45.8h0.9c0,0.3-0.1,0.5-0.3,0.7c-0.3,0.3-0.6,0.5-1.2,0.5c-0.5,0-0.9-0.2-1.2-0.5
		c-0.2-0.3-0.3-0.6-0.3-1c0-0.5,0.1-1,0.4-1.3c0.3-0.3,0.6-0.5,1.2-0.5c0.3,0,0.6,0.1,0.9,0.2c0.3,0.2,0.5,0.5,0.6,1h-0.9
		c0-0.2-0.1-0.3-0.2-0.4c-0.1-0.1-0.2-0.1-0.3-0.1c-0.2,0-0.4,0.1-0.5,0.3c-0.1,0.2-0.1,0.4-0.1,0.6c0,0.4,0.1,0.6,0.2,0.8
		c0.1,0.2,0.3,0.2,0.5,0.2c0.2,0,0.3-0.1,0.4-0.2C129.3,46.1,129.4,45.9,129.4,45.8z"/>
	<path class="st5" d="M132.7,46.1h0.9c-0.1,0.4-0.3,0.6-0.6,0.8c-0.2,0.1-0.5,0.2-0.8,0.2c-0.5,0-0.9-0.1-1.1-0.4
		c-0.3-0.3-0.5-0.7-0.5-1.4c0-0.4,0.1-0.7,0.2-0.9c0.3-0.4,0.7-0.7,1.3-0.7c0.4,0,0.7,0.1,1,0.3c0.3,0.3,0.5,0.8,0.5,1.4l0,0.1h-2.2
		c0,0.3,0.1,0.5,0.2,0.6c0.1,0.1,0.3,0.2,0.5,0.2c0.1,0,0.2,0,0.3-0.1C132.6,46.3,132.7,46.2,132.7,46.1z M131.4,45.1h1.3
		c0-0.2-0.1-0.4-0.2-0.5c-0.1-0.1-0.2-0.1-0.4-0.1c-0.2,0-0.3,0.1-0.5,0.2S131.5,44.9,131.4,45.1z"/>
	<path class="st5" d="M135,42.7v0.8h-0.8v-0.8H135z M134.2,43.8h0.8V47h-0.8V43.8z"/>
	<path class="st5" d="M138.7,43.8l-1.1,3.2h-0.9l-1.2-3.2h0.9l0.7,2.4l0.7-2.4H138.7z"/>
	<path class="st5" d="M140,42.7v0.8h-0.8v-0.8H140z M139.2,43.8h0.8V47h-0.8V43.8z"/>
	<path class="st5" d="M143.7,44.8V47h-0.8v-1.9c0-0.2,0-0.3-0.1-0.4c-0.1-0.2-0.2-0.2-0.5-0.2c-0.2,0-0.3,0.1-0.5,0.2
		c-0.1,0.1-0.2,0.3-0.2,0.5V47h-0.8v-3.2h0.8v0.5c0.1-0.2,0.3-0.3,0.4-0.4c0.2-0.1,0.3-0.1,0.5-0.1c0.3,0,0.6,0.1,0.8,0.3
		C143.6,44.2,143.7,44.5,143.7,44.8z"/>
	<path class="st5" d="M146.6,43.8h0.8v3c0,0.4-0.1,0.7-0.2,0.9c-0.2,0.4-0.7,0.5-1.4,0.5c-0.4,0-0.7-0.1-0.9-0.2
		c-0.3-0.2-0.5-0.4-0.5-0.7h0.9c0,0.1,0.1,0.2,0.1,0.2c0.1,0.1,0.2,0.1,0.5,0.1c0.4,0,0.7-0.2,0.7-0.7v-0.4l0,0
		c-0.1,0.1-0.2,0.3-0.3,0.3c-0.1,0.1-0.3,0.1-0.6,0.1c-0.4,0-0.7-0.1-1-0.4c-0.3-0.3-0.4-0.7-0.4-1.2c0-0.5,0.1-0.9,0.4-1.2
		c0.2-0.3,0.5-0.4,0.9-0.4c0.3,0,0.5,0.1,0.7,0.2c0.1,0.1,0.2,0.2,0.3,0.4L146.6,43.8z M145.2,45.4c0,0.2,0,0.4,0.1,0.6
		c0.1,0.2,0.3,0.3,0.5,0.3c0.3,0,0.4-0.1,0.6-0.3c0.1-0.2,0.1-0.4,0.1-0.6c0-0.3-0.1-0.5-0.2-0.7c-0.1-0.2-0.3-0.3-0.5-0.3
		c-0.2,0-0.3,0.1-0.4,0.2C145.3,44.8,145.2,45.1,145.2,45.4z"/>
	<path class="st5" d="M153.1,42.7v0.8h-2.3v0.9h2.1v0.8h-2.1v1.1h2.4V47h-3.3v-4.3H153.1z"/>
	<path class="st5" d="M155.7,43.5V47h-0.9v-3.5h-1.3v-0.8h3.5v0.8H155.7z"/>
	<path class="st5" d="M160.1,45.1h-1.7V47h-0.9v-4.3h0.9v1.6h1.7v-1.6h0.9V47h-0.9V45.1z"/>
</g>
<g class="st4">
	<path class="st5" d="M54,116.6h-0.9c-0.1-0.2-0.1-0.4-0.2-0.5c-0.2-0.2-0.4-0.3-0.7-0.3c-0.3,0-0.5,0.1-0.7,0.3
		c-0.2,0.3-0.4,0.7-0.4,1.2c0,0.4,0.1,0.8,0.2,1c0.2,0.3,0.5,0.4,0.8,0.4c0.3,0,0.5-0.1,0.6-0.2s0.3-0.3,0.3-0.6h0.9
		c-0.1,0.5-0.3,0.9-0.6,1.1c-0.3,0.3-0.8,0.4-1.3,0.4c-0.6,0-1.1-0.2-1.4-0.6c-0.4-0.4-0.6-1-0.6-1.7c0-0.7,0.2-1.3,0.6-1.7
		c0.4-0.4,0.8-0.6,1.4-0.6s1,0.2,1.4,0.5C53.8,115.9,53.9,116.2,54,116.6z"/>
	<path class="st5" d="M57.6,117.9c0,0.5-0.2,1-0.5,1.3c-0.3,0.3-0.7,0.4-1.1,0.4s-0.8-0.1-1.1-0.4c-0.3-0.3-0.5-0.7-0.5-1.3
		c0-0.5,0.2-1,0.5-1.3c0.3-0.3,0.7-0.4,1.1-0.4s0.8,0.1,1.1,0.4C57.5,116.9,57.6,117.4,57.6,117.9z M56.8,117.9c0-0.3,0-0.5-0.1-0.6
		c-0.1-0.2-0.3-0.3-0.6-0.3c-0.3,0-0.5,0.1-0.6,0.3c-0.1,0.2-0.1,0.4-0.1,0.6c0,0.3,0,0.5,0.1,0.6c0.1,0.2,0.3,0.3,0.6,0.3
		c0.3,0,0.5-0.1,0.6-0.3C56.7,118.4,56.8,118.2,56.8,117.9z"/>
	<path class="st5" d="M61.1,117.3v2.2h-0.8v-1.9c0-0.2,0-0.3-0.1-0.4c-0.1-0.2-0.2-0.2-0.5-0.2c-0.2,0-0.3,0.1-0.5,0.2
		s-0.2,0.3-0.2,0.5v1.8h-0.8v-3.2H59v0.5c0.1-0.2,0.3-0.3,0.4-0.4c0.2-0.1,0.3-0.1,0.5-0.1c0.3,0,0.6,0.1,0.8,0.3
		C61,116.7,61.1,117,61.1,117.3z"/>
	<path class="st5" d="M64.5,117.3h-0.8c0-0.1-0.1-0.2-0.1-0.3c-0.1-0.1-0.2-0.1-0.4-0.1c-0.2,0-0.3,0-0.4,0.1
		c-0.1,0-0.1,0.1-0.1,0.2c0,0.1,0.2,0.2,0.5,0.3c0.5,0.1,0.8,0.2,1,0.3c0.3,0.2,0.5,0.4,0.5,0.8c0,0.4-0.2,0.7-0.5,0.9
		c-0.2,0.1-0.5,0.2-0.9,0.2c-0.4,0-0.8-0.1-1-0.2c-0.3-0.2-0.5-0.5-0.5-0.9h0.9c0,0.1,0.1,0.3,0.2,0.3s0.3,0.1,0.5,0.1
		c0.2,0,0.3,0,0.4-0.1c0.1-0.1,0.1-0.1,0.1-0.2c0-0.1-0.2-0.2-0.5-0.3c-0.5-0.1-0.8-0.2-1-0.3c-0.3-0.2-0.5-0.4-0.5-0.8
		c0-0.3,0.1-0.5,0.3-0.7c0.2-0.2,0.6-0.4,1-0.4c0.4,0,0.7,0.1,1,0.2C64.4,116.6,64.5,116.9,64.5,117.3z"/>
	<path class="st5" d="M67.1,118.6H68c-0.1,0.4-0.3,0.6-0.6,0.8c-0.2,0.1-0.5,0.2-0.8,0.2c-0.5,0-0.9-0.1-1.1-0.4
		c-0.3-0.3-0.5-0.7-0.5-1.4c0-0.4,0.1-0.7,0.2-0.9c0.3-0.4,0.7-0.7,1.3-0.7c0.4,0,0.7,0.1,1,0.3c0.3,0.3,0.5,0.8,0.5,1.4l0,0.1h-2.2
		c0,0.3,0.1,0.5,0.2,0.6s0.3,0.2,0.5,0.2c0.1,0,0.2,0,0.3-0.1C67,118.8,67.1,118.7,67.1,118.6z M65.8,117.6h1.3
		c0-0.2-0.1-0.4-0.2-0.5c-0.1-0.1-0.2-0.1-0.4-0.1c-0.2,0-0.3,0.1-0.5,0.2C65.9,117.2,65.9,117.4,65.8,117.6z"/>
	<path class="st5" d="M71.5,117.3v2.2h-0.8v-1.9c0-0.2,0-0.3-0.1-0.4c-0.1-0.2-0.2-0.2-0.5-0.2c-0.2,0-0.3,0.1-0.5,0.2
		s-0.2,0.3-0.2,0.5v1.8h-0.8v-3.2h0.8v0.5c0.1-0.2,0.3-0.3,0.4-0.4c0.2-0.1,0.3-0.1,0.5-0.1c0.3,0,0.6,0.1,0.8,0.3
		C71.3,116.7,71.5,117,71.5,117.3z"/>
	<path class="st5" d="M74.9,117.3H74c0-0.1-0.1-0.2-0.1-0.3c-0.1-0.1-0.2-0.1-0.4-0.1c-0.2,0-0.3,0-0.4,0.1c-0.1,0-0.1,0.1-0.1,0.2
		c0,0.1,0.2,0.2,0.5,0.3c0.5,0.1,0.8,0.2,1,0.3c0.3,0.2,0.5,0.4,0.5,0.8c0,0.4-0.2,0.7-0.5,0.9c-0.2,0.1-0.5,0.2-0.9,0.2
		c-0.4,0-0.8-0.1-1-0.2c-0.3-0.2-0.5-0.5-0.5-0.9h0.9c0,0.1,0.1,0.3,0.2,0.3s0.3,0.1,0.5,0.1c0.2,0,0.3,0,0.4-0.1
		c0.1-0.1,0.1-0.1,0.1-0.2c0-0.1-0.2-0.2-0.5-0.3c-0.5-0.1-0.8-0.2-1-0.3c-0.3-0.2-0.5-0.4-0.5-0.8c0-0.3,0.1-0.5,0.3-0.7
		c0.2-0.2,0.6-0.4,1-0.4c0.4,0,0.7,0.1,1,0.2C74.7,116.6,74.9,116.9,74.9,117.3z"/>
	<path class="st5" d="M78.4,116.3v3.2h-0.8V119c-0.2,0.4-0.5,0.5-1,0.5c-0.3,0-0.6-0.1-0.8-0.3c-0.2-0.2-0.3-0.5-0.3-0.9v-2.1h0.8v2
		c0,0.2,0.1,0.4,0.2,0.5c0.1,0.1,0.2,0.1,0.4,0.1c0.2,0,0.3,0,0.4-0.1c0.1-0.1,0.2-0.3,0.2-0.6v-1.8H78.4z"/>
	<path class="st5" d="M81.9,117.3H81c0-0.1-0.1-0.2-0.1-0.3c-0.1-0.1-0.2-0.1-0.4-0.1c-0.2,0-0.3,0-0.4,0.1c-0.1,0-0.1,0.1-0.1,0.2
		c0,0.1,0.2,0.2,0.5,0.3c0.5,0.1,0.8,0.2,1,0.3c0.3,0.2,0.5,0.4,0.5,0.8c0,0.4-0.2,0.7-0.5,0.9c-0.2,0.1-0.5,0.2-0.9,0.2
		c-0.4,0-0.8-0.1-1-0.2c-0.3-0.2-0.5-0.5-0.5-0.9h0.9c0,0.1,0.1,0.3,0.2,0.3s0.3,0.1,0.5,0.1c0.2,0,0.3,0,0.4-0.1
		c0.1-0.1,0.1-0.1,0.1-0.2c0-0.1-0.2-0.2-0.5-0.3c-0.5-0.1-0.8-0.2-1-0.3c-0.3-0.2-0.5-0.4-0.5-0.8c0-0.3,0.1-0.5,0.3-0.7
		c0.2-0.2,0.6-0.4,1-0.4c0.4,0,0.7,0.1,1,0.2C81.7,116.6,81.9,116.9,81.9,117.3z"/>
	<path class="st5" d="M86.8,117.1v1.7c0,0.2,0,0.3,0,0.4s0.1,0.1,0.1,0.1v0.1h-0.9c0-0.1-0.1-0.2-0.1-0.4c-0.1,0.1-0.3,0.2-0.4,0.3
		c-0.2,0.1-0.4,0.2-0.7,0.2c-0.3,0-0.5-0.1-0.7-0.2c-0.2-0.2-0.3-0.4-0.3-0.7c0-0.3,0.1-0.5,0.2-0.7s0.4-0.3,0.7-0.3l0.8-0.1
		c0.1,0,0.2,0,0.2-0.1s0.1-0.1,0.1-0.2c0-0.2-0.1-0.3-0.2-0.3c-0.1,0-0.2-0.1-0.4-0.1c-0.2,0-0.3,0-0.4,0.1
		c-0.1,0.1-0.1,0.2-0.1,0.3h-0.8c0-0.4,0.2-0.7,0.5-0.9c0.2-0.1,0.5-0.2,0.9-0.2c0.3,0,0.6,0.1,0.8,0.2
		C86.7,116.5,86.8,116.8,86.8,117.1z M86,118.4v-0.4c0,0-0.1,0.1-0.2,0.1s-0.2,0.1-0.4,0.1c-0.2,0-0.3,0.1-0.4,0.1
		c-0.1,0.1-0.2,0.2-0.2,0.4c0,0.1,0,0.2,0.1,0.3c0.1,0.1,0.2,0.1,0.3,0.1c0.2,0,0.4-0.1,0.5-0.2C85.9,118.7,86,118.5,86,118.4z"/>
	<path class="st5" d="M89.5,118.3h0.9c0,0.3-0.1,0.5-0.3,0.7c-0.3,0.3-0.6,0.5-1.2,0.5c-0.5,0-0.9-0.2-1.2-0.5
		c-0.2-0.3-0.3-0.6-0.3-1c0-0.5,0.1-1,0.4-1.3c0.3-0.3,0.6-0.5,1.2-0.5c0.3,0,0.6,0.1,0.9,0.2c0.3,0.2,0.5,0.5,0.6,1h-0.9
		c0-0.2-0.1-0.3-0.2-0.4c-0.1-0.1-0.2-0.1-0.3-0.1c-0.2,0-0.4,0.1-0.5,0.3c-0.1,0.2-0.1,0.4-0.1,0.6c0,0.4,0.1,0.6,0.2,0.8
		c0.1,0.2,0.3,0.2,0.5,0.2c0.2,0,0.3-0.1,0.4-0.2C89.4,118.6,89.5,118.4,89.5,118.3z"/>
	<path class="st5" d="M93.8,117.3v2.2H93v-1.9c0-0.2,0-0.3-0.1-0.4c-0.1-0.2-0.2-0.2-0.5-0.2c-0.2,0-0.3,0.1-0.5,0.2
		s-0.2,0.3-0.2,0.5v1.8h-0.8v-4.3h0.8v1.5c0.1-0.1,0.2-0.3,0.4-0.4s0.4-0.1,0.6-0.1c0.3,0,0.6,0.1,0.8,0.3
		C93.7,116.7,93.8,117,93.8,117.3z"/>
	<path class="st5" d="M95.4,115.2v0.8h-0.8v-0.8H95.4z M94.6,116.3h0.8v3.2h-0.8V116.3z"/>
	<path class="st5" d="M98.1,118.6H99c-0.1,0.4-0.3,0.6-0.6,0.8c-0.2,0.1-0.5,0.2-0.8,0.2c-0.5,0-0.9-0.1-1.1-0.4
		c-0.3-0.3-0.5-0.7-0.5-1.4c0-0.4,0.1-0.7,0.2-0.9c0.3-0.4,0.7-0.7,1.3-0.7c0.4,0,0.7,0.1,1,0.3c0.3,0.3,0.5,0.8,0.5,1.4l0,0.1h-2.2
		c0,0.3,0.1,0.5,0.2,0.6s0.3,0.2,0.5,0.2c0.1,0,0.2,0,0.3-0.1C98,118.8,98.1,118.7,98.1,118.6z M96.9,117.6h1.3
		c0-0.2-0.1-0.4-0.2-0.5c-0.1-0.1-0.2-0.1-0.4-0.1c-0.2,0-0.3,0.1-0.5,0.2C97,117.2,96.9,117.4,96.9,117.6z"/>
	<path class="st5" d="M102.4,116.3l-1.1,3.2h-0.9l-1.2-3.2h0.9l0.7,2.4l0.7-2.4H102.4z"/>
	<path class="st5" d="M104.8,118.6h0.9c-0.1,0.4-0.3,0.6-0.6,0.8c-0.2,0.1-0.5,0.2-0.8,0.2c-0.5,0-0.9-0.1-1.1-0.4
		c-0.3-0.3-0.5-0.7-0.5-1.4c0-0.4,0.1-0.7,0.2-0.9c0.3-0.4,0.7-0.7,1.3-0.7c0.4,0,0.7,0.1,1,0.3c0.3,0.3,0.5,0.8,0.5,1.4l0,0.1h-2.2
		c0,0.3,0.1,0.5,0.2,0.6s0.3,0.2,0.5,0.2c0.1,0,0.2,0,0.3-0.1C104.7,118.8,104.8,118.7,104.8,118.6z M103.5,117.6h1.3
		c0-0.2-0.1-0.4-0.2-0.5c-0.1-0.1-0.2-0.1-0.4-0.1c-0.2,0-0.3,0.1-0.5,0.2C103.6,117.2,103.6,117.4,103.5,117.6z"/>
	<path class="st5" d="M109.2,115.2v4.3h-0.8v-0.4c-0.1,0.2-0.2,0.3-0.4,0.4c-0.2,0.1-0.3,0.1-0.5,0.1c-0.4,0-0.8-0.2-1-0.5
		c-0.2-0.3-0.3-0.7-0.3-1.2c0-0.5,0.1-0.9,0.4-1.2c0.2-0.3,0.5-0.4,0.9-0.4c0.2,0,0.5,0.1,0.6,0.2c0.1,0.1,0.2,0.2,0.3,0.3l0-1.5
		H109.2z M106.9,117.9c0,0.2,0,0.5,0.1,0.6c0.1,0.2,0.3,0.3,0.5,0.3c0.3,0,0.4-0.1,0.6-0.3c0.1-0.2,0.2-0.4,0.2-0.6
		c0-0.3,0-0.5-0.1-0.7c-0.1-0.2-0.3-0.3-0.6-0.3c-0.2,0-0.4,0.1-0.6,0.3C107,117.4,106.9,117.6,106.9,117.9z"/>
	<path class="st5" d="M111,116.3l-0.2,2h-0.4l-0.2-2v-1.1h0.9V116.3z M111,118.7v0.8h-0.9v-0.8H111z"/>
	<path class="st5" d="M113.7,119.5v-4.3h2.2c0.5,0,0.9,0.2,1.1,0.5c0.2,0.2,0.2,0.5,0.2,0.7c0,0.2-0.1,0.5-0.2,0.6s-0.3,0.3-0.5,0.4
		c0.2,0.1,0.3,0.2,0.4,0.3c0.1,0.2,0.1,0.4,0.1,0.8c0,0.3,0,0.6,0,0.7c0,0.1,0.1,0.2,0.2,0.2v0.1h-1c0-0.1-0.1-0.2-0.1-0.4
		c0-0.1,0-0.3,0-0.5c0-0.3,0-0.5-0.1-0.6c-0.1-0.1-0.3-0.2-0.6-0.2h-0.9v1.7H113.7z M114.5,117.1h1.1c0.2,0,0.4,0,0.5-0.1
		c0.1-0.1,0.2-0.2,0.2-0.5c0-0.1,0-0.3-0.1-0.4c-0.1-0.1-0.3-0.2-0.5-0.2h-1.1V117.1z"/>
	<path class="st5" d="M119.8,118.6h0.9c-0.1,0.4-0.3,0.6-0.6,0.8c-0.2,0.1-0.5,0.2-0.8,0.2c-0.5,0-0.9-0.1-1.1-0.4
		c-0.3-0.3-0.5-0.7-0.5-1.4c0-0.4,0.1-0.7,0.2-0.9c0.3-0.4,0.7-0.7,1.3-0.7c0.4,0,0.7,0.1,1,0.3c0.3,0.3,0.5,0.8,0.5,1.4l0,0.1h-2.2
		c0,0.3,0.1,0.5,0.2,0.6c0.1,0.1,0.3,0.2,0.5,0.2c0.1,0,0.2,0,0.3-0.1C119.7,118.8,119.8,118.7,119.8,118.6z M118.5,117.6h1.3
		c0-0.2-0.1-0.4-0.2-0.5c-0.1-0.1-0.2-0.1-0.4-0.1c-0.2,0-0.3,0.1-0.5,0.2C118.6,117.2,118.6,117.4,118.5,117.6z"/>
	<path class="st5" d="M123.4,116.3h0.8l0,4.4h-0.8v-1.6c-0.2,0.3-0.5,0.5-0.9,0.5c-0.5,0-0.8-0.2-1-0.6c-0.2-0.3-0.3-0.7-0.3-1.1
		c0-0.5,0.1-0.9,0.3-1.2c0.2-0.4,0.6-0.5,1.1-0.5c0.2,0,0.4,0.1,0.6,0.2c0.1,0.1,0.2,0.2,0.3,0.4L123.4,116.3z M121.9,118
		c0,0.3,0.1,0.5,0.2,0.7c0.1,0.2,0.3,0.2,0.6,0.2c0.2,0,0.4-0.1,0.5-0.2c0.1-0.2,0.2-0.4,0.2-0.7c0-0.4-0.1-0.7-0.3-0.8
		c-0.1-0.1-0.3-0.2-0.4-0.2c-0.2,0-0.4,0.1-0.5,0.2C122,117.3,121.9,117.6,121.9,118z"/>
	<path class="st5" d="M127.8,116.3v3.2H127V119c-0.2,0.4-0.5,0.5-1,0.5c-0.3,0-0.6-0.1-0.8-0.3c-0.2-0.2-0.3-0.5-0.3-0.9v-2.1h0.8v2
		c0,0.2,0.1,0.4,0.2,0.5c0.1,0.1,0.2,0.1,0.4,0.1c0.2,0,0.3,0,0.4-0.1c0.1-0.1,0.2-0.3,0.2-0.6v-1.8H127.8z"/>
	<path class="st5" d="M130.5,118.6h0.9c-0.1,0.4-0.3,0.6-0.6,0.8c-0.2,0.1-0.5,0.2-0.8,0.2c-0.5,0-0.9-0.1-1.1-0.4
		c-0.3-0.3-0.5-0.7-0.5-1.4c0-0.4,0.1-0.7,0.2-0.9c0.3-0.4,0.7-0.7,1.3-0.7c0.4,0,0.7,0.1,1,0.3c0.3,0.3,0.5,0.8,0.5,1.4l0,0.1h-2.2
		c0,0.3,0.1,0.5,0.2,0.6c0.1,0.1,0.3,0.2,0.5,0.2c0.1,0,0.2,0,0.3-0.1C130.4,118.8,130.4,118.7,130.5,118.6z M129.2,117.6h1.3
		c0-0.2-0.1-0.4-0.2-0.5c-0.1-0.1-0.2-0.1-0.4-0.1c-0.2,0-0.3,0.1-0.5,0.2C129.3,117.2,129.2,117.4,129.2,117.6z"/>
	<path class="st5" d="M134.6,117.3h-0.8c0-0.1-0.1-0.2-0.1-0.3c-0.1-0.1-0.2-0.1-0.4-0.1c-0.2,0-0.3,0-0.4,0.1
		c-0.1,0-0.1,0.1-0.1,0.2c0,0.1,0.2,0.2,0.5,0.3c0.5,0.1,0.8,0.2,1,0.3c0.3,0.2,0.5,0.4,0.5,0.8c0,0.4-0.2,0.7-0.5,0.9
		c-0.2,0.1-0.5,0.2-0.9,0.2c-0.4,0-0.8-0.1-1-0.2c-0.3-0.2-0.5-0.5-0.5-0.9h0.9c0,0.1,0.1,0.3,0.2,0.3c0.1,0.1,0.3,0.1,0.5,0.1
		c0.2,0,0.3,0,0.4-0.1c0.1-0.1,0.1-0.1,0.1-0.2c0-0.1-0.2-0.2-0.5-0.3c-0.5-0.1-0.8-0.2-1-0.3c-0.3-0.2-0.5-0.4-0.5-0.8
		c0-0.3,0.1-0.5,0.3-0.7c0.2-0.2,0.6-0.4,1-0.4c0.4,0,0.7,0.1,1,0.2C134.4,116.6,134.6,116.9,134.6,117.3z"/>
	<path class="st5" d="M136.2,115.4v0.9h0.5v0.6h-0.5v1.7c0,0.1,0,0.2,0.1,0.2c0,0,0.1,0.1,0.3,0.1h0.2v0.6l-0.4,0h-0.1
		c-0.3,0-0.6-0.1-0.7-0.2c-0.1-0.1-0.2-0.3-0.2-0.5v-1.9h-0.4l0-0.6h0.4l0-0.9H136.2z"/>
	<path class="st5" d="M139.9,116.9v2.6h-0.8v-2.6h-0.5l0-0.6h0.5V116c0-0.3,0.1-0.5,0.2-0.7c0.2-0.1,0.4-0.2,0.7-0.2h0.4v0.7h-0.2
		c-0.1,0-0.2,0-0.2,0.1c0,0,0,0.1,0,0.3v0.1h0.5l0,0.6H139.9z"/>
	<path class="st5" d="M144,117.9c0,0.5-0.2,1-0.5,1.3c-0.3,0.3-0.7,0.4-1.1,0.4s-0.8-0.1-1.1-0.4c-0.3-0.3-0.5-0.7-0.5-1.3
		c0-0.5,0.2-1,0.5-1.3c0.3-0.3,0.7-0.4,1.1-0.4s0.8,0.1,1.1,0.4C143.8,116.9,144,117.4,144,117.9z M143.1,117.9c0-0.3,0-0.5-0.1-0.6
		c-0.1-0.2-0.3-0.3-0.6-0.3c-0.3,0-0.5,0.1-0.6,0.3c-0.1,0.2-0.1,0.4-0.1,0.6c0,0.3,0,0.5,0.1,0.6c0.1,0.2,0.3,0.3,0.6,0.3
		c0.3,0,0.5-0.1,0.6-0.3C143.1,118.4,143.1,118.2,143.1,117.9z"/>
	<path class="st5" d="M144.6,119.5l0-3.2h0.8l0,0.6c0.1-0.2,0.2-0.4,0.3-0.4c0.1-0.1,0.3-0.2,0.6-0.2h0.2l0,0.9c0,0-0.1,0-0.1,0
		s-0.1,0-0.1,0c-0.3,0-0.5,0.1-0.6,0.2c-0.1,0.1-0.1,0.3-0.1,0.5v1.7H144.6z"/>
	<path class="st5" d="M149.5,115.2v4.3h-0.8v-4.3H149.5z"/>
	<path class="st5" d="M153.3,117.9c0,0.5-0.2,1-0.5,1.3c-0.3,0.3-0.7,0.4-1.1,0.4s-0.8-0.1-1.1-0.4c-0.3-0.3-0.5-0.7-0.5-1.3
		c0-0.5,0.2-1,0.5-1.3c0.3-0.3,0.7-0.4,1.1-0.4s0.8,0.1,1.1,0.4C153.2,116.9,153.3,117.4,153.3,117.9z M152.5,117.9
		c0-0.3,0-0.5-0.1-0.6c-0.1-0.2-0.3-0.3-0.6-0.3c-0.3,0-0.5,0.1-0.6,0.3c-0.1,0.2-0.1,0.4-0.1,0.6c0,0.3,0,0.5,0.1,0.6
		c0.1,0.2,0.3,0.3,0.6,0.3c0.3,0,0.5-0.1,0.6-0.3C152.4,118.4,152.5,118.2,152.5,117.9z"/>
	<path class="st5" d="M155.8,118.3h0.9c0,0.3-0.1,0.5-0.3,0.7c-0.3,0.3-0.7,0.5-1.2,0.5c-0.5,0-0.9-0.2-1.2-0.5
		c-0.2-0.3-0.3-0.6-0.3-1c0-0.5,0.1-1,0.4-1.3c0.3-0.3,0.7-0.5,1.2-0.5c0.3,0,0.6,0.1,0.9,0.2c0.3,0.2,0.5,0.5,0.6,1h-0.9
		c0-0.2-0.1-0.3-0.2-0.4c-0.1-0.1-0.2-0.1-0.3-0.1c-0.2,0-0.4,0.1-0.5,0.3c-0.1,0.2-0.1,0.4-0.1,0.6c0,0.4,0.1,0.6,0.2,0.8
		s0.3,0.2,0.5,0.2c0.2,0,0.3-0.1,0.4-0.2C155.8,118.6,155.8,118.4,155.8,118.3z"/>
	<path class="st5" d="M158.1,118.5v1h-0.8v-4.3h0.8v2.3l1.1-1.2h1l-1.1,1.2l1.2,2h-1l-0.8-1.4L158.1,118.5z"/>
	<path class="st5" d="M161.6,115.2v0.8h-0.8v-0.8H161.6z M160.7,116.3h0.8v3.2h-0.8V116.3z"/>
	<path class="st5" d="M165.3,117.3v2.2h-0.8v-1.9c0-0.2,0-0.3-0.1-0.4c-0.1-0.2-0.2-0.2-0.5-0.2c-0.2,0-0.3,0.1-0.5,0.2
		c-0.1,0.1-0.2,0.3-0.2,0.5v1.8h-0.8v-3.2h0.8v0.5c0.1-0.2,0.3-0.3,0.4-0.4s0.3-0.1,0.5-0.1c0.3,0,0.6,0.1,0.8,0.3
		C165.2,116.7,165.3,117,165.3,117.3z"/>
	<path class="st5" d="M168.2,116.3h0.8v3c0,0.4-0.1,0.7-0.2,0.9c-0.2,0.4-0.7,0.5-1.4,0.5c-0.4,0-0.7-0.1-0.9-0.2
		c-0.3-0.2-0.5-0.4-0.5-0.7h0.9c0,0.1,0.1,0.2,0.1,0.2c0.1,0.1,0.2,0.1,0.5,0.1c0.4,0,0.7-0.2,0.7-0.7v-0.4l0,0
		c-0.1,0.1-0.2,0.3-0.3,0.3c-0.1,0.1-0.3,0.1-0.6,0.1c-0.4,0-0.7-0.1-1-0.4c-0.3-0.3-0.4-0.7-0.4-1.2c0-0.5,0.1-0.9,0.4-1.2
		c0.2-0.3,0.5-0.4,0.9-0.4c0.3,0,0.5,0.1,0.7,0.2c0.1,0.1,0.2,0.2,0.3,0.4L168.2,116.3z M166.8,117.9c0,0.2,0,0.4,0.1,0.6
		c0.1,0.2,0.3,0.3,0.5,0.3c0.3,0,0.4-0.1,0.6-0.3c0.1-0.2,0.1-0.4,0.1-0.6c0-0.3-0.1-0.5-0.2-0.7c-0.1-0.2-0.3-0.3-0.5-0.3
		c-0.2,0-0.3,0.1-0.4,0.2C166.8,117.3,166.8,117.6,166.8,117.9z"/>
</g>
<g class="st4">
	<path class="st2" d="M73.9,83.7v3.7c0,0.7-0.2,1.3-0.6,1.6c-0.4,0.3-1,0.5-1.7,0.5c-0.3,0-0.6,0-0.9-0.1c-0.4-0.1-0.7-0.3-0.9-0.6
		c-0.3-0.3-0.4-0.8-0.4-1.4v-3.8h1.2v3.7c0,0.4,0.1,0.7,0.3,0.9s0.4,0.3,0.7,0.3c0.4,0,0.7-0.1,0.9-0.3c0.2-0.2,0.3-0.5,0.3-0.8
		v-3.8H73.9z"/>
	<path class="st2" d="M78.5,86.5h-1.1c0-0.2-0.1-0.3-0.2-0.4c-0.1-0.1-0.3-0.2-0.6-0.2c-0.3,0-0.5,0-0.6,0.1
		c-0.1,0.1-0.1,0.2-0.1,0.3c0,0.2,0.2,0.3,0.7,0.4c0.7,0.1,1.1,0.3,1.3,0.4c0.5,0.2,0.7,0.6,0.7,1c0,0.5-0.2,0.9-0.7,1.2
		c-0.3,0.2-0.7,0.3-1.2,0.3c-0.6,0-1-0.1-1.4-0.3c-0.4-0.3-0.7-0.6-0.7-1.2h1.2c0,0.2,0.1,0.4,0.2,0.5c0.1,0.1,0.4,0.2,0.7,0.2
		c0.3,0,0.4-0.1,0.6-0.2c0.1-0.1,0.1-0.2,0.1-0.3c0-0.2-0.2-0.3-0.7-0.4c-0.7-0.1-1.1-0.3-1.3-0.3c-0.5-0.2-0.7-0.5-0.7-1
		c0-0.4,0.1-0.7,0.4-0.9c0.3-0.3,0.8-0.5,1.4-0.5c0.5,0,1,0.1,1.3,0.2C78.3,85.5,78.5,85.9,78.5,86.5z"/>
	<path class="st2" d="M81.9,88.2h1.1c-0.1,0.5-0.4,0.8-0.8,1.1c-0.3,0.2-0.7,0.3-1.1,0.3c-0.7,0-1.2-0.2-1.5-0.5
		c-0.4-0.4-0.6-1-0.6-1.8c0-0.5,0.1-0.9,0.3-1.3c0.3-0.6,0.9-0.9,1.7-0.9c0.5,0,1,0.1,1.3,0.4c0.5,0.4,0.7,1,0.7,1.9l0,0.2h-2.9
		c0,0.4,0.1,0.6,0.3,0.8c0.2,0.2,0.4,0.2,0.7,0.2c0.2,0,0.3,0,0.5-0.1S81.9,88.3,81.9,88.2z M80.2,86.9H82c0-0.3-0.1-0.5-0.3-0.7
		C81.5,86,81.3,86,81.1,86c-0.3,0-0.5,0.1-0.6,0.2C80.4,86.4,80.3,86.6,80.2,86.9z"/>
	<path class="st2" d="M83.9,89.4l0-4.3h1.1l0,0.7c0.2-0.3,0.3-0.5,0.4-0.6c0.2-0.2,0.5-0.3,0.8-0.3h0.2l0,1.1c0,0-0.1,0-0.1,0
		s-0.1,0-0.2,0c-0.4,0-0.7,0.1-0.8,0.3C85,86.7,85,86.9,85,87.2v2.2H83.9z"/>
	<path class="st2" d="M87,84.7v-1h1.1v0.8c0,0.4-0.1,0.8-0.4,1c-0.2,0.2-0.4,0.3-0.7,0.3l0-0.4c0.2-0.1,0.4-0.2,0.5-0.3
		c0.1-0.1,0.1-0.3,0.1-0.4H87z"/>
	<path class="st2" d="M92.7,86.5h-1.1c0-0.2-0.1-0.3-0.2-0.4c-0.1-0.1-0.3-0.2-0.6-0.2c-0.3,0-0.5,0-0.6,0.1
		c-0.1,0.1-0.1,0.2-0.1,0.3c0,0.2,0.2,0.3,0.7,0.4c0.7,0.1,1.1,0.3,1.3,0.4c0.5,0.2,0.7,0.6,0.7,1c0,0.5-0.2,0.9-0.7,1.2
		c-0.3,0.2-0.7,0.3-1.2,0.3c-0.6,0-1-0.1-1.4-0.3c-0.4-0.3-0.7-0.6-0.7-1.2h1.2c0,0.2,0.1,0.4,0.2,0.5c0.1,0.1,0.4,0.2,0.7,0.2
		c0.3,0,0.4-0.1,0.6-0.2c0.1-0.1,0.1-0.2,0.1-0.3c0-0.2-0.2-0.3-0.7-0.4c-0.7-0.1-1.1-0.3-1.3-0.3c-0.5-0.2-0.7-0.5-0.7-1
		c0-0.4,0.1-0.7,0.4-0.9c0.3-0.3,0.8-0.5,1.4-0.5c0.5,0,1,0.1,1.3,0.2C92.5,85.5,92.7,85.9,92.7,86.5z"/>
	<path class="st2" d="M101.5,85.2l-1.2,4.3h-1.2l-0.7-3.1l-0.7,3.1h-1.2l-1.2-4.3h1.2l0.7,3.1l0.6-3.1H99l0.6,3.1l0.7-3.1H101.5z"/>
	<path class="st2" d="M105.5,86.3v2.3c0,0.2,0,0.4,0.1,0.5s0.1,0.1,0.2,0.2v0.2h-1.2c-0.1-0.2-0.1-0.3-0.1-0.5
		c-0.2,0.2-0.3,0.3-0.5,0.4c-0.2,0.1-0.5,0.2-0.9,0.2c-0.4,0-0.7-0.1-0.9-0.3c-0.3-0.2-0.4-0.5-0.4-1c0-0.4,0.1-0.7,0.3-0.9
		c0.2-0.2,0.5-0.4,0.9-0.4l1-0.2c0.2,0,0.3-0.1,0.3-0.1s0.1-0.1,0.1-0.2c0-0.2-0.1-0.3-0.3-0.4c-0.1,0-0.3-0.1-0.5-0.1
		c-0.2,0-0.4,0.1-0.5,0.2c-0.1,0.1-0.1,0.2-0.1,0.4H102c0.1-0.6,0.3-1,0.7-1.2c0.3-0.2,0.7-0.3,1.2-0.3c0.4,0,0.8,0.1,1.1,0.2
		C105.3,85.5,105.5,85.8,105.5,86.3z M104.5,87.9v-0.5c-0.1,0-0.1,0.1-0.3,0.1c-0.1,0-0.3,0.1-0.5,0.1s-0.4,0.1-0.5,0.2
		c-0.1,0.1-0.2,0.3-0.2,0.5c0,0.2,0.1,0.3,0.2,0.4c0.1,0.1,0.2,0.1,0.3,0.1c0.3,0,0.5-0.1,0.7-0.2C104.4,88.3,104.5,88.1,104.5,87.9
		z"/>
	<path class="st2" d="M107.7,83.7v5.7h-1.1v-5.7H107.7z"/>
	<path class="st2" d="M109.9,83.7v5.7h-1.1v-5.7H109.9z"/>
	<path class="st2" d="M113.5,88.2h1.1c-0.1,0.5-0.4,0.8-0.8,1.1c-0.3,0.2-0.7,0.3-1.1,0.3c-0.7,0-1.2-0.2-1.5-0.5
		c-0.4-0.4-0.6-1-0.6-1.8c0-0.5,0.1-0.9,0.3-1.3c0.3-0.6,0.9-0.9,1.7-0.9c0.5,0,1,0.1,1.3,0.4c0.5,0.4,0.7,1,0.7,1.9l0,0.2h-2.9
		c0,0.4,0.1,0.6,0.3,0.8c0.2,0.2,0.4,0.2,0.7,0.2c0.2,0,0.3,0,0.5-0.1S113.5,88.3,113.5,88.2z M111.8,86.9h1.7
		c0-0.3-0.1-0.5-0.3-0.7c-0.1-0.1-0.3-0.2-0.5-0.2c-0.3,0-0.5,0.1-0.6,0.2C111.9,86.4,111.8,86.6,111.8,86.9z"/>
	<path class="st2" d="M116.7,84v1.2h0.7V86h-0.7v2.3c0,0.1,0,0.2,0.1,0.3c0.1,0,0.2,0.1,0.4,0.1h0.2v0.8l-0.5,0h-0.1
		c-0.5,0-0.8-0.1-0.9-0.2c-0.1-0.1-0.2-0.4-0.2-0.7V86H115l0-0.8h0.6l0-1.2H116.7z"/>
	<path class="st2" d="M123.8,86.3v2.3c0,0.2,0,0.4,0.1,0.5s0.1,0.1,0.2,0.2v0.2h-1.2c-0.1-0.2-0.1-0.3-0.1-0.5
		c-0.2,0.2-0.3,0.3-0.5,0.4c-0.2,0.1-0.5,0.2-0.9,0.2c-0.4,0-0.7-0.1-0.9-0.3c-0.3-0.2-0.4-0.5-0.4-1c0-0.4,0.1-0.7,0.3-0.9
		c0.2-0.2,0.5-0.4,0.9-0.4l1-0.2c0.2,0,0.3-0.1,0.3-0.1c0.1-0.1,0.1-0.1,0.1-0.2c0-0.2-0.1-0.3-0.3-0.4c-0.1,0-0.3-0.1-0.5-0.1
		c-0.2,0-0.4,0.1-0.5,0.2c-0.1,0.1-0.1,0.2-0.1,0.4h-1.1c0.1-0.6,0.3-1,0.7-1.2c0.3-0.2,0.7-0.3,1.2-0.3c0.4,0,0.8,0.1,1.1,0.2
		C123.6,85.5,123.8,85.8,123.8,86.3z M122.7,87.9v-0.5c-0.1,0-0.1,0.1-0.3,0.1c-0.1,0-0.3,0.1-0.5,0.1s-0.4,0.1-0.5,0.2
		c-0.1,0.1-0.2,0.3-0.2,0.5c0,0.2,0.1,0.3,0.2,0.4c0.1,0.1,0.2,0.1,0.3,0.1c0.3,0,0.5-0.1,0.7-0.2C122.6,88.3,122.7,88.1,122.7,87.9
		z"/>
	<path class="st2" d="M128.7,83.7v5.7h-1.1v-0.5c-0.1,0.2-0.3,0.4-0.6,0.5c-0.2,0.1-0.4,0.1-0.7,0.1c-0.6,0-1-0.2-1.4-0.7
		c-0.3-0.4-0.4-0.9-0.4-1.6c0-0.7,0.2-1.3,0.5-1.6c0.3-0.4,0.7-0.5,1.2-0.5c0.3,0,0.6,0.1,0.8,0.2c0.2,0.1,0.3,0.2,0.4,0.4l0-2
		H128.7z M125.7,87.3c0,0.3,0.1,0.6,0.2,0.8c0.2,0.3,0.4,0.5,0.7,0.5c0.3,0,0.6-0.1,0.8-0.4c0.2-0.2,0.2-0.5,0.2-0.8
		c0-0.4-0.1-0.7-0.2-0.9c-0.2-0.3-0.4-0.4-0.8-0.4c-0.3,0-0.6,0.1-0.7,0.4C125.8,86.6,125.7,86.9,125.7,87.3z"/>
	<path class="st2" d="M133.6,83.7v5.7h-1.1v-0.5c-0.1,0.2-0.3,0.4-0.6,0.5c-0.2,0.1-0.4,0.1-0.7,0.1c-0.6,0-1-0.2-1.4-0.7
		c-0.3-0.4-0.4-0.9-0.4-1.6c0-0.7,0.2-1.3,0.5-1.6c0.3-0.4,0.7-0.5,1.2-0.5c0.3,0,0.6,0.1,0.8,0.2c0.2,0.1,0.3,0.2,0.4,0.4l0-2
		H133.6z M130.6,87.3c0,0.3,0.1,0.6,0.2,0.8c0.2,0.3,0.4,0.5,0.7,0.5c0.3,0,0.6-0.1,0.8-0.4c0.2-0.2,0.2-0.5,0.2-0.8
		c0-0.4-0.1-0.7-0.2-0.9c-0.2-0.3-0.4-0.4-0.8-0.4c-0.3,0-0.6,0.1-0.7,0.4C130.6,86.6,130.6,86.9,130.6,87.3z"/>
	<path class="st2" d="M134.6,89.4l0-4.3h1.1l0,0.7c0.2-0.3,0.3-0.5,0.4-0.6c0.2-0.2,0.5-0.3,0.8-0.3h0.2l0,1.1c0,0-0.1,0-0.1,0
		c0,0-0.1,0-0.2,0c-0.4,0-0.7,0.1-0.8,0.3c-0.1,0.2-0.2,0.4-0.2,0.7v2.2H134.6z"/>
	<path class="st2" d="M140.2,88.2h1.1c-0.1,0.5-0.4,0.8-0.8,1.1c-0.3,0.2-0.7,0.3-1.1,0.3c-0.7,0-1.2-0.2-1.5-0.5
		c-0.4-0.4-0.6-1-0.6-1.8c0-0.5,0.1-0.9,0.3-1.3c0.3-0.6,0.9-0.9,1.7-0.9c0.5,0,1,0.1,1.3,0.4c0.5,0.4,0.7,1,0.7,1.9l0,0.2h-2.9
		c0,0.4,0.2,0.6,0.3,0.8c0.2,0.2,0.4,0.2,0.7,0.2c0.2,0,0.3,0,0.5-0.1S140.1,88.3,140.2,88.2z M138.5,86.9h1.7
		c0-0.3-0.1-0.5-0.3-0.7c-0.1-0.1-0.3-0.2-0.5-0.2c-0.3,0-0.5,0.1-0.6,0.2C138.6,86.4,138.5,86.6,138.5,86.9z"/>
	<path class="st2" d="M145.6,86.5h-1.1c0-0.2-0.1-0.3-0.2-0.4c-0.1-0.1-0.3-0.2-0.6-0.2c-0.3,0-0.5,0-0.6,0.1
		c-0.1,0.1-0.1,0.2-0.1,0.3c0,0.2,0.2,0.3,0.7,0.4c0.7,0.1,1.1,0.3,1.3,0.4c0.5,0.2,0.7,0.6,0.7,1c0,0.5-0.2,0.9-0.7,1.2
		c-0.3,0.2-0.7,0.3-1.2,0.3c-0.6,0-1-0.1-1.4-0.3c-0.4-0.3-0.7-0.6-0.7-1.2h1.2c0,0.2,0.1,0.4,0.2,0.5c0.1,0.1,0.4,0.2,0.7,0.2
		c0.3,0,0.4-0.1,0.6-0.2c0.1-0.1,0.1-0.2,0.1-0.3c0-0.2-0.2-0.3-0.7-0.4c-0.7-0.1-1.1-0.3-1.3-0.3c-0.5-0.2-0.7-0.5-0.7-1
		c0-0.4,0.1-0.7,0.4-0.9c0.3-0.3,0.8-0.5,1.4-0.5c0.5,0,1,0.1,1.3,0.2C145.4,85.5,145.6,85.9,145.6,86.5z"/>
	<path class="st2" d="M150.1,86.5H149c0-0.2-0.1-0.3-0.2-0.4c-0.1-0.1-0.3-0.2-0.6-0.2c-0.3,0-0.5,0-0.6,0.1
		c-0.1,0.1-0.1,0.2-0.1,0.3c0,0.2,0.2,0.3,0.7,0.4c0.7,0.1,1.1,0.3,1.3,0.4c0.5,0.2,0.7,0.6,0.7,1c0,0.5-0.2,0.9-0.7,1.2
		c-0.3,0.2-0.7,0.3-1.2,0.3c-0.6,0-1-0.1-1.4-0.3c-0.4-0.3-0.7-0.6-0.7-1.2h1.2c0,0.2,0.1,0.4,0.2,0.5c0.1,0.1,0.4,0.2,0.7,0.2
		c0.3,0,0.4-0.1,0.6-0.2c0.1-0.1,0.1-0.2,0.1-0.3c0-0.2-0.2-0.3-0.7-0.4c-0.7-0.1-1.1-0.3-1.3-0.3c-0.5-0.2-0.7-0.5-0.7-1
		c0-0.4,0.1-0.7,0.4-0.9c0.3-0.3,0.8-0.5,1.4-0.5c0.5,0,1,0.1,1.3,0.2C149.9,85.5,150.1,85.9,150.1,86.5z"/>
</g>
</svg>
