<?xml version="1.0" encoding="utf-8"?>
<!-- Generator: Adobe Illustrator 22.0.1, SVG Export Plug-In . SVG Version: 6.00 Build 0)  -->
<svg version="1.1" id="图层_1" xmlns="http://www.w3.org/2000/svg" xmlns:xlink="http://www.w3.org/1999/xlink" x="0px" y="0px"
	 viewBox="0 0 284.5 189.2" style="enable-background:new 0 0 284.5 189.2;" xml:space="preserve">
<style type="text/css">
	.st0{fill:#D9DBDB;}
	.st1{fill:#D7C42A;}
	.st2{fill:none;stroke:#181919;stroke-miterlimit:10;}
	.st3{fill:#FFFFFF;}
	.st4{fill:#181919;}
	.st5{enable-background:new    ;}
	.st6{fill:#9B9B9B;}
</style>
<path class="st0" d="M182.8,10.6h43.5c5.4,0,9.8,4.4,9.8,9.8v24.7h3V20.5c0-7.1-5.8-12.8-12.8-12.8h-43.5"/>
<path class="st1" d="M59,177.7c-5.4,0-9.8-4.4-9.8-9.8v-57.5h-3v57.5c0,7.1,5.8,12.8,12.8,12.8h26.7v-3H59z"/>
<path class="st1" d="M49.1,83V20.5c0-5.4,4.4-9.8,9.8-9.8h26.7v-3H59c-7.1,0-12.8,5.8-12.8,12.8V83"/>
<polygon class="st0" points="242,78.7 237.6,86.4 233.2,78.7 "/>
<path class="st2" d="M179.8,101.1c0,5.3-4.6,9.6-10.3,9.6h-65.4c-5.7,0-10.3-4.3-10.3-9.6s4.6-9.6,10.3-9.6h65.4
	C175.2,91.5,179.8,95.8,179.8,101.1z"/>
<path class="st2" d="M183,179.1c0,5.3-4.3,9.6-9.6,9.6h-73.3c-5.3,0-9.6-4.3-9.6-9.6s4.3-9.6,9.6-9.6h73.3
	C178.7,169.5,183,173.8,183,179.1z"/>
<path class="st2" d="M282.8,101.1c0,5.3-3.9,9.6-8.8,9.6h-72.4c-4.9,0-8.8-4.3-8.8-9.6s3.9-9.6,8.8-9.6H274
	C278.8,91.5,282.8,95.8,282.8,101.1z"/>
<rect x="135.3" y="63.2" class="st1" width="3" height="18.1"/>
<rect x="135.3" y="22.9" class="st1" width="3" height="19.5"/>
<rect x="236" y="66" class="st0" width="3" height="14.5"/>
<polygon class="st1" points="141.2,78.7 136.8,86.4 132.4,78.7 "/>
<polygon class="st1" points="83.7,4.2 91.4,8.6 83.7,13.1 "/>
<rect x="135.3" y="114.6" class="st1" width="3" height="44.2"/>
<polygon class="st1" points="141.2,156.3 136.8,164 132.4,156.3 "/>
<rect x="103.8" y="49.9" class="st3" width="66" height="11.8"/>
<rect x="189.4" y="54" class="st3" width="66" height="11.7"/>
<rect y="86.4" class="st3" width="71" height="18.3"/>
<rect x="103.8" y="128.9" class="st3" width="66" height="10.9"/>
<path class="st4" d="M179.8,9.6c0,5.3-4.6,9.6-10.3,9.6h-65.4c-5.7,0.1-10.3-4.2-10.3-9.6S98.4,0,104.1,0h65.4
	C175.2,0,179.8,4.3,179.8,9.6"/>
<g class="st5">
	<path class="st3" d="M101,6.3V10c0,0.7-0.2,1.3-0.6,1.6s-1,0.5-1.7,0.5c-0.3,0-0.6,0-0.9-0.1c-0.4-0.1-0.7-0.3-0.9-0.6
		c-0.3-0.3-0.4-0.8-0.4-1.4V6.3h1.2V10c0,0.4,0.1,0.7,0.3,0.9s0.4,0.3,0.7,0.3c0.4,0,0.7-0.1,0.9-0.3c0.2-0.2,0.3-0.5,0.3-0.8V6.3
		H101z"/>
	<path class="st3" d="M105.7,9h-1.1c0-0.2-0.1-0.3-0.2-0.4c-0.1-0.1-0.3-0.2-0.6-0.2c-0.3,0-0.5,0-0.6,0.1s-0.1,0.2-0.1,0.3
		c0,0.2,0.2,0.3,0.7,0.4c0.7,0.1,1.1,0.3,1.3,0.4c0.5,0.2,0.7,0.6,0.7,1c0,0.5-0.2,0.9-0.7,1.2c-0.3,0.2-0.7,0.3-1.2,0.3
		c-0.6,0-1-0.1-1.4-0.3c-0.4-0.3-0.7-0.6-0.7-1.2h1.2c0,0.2,0.1,0.4,0.2,0.5s0.4,0.2,0.7,0.2c0.3,0,0.4-0.1,0.6-0.2
		c0.1-0.1,0.1-0.2,0.1-0.3c0-0.2-0.2-0.3-0.7-0.4c-0.7-0.1-1.1-0.3-1.3-0.3c-0.5-0.2-0.7-0.5-0.7-1c0-0.4,0.1-0.7,0.4-0.9
		c0.3-0.3,0.8-0.5,1.4-0.5c0.5,0,1,0.1,1.3,0.2C105.4,8.1,105.7,8.5,105.7,9z"/>
	<path class="st3" d="M109.1,10.8h1.1c-0.1,0.5-0.4,0.8-0.8,1.1c-0.3,0.2-0.7,0.3-1.1,0.3c-0.7,0-1.2-0.2-1.5-0.5
		c-0.4-0.4-0.6-1-0.6-1.8c0-0.5,0.1-0.9,0.3-1.3c0.3-0.6,0.9-0.9,1.7-0.9c0.5,0,1,0.1,1.3,0.4c0.5,0.4,0.7,1,0.7,1.9v0.2h-2.9
		c0,0.4,0.1,0.6,0.3,0.8c0.2,0.2,0.4,0.2,0.7,0.2c0.2,0,0.3,0,0.5-0.1S109.1,10.9,109.1,10.8z M107.4,9.4h1.7c0-0.3-0.1-0.5-0.3-0.7
		c-0.1-0.1-0.3-0.2-0.5-0.2c-0.3,0-0.5,0.1-0.6,0.2C107.5,8.9,107.4,9.2,107.4,9.4z"/>
	<path class="st3" d="M111,12V7.7h1.1v0.7c0.2-0.3,0.3-0.5,0.4-0.6c0.2-0.2,0.5-0.3,0.8-0.3h0.2v1.1h-0.1c0,0-0.1,0-0.2,0
		c-0.4,0-0.7,0.1-0.8,0.3c-0.1,0.2-0.2,0.4-0.2,0.7V12H111z"/>
	<path class="st3" d="M114.2,7.3v-1h1.1v0.8c0,0.4-0.1,0.8-0.4,1c-0.2,0.2-0.4,0.3-0.7,0.3V8c0.2-0.1,0.4-0.2,0.5-0.3
		c0.1-0.1,0.1-0.3,0.1-0.4C114.8,7.3,114.2,7.3,114.2,7.3z"/>
	<path class="st3" d="M119.9,9h-1.1c0-0.2-0.1-0.3-0.2-0.4c-0.1-0.1-0.3-0.2-0.6-0.2c-0.3,0-0.5,0-0.6,0.1s-0.1,0.2-0.1,0.3
		c0,0.2,0.2,0.3,0.7,0.4c0.7,0.1,1.1,0.3,1.3,0.4c0.5,0.2,0.7,0.6,0.7,1c0,0.5-0.2,0.9-0.7,1.2c-0.3,0.2-0.7,0.3-1.2,0.3
		c-0.6,0-1-0.1-1.4-0.3c-0.4-0.3-0.7-0.6-0.7-1.2h1.2c0,0.2,0.1,0.4,0.2,0.5s0.4,0.2,0.7,0.2c0.3,0,0.4-0.1,0.6-0.2
		c0.1-0.1,0.1-0.2,0.1-0.3c0-0.2-0.2-0.3-0.7-0.4c-0.7-0.1-1.1-0.3-1.3-0.3c-0.5-0.2-0.7-0.5-0.7-1c0-0.4,0.1-0.7,0.4-0.9
		c0.3-0.3,0.8-0.5,1.4-0.5c0.5,0,1,0.1,1.3,0.2C119.7,8.1,119.9,8.5,119.9,9z"/>
	<path class="st3" d="M128.7,7.7l-1.2,4.3h-1.2l-0.7-3.1L125,12h-1.2l-1.2-4.3h1.2l0.7,3.1l0.6-3.1h1.1l0.6,3.1l0.7-3.1
		C127.5,7.7,128.7,7.7,128.7,7.7z"/>
	<path class="st3" d="M132.7,8.9v2.3c0,0.2,0,0.4,0.1,0.5s0.1,0.1,0.2,0.2V12h-1.2c-0.1-0.2-0.1-0.3-0.1-0.5
		c-0.2,0.2-0.3,0.3-0.5,0.4c-0.2,0.1-0.5,0.2-0.9,0.2s-0.7-0.1-0.9-0.3c-0.3-0.2-0.4-0.5-0.4-1c0-0.4,0.1-0.7,0.3-0.9
		s0.5-0.4,0.9-0.4l1-0.2c0.2,0,0.3-0.1,0.3-0.1s0.1-0.1,0.1-0.2c0-0.2-0.1-0.3-0.3-0.4c-0.1,0-0.3-0.1-0.5-0.1s-0.4,0.1-0.5,0.2
		c-0.1,0.1-0.1,0.2-0.1,0.4h-1.1c0.1-0.6,0.3-1,0.7-1.2c0.3-0.2,0.7-0.3,1.2-0.3c0.4,0,0.8,0.1,1.1,0.2
		C132.5,8.1,132.7,8.4,132.7,8.9z M131.6,10.5V9.9c-0.1,0-0.1,0.1-0.3,0.1c-0.1,0-0.3,0.1-0.5,0.1s-0.4,0.1-0.5,0.2
		c-0.1,0.1-0.2,0.3-0.2,0.5s0.1,0.3,0.2,0.4c0.1,0.1,0.2,0.1,0.3,0.1c0.3,0,0.5-0.1,0.7-0.2C131.5,10.9,131.6,10.7,131.6,10.5z"/>
	<path class="st3" d="M134.9,6.3V12h-1.1V6.3H134.9z"/>
	<path class="st3" d="M137.1,6.3V12H136V6.3H137.1z"/>
	<path class="st3" d="M140.7,10.8h1.1c-0.1,0.5-0.4,0.8-0.8,1.1c-0.3,0.2-0.7,0.3-1.1,0.3c-0.7,0-1.2-0.2-1.5-0.5
		c-0.4-0.4-0.6-1-0.6-1.8c0-0.5,0.1-0.9,0.3-1.3c0.3-0.6,0.9-0.9,1.7-0.9c0.5,0,1,0.1,1.3,0.4c0.5,0.4,0.7,1,0.7,1.9v0.2H139
		c0,0.4,0.1,0.6,0.3,0.8s0.4,0.2,0.7,0.2c0.2,0,0.3,0,0.5-0.1S140.6,10.9,140.7,10.8z M139,9.4h1.7c0-0.3-0.1-0.5-0.3-0.7
		c-0.1-0.1-0.3-0.2-0.5-0.2c-0.3,0-0.5,0.1-0.6,0.2C139.1,8.9,139,9.2,139,9.4z"/>
	<path class="st3" d="M143.9,6.6v1.2h0.7v0.8h-0.7v2.3c0,0.1,0,0.2,0.1,0.3c0,0,0.2,0.1,0.4,0.1h0.2V12h-0.5H144
		c-0.5,0-0.8-0.1-0.9-0.2c-0.1-0.1-0.2-0.4-0.2-0.7V8.5h-0.6V7.7h0.6V6.5L143.9,6.6L143.9,6.6z"/>
	<path class="st3" d="M151,8.9v2.3c0,0.2,0,0.4,0.1,0.5s0.1,0.1,0.2,0.2V12H150c-0.1-0.2-0.1-0.3-0.1-0.5c-0.2,0.2-0.3,0.3-0.5,0.4
		c-0.2,0.1-0.5,0.2-0.9,0.2s-0.7-0.1-0.9-0.3c-0.3-0.2-0.4-0.5-0.4-1c0-0.4,0.1-0.7,0.3-0.9s0.5-0.4,0.9-0.4l1-0.2
		c0.2,0,0.3-0.1,0.3-0.1c0.1-0.1,0.1-0.1,0.1-0.2c0-0.2-0.1-0.3-0.3-0.4c-0.1,0-0.3-0.1-0.5-0.1s-0.4,0.1-0.5,0.2
		c-0.1,0.1-0.1,0.2-0.1,0.4h-1.1c0.1-0.6,0.3-1,0.7-1.2c0.3-0.2,0.7-0.3,1.2-0.3c0.4,0,0.8,0.1,1.1,0.2C150.7,8.1,151,8.4,151,8.9z
		 M149.9,10.5V9.9c-0.1,0-0.1,0.1-0.3,0.1s-0.3,0.1-0.5,0.1s-0.4,0.1-0.5,0.2c-0.1,0.1-0.2,0.3-0.2,0.5s0.1,0.3,0.2,0.4
		c0.1,0.1,0.2,0.1,0.3,0.1c0.3,0,0.5-0.1,0.7-0.2S149.9,10.7,149.9,10.5z"/>
	<path class="st3" d="M155.8,6.3V12h-1.1v-0.5c-0.1,0.2-0.3,0.4-0.6,0.5c-0.2,0.1-0.4,0.1-0.7,0.1c-0.6,0-1-0.2-1.4-0.7
		c-0.3-0.4-0.4-0.9-0.4-1.6c0-0.7,0.2-1.3,0.5-1.6c0.3-0.4,0.7-0.5,1.2-0.5c0.3,0,0.6,0.1,0.8,0.2s0.3,0.2,0.4,0.4v-2
		C154.5,6.3,155.8,6.3,155.8,6.3z M152.9,9.9c0,0.3,0.1,0.6,0.2,0.8c0.2,0.3,0.4,0.5,0.7,0.5s0.6-0.1,0.8-0.4
		c0.2-0.2,0.2-0.5,0.2-0.8c0-0.4-0.1-0.7-0.2-0.9c-0.2-0.3-0.4-0.4-0.8-0.4c-0.3,0-0.6,0.1-0.7,0.4C152.9,9.2,152.9,9.5,152.9,9.9z"
		/>
	<path class="st3" d="M160.7,6.3V12h-1.1v-0.5c-0.1,0.2-0.3,0.4-0.6,0.5c-0.2,0.1-0.4,0.1-0.7,0.1c-0.6,0-1-0.2-1.4-0.7
		c-0.3-0.4-0.4-0.9-0.4-1.6c0-0.7,0.2-1.3,0.5-1.6c0.3-0.4,0.7-0.5,1.2-0.5c0.3,0,0.6,0.1,0.8,0.2s0.3,0.2,0.4,0.4v-2
		C159.4,6.3,160.7,6.3,160.7,6.3z M157.8,9.9c0,0.3,0.1,0.6,0.2,0.8c0.2,0.3,0.4,0.5,0.7,0.5s0.6-0.1,0.8-0.4
		c0.2-0.2,0.2-0.5,0.2-0.8c0-0.4-0.1-0.7-0.2-0.9c-0.2-0.3-0.4-0.4-0.8-0.4c-0.3,0-0.6,0.1-0.7,0.4C157.8,9.2,157.8,9.5,157.8,9.9z"
		/>
	<path class="st3" d="M161.7,12V7.7h1.1v0.7c0.2-0.3,0.3-0.5,0.4-0.6c0.2-0.2,0.5-0.3,0.8-0.3h0.2v1.1h-0.1c0,0-0.1,0-0.2,0
		c-0.4,0-0.7,0.1-0.8,0.3s-0.2,0.4-0.2,0.7V12H161.7z"/>
	<path class="st3" d="M167.4,10.8h1.1c-0.1,0.5-0.4,0.8-0.8,1.1c-0.3,0.2-0.7,0.3-1.1,0.3c-0.7,0-1.2-0.2-1.5-0.5
		c-0.4-0.4-0.6-1-0.6-1.8c0-0.5,0.1-0.9,0.3-1.3c0.3-0.6,0.9-0.9,1.7-0.9c0.5,0,1,0.1,1.3,0.4c0.5,0.4,0.7,1,0.7,1.9v0.2h-2.9
		c0,0.4,0.1,0.6,0.3,0.8s0.4,0.2,0.7,0.2c0.2,0,0.3,0,0.5-0.1S167.3,10.9,167.4,10.8z M165.7,9.4h1.7c0-0.3-0.1-0.5-0.3-0.7
		c-0.1-0.1-0.3-0.2-0.5-0.2c-0.3,0-0.5,0.1-0.6,0.2C165.8,8.9,165.7,9.2,165.7,9.4z"/>
	<path class="st3" d="M172.8,9h-1.1c0-0.2-0.1-0.3-0.2-0.4c-0.1-0.1-0.3-0.2-0.6-0.2s-0.5,0-0.6,0.1s-0.1,0.2-0.1,0.3
		c0,0.2,0.2,0.3,0.7,0.4c0.7,0.1,1.1,0.3,1.3,0.4c0.5,0.2,0.7,0.6,0.7,1c0,0.5-0.2,0.9-0.7,1.2c-0.3,0.2-0.7,0.3-1.2,0.3
		c-0.6,0-1-0.1-1.4-0.3c-0.4-0.3-0.7-0.6-0.7-1.2h1.2c0,0.2,0.1,0.4,0.2,0.5c0.1,0.1,0.4,0.2,0.7,0.2s0.4-0.1,0.6-0.2
		c0.1-0.1,0.1-0.2,0.1-0.3c0-0.2-0.2-0.3-0.7-0.4c-0.7-0.1-1.1-0.3-1.3-0.3c-0.5-0.2-0.7-0.5-0.7-1c0-0.4,0.1-0.7,0.4-0.9
		c0.3-0.3,0.8-0.5,1.4-0.5c0.5,0,1,0.1,1.3,0.2C172.6,8.1,172.8,8.5,172.8,9z"/>
	<path class="st3" d="M177.2,9h-1.1c0-0.2-0.1-0.3-0.2-0.4c-0.1-0.1-0.3-0.2-0.6-0.2s-0.5,0-0.6,0.1s-0.1,0.2-0.1,0.3
		c0,0.2,0.2,0.3,0.7,0.4c0.7,0.1,1.1,0.3,1.3,0.4c0.5,0.2,0.7,0.6,0.7,1c0,0.5-0.2,0.9-0.7,1.2c-0.3,0.2-0.7,0.3-1.2,0.3
		c-0.6,0-1-0.1-1.4-0.3c-0.4-0.3-0.7-0.6-0.7-1.2h1.2c0,0.2,0.1,0.4,0.2,0.5c0.1,0.1,0.4,0.2,0.7,0.2s0.4-0.1,0.6-0.2
		c0.1-0.1,0.1-0.2,0.1-0.3c0-0.2-0.2-0.3-0.7-0.4c-0.7-0.1-1.1-0.3-1.3-0.3c-0.5-0.2-0.7-0.5-0.7-1c0-0.4,0.1-0.7,0.4-0.9
		c0.3-0.3,0.8-0.5,1.4-0.5c0.5,0,1,0.1,1.3,0.2C177,8.1,177.2,8.5,177.2,9z"/>
</g>
<g class="st5">
	<path class="st4" d="M109.3,100.1h-1.2c-0.1-0.3-0.2-0.5-0.3-0.6c-0.2-0.2-0.5-0.4-1-0.4c-0.4,0-0.7,0.1-0.9,0.4
		c-0.3,0.4-0.5,0.9-0.5,1.6c0,0.6,0.1,1,0.3,1.4c0.3,0.4,0.6,0.6,1.1,0.6c0.3,0,0.6-0.1,0.8-0.3s0.4-0.5,0.4-0.8h1.2
		c-0.1,0.7-0.4,1.2-0.8,1.5c-0.4,0.4-1,0.6-1.7,0.6c-0.8,0-1.4-0.3-1.9-0.8s-0.7-1.3-0.7-2.3s0.3-1.7,0.8-2.3
		c0.5-0.5,1.1-0.8,1.9-0.8s1.4,0.2,1.9,0.7C109.1,99.2,109.3,99.6,109.3,100.1z"/>
	<path class="st4" d="M114.3,101.9c0,0.7-0.2,1.3-0.7,1.7c-0.4,0.4-0.9,0.5-1.5,0.5s-1.1-0.2-1.5-0.5c-0.4-0.4-0.7-1-0.7-1.7
		s0.2-1.3,0.7-1.7c0.4-0.4,0.9-0.5,1.5-0.5s1.1,0.2,1.5,0.5C114,100.6,114.3,101.1,114.3,101.9z M113.1,101.9c0-0.4-0.1-0.6-0.2-0.8
		c-0.2-0.3-0.5-0.4-0.8-0.4c-0.4,0-0.7,0.1-0.8,0.4c-0.1,0.2-0.2,0.5-0.2,0.9s0.1,0.6,0.2,0.8c0.2,0.3,0.5,0.4,0.8,0.4
		c0.4,0,0.7-0.1,0.8-0.4C113.1,102.5,113.1,102.2,113.1,101.9z"/>
	<path class="st4" d="M118.9,101.1v2.9h-1.1v-2.6c0-0.2,0-0.4-0.1-0.5c-0.1-0.2-0.3-0.3-0.6-0.3c-0.3,0-0.5,0.1-0.6,0.3
		s-0.2,0.4-0.2,0.7v2.4h-1.1v-4.3h1.1v0.6c0.2-0.3,0.4-0.5,0.6-0.6s0.4-0.2,0.7-0.2c0.4,0,0.8,0.1,1.1,0.4S118.9,100.6,118.9,101.1z
		"/>
	<path class="st4" d="M121.2,98.6v1.2h0.7v0.8h-0.7v2.3c0,0.1,0,0.2,0.1,0.3c0.1,0,0.2,0.1,0.4,0.1h0.2v0.8h-0.5h-0.1
		c-0.5,0-0.8-0.1-0.9-0.2s-0.2-0.4-0.2-0.7v-2.6h-0.6v-0.8h0.6v-1.2L121.2,98.6L121.2,98.6z"/>
	<path class="st4" d="M122.6,104v-4.3h1.1v0.7c0.2-0.3,0.3-0.5,0.4-0.6c0.2-0.2,0.5-0.3,0.8-0.3h0.2v1.1H125c0,0-0.1,0-0.2,0
		c-0.4,0-0.7,0.1-0.8,0.3c-0.1,0.2-0.2,0.4-0.2,0.7v2.2h-1.2V104z"/>
	<path class="st4" d="M129.2,100.9v2.3c0,0.2,0,0.4,0.1,0.5s0.1,0.1,0.2,0.2v0.2h-1.2c-0.1-0.2-0.1-0.3-0.1-0.5
		c-0.2,0.2-0.3,0.3-0.5,0.4s-0.5,0.2-0.9,0.2s-0.7-0.1-0.9-0.3c-0.3-0.2-0.4-0.5-0.4-1c0-0.4,0.1-0.7,0.3-0.9
		c0.2-0.2,0.5-0.4,0.9-0.4l1-0.2c0.2,0,0.3-0.1,0.3-0.1s0.1-0.1,0.1-0.2c0-0.2-0.1-0.3-0.3-0.4c-0.1,0-0.3-0.1-0.5-0.1
		s-0.4,0.1-0.5,0.2s-0.1,0.2-0.1,0.4h-1.1c0.1-0.6,0.3-1,0.7-1.2c0.3-0.2,0.7-0.3,1.2-0.3c0.4,0,0.8,0.1,1.1,0.2
		C128.9,100.1,129.2,100.4,129.2,100.9z M128.1,102.5V102c-0.1,0-0.1,0.1-0.3,0.1c-0.1,0-0.3,0.1-0.5,0.1s-0.4,0.1-0.5,0.2
		s-0.2,0.3-0.2,0.5s0.1,0.3,0.2,0.4s0.2,0.1,0.3,0.1c0.3,0,0.5-0.1,0.7-0.2C128,102.9,128.1,102.7,128.1,102.5z"/>
	<path class="st4" d="M132.7,102.4h1.1c0,0.4-0.2,0.7-0.4,1c-0.4,0.4-0.9,0.7-1.5,0.7c-0.7,0-1.2-0.2-1.6-0.7
		c-0.3-0.4-0.4-0.8-0.4-1.4c0-0.7,0.2-1.3,0.5-1.7c0.3-0.4,0.9-0.7,1.6-0.7c0.4,0,0.8,0.1,1.2,0.3c0.4,0.3,0.7,0.7,0.7,1.3h-1.1
		c0-0.2-0.1-0.4-0.3-0.5c-0.1-0.1-0.3-0.1-0.5-0.1c-0.3,0-0.6,0.1-0.7,0.4c-0.1,0.2-0.2,0.5-0.2,0.8c0,0.5,0.1,0.9,0.2,1.1
		s0.4,0.3,0.7,0.3c0.2,0,0.4-0.1,0.6-0.3C132.6,102.7,132.7,102.6,132.7,102.4z"/>
	<path class="st4" d="M135.9,98.6v1.2h0.7v0.8h-0.7v2.3c0,0.1,0,0.2,0.1,0.3c0.1,0,0.2,0.1,0.4,0.1h0.2v0.8h-0.5H136
		c-0.5,0-0.8-0.1-0.9-0.2c-0.1-0.1-0.2-0.4-0.2-0.7v-2.6h-0.6v-0.8h0.6v-1.2L135.9,98.6L135.9,98.6z"/>
	<path class="st4" d="M142.9,100.9v2.3c0,0.2,0,0.4,0.1,0.5s0.1,0.1,0.2,0.2v0.2H142c-0.1-0.2-0.1-0.3-0.1-0.5
		c-0.2,0.2-0.3,0.3-0.5,0.4s-0.5,0.2-0.9,0.2s-0.7-0.1-0.9-0.3c-0.3-0.2-0.4-0.5-0.4-1c0-0.4,0.1-0.7,0.3-0.9
		c0.2-0.2,0.5-0.4,0.9-0.4l1-0.2c0.2,0,0.3-0.1,0.3-0.1s0.1-0.1,0.1-0.2c0-0.2-0.1-0.3-0.3-0.4c-0.1,0-0.3-0.1-0.5-0.1
		s-0.4,0.1-0.5,0.2s-0.1,0.2-0.1,0.4h-1.1c0.1-0.6,0.3-1,0.7-1.2c0.3-0.2,0.7-0.3,1.2-0.3c0.4,0,0.8,0.1,1.1,0.2
		C142.7,100.1,142.9,100.4,142.9,100.9z M141.9,102.5V102c-0.1,0-0.1,0.1-0.3,0.1c-0.1,0-0.3,0.1-0.5,0.1s-0.4,0.1-0.5,0.2
		s-0.2,0.3-0.2,0.5s0.1,0.3,0.2,0.4c0.1,0.1,0.2,0.1,0.3,0.1c0.3,0,0.5-0.1,0.7-0.2C141.8,102.9,141.9,102.7,141.9,102.5z"/>
	<path class="st4" d="M147.8,98.3v5.7h-1.1v-0.5c-0.1,0.2-0.3,0.4-0.6,0.5c-0.2,0.1-0.4,0.1-0.7,0.1c-0.6,0-1-0.2-1.4-0.7
		c-0.3-0.4-0.4-0.9-0.4-1.6s0.2-1.3,0.5-1.6c0.3-0.4,0.7-0.5,1.2-0.5c0.3,0,0.6,0.1,0.8,0.2s0.3,0.2,0.4,0.4v-2H147.8z M144.9,101.9
		c0,0.3,0.1,0.6,0.2,0.8c0.2,0.3,0.4,0.5,0.7,0.5s0.6-0.1,0.8-0.4c0.2-0.2,0.2-0.5,0.2-0.8c0-0.4-0.1-0.7-0.2-0.9
		c-0.2-0.3-0.4-0.4-0.8-0.4c-0.3,0-0.6,0.1-0.7,0.4C144.9,101.2,144.9,101.5,144.9,101.9z"/>
	<path class="st4" d="M152.7,98.3v5.7h-1.1v-0.5c-0.1,0.2-0.3,0.4-0.6,0.5c-0.2,0.1-0.4,0.1-0.7,0.1c-0.6,0-1-0.2-1.4-0.7
		c-0.3-0.4-0.4-0.9-0.4-1.6s0.2-1.3,0.5-1.6c0.3-0.4,0.7-0.5,1.2-0.5c0.3,0,0.6,0.1,0.8,0.2s0.3,0.2,0.4,0.4v-2H152.7z M149.7,101.9
		c0,0.3,0.1,0.6,0.2,0.8c0.2,0.3,0.4,0.5,0.7,0.5s0.6-0.1,0.8-0.4c0.2-0.2,0.2-0.5,0.2-0.8c0-0.4-0.1-0.7-0.2-0.9
		c-0.2-0.3-0.4-0.4-0.8-0.4c-0.3,0-0.6,0.1-0.7,0.4C149.8,101.2,149.7,101.5,149.7,101.9z"/>
	<path class="st4" d="M153.7,104v-4.3h1.1v0.7c0.2-0.3,0.3-0.5,0.4-0.6c0.2-0.2,0.5-0.3,0.8-0.3h0.2v1.1h-0.1c0,0-0.1,0-0.2,0
		c-0.4,0-0.7,0.1-0.8,0.3c-0.1,0.2-0.2,0.4-0.2,0.7v2.2h-1.2V104z"/>
	<path class="st4" d="M159.3,102.8h1.1c-0.1,0.5-0.4,0.8-0.8,1.1c-0.3,0.2-0.7,0.3-1.1,0.3c-0.7,0-1.2-0.2-1.5-0.5
		c-0.4-0.4-0.6-1-0.6-1.8c0-0.5,0.1-0.9,0.3-1.3c0.3-0.6,0.9-0.9,1.7-0.9c0.5,0,1,0.1,1.3,0.4c0.5,0.4,0.7,1,0.7,1.9v0.2h-2.9
		c0,0.4,0.1,0.6,0.3,0.8c0.2,0.2,0.4,0.2,0.7,0.2c0.2,0,0.3,0,0.5-0.1S159.3,102.9,159.3,102.8z M157.7,101.4h1.7
		c0-0.3-0.1-0.5-0.3-0.7c-0.1-0.1-0.3-0.2-0.5-0.2c-0.3,0-0.5,0.1-0.6,0.2C157.8,100.9,157.7,101.2,157.7,101.4z"/>
	<path class="st4" d="M164.8,101h-1.1c0-0.2-0.1-0.3-0.2-0.4c-0.1-0.1-0.3-0.2-0.6-0.2s-0.5,0-0.6,0.1s-0.1,0.2-0.1,0.3
		c0,0.2,0.2,0.3,0.7,0.4c0.7,0.1,1.1,0.3,1.3,0.4c0.5,0.2,0.7,0.6,0.7,1c0,0.5-0.2,0.9-0.7,1.2c-0.3,0.2-0.7,0.3-1.2,0.3
		c-0.6,0-1-0.1-1.4-0.3c-0.4-0.3-0.7-0.6-0.7-1.2h1.2c0,0.2,0.1,0.4,0.2,0.5c0.1,0.1,0.4,0.2,0.7,0.2s0.4-0.1,0.6-0.2
		c0.1-0.1,0.1-0.2,0.1-0.3c0-0.2-0.2-0.3-0.7-0.4c-0.7-0.1-1.1-0.3-1.3-0.3c-0.5-0.2-0.7-0.5-0.7-1c0-0.4,0.1-0.7,0.4-0.9
		c0.3-0.3,0.8-0.5,1.4-0.5c0.5,0,1,0.1,1.3,0.2C164.6,100.1,164.8,100.5,164.8,101z"/>
	<path class="st4" d="M169.2,101h-1.1c0-0.2-0.1-0.3-0.2-0.4c-0.1-0.1-0.3-0.2-0.6-0.2s-0.5,0-0.6,0.1s-0.1,0.2-0.1,0.3
		c0,0.2,0.2,0.3,0.7,0.4c0.7,0.1,1.1,0.3,1.3,0.4c0.5,0.2,0.7,0.6,0.7,1c0,0.5-0.2,0.9-0.7,1.2c-0.3,0.2-0.7,0.3-1.2,0.3
		c-0.6,0-1-0.1-1.4-0.3c-0.4-0.3-0.7-0.6-0.7-1.2h1.2c0,0.2,0.1,0.4,0.2,0.5c0.1,0.1,0.4,0.2,0.7,0.2s0.4-0.1,0.6-0.2
		c0.1-0.1,0.1-0.2,0.1-0.3c0-0.2-0.2-0.3-0.7-0.4c-0.7-0.1-1.1-0.3-1.3-0.3c-0.5-0.2-0.7-0.5-0.7-1c0-0.4,0.1-0.7,0.4-0.9
		c0.3-0.3,0.8-0.5,1.4-0.5c0.5,0,1,0.1,1.3,0.2C169,100.1,169.2,100.5,169.2,101z"/>
</g>
<g class="st5">
	<path class="st4" d="M209.5,106.8h1.2c0,0.2,0.1,0.4,0.2,0.6c0.2,0.2,0.5,0.3,1,0.3c0.3,0,0.6,0,0.8-0.1c0.3-0.1,0.4-0.3,0.4-0.6
		c0-0.2-0.1-0.4-0.3-0.5c-0.1-0.1-0.4-0.1-0.8-0.2l-0.6-0.1c-0.6-0.1-1-0.3-1.3-0.4c-0.4-0.3-0.6-0.7-0.6-1.2c0-0.4,0.1-0.8,0.4-1.1
		c0.4-0.4,1-0.6,1.8-0.6s1.4,0.2,1.8,0.7c0.3,0.3,0.5,0.7,0.5,1.2h-1.1c0-0.2-0.1-0.4-0.2-0.5c-0.2-0.2-0.5-0.3-1-0.3
		c-0.3,0-0.5,0-0.7,0.1s-0.3,0.3-0.3,0.5s0.1,0.3,0.2,0.4c0.1,0.1,0.2,0.1,0.4,0.2l1.4,0.3c0.5,0.1,0.8,0.3,1,0.5
		c0.3,0.3,0.5,0.6,0.5,1.1c0,0.6-0.2,1-0.6,1.4c-0.4,0.4-1,0.5-1.7,0.5c-0.9,0-1.6-0.2-2-0.7C209.7,107.7,209.5,107.3,209.5,106.8z"
		/>
	<path class="st4" d="M221.2,105.7v2.9h-1.1V106c0-0.3-0.1-0.5-0.2-0.6c-0.1-0.1-0.3-0.2-0.4-0.2c-0.3,0-0.5,0.1-0.6,0.2
		c-0.1,0.2-0.2,0.4-0.2,0.6v2.6h-1.1V106c0-0.3,0-0.5-0.1-0.6c-0.1-0.2-0.3-0.3-0.6-0.3c-0.2,0-0.4,0.1-0.5,0.2s-0.2,0.4-0.2,0.6
		v2.6h-1.1v-4.3h1.1v0.6c0.1-0.2,0.3-0.4,0.4-0.5c0.2-0.2,0.5-0.3,0.8-0.3s0.5,0.1,0.7,0.2s0.3,0.3,0.5,0.5c0.1-0.2,0.3-0.3,0.4-0.4
		c0.2-0.2,0.5-0.3,0.8-0.3c0.4,0,0.8,0.1,1.1,0.4C221,104.9,221.2,105.2,221.2,105.7z"/>
	<path class="st4" d="M225.6,105.5v2.3c0,0.2,0,0.4,0.1,0.5c0,0.1,0.1,0.1,0.2,0.2v0.2h-1.2c-0.1-0.2-0.1-0.3-0.1-0.5
		c-0.2,0.2-0.3,0.3-0.5,0.4s-0.5,0.2-0.9,0.2s-0.7-0.1-0.9-0.3c-0.3-0.2-0.4-0.5-0.4-1c0-0.4,0.1-0.7,0.3-0.9
		c0.2-0.2,0.5-0.4,0.9-0.4l1-0.2c0.2,0,0.3-0.1,0.3-0.1s0.1-0.1,0.1-0.2c0-0.2-0.1-0.3-0.3-0.4c-0.1,0-0.3-0.1-0.5-0.1
		s-0.4,0.1-0.5,0.2s-0.1,0.2-0.1,0.4H222c0.1-0.6,0.3-1,0.7-1.2c0.3-0.2,0.7-0.3,1.2-0.3c0.4,0,0.8,0.1,1.1,0.2
		C225.4,104.7,225.6,105,225.6,105.5z M224.5,107.1v-0.5c-0.1,0-0.1,0.1-0.3,0.1s-0.3,0.1-0.5,0.1s-0.4,0.1-0.5,0.2
		s-0.2,0.3-0.2,0.5s0.1,0.3,0.2,0.4c0.1,0.1,0.2,0.1,0.3,0.1c0.3,0,0.5-0.1,0.7-0.2C224.4,107.5,224.5,107.3,224.5,107.1z"/>
	<path class="st4" d="M226.6,108.6v-4.3h1.1v0.7c0.2-0.3,0.3-0.5,0.4-0.6c0.2-0.2,0.5-0.3,0.8-0.3h0.2v1.1H229c0,0-0.1,0-0.2,0
		c-0.4,0-0.7,0.1-0.8,0.3c-0.1,0.2-0.2,0.4-0.2,0.7v2.2h-1.2V108.6z"/>
	<path class="st4" d="M231,103.2v1.2h0.7v0.8H231v2.3c0,0.1,0,0.2,0.1,0.3c0.1,0,0.2,0.1,0.4,0.1h0.2v0.8h-0.5H231
		c-0.5,0-0.8-0.1-0.9-0.2c-0.1-0.1-0.2-0.4-0.2-0.7v-2.6h-0.6v-0.8h0.6v-1.2L231,103.2L231,103.2z"/>
	<path class="st4" d="M239.6,104.7h-1.2c-0.1-0.3-0.2-0.5-0.3-0.6c-0.2-0.2-0.5-0.4-1-0.4c-0.4,0-0.7,0.1-0.9,0.4
		c-0.3,0.4-0.5,0.9-0.5,1.6c0,0.6,0.1,1,0.3,1.4c0.3,0.4,0.6,0.6,1.1,0.6c0.3,0,0.6-0.1,0.8-0.3s0.4-0.5,0.4-0.8h1.2
		c-0.1,0.7-0.4,1.2-0.8,1.5c-0.4,0.4-1,0.6-1.7,0.6c-0.8,0-1.4-0.3-1.9-0.8s-0.7-1.3-0.7-2.3s0.3-1.7,0.8-2.3
		c0.5-0.5,1.1-0.8,1.9-0.8c0.8,0,1.4,0.2,1.9,0.7C239.3,103.8,239.6,104.2,239.6,104.7z"/>
	<path class="st4" d="M244.5,106.5c0,0.7-0.2,1.3-0.7,1.7c-0.4,0.4-0.9,0.5-1.5,0.5s-1.1-0.2-1.5-0.5c-0.4-0.4-0.7-1-0.7-1.7
		s0.2-1.3,0.7-1.7c0.4-0.4,0.9-0.5,1.5-0.5s1.1,0.2,1.5,0.5C244.3,105.2,244.5,105.8,244.5,106.5z M243.4,106.5
		c0-0.4-0.1-0.6-0.2-0.8c-0.2-0.3-0.5-0.4-0.8-0.4c-0.4,0-0.7,0.1-0.8,0.4c-0.1,0.2-0.2,0.5-0.2,0.9s0.1,0.6,0.2,0.8
		c0.2,0.3,0.5,0.4,0.8,0.4c0.4,0,0.7-0.1,0.8-0.4S243.4,106.8,243.4,106.5z"/>
	<path class="st4" d="M249.1,105.7v2.9H248V106c0-0.2,0-0.4-0.1-0.5c-0.1-0.2-0.3-0.3-0.6-0.3s-0.5,0.1-0.6,0.3
		c-0.2,0.2-0.2,0.4-0.2,0.7v2.4h-1.1v-4.3h1.1v0.6c0.2-0.3,0.4-0.5,0.6-0.6c0.2-0.1,0.4-0.2,0.7-0.2c0.4,0,0.8,0.1,1.1,0.4
		S249.1,105.2,249.1,105.7z"/>
	<path class="st4" d="M251.5,103.2v1.2h0.7v0.8h-0.7v2.3c0,0.1,0,0.2,0.1,0.3c0.1,0,0.2,0.1,0.4,0.1h0.2v0.8h-0.5h-0.1
		c-0.5,0-0.8-0.1-0.9-0.2c-0.1-0.1-0.2-0.4-0.2-0.7v-2.6h-0.6v-0.8h0.6v-1.2L251.5,103.2L251.5,103.2z"/>
	<path class="st4" d="M252.9,108.6v-4.3h1.1v0.7c0.2-0.3,0.3-0.5,0.4-0.6c0.2-0.2,0.5-0.3,0.8-0.3h0.2v1.1h-0.1c0,0-0.1,0-0.2,0
		c-0.4,0-0.7,0.1-0.8,0.3c-0.1,0.2-0.2,0.4-0.2,0.7v2.2h-1.2V108.6z"/>
	<path class="st4" d="M259.4,105.5v2.3c0,0.2,0,0.4,0.1,0.5s0.1,0.1,0.2,0.2v0.2h-1.2c-0.1-0.2-0.1-0.3-0.1-0.5
		c-0.2,0.2-0.3,0.3-0.5,0.4s-0.5,0.2-0.9,0.2s-0.7-0.1-0.9-0.3c-0.3-0.2-0.4-0.5-0.4-1c0-0.4,0.1-0.7,0.3-0.9
		c0.2-0.2,0.5-0.4,0.9-0.4l1-0.2c0.2,0,0.3-0.1,0.3-0.1c0.1-0.1,0.1-0.1,0.1-0.2c0-0.2-0.1-0.3-0.3-0.4c-0.1,0-0.3-0.1-0.5-0.1
		s-0.4,0.1-0.5,0.2s-0.1,0.2-0.1,0.4h-1.1c0.1-0.6,0.3-1,0.7-1.2c0.3-0.2,0.7-0.3,1.2-0.3c0.4,0,0.8,0.1,1.1,0.2
		C259.2,104.7,259.4,105,259.4,105.5z M258.3,107.1v-0.5c-0.1,0-0.1,0.1-0.3,0.1s-0.3,0.1-0.5,0.1s-0.4,0.1-0.5,0.2
		c-0.2,0.1-0.2,0.3-0.2,0.5s0.1,0.3,0.2,0.4s0.2,0.1,0.3,0.1c0.3,0,0.5-0.1,0.7-0.2S258.3,107.3,258.3,107.1z"/>
	<path class="st4" d="M262.9,107.1h1.1c0,0.4-0.2,0.7-0.4,1c-0.4,0.4-0.9,0.7-1.5,0.7c-0.7,0-1.2-0.2-1.6-0.7
		c-0.3-0.4-0.4-0.8-0.4-1.4c0-0.7,0.2-1.3,0.5-1.7c0.3-0.4,0.9-0.7,1.6-0.7c0.4,0,0.8,0.1,1.2,0.3c0.4,0.3,0.7,0.7,0.7,1.3H263
		c0-0.2-0.1-0.4-0.3-0.5c-0.1-0.1-0.3-0.1-0.5-0.1c-0.3,0-0.6,0.1-0.7,0.4c-0.1,0.2-0.2,0.5-0.2,0.8c0,0.5,0.1,0.9,0.2,1.1
		s0.4,0.3,0.7,0.3c0.2,0,0.4-0.1,0.6-0.3C262.9,107.4,262.9,107.2,262.9,107.1z"/>
	<path class="st4" d="M266.1,103.2v1.2h0.7v0.8h-0.7v2.3c0,0.1,0,0.2,0.1,0.3c0.1,0,0.2,0.1,0.4,0.1h0.2v0.8h-0.5h-0.1
		c-0.5,0-0.8-0.1-0.9-0.2s-0.2-0.4-0.2-0.7v-2.6h-0.6v-0.8h0.6v-1.2L266.1,103.2L266.1,103.2z"/>
</g>
<g class="st5">
	<path class="st4" d="M211.6,94.6v1h-3v1.2h2.8v1h-2.8v1.5h3.2v1h-4.4v-5.7H211.6z"/>
	<path class="st4" d="M215.2,95.6v4.7H214v-4.7h-1.7v-1h4.7v1H215.2z"/>
	<path class="st4" d="M221,97.8h-2.2v2.6h-1.2v-5.7h1.2v2.2h2.2v-2.2h1.2v5.7H221V97.8z"/>
	<path class="st4" d="M229.4,94.6v5.7h-1.1v-0.5c-0.1,0.2-0.3,0.4-0.6,0.5c-0.2,0.1-0.4,0.1-0.7,0.1c-0.6,0-1-0.2-1.4-0.7
		c-0.3-0.4-0.4-0.9-0.4-1.6s0.2-1.3,0.5-1.6c0.3-0.4,0.7-0.5,1.2-0.5c0.3,0,0.6,0.1,0.8,0.2s0.3,0.2,0.4,0.4v-2H229.4z M226.4,98.2
		c0,0.3,0.1,0.6,0.2,0.8c0.2,0.3,0.4,0.5,0.7,0.5s0.6-0.1,0.8-0.4c0.2-0.2,0.2-0.5,0.2-0.8c0-0.4-0.1-0.7-0.2-0.9
		c-0.2-0.3-0.4-0.4-0.8-0.4c-0.3,0-0.6,0.1-0.7,0.4C226.5,97.6,226.4,97.9,226.4,98.2z"/>
	<path class="st4" d="M232.9,99.1h1.1c-0.1,0.5-0.4,0.8-0.8,1.1c-0.3,0.2-0.7,0.3-1.1,0.3c-0.7,0-1.2-0.2-1.5-0.5
		c-0.4-0.4-0.6-1-0.6-1.8c0-0.5,0.1-0.9,0.3-1.3c0.3-0.6,0.9-0.9,1.7-0.9c0.5,0,1,0.1,1.3,0.4c0.5,0.4,0.7,1,0.7,1.9v0.2h-2.9
		c0,0.4,0.2,0.6,0.3,0.8c0.2,0.2,0.4,0.2,0.7,0.2c0.2,0,0.3,0,0.5-0.1S232.9,99.2,232.9,99.1z M231.2,97.8h1.7
		c0-0.3-0.1-0.5-0.3-0.7c-0.1-0.1-0.3-0.2-0.5-0.2c-0.3,0-0.5,0.1-0.6,0.2C231.3,97.3,231.3,97.5,231.2,97.8z"/>
	<path class="st4" d="M236.1,94.9v1.2h0.7v0.8h-0.7v2.3c0,0.1,0,0.2,0.1,0.3c0,0,0.2,0.1,0.4,0.1h0.2v0.8h-0.5h-0.1
		c-0.5,0-0.8-0.1-0.9-0.2c-0.1-0.1-0.2-0.4-0.2-0.7v-2.6h-0.6v-0.8h0.6v-1.2L236.1,94.9L236.1,94.9z"/>
	<path class="st4" d="M241,97.2v2.3c0,0.2,0,0.4,0.1,0.5s0.1,0.1,0.2,0.2v0.2H240c-0.1-0.2-0.1-0.3-0.1-0.5
		c-0.2,0.2-0.3,0.3-0.5,0.4s-0.5,0.2-0.9,0.2s-0.7-0.1-0.9-0.3c-0.3-0.2-0.4-0.5-0.4-1c0-0.4,0.1-0.7,0.3-0.9
		c0.2-0.2,0.5-0.4,0.9-0.4l1-0.2c0.2,0,0.3-0.1,0.3-0.1c0.1-0.1,0.1-0.1,0.1-0.2c0-0.2-0.1-0.3-0.3-0.4c-0.1,0-0.3-0.1-0.5-0.1
		s-0.4,0.1-0.5,0.2s-0.1,0.2-0.1,0.4h-1.1c0.1-0.6,0.3-1,0.7-1.2c0.3-0.2,0.7-0.3,1.2-0.3c0.4,0,0.8,0.1,1.1,0.2
		C240.8,96.4,241,96.7,241,97.2z M239.9,98.8v-0.5c-0.1,0-0.1,0.1-0.3,0.1s-0.3,0.1-0.5,0.1s-0.4,0.1-0.5,0.2s-0.2,0.3-0.2,0.5
		s0.1,0.3,0.2,0.4c0.1,0.1,0.2,0.1,0.3,0.1c0.3,0,0.5-0.1,0.7-0.2S239.9,99.1,239.9,98.8z"/>
	<path class="st4" d="M243.1,94.5v1H242v-1H243.1z M242,96.1h1.1v4.3H242V96.1z"/>
	<path class="st4" d="M248,97.4v2.9h-1.1v-2.6c0-0.2,0-0.4-0.1-0.5c-0.1-0.2-0.3-0.3-0.6-0.3s-0.5,0.1-0.6,0.3
		c-0.2,0.2-0.2,0.4-0.2,0.7v2.4h-1.1V96h1.1v0.6c0.2-0.3,0.4-0.5,0.6-0.6s0.4-0.2,0.7-0.2c0.4,0,0.8,0.1,1.1,0.4S248,96.9,248,97.4z
		"/>
	<path class="st4" d="M251.6,99.1h1.1c-0.1,0.5-0.4,0.8-0.8,1.1c-0.3,0.2-0.7,0.3-1.1,0.3c-0.7,0-1.2-0.2-1.5-0.5
		c-0.4-0.4-0.6-1-0.6-1.8c0-0.5,0.1-0.9,0.3-1.3c0.3-0.6,0.9-0.9,1.7-0.9c0.5,0,1,0.1,1.3,0.4c0.5,0.4,0.7,1,0.7,1.9v0.2h-2.9
		c0,0.4,0.2,0.6,0.3,0.8c0.2,0.2,0.4,0.2,0.7,0.2c0.2,0,0.3,0,0.5-0.1S251.5,99.2,251.6,99.1z M249.9,97.8h1.7
		c0-0.3-0.1-0.5-0.3-0.7c-0.1-0.1-0.3-0.2-0.5-0.2c-0.3,0-0.5,0.1-0.6,0.2C250,97.3,249.9,97.5,249.9,97.8z"/>
	<path class="st4" d="M257.4,94.6v5.7h-1.1v-0.5c-0.1,0.2-0.3,0.4-0.6,0.5c-0.2,0.1-0.4,0.1-0.7,0.1c-0.6,0-1-0.2-1.4-0.7
		c-0.3-0.4-0.4-0.9-0.4-1.6s0.2-1.3,0.5-1.6c0.3-0.4,0.7-0.5,1.2-0.5c0.3,0,0.6,0.1,0.8,0.2s0.3,0.2,0.4,0.4v-2H257.4z M254.4,98.2
		c0,0.3,0.1,0.6,0.2,0.8c0.2,0.3,0.4,0.5,0.7,0.5s0.6-0.1,0.8-0.4c0.2-0.2,0.2-0.5,0.2-0.8c0-0.4-0.1-0.7-0.2-0.9
		c-0.2-0.3-0.4-0.4-0.8-0.4c-0.3,0-0.6,0.1-0.7,0.4C254.5,97.6,254.4,97.9,254.4,98.2z"/>
	<path class="st4" d="M261.7,94.6v2c0.2-0.2,0.4-0.4,0.6-0.5s0.4-0.1,0.7-0.1c0.5,0,0.9,0.2,1.2,0.5c0.4,0.4,0.5,0.9,0.5,1.6
		c0,0.6-0.1,1.2-0.4,1.6c-0.3,0.5-0.8,0.7-1.4,0.7c-0.3,0-0.5,0-0.7-0.1s-0.4-0.3-0.5-0.5v0.5h-1.1v-5.7H261.7z M263.6,98.2
		c0-0.4-0.1-0.7-0.2-0.9c-0.2-0.3-0.4-0.4-0.8-0.4s-0.6,0.1-0.8,0.4c-0.1,0.2-0.2,0.5-0.2,0.9c0,0.3,0.1,0.6,0.2,0.8
		c0.2,0.2,0.4,0.4,0.8,0.4c0.3,0,0.6-0.2,0.7-0.5C263.5,98.8,263.6,98.6,263.6,98.2z"/>
	<path class="st4" d="M269.3,96.1l-1.5,4.2c-0.3,0.8-0.5,1.3-0.6,1.5c-0.2,0.2-0.5,0.3-1,0.3h-0.5v-0.9h0.2c0.2,0,0.4,0,0.5-0.1
		s0.2-0.3,0.3-0.5l-1.6-4.4h1.2l0.9,3.1l0.9-3.1L269.3,96.1L269.3,96.1z"/>
</g>
<g class="st5">
	<path class="st4" d="M118.1,171.9v3.7c0,0.7-0.2,1.3-0.6,1.6s-1,0.5-1.7,0.5c-0.3,0-0.6,0-0.9-0.1c-0.4-0.1-0.7-0.3-0.9-0.6
		c-0.3-0.3-0.4-0.8-0.4-1.4v-3.8h1.2v3.7c0,0.4,0.1,0.7,0.3,0.9s0.4,0.3,0.7,0.3c0.4,0,0.7-0.1,0.9-0.3c0.2-0.2,0.3-0.5,0.3-0.8
		v-3.8h1.1V171.9z"/>
	<path class="st4" d="M123,174.7v2.9h-1.1V175c0-0.2,0-0.4-0.1-0.5c-0.1-0.2-0.3-0.3-0.6-0.3c-0.3,0-0.5,0.1-0.6,0.3
		s-0.2,0.4-0.2,0.7v2.4h-1.1v-4.3h1.1v0.6c0.2-0.3,0.4-0.5,0.6-0.6s0.4-0.2,0.7-0.2c0.4,0,0.8,0.1,1.1,0.4S123,174.3,123,174.7z"/>
	<path class="st4" d="M125.2,171.9v5.7h-1.1v-5.7H125.2z"/>
	<path class="st4" d="M130.4,175.5c0,0.7-0.2,1.3-0.7,1.7c-0.4,0.4-0.9,0.5-1.5,0.5c-0.6,0-1.1-0.2-1.5-0.5c-0.4-0.4-0.7-1-0.7-1.7
		s0.2-1.3,0.7-1.7c0.4-0.4,0.9-0.5,1.5-0.5c0.6,0,1.1,0.2,1.5,0.5C130.2,174.2,130.4,174.8,130.4,175.5z M129.3,175.5
		c0-0.4-0.1-0.6-0.2-0.8c-0.2-0.3-0.5-0.4-0.8-0.4c-0.4,0-0.7,0.1-0.8,0.4c-0.1,0.2-0.2,0.5-0.2,0.9s0.1,0.6,0.2,0.8
		c0.2,0.3,0.5,0.4,0.8,0.4c0.4,0,0.7-0.1,0.8-0.4C129.2,176.2,129.3,175.9,129.3,175.5z"/>
	<path class="st4" d="M133.7,176.1h1.1c0,0.4-0.2,0.7-0.4,1c-0.4,0.4-0.9,0.7-1.5,0.7c-0.7,0-1.2-0.2-1.6-0.7
		c-0.3-0.4-0.4-0.8-0.4-1.4c0-0.7,0.2-1.3,0.5-1.7s0.9-0.7,1.6-0.7c0.4,0,0.8,0.1,1.2,0.3c0.4,0.3,0.7,0.7,0.7,1.3h-1.1
		c0-0.2-0.1-0.4-0.3-0.5c-0.1-0.1-0.3-0.1-0.5-0.1c-0.3,0-0.6,0.1-0.7,0.4c-0.1,0.2-0.2,0.5-0.2,0.8c0,0.5,0.1,0.9,0.2,1.1
		s0.4,0.3,0.7,0.3c0.2,0,0.4-0.1,0.6-0.3C133.7,176.4,133.7,176.3,133.7,176.1z"/>
	<path class="st4" d="M136.8,176.3v1.3h-1.1v-5.7h1.1v3.1l1.4-1.6h1.4l-1.5,1.6l1.6,2.6h-1.3l-1-1.8L136.8,176.3z"/>
	<path class="st4" d="M142.8,176.4h1.1c-0.1,0.5-0.4,0.8-0.8,1.1c-0.3,0.2-0.7,0.3-1.1,0.3c-0.7,0-1.2-0.2-1.5-0.5
		c-0.4-0.4-0.6-1-0.6-1.8c0-0.5,0.1-0.9,0.3-1.3c0.3-0.6,0.9-0.9,1.7-0.9c0.5,0,1,0.1,1.3,0.4c0.5,0.4,0.7,1,0.7,1.9v0.2H141
		c0,0.4,0.1,0.6,0.3,0.8s0.4,0.2,0.7,0.2c0.2,0,0.3,0,0.5-0.1S142.7,176.6,142.8,176.4z M141.1,175.1h1.7c0-0.3-0.1-0.5-0.3-0.7
		c-0.1-0.1-0.3-0.2-0.5-0.2c-0.3,0-0.5,0.1-0.6,0.2C141.2,174.6,141.1,174.8,141.1,175.1z"/>
	<path class="st4" d="M148.6,171.9v5.7h-1.1v-0.5c-0.1,0.2-0.3,0.4-0.6,0.5c-0.2,0.1-0.4,0.1-0.7,0.1c-0.6,0-1-0.2-1.4-0.7
		c-0.3-0.4-0.4-0.9-0.4-1.6c0-0.7,0.2-1.3,0.5-1.6c0.3-0.4,0.7-0.5,1.2-0.5c0.3,0,0.6,0.1,0.8,0.2c0.2,0.1,0.3,0.2,0.4,0.4v-2
		L148.6,171.9L148.6,171.9z M145.6,175.6c0,0.3,0.1,0.6,0.2,0.8c0.2,0.3,0.4,0.5,0.7,0.5s0.6-0.1,0.8-0.4c0.2-0.2,0.2-0.5,0.2-0.8
		c0-0.4-0.1-0.7-0.2-0.9c-0.2-0.3-0.4-0.4-0.8-0.4c-0.3,0-0.6,0.1-0.7,0.4C145.7,174.9,145.6,175.2,145.6,175.6z"/>
	<path class="st4" d="M152.9,171.9v2c0.2-0.2,0.4-0.4,0.6-0.5c0.2-0.1,0.4-0.1,0.7-0.1c0.5,0,0.9,0.2,1.2,0.5
		c0.4,0.4,0.5,0.9,0.5,1.6c0,0.6-0.1,1.2-0.4,1.6c-0.3,0.5-0.8,0.7-1.4,0.7c-0.3,0-0.5,0-0.7-0.1s-0.4-0.3-0.5-0.5v0.5h-1.1v-5.7
		H152.9z M154.8,175.6c0-0.4-0.1-0.7-0.2-0.9c-0.2-0.3-0.4-0.4-0.8-0.4c-0.4,0-0.6,0.1-0.8,0.4c-0.1,0.2-0.2,0.5-0.2,0.9
		c0,0.3,0.1,0.6,0.2,0.8c0.2,0.2,0.4,0.4,0.8,0.4c0.3,0,0.6-0.2,0.7-0.5C154.7,176.2,154.8,175.9,154.8,175.6z"/>
	<path class="st4" d="M160.5,173.4l-1.5,4.2c-0.3,0.8-0.5,1.3-0.6,1.5c-0.2,0.2-0.5,0.3-1,0.3h-0.5v-0.9h0.2c0.2,0,0.4,0,0.5-0.1
		s0.2-0.3,0.3-0.5l-1.6-4.4h1.2l0.9,3.1l0.9-3.1h1.2V173.4z"/>
</g>
<g class="st5">
	<path class="st6" d="M4.3,86.7v2.8c0,0.6-0.2,1-0.5,1.2c-0.3,0.3-0.7,0.4-1.3,0.4c-0.3,0-0.5,0-0.7-0.1c-0.3-0.1-0.5-0.2-0.7-0.4
		c-0.2-0.3-0.3-0.6-0.3-1v-2.9h0.9v2.8c0,0.3,0.1,0.5,0.2,0.6c0.1,0.1,0.3,0.2,0.6,0.2s0.5-0.1,0.7-0.2s0.2-0.3,0.2-0.6v-2.8H4.3z"
		/>
	<path class="st6" d="M8,88.8V91H7.1v-1.9c0-0.2,0-0.3-0.1-0.4c-0.1-0.2-0.2-0.2-0.5-0.2c-0.2,0-0.3,0.1-0.5,0.2S5.8,89,5.8,89.2V91
		H5.1v-3.2h0.8v0.5C6,88.1,6.2,88,6.3,87.9c0.2-0.1,0.3-0.1,0.5-0.1c0.3,0,0.6,0.1,0.8,0.3C7.9,88.2,8,88.5,8,88.8z"/>
	<path class="st6" d="M9.6,86.7V91H8.8v-4.3H9.6z"/>
	<path class="st6" d="M13.5,89.4c0,0.5-0.2,1-0.5,1.3s-0.7,0.4-1.1,0.4s-0.8-0.1-1.1-0.4s-0.5-0.7-0.5-1.3c0-0.5,0.2-1,0.5-1.3
		s0.7-0.4,1.1-0.4s0.8,0.1,1.1,0.4S13.5,88.9,13.5,89.4z M12.6,89.4c0-0.3,0-0.5-0.1-0.6c-0.1-0.2-0.3-0.3-0.6-0.3s-0.5,0.1-0.6,0.3
		c-0.1,0.2-0.1,0.4-0.1,0.6c0,0.3,0,0.5,0.1,0.6c0.1,0.2,0.3,0.3,0.6,0.3s0.5-0.1,0.6-0.3C12.6,89.9,12.6,89.7,12.6,89.4z"/>
	<path class="st6" d="M16,89.8h0.9c0,0.3-0.1,0.5-0.3,0.7C16.3,90.8,16,91,15.4,91c-0.5,0-0.9-0.2-1.2-0.5c-0.2-0.3-0.3-0.6-0.3-1
		c0-0.5,0.1-1,0.4-1.3c0.3-0.3,0.6-0.5,1.2-0.5c0.3,0,0.6,0.1,0.9,0.2c0.3,0.2,0.5,0.5,0.6,1h-1c0-0.2-0.1-0.3-0.2-0.4
		c-0.1-0.1-0.2-0.1-0.3-0.1c-0.2,0-0.4,0.1-0.5,0.3c-0.1,0.2-0.1,0.4-0.1,0.6c0,0.4,0.1,0.6,0.2,0.8c0.1,0.2,0.3,0.2,0.5,0.2
		s0.3-0.1,0.4-0.2C15.9,90.1,16,89.9,16,89.8z"/>
	<path class="st6" d="M18.3,90v1h-0.8v-4.3h0.8V89l1.1-1.2h1L19.2,89l1.2,2h-1l-0.8-1.4L18.3,90z"/>
	<path class="st6" d="M25.8,86.7v0.8h-2.3v0.9h2.1v0.8h-2.1v1.1h2.4V91h-3.3v-4.3H25.8z"/>
	<path class="st6" d="M28.5,87.5V91h-0.9v-3.5h-1.3v-0.8h3.5v0.8H28.5z"/>
	<path class="st6" d="M32.8,89.1h-1.7V91h-0.9v-4.3h0.9v1.6h1.7v-1.6h0.9V91h-0.9V89.1z"/>
	<path class="st6" d="M37,86.7v1.5c0.1-0.2,0.3-0.3,0.4-0.4s0.3-0.1,0.5-0.1c0.4,0,0.7,0.1,0.9,0.4c0.3,0.3,0.4,0.7,0.4,1.2
		s-0.1,0.9-0.3,1.2c-0.2,0.4-0.6,0.5-1,0.5c-0.2,0-0.4,0-0.5-0.1c-0.2-0.1-0.3-0.2-0.4-0.4v0.4h-0.8v-4.3H37V86.7z M38.4,89.4
		c0-0.3-0.1-0.5-0.2-0.7c-0.1-0.2-0.3-0.3-0.6-0.3s-0.5,0.1-0.6,0.3c0,0.2,0,0.5,0,0.8s0.1,0.5,0.2,0.6c0.1,0.2,0.3,0.3,0.6,0.3
		c0.2,0,0.4-0.1,0.6-0.3C38.4,89.9,38.4,89.7,38.4,89.4z"/>
	<path class="st6" d="M42.7,87.8l-1.1,3.1c-0.2,0.6-0.4,1-0.5,1.1c-0.1,0.2-0.4,0.2-0.7,0.2H40v-0.7h0.2c0.2,0,0.3,0,0.4-0.1
		c0.1-0.1,0.2-0.2,0.2-0.4l-1.2-3.3h0.9l0.7,2.4l0.7-2.4h0.8V87.8z"/>
	<path class="st6" d="M44.7,89.7h0.9c0,0.2,0.1,0.3,0.2,0.4c0.2,0.2,0.4,0.3,0.8,0.3c0.3,0,0.5,0,0.6-0.1c0.2-0.1,0.3-0.2,0.3-0.5
		c0-0.2-0.1-0.3-0.2-0.4c-0.1-0.1-0.3-0.1-0.6-0.2l-0.5-0.1c-0.5-0.1-0.8-0.2-0.9-0.3c-0.3-0.2-0.4-0.5-0.4-0.9
		c0-0.3,0.1-0.6,0.3-0.8c0.3-0.3,0.7-0.5,1.4-0.5c0.6,0,1,0.2,1.3,0.5c0.2,0.3,0.3,0.5,0.3,0.9h-0.9c0-0.2-0.1-0.3-0.1-0.4
		c-0.1-0.2-0.4-0.3-0.7-0.3c-0.2,0-0.4,0-0.5,0.1c-0.2,0.1-0.2,0.2-0.2,0.4c0,0.1,0.1,0.3,0.2,0.3c0.1,0,0.2,0.1,0.3,0.1l1.1,0.3
		c0.4,0.1,0.6,0.2,0.8,0.3c0.2,0.2,0.3,0.5,0.3,0.8c0,0.4-0.1,0.8-0.4,1c-0.3,0.3-0.7,0.4-1.3,0.4c-0.7,0-1.2-0.2-1.5-0.5
		C44.8,90.4,44.7,90,44.7,89.7z"/>
	<path class="st6" d="M53.5,88.8V91h-0.8v-1.9c0-0.2,0-0.4-0.1-0.5s-0.2-0.1-0.3-0.1c-0.2,0-0.3,0.1-0.4,0.2
		c-0.1,0.1-0.1,0.3-0.1,0.5V91H51v-1.9c0-0.2,0-0.3-0.1-0.4s-0.2-0.2-0.4-0.2s-0.3,0.1-0.4,0.2C50,88.8,50,89,50,89.2V91h-0.8v-3.2
		H50v0.5c0.1-0.2,0.2-0.3,0.3-0.4c0.2-0.1,0.4-0.2,0.6-0.2c0.2,0,0.4,0,0.5,0.1s0.2,0.2,0.4,0.4c0.1-0.1,0.2-0.3,0.3-0.3
		c0.2-0.1,0.4-0.2,0.6-0.2c0.3,0,0.6,0.1,0.8,0.3C53.4,88.2,53.5,88.5,53.5,88.8z"/>
	<path class="st6" d="M56.8,88.6v1.7c0,0.2,0,0.3,0,0.4s0.1,0.1,0.1,0.1V91H56c0-0.1-0.1-0.2-0.1-0.4c-0.1,0.1-0.3,0.2-0.4,0.3
		c-0.2,0.1-0.4,0.2-0.7,0.2s-0.5-0.1-0.7-0.2c-0.2-0.2-0.3-0.4-0.3-0.7c0-0.3,0.1-0.5,0.2-0.7s0.4-0.3,0.7-0.3l0.8-0.1
		c0.1,0,0.2,0,0.2-0.1s0.1-0.1,0.1-0.2c0-0.2-0.1-0.3-0.2-0.3c-0.1,0-0.2-0.1-0.4-0.1s-0.3,0-0.4,0.1c-0.1,0.1-0.1,0.2-0.1,0.3h-0.8
		c0-0.4,0.2-0.7,0.5-0.9c0.2-0.1,0.5-0.2,0.9-0.2c0.3,0,0.6,0.1,0.8,0.2C56.6,88,56.8,88.3,56.8,88.6z M56,89.9v-0.4
		c0,0-0.1,0.1-0.2,0.1s-0.2,0.1-0.4,0.1s-0.3,0.1-0.4,0.1c-0.1,0.1-0.2,0.2-0.2,0.4c0,0.1,0,0.2,0.1,0.3c0.1,0.1,0.2,0.1,0.3,0.1
		c0.2,0,0.4-0.1,0.5-0.2C55.9,90.2,56,90,56,89.9z"/>
	<path class="st6" d="M57.6,91v-3.2h0.8v0.6c0.1-0.2,0.2-0.4,0.3-0.4c0.1-0.1,0.3-0.2,0.6-0.2h0.2v0.9h-0.1h-0.1
		c-0.3,0-0.5,0.1-0.6,0.2s-0.1,0.3-0.1,0.5V91H57.6z"/>
	<path class="st6" d="M60.8,86.9v0.9h0.5v0.6h-0.5v1.7c0,0.1,0,0.2,0.1,0.2c0,0,0.1,0.1,0.3,0.1h0.2V91H61h-0.1
		c-0.3,0-0.6-0.1-0.7-0.2c-0.2,0-0.2-0.2-0.2-0.5v-1.9h-0.4v-0.6H60v-0.9H60.8z"/>
	<path class="st6" d="M67.3,88.1h-0.9c-0.1-0.2-0.1-0.4-0.2-0.5c-0.2-0.2-0.4-0.3-0.7-0.3c-0.3,0-0.5,0.1-0.7,0.3
		c-0.2,0.3-0.4,0.7-0.4,1.2c0,0.4,0.1,0.8,0.2,1c0.2,0.3,0.5,0.4,0.8,0.4s0.5-0.1,0.6-0.2s0.3-0.3,0.3-0.6h0.9
		c-0.1,0.5-0.3,0.9-0.6,1.1c-0.3,0.3-0.8,0.4-1.3,0.4c-0.6,0-1.1-0.2-1.4-0.6c-0.4-0.4-0.6-1-0.6-1.7s0.2-1.3,0.6-1.7
		c0.4-0.4,0.8-0.6,1.4-0.6s1,0.2,1.4,0.5C67.1,87.4,67.2,87.7,67.3,88.1z"/>
	<path class="st6" d="M71,89.4c0,0.5-0.2,1-0.5,1.3s-0.7,0.4-1.1,0.4s-0.8-0.1-1.1-0.4c-0.3-0.3-0.5-0.7-0.5-1.3
		c0-0.5,0.2-1,0.5-1.3s0.7-0.4,1.1-0.4s0.8,0.1,1.1,0.4C70.8,88.4,71,88.9,71,89.4z M70.1,89.4c0-0.3,0-0.5-0.1-0.6
		c-0.1-0.2-0.3-0.3-0.6-0.3c-0.3,0-0.5,0.1-0.6,0.3c-0.1,0.2-0.1,0.4-0.1,0.6c0,0.3,0,0.5,0.1,0.6c0.1,0.2,0.3,0.3,0.6,0.3
		c0.3,0,0.5-0.1,0.6-0.3C70.1,89.9,70.1,89.7,70.1,89.4z"/>
	<path class="st6" d="M74.4,88.8V91h-0.8v-1.9c0-0.2,0-0.3-0.1-0.4c-0.1-0.2-0.2-0.2-0.5-0.2c-0.2,0-0.3,0.1-0.5,0.2
		s-0.2,0.3-0.2,0.5V91h-0.8v-3.2h0.8v0.5c0.1-0.2,0.3-0.3,0.4-0.4c0.2-0.1,0.3-0.1,0.5-0.1c0.3,0,0.6,0.1,0.8,0.3
		C74.3,88.2,74.4,88.5,74.4,88.8z"/>
	<path class="st6" d="M76.2,86.9v0.9h0.5v0.6h-0.5v1.7c0,0.1,0,0.2,0.1,0.2c0,0,0.1,0.1,0.3,0.1h0.2V91h-0.4h-0.1
		c-0.3,0-0.6-0.1-0.7-0.2s-0.2-0.3-0.2-0.5v-1.9H75v-0.6h0.4v-0.9H76.2z"/>
	<path class="st6" d="M77.2,91v-3.2H78v0.6c0.1-0.2,0.2-0.4,0.3-0.4c0.1-0.1,0.3-0.2,0.6-0.2h0.2v0.9H79h-0.1
		c-0.3,0-0.5,0.1-0.6,0.2s-0.1,0.3-0.1,0.5V91H77.2z"/>
	<path class="st6" d="M82.1,88.6v1.7c0,0.2,0,0.3,0,0.4s0.1,0.1,0.1,0.1V91h-0.9c0-0.1-0.1-0.2-0.1-0.4c-0.1,0.1-0.3,0.2-0.4,0.3
		c-0.2,0.1-0.4,0.2-0.7,0.2c-0.3,0-0.5-0.1-0.7-0.2c-0.2-0.2-0.3-0.4-0.3-0.7c0-0.3,0.1-0.5,0.2-0.7s0.4-0.3,0.7-0.3l1-0.2
		c0.1,0,0.2,0,0.2-0.1s0.1-0.1,0.1-0.2c0-0.2-0.1-0.3-0.2-0.3s-0.2-0.1-0.4-0.1c-0.2,0-0.3,0-0.4,0.1s-0.1,0.2-0.1,0.3h-0.8
		c0-0.4,0.2-0.7,0.5-0.9c0.2-0.1,0.5-0.2,0.9-0.2c0.3,0,0.6,0.1,0.8,0.2C82,88,82.1,88.3,82.1,88.6z M81.3,89.9v-0.4
		c0,0-0.1,0.1-0.2,0.1s-0.2,0.1-0.4,0.1c-0.2,0-0.3,0.1-0.4,0.1c-0.1,0.1-0.2,0.2-0.2,0.4c0,0.1,0,0.2,0.1,0.3
		c0.1,0.1,0.2,0.1,0.3,0.1c0.2,0,0.4-0.1,0.5-0.2C81.2,90.2,81.3,90,81.3,89.9z"/>
	<path class="st6" d="M84.8,89.8h0.9c0,0.3-0.1,0.5-0.3,0.7c-0.3,0.3-0.6,0.5-1.2,0.5c-0.5,0-0.9-0.2-1.2-0.5
		c-0.2-0.3-0.3-0.6-0.3-1c0-0.5,0.1-1,0.4-1.3s0.6-0.5,1.2-0.5c0.3,0,0.6,0.1,0.9,0.2c0.3,0.2,0.5,0.5,0.6,1h-0.9
		c0-0.2-0.1-0.3-0.2-0.4s-0.2-0.1-0.3-0.1c-0.2,0-0.4,0.1-0.5,0.3c-0.1,0.2-0.1,0.4-0.1,0.6c0,0.4,0.1,0.6,0.2,0.8
		c0.1,0.2,0.3,0.2,0.5,0.2s0.3-0.1,0.4-0.2C84.7,90.1,84.8,89.9,84.8,89.8z"/>
	<path class="st6" d="M87.2,86.9v0.9h0.5v0.6h-0.5v1.7c0,0.1,0,0.2,0.1,0.2c0,0,0.1,0.1,0.3,0.1h0.2V91h-0.4h-0.1
		c-0.3,0-0.6-0.1-0.7-0.2s-0.2-0.3-0.2-0.5v-1.9H86v-0.6h0.4v-0.9H87.2z"/>
</g>
<g class="st5">
	<path class="st6" d="M3.3,95.8v1.7c0,0.2,0,0.3,0,0.4S3.4,98,3.4,98v0.1H2.6c0-0.1-0.1-0.2-0.1-0.4c-0.1,0.1-0.3,0.2-0.4,0.3
		c-0.2,0.1-0.4,0.2-0.7,0.2S0.9,98.1,0.7,98c-0.2-0.2-0.3-0.4-0.3-0.7c0-0.3,0.1-0.5,0.2-0.7s0.4-0.3,0.7-0.3l0.8-0.1
		c0.1,0,0.2,0,0.2-0.1S2.5,96,2.5,96c0-0.2-0.1-0.3-0.2-0.3c-0.1,0-0.2-0.1-0.4-0.1s-0.3,0-0.4,0.1c-0.1,0.1-0.1,0.2-0.1,0.3H0.6
		c0-0.4,0.2-0.7,0.5-0.9C1.3,95,1.6,94.9,2,94.9c0.3,0,0.6,0.1,0.8,0.2C3.2,95.2,3.3,95.5,3.3,95.8z M2.5,97.1v-0.4
		c0,0-0.1,0.1-0.2,0.1s-0.2,0.1-0.4,0.1S1.6,97,1.5,97c-0.1,0.1-0.2,0.2-0.2,0.4c0,0.1,0,0.2,0.1,0.3c0.1,0.1,0.2,0.1,0.3,0.1
		c0.2,0,0.4-0.1,0.5-0.2C2.4,97.4,2.5,97.2,2.5,97.1z"/>
	<path class="st6" d="M7,95v3.2H6.2v-0.5c-0.2,0.4-0.5,0.5-1,0.5c-0.3,0-0.6-0.1-0.8-0.3c-0.2-0.2-0.3-0.5-0.3-0.9v-2h0.8v2
		c0,0.2,0.1,0.4,0.2,0.5s0.2,0.1,0.4,0.1c0.2,0,0.3,0,0.4-0.1s0.2-0.3,0.2-0.6V95H7z"/>
	<path class="st6" d="M8.7,94.1V95h0.5v0.6H8.7v1.7c0,0.1,0,0.2,0.1,0.2c0,0,0.1,0.1,0.3,0.1h0.2v0.6H8.9H8.7
		c-0.3,0-0.6-0.1-0.7-0.2c-0.1-0.1-0.2-0.3-0.2-0.5v-1.9H7.4V95h0.4v-0.9C7.8,94.1,8.7,94.1,8.7,94.1z"/>
	<path class="st6" d="M12.8,96.6c0,0.5-0.2,1-0.5,1.3s-0.7,0.4-1.1,0.4s-0.8-0.1-1.1-0.4s-0.5-0.7-0.5-1.3c0-0.5,0.2-1,0.5-1.3
		s0.7-0.4,1.1-0.4s0.8,0.1,1.1,0.4C12.7,95.6,12.8,96.1,12.8,96.6z M12,96.6c0-0.3,0-0.5-0.1-0.6c-0.1-0.2-0.3-0.3-0.6-0.3
		s-0.5,0.1-0.6,0.3c-0.1,0.2-0.1,0.4-0.1,0.6c0,0.3,0,0.5,0.1,0.6c0.1,0.2,0.3,0.3,0.6,0.3s0.5-0.1,0.6-0.3
		C11.9,97.1,12,96.9,12,96.6z"/>
	<path class="st6" d="M18,96v2.2h-0.8v-1.9c0-0.2,0-0.4-0.1-0.5s-0.2-0.1-0.3-0.1c-0.2,0-0.3,0.1-0.4,0.2s-0.1,0.3-0.1,0.5v1.9h-0.8
		v-1.9c0-0.2,0-0.3-0.1-0.4s-0.2-0.2-0.4-0.2s-0.3,0.1-0.4,0.2c-0.1,0.1-0.1,0.3-0.1,0.5v1.9h-0.8v-3.2h0.8v0.5
		c0.1-0.2,0.2-0.3,0.3-0.4c0.2-0.1,0.4-0.2,0.6-0.2c0.2,0,0.4,0,0.5,0.1s0.2,0.2,0.4,0.4c0.1-0.1,0.2-0.3,0.3-0.3
		c0.2-0.1,0.4-0.2,0.6-0.2c0.3,0,0.6,0.1,0.8,0.3C17.9,95.4,18,95.7,18,96z"/>
	<path class="st6" d="M21.3,95.8v1.7c0,0.2,0,0.3,0,0.4s0.1,0.1,0.1,0.1v0.1h-0.9c0-0.1-0.1-0.2-0.1-0.4c-0.1,0.1-0.3,0.2-0.4,0.3
		c-0.2,0.1-0.4,0.2-0.7,0.2c-0.3,0-0.5-0.1-0.7-0.2c-0.2-0.2-0.3-0.4-0.3-0.7c0-0.3,0.1-0.5,0.2-0.7s0.4-0.3,0.7-0.3l0.8-0.1
		c0.1,0,0.2,0,0.2-0.1s0.1-0.1,0.1-0.2c0-0.2-0.1-0.3-0.2-0.3s-0.2-0.1-0.4-0.1c-0.2,0-0.3,0-0.4,0.1s-0.1,0.2-0.1,0.3h-0.8
		c0-0.4,0.2-0.7,0.5-0.9c0.2-0.1,0.5-0.2,0.9-0.2c0.3,0,0.6,0.1,0.8,0.2C21.2,95.2,21.3,95.5,21.3,95.8z M20.5,97.1v-0.4
		c0,0-0.1,0.1-0.2,0.1s-0.2,0.1-0.4,0.1c-0.2,0-0.3,0.1-0.4,0.1c-0.1,0.1-0.2,0.2-0.2,0.4c0,0.1,0,0.2,0.1,0.3
		c0.1,0.1,0.2,0.1,0.3,0.1c0.2,0,0.4-0.1,0.5-0.2C20.4,97.4,20.5,97.2,20.5,97.1z"/>
	<path class="st6" d="M23,94.1V95h0.5v0.6H23v1.7c0,0.1,0,0.2,0.1,0.2c0,0,0.1,0.1,0.3,0.1h0.2v0.6h-0.4h-0.1
		c-0.3,0-0.6-0.1-0.7-0.2s-0.2-0.3-0.2-0.5v-1.9h-0.4V95h0.4v-0.9C22.2,94.1,23,94.1,23,94.1z"/>
	<path class="st6" d="M25,93.9v0.8h-0.8v-0.8H25z M24.1,95H25v3.2h-0.8V95H24.1z"/>
	<path class="st6" d="M27.7,97h0.9c0,0.3-0.1,0.5-0.3,0.7c-0.3,0.3-0.6,0.5-1.2,0.5c-0.5,0-0.9-0.2-1.2-0.5c-0.2-0.3-0.3-0.6-0.3-1
		c0-0.5,0.1-1,0.4-1.3s0.6-0.5,1.2-0.5c0.3,0,0.6,0.1,0.9,0.2c0.3,0.2,0.5,0.5,0.6,1h-0.9c0-0.2-0.1-0.3-0.2-0.4s-0.2-0.1-0.3-0.1
		c-0.2,0-0.4,0.1-0.5,0.3c-0.1,0.2-0.1,0.4-0.1,0.6c0,0.4,0.1,0.6,0.2,0.8c0.1,0.2,0.3,0.2,0.5,0.2s0.3-0.1,0.4-0.2
		C27.6,97.3,27.7,97.1,27.7,97z"/>
	<path class="st6" d="M31.7,95.8v1.7c0,0.2,0,0.3,0,0.4s0.1,0.1,0.1,0.1v0.1H31c0-0.1-0.1-0.2-0.1-0.4c-0.1,0.1-0.3,0.2-0.4,0.3
		c-0.2,0.1-0.4,0.2-0.7,0.2c-0.3,0-0.5-0.1-0.7-0.2c-0.2-0.2-0.3-0.4-0.3-0.7c0-0.3,0.1-0.5,0.2-0.7s0.4-0.3,0.7-0.3l0.8-0.1
		c0.1,0,0.2,0,0.2-0.1s0.1-0.1,0.1-0.2c0-0.2-0.1-0.3-0.2-0.3s-0.2-0.1-0.4-0.1c-0.2,0-0.3,0-0.4,0.1s-0.1,0.2-0.1,0.3H29
		c0-0.4,0.2-0.7,0.5-0.9c0.2-0.1,0.5-0.2,0.9-0.2c0.3,0,0.6,0.1,0.8,0.2C31.5,95.2,31.7,95.5,31.7,95.8z M30.9,97.1v-0.4
		c0,0-0.1,0.1-0.2,0.1s-0.2,0.1-0.4,0.1c-0.2,0-0.3,0.1-0.4,0.1c-0.1,0.1-0.2,0.2-0.2,0.4c0,0.1,0,0.2,0.1,0.3
		c0.1,0.1,0.2,0.1,0.3,0.1c0.2,0,0.4-0.1,0.5-0.2C30.8,97.4,30.9,97.2,30.9,97.1z"/>
	<path class="st6" d="M33.3,93.9v4.3h-0.8v-4.3H33.3z"/>
	<path class="st6" d="M35,93.9v4.3h-0.8v-4.3H35z"/>
	<path class="st6" d="M38.6,95l-1.1,3.1c-0.2,0.6-0.4,1-0.5,1.1c-0.1,0.2-0.4,0.2-0.7,0.2h-0.4v-0.7h0.2c0.2,0,0.3,0,0.4-0.1
		c0.1-0.1,0.2-0.2,0.2-0.4L35.4,95h0.9l0.7,2.4l0.7-2.4H38.6z"/>
	<path class="st6" d="M43.4,95.8v1.7c0,0.2,0,0.3,0,0.4s0.1,0.1,0.1,0.1v0.1h-0.9c0-0.1-0.1-0.2-0.1-0.4c-0.1,0.1-0.3,0.2-0.4,0.3
		c-0.2,0.1-0.4,0.2-0.7,0.2s-0.5-0.1-0.7-0.2c-0.2-0.2-0.3-0.4-0.3-0.7c0-0.3,0.1-0.5,0.2-0.7s0.4-0.3,0.7-0.3l0.8-0.1
		c0.1,0,0.2,0,0.2-0.1s0.1-0.1,0.1-0.2c0-0.2-0.1-0.3-0.2-0.3c-0.1,0-0.2-0.1-0.4-0.1s-0.3,0-0.4,0.1c-0.1,0.1-0.1,0.2-0.1,0.3h-0.8
		c0-0.4,0.2-0.7,0.5-0.9c0.2-0.1,0.5-0.2,0.9-0.2c0.3,0,0.6,0.1,0.8,0.2C43.2,95.2,43.4,95.5,43.4,95.8z M42.5,97.1v-0.4
		c0,0-0.1,0.1-0.2,0.1s-0.2,0.1-0.4,0.1S41.6,97,41.5,97c-0.1,0.1-0.2,0.2-0.2,0.4c0,0.1,0,0.2,0.1,0.3c0.1,0.1,0.2,0.1,0.3,0.1
		c0.2,0,0.4-0.1,0.5-0.2C42.5,97.4,42.5,97.2,42.5,97.1z"/>
	<path class="st6" d="M47,96v2.2h-0.8v-1.9c0-0.2,0-0.3-0.1-0.4c-0.1-0.2-0.2-0.2-0.5-0.2c-0.2,0-0.3,0.1-0.5,0.2S45,96.1,45,96.4
		v1.8h-0.8V95H45v0.5c0.1-0.2,0.3-0.3,0.4-0.4c0.2-0.1,0.3-0.1,0.5-0.1c0.3,0,0.6,0.1,0.8,0.3C46.9,95.4,47,95.7,47,96z"/>
	<path class="st6" d="M50.7,93.9v4.3h-0.8v-0.4c-0.1,0.2-0.2,0.3-0.4,0.4s-0.3,0.1-0.5,0.1c-0.4,0-0.8-0.2-1-0.5s-0.3-0.7-0.3-1.2
		s0.1-0.9,0.4-1.2c0.2-0.3,0.5-0.4,0.9-0.4c0.2,0,0.5,0.1,0.6,0.2s0.2,0.2,0.3,0.3V94h0.8V93.9z M48.5,96.6c0,0.2,0,0.5,0.1,0.6
		c0.1,0.2,0.3,0.3,0.5,0.3c0.3,0,0.4-0.1,0.6-0.3c0.1-0.2,0.2-0.4,0.2-0.6c0-0.3,0-0.5-0.1-0.7s-0.3-0.3-0.6-0.3
		c-0.2,0-0.4,0.1-0.6,0.3C48.5,96.1,48.5,96.3,48.5,96.6z"/>
	<path class="st6" d="M55.7,96h-0.8c0-0.1-0.1-0.2-0.1-0.3c-0.1-0.1-0.2-0.1-0.4-0.1s-0.3,0-0.4,0.1c-0.1,0-0.1,0.1-0.1,0.2
		s0.2,0.2,0.5,0.3c0.5,0.1,0.8,0.2,1,0.3c0.3,0.2,0.5,0.4,0.5,0.8s-0.2,0.7-0.5,0.9c-0.2,0.1-0.5,0.2-0.9,0.2s-0.8-0.1-1-0.2
		C53.2,98,53,97.7,53,97.3h0.9c0,0.1,0.1,0.3,0.2,0.3s0.3,0.1,0.5,0.1s0.3,0,0.4-0.1c0.1-0.1,0.1-0.1,0.1-0.2s-0.2-0.2-0.5-0.3
		c-0.5-0.1-0.8-0.2-1-0.3C53.2,96.6,53,96.3,53,96s0.1-0.5,0.3-0.7s0.6-0.4,1-0.4s0.7,0.1,1,0.2C55.6,95.3,55.7,95.6,55.7,96z"/>
	<path class="st6" d="M58.3,97.3h0.9c-0.1,0.4-0.3,0.6-0.6,0.8c-0.2,0.1-0.5,0.2-0.8,0.2c-0.5,0-0.9-0.1-1.1-0.4
		c-0.3-0.3-0.5-0.7-0.5-1.4c0-0.4,0.1-0.7,0.2-0.9c0.3-0.4,0.7-0.7,1.3-0.7c0.4,0,0.7,0.1,1,0.3c0.3,0.3,0.5,0.8,0.5,1.4v0.1H57
		c0,0.3,0.1,0.5,0.2,0.6s0.3,0.2,0.5,0.2c0.1,0,0.2,0,0.3-0.1C58.2,97.5,58.3,97.4,58.3,97.3z M57.1,96.3h1.3c0-0.2-0.1-0.4-0.2-0.5
		c-0.1-0.1-0.2-0.1-0.4-0.1s-0.3,0.1-0.5,0.2C57.1,95.9,57.1,96.1,57.1,96.3z"/>
	<path class="st6" d="M62.7,96v2.2h-0.8v-1.9c0-0.2,0-0.3-0.1-0.4c-0.1-0.2-0.2-0.2-0.5-0.2c-0.2,0-0.3,0.1-0.5,0.2
		s-0.2,0.3-0.2,0.5v1.8h-0.8V95h0.8v0.5c0.1-0.2,0.3-0.3,0.4-0.4c0.2-0.1,0.3-0.1,0.5-0.1c0.3,0,0.6,0.1,0.8,0.3
		C62.6,95.4,62.7,95.7,62.7,96z"/>
	<path class="st6" d="M66.4,93.9v4.3h-0.8v-0.4c-0.1,0.2-0.2,0.3-0.4,0.4c-0.2,0.1-0.3,0.1-0.5,0.1c-0.4,0-0.8-0.2-1-0.5
		s-0.3-0.7-0.3-1.2s0.1-0.9,0.4-1.2c0.2-0.3,0.5-0.4,0.9-0.4c0.2,0,0.5,0.1,0.6,0.2s0.2,0.2,0.3,0.3V94h0.8V93.9z M64.1,96.6
		c0,0.2,0,0.5,0.1,0.6c0.1,0.2,0.3,0.3,0.5,0.3c0.3,0,0.4-0.1,0.6-0.3c0.1-0.2,0.2-0.4,0.2-0.6c0-0.3,0-0.5-0.1-0.7
		s-0.3-0.3-0.6-0.3c-0.2,0-0.4,0.1-0.6,0.3C64.2,96.1,64.1,96.3,64.1,96.6z"/>
	<path class="st6" d="M70.7,97.3h0.9c-0.1,0.4-0.3,0.6-0.6,0.8c-0.2,0.1-0.5,0.2-0.8,0.2c-0.5,0-0.9-0.1-1.1-0.4
		c-0.3-0.3-0.5-0.7-0.5-1.4c0-0.4,0.1-0.7,0.2-0.9c0.3-0.4,0.7-0.7,1.3-0.7c0.4,0,0.7,0.1,1,0.3c0.3,0.3,0.5,0.8,0.5,1.4v0.1h-2.2
		c0,0.3,0.1,0.5,0.2,0.6s0.3,0.2,0.5,0.2c0.1,0,0.2,0,0.3-0.1C70.6,97.5,70.6,97.4,70.7,97.3z M69.4,96.3h1.3c0-0.2-0.1-0.4-0.2-0.5
		s-0.2-0.1-0.4-0.1c-0.2,0-0.3,0.1-0.5,0.2C69.5,95.9,69.4,96.1,69.4,96.3z"/>
	<path class="st6" d="M73.1,94.1V95h0.5v0.6h-0.5v1.7c0,0.1,0,0.2,0.1,0.2c0,0,0.1,0.1,0.3,0.1h0.2v0.6h-0.4h-0.1
		c-0.3,0-0.6-0.1-0.7-0.2s-0.2-0.3-0.2-0.5v-1.9h-0.4V95h0.4v-0.9C72.3,94.1,73.1,94.1,73.1,94.1z"/>
	<path class="st6" d="M77,96v2.2h-0.8v-1.9c0-0.2,0-0.3-0.1-0.4c-0.1-0.2-0.2-0.2-0.5-0.2c-0.2,0-0.3,0.1-0.5,0.2S75,96.1,75,96.4
		v1.8h-0.8v-4.3H75v1.5c0.1-0.1,0.2-0.3,0.4-0.4s0.4-0.1,0.6-0.1c0.3,0,0.6,0.1,0.8,0.3C76.9,95.4,77,95.7,77,96z"/>
	<path class="st6" d="M80.2,93.9v1.5c0.1-0.2,0.3-0.3,0.4-0.4s0.3-0.1,0.5-0.1c0.4,0,0.7,0.1,0.9,0.4c0.3,0.3,0.4,0.7,0.4,1.2
		s-0.1,0.9-0.3,1.2c-0.2,0.4-0.6,0.5-1,0.5c-0.2,0-0.4,0-0.5-0.1c-0.2-0.1-0.3-0.2-0.4-0.4v0.4h-0.8v-4.3h0.8V93.9z M81.7,96.6
		c0-0.3-0.1-0.5-0.2-0.7s-0.3-0.3-0.6-0.3c-0.3,0-0.5,0.1-0.6,0.3c-0.1,0.2-0.1,0.4-0.1,0.7c0,0.3,0.1,0.5,0.2,0.6
		c0.1,0.2,0.3,0.3,0.6,0.3c0.2,0,0.4-0.1,0.6-0.3C81.6,97.1,81.7,96.9,81.7,96.6z"/>
	<path class="st6" d="M85.7,95.8v1.7c0,0.2,0,0.3,0,0.4s0.1,0.1,0.1,0.1v0.1H85c0-0.1-0.1-0.2-0.1-0.4c-0.1,0.1-0.3,0.2-0.4,0.3
		c-0.2,0.1-0.4,0.2-0.7,0.2c-0.3,0-0.5-0.1-0.7-0.2c-0.2-0.2-0.3-0.4-0.3-0.7c0-0.3,0.1-0.5,0.2-0.7s0.4-0.3,0.7-0.3l0.8-0.1
		c0.1,0,0.2,0,0.2-0.1s0.1-0.1,0.1-0.2c0-0.2-0.1-0.3-0.2-0.3s-0.2-0.1-0.4-0.1c-0.2,0-0.3,0-0.4,0.1s-0.1,0.2-0.1,0.3H83
		c0-0.4,0.2-0.7,0.5-0.9c0.2-0.1,0.5-0.2,0.9-0.2c0.3,0,0.6,0.1,0.8,0.2C85.5,95.2,85.7,95.5,85.7,95.8z M84.9,97.1v-0.4
		c0,0-0.1,0.1-0.2,0.1s-0.2,0.1-0.4,0.1c-0.2,0-0.3,0.1-0.4,0.1c-0.1,0.1-0.2,0.2-0.2,0.4c0,0.1,0,0.2,0.1,0.3
		c0.1,0.1,0.2,0.1,0.3,0.1c0.2,0,0.4-0.1,0.5-0.2C84.8,97.4,84.9,97.2,84.9,97.1z"/>
	<path class="st6" d="M88.3,97h0.9c0,0.3-0.1,0.5-0.3,0.7c-0.3,0.3-0.6,0.5-1.2,0.5c-0.5,0-0.9-0.2-1.2-0.5c-0.2-0.3-0.3-0.6-0.3-1
		c0-0.5,0.1-1,0.4-1.3s0.6-0.5,1.2-0.5c0.3,0,0.6,0.1,0.9,0.2c0.3,0.2,0.5,0.5,0.6,1h-0.9c0-0.2-0.1-0.3-0.2-0.4s-0.2-0.1-0.3-0.1
		c-0.2,0-0.4,0.1-0.5,0.3c-0.1,0.2-0.1,0.4-0.1,0.6c0,0.4,0.1,0.6,0.2,0.8c0.1,0.2,0.3,0.2,0.5,0.2s0.3-0.1,0.4-0.2
		C88.3,97.3,88.3,97.1,88.3,97z"/>
	<path class="st6" d="M90.7,97.2v1h-0.8v-4.3h0.8v2.3l1.1-1.2h1l-1.1,1.2l1.2,2h-1L91,96.8L90.7,97.2z"/>
</g>
<g class="st5">
	<path class="st6" d="M3.4,101.3v0.9h0.5v0.6H3.4v1.7c0,0.1,0,0.2,0.1,0.2c0,0,0.1,0.1,0.3,0.1H4v0.6H3.6H3.4
		c-0.3,0-0.6-0.1-0.7-0.2c-0.1-0.1-0.2-0.3-0.2-0.5v-1.9H2.1v-0.6h0.4v-0.9C2.5,101.3,3.4,101.3,3.4,101.3z"/>
	<path class="st6" d="M7.5,103.8c0,0.5-0.2,1-0.5,1.3s-0.7,0.4-1.1,0.4s-0.8-0.1-1.1-0.4c-0.3-0.3-0.5-0.7-0.5-1.3
		c0-0.5,0.2-1,0.5-1.3s0.7-0.4,1.1-0.4s0.8,0.1,1.1,0.4C7.3,102.8,7.5,103.3,7.5,103.8z M6.6,103.8c0-0.3,0-0.5-0.1-0.6
		c-0.1-0.2-0.3-0.3-0.6-0.3c-0.3,0-0.5,0.1-0.6,0.3c-0.1,0.2-0.1,0.4-0.1,0.6c0,0.3,0,0.5,0.1,0.6c0.1,0.2,0.3,0.3,0.6,0.3
		c0.3,0,0.5-0.1,0.6-0.3C6.6,104.3,6.6,104.1,6.6,103.8z"/>
	<path class="st6" d="M10.7,101.3v0.9h0.5v0.6h-0.5v1.7c0,0.1,0,0.2,0.1,0.2c0,0,0.1,0.1,0.3,0.1h0.2v0.6h-0.4h-0.1
		c-0.3,0-0.6-0.1-0.7-0.2c-0.1-0.1-0.2-0.3-0.2-0.5v-1.9H9.4v-0.6h0.4v-0.9C9.8,101.3,10.7,101.3,10.7,101.3z"/>
	<path class="st6" d="M14.6,103.2v2.2h-0.8v-1.9c0-0.2,0-0.3-0.1-0.4c-0.1-0.2-0.2-0.2-0.5-0.2c-0.2,0-0.3,0.1-0.5,0.2
		s-0.2,0.3-0.2,0.5v1.8h-0.8v-4.3h0.8v1.5c0.1-0.1,0.2-0.3,0.4-0.4s0.4-0.1,0.6-0.1c0.3,0,0.6,0.1,0.8,0.3S14.6,102.9,14.6,103.2z"
		/>
	<path class="st6" d="M17.3,104.5h0.9c-0.1,0.4-0.3,0.6-0.6,0.8c-0.2,0.1-0.5,0.2-0.8,0.2c-0.5,0-0.9-0.1-1.1-0.4
		c-0.3-0.3-0.5-0.7-0.5-1.4c0-0.4,0.1-0.7,0.2-0.9c0.3-0.4,0.7-0.7,1.3-0.7c0.4,0,0.7,0.1,1,0.3c0.3,0.3,0.5,0.8,0.5,1.4v0.1H16
		c0,0.3,0.1,0.5,0.2,0.6s0.3,0.2,0.5,0.2c0.1,0,0.2,0,0.3-0.1C17.2,104.7,17.3,104.6,17.3,104.5z M16,103.5h1.3
		c0-0.2-0.1-0.4-0.2-0.5s-0.2-0.1-0.4-0.1c-0.2,0-0.3,0.1-0.5,0.2C16.1,103.1,16.1,103.3,16,103.5z"/>
	<path class="st6" d="M23.3,102.2v3.2h-0.8V105c-0.2,0.4-0.5,0.5-1,0.5c-0.3,0-0.6-0.1-0.8-0.3c-0.2-0.2-0.3-0.5-0.3-0.9v-2.1h0.8v2
		c0,0.2,0.1,0.4,0.2,0.5s0.2,0.1,0.4,0.1c0.2,0,0.3,0,0.4-0.1s0.2-0.3,0.2-0.6v-1.8L23.3,102.2L23.3,102.2z"/>
	<path class="st6" d="M26.7,103.2h-0.8c0-0.1-0.1-0.2-0.1-0.3c-0.1-0.1-0.2-0.1-0.4-0.1c-0.2,0-0.3,0-0.4,0.1
		c-0.1,0-0.1,0.1-0.1,0.2s0.2,0.2,0.5,0.3c0.5,0.1,0.8,0.2,1,0.3c0.3,0.2,0.5,0.4,0.5,0.8s-0.2,0.7-0.5,0.9
		c-0.2,0.1-0.5,0.2-0.9,0.2s-0.8-0.1-1-0.2c-0.3-0.2-0.5-0.5-0.5-0.9h0.9c0,0.1,0.1,0.3,0.2,0.3s0.3,0.1,0.5,0.1s0.3,0,0.4-0.1
		s0.1-0.1,0.1-0.2s-0.2-0.2-0.5-0.3c-0.5-0.1-0.8-0.2-1-0.3c-0.3-0.2-0.5-0.4-0.5-0.8c0-0.3,0.1-0.5,0.3-0.7c0.2-0.2,0.6-0.4,1-0.4
		s0.7,0.1,1,0.2C26.6,102.5,26.7,102.8,26.7,103.2z"/>
	<path class="st6" d="M29.3,104.5h0.9c-0.1,0.4-0.3,0.6-0.6,0.8c-0.2,0.1-0.5,0.2-0.8,0.2c-0.5,0-0.9-0.1-1.1-0.4
		c-0.3-0.3-0.5-0.7-0.5-1.4c0-0.4,0.1-0.7,0.2-0.9c0.3-0.4,0.7-0.7,1.3-0.7c0.4,0,0.7,0.1,1,0.3c0.3,0.3,0.5,0.8,0.5,1.4v0.1H28
		c0,0.3,0.1,0.5,0.2,0.6s0.3,0.2,0.5,0.2c0.1,0,0.2,0,0.3-0.1C29.2,104.7,29.3,104.6,29.3,104.5z M28,103.5h1.3
		c0-0.2-0.1-0.4-0.2-0.5s-0.2-0.1-0.4-0.1c-0.2,0-0.3,0.1-0.5,0.2C28.1,103.1,28.1,103.3,28,103.5z"/>
	<path class="st6" d="M30.8,105.4v-3.2h0.8v0.6c0.1-0.2,0.2-0.4,0.3-0.4c0.1-0.1,0.3-0.2,0.6-0.2h0.2v0.9h-0.1h-0.1
		c-0.3,0-0.5,0.1-0.6,0.2s-0.1,0.3-0.1,0.5v1.7L30.8,105.4L30.8,105.4z"/>
	<path class="st6" d="M33.1,101.9v-0.8H34v0.6c0,0.3-0.1,0.6-0.3,0.8c-0.1,0.1-0.3,0.2-0.5,0.3v-0.3c0.2-0.1,0.3-0.1,0.4-0.2
		c0.1-0.1,0.1-0.2,0.1-0.3L33.1,101.9L33.1,101.9z"/>
	<path class="st6" d="M37.4,103.2h-0.8c0-0.1-0.1-0.2-0.1-0.3c-0.1-0.1-0.2-0.1-0.4-0.1s-0.3,0-0.4,0.1c-0.1,0-0.1,0.1-0.1,0.2
		s0.2,0.2,0.5,0.3c0.5,0.1,0.8,0.2,1,0.3c0.3,0.2,0.5,0.4,0.5,0.8s-0.2,0.7-0.5,0.9c-0.2,0.1-0.5,0.2-0.9,0.2s-0.8-0.1-1-0.2
		c-0.3-0.2-0.5-0.5-0.5-0.9h0.9c0,0.1,0.1,0.3,0.2,0.3s0.3,0.1,0.5,0.1s0.3,0,0.4-0.1c0.1-0.1,0.1-0.1,0.1-0.2s-0.2-0.2-0.5-0.3
		c-0.5-0.1-0.8-0.2-1-0.3c-0.3-0.2-0.5-0.4-0.5-0.8c0-0.3,0.1-0.5,0.3-0.7s0.6-0.4,1-0.4s0.7,0.1,1,0.2
		C37.2,102.5,37.4,102.8,37.4,103.2z"/>
	<path class="st6" d="M44,102.2l-0.9,3.2h-0.9l-0.5-2.3l-0.5,2.3h-0.9l-0.9-3.2h0.9l0.5,2.3l0.5-2.3h0.8l0.5,2.3l0.5-2.3H44z"/>
	<path class="st6" d="M47,103v1.7c0,0.2,0,0.3,0,0.4s0.1,0.1,0.1,0.1v0.1h-0.9c0-0.1-0.1-0.2-0.1-0.4c-0.1,0.1-0.3,0.2-0.4,0.3
		c-0.2,0.1-0.4,0.2-0.7,0.2s-0.5-0.1-0.7-0.2c-0.2-0.2-0.3-0.4-0.3-0.7c0-0.3,0.1-0.5,0.2-0.7s0.4-0.3,0.7-0.3l0.8-0.1
		c0.1,0,0.2,0,0.2-0.1s0.1-0.1,0.1-0.2c0-0.2-0.1-0.3-0.2-0.3c-0.1,0-0.2-0.1-0.4-0.1s-0.3,0-0.4,0.1c-0.1,0.1-0.1,0.2-0.1,0.3h-0.8
		c0-0.4,0.2-0.7,0.5-0.9c0.2-0.1,0.5-0.2,0.9-0.2c0.3,0,0.6,0.1,0.8,0.2C46.9,102.4,47,102.7,47,103z M46.2,104.3v-0.4
		c0,0-0.1,0.1-0.2,0.1s-0.2,0.1-0.4,0.1s-0.3,0.1-0.4,0.1c-0.1,0.1-0.2,0.2-0.2,0.4c0,0.1,0,0.2,0.1,0.3c0.1,0.1,0.2,0.1,0.3,0.1
		c0.2,0,0.4-0.1,0.5-0.2C46.1,104.6,46.2,104.4,46.2,104.3z"/>
	<path class="st6" d="M48.6,101.1v4.3h-0.8v-4.3H48.6z"/>
	<path class="st6" d="M50.3,101.1v4.3h-0.8v-4.3H50.3z"/>
	<path class="st6" d="M53,104.5h0.9c-0.1,0.4-0.3,0.6-0.6,0.8c-0.2,0.1-0.5,0.2-0.8,0.2c-0.5,0-0.9-0.1-1.1-0.4
		c-0.3-0.3-0.5-0.7-0.5-1.4c0-0.4,0.1-0.7,0.2-0.9c0.3-0.4,0.7-0.7,1.3-0.7c0.4,0,0.7,0.1,1,0.3c0.3,0.3,0.5,0.8,0.5,1.4v0.1h-2.2
		c0,0.3,0.1,0.5,0.2,0.6s0.3,0.2,0.5,0.2c0.1,0,0.2,0,0.3-0.1C52.9,104.7,53,104.6,53,104.5z M51.7,103.5H53c0-0.2-0.1-0.4-0.2-0.5
		c-0.1-0.1-0.2-0.1-0.4-0.1s-0.3,0.1-0.5,0.2C51.8,103.1,51.7,103.3,51.7,103.5z"/>
	<path class="st6" d="M55.4,101.3v0.9h0.5v0.6h-0.5v1.7c0,0.1,0,0.2,0.1,0.2c0,0,0.1,0.1,0.3,0.1H56v0.6h-0.4h-0.1
		c-0.3,0-0.6-0.1-0.7-0.2c-0.1-0.1-0.2-0.3-0.2-0.5v-1.9h-0.4v-0.6h0.4v-0.9C54.6,101.3,55.4,101.3,55.4,101.3z"/>
	<path class="st6" d="M60.7,103v1.7c0,0.2,0,0.3,0,0.4s0.1,0.1,0.1,0.1v0.1H60c0-0.1-0.1-0.2-0.1-0.4c-0.1,0.1-0.3,0.2-0.4,0.3
		c-0.2,0.1-0.4,0.2-0.7,0.2s-0.5-0.1-0.7-0.2c-0.2-0.2-0.3-0.4-0.3-0.7c0-0.3,0.1-0.5,0.2-0.7s0.4-0.3,0.7-0.3l0.8-0.1
		c0.1,0,0.2,0,0.2-0.1s0.1-0.1,0.1-0.2c0-0.2-0.1-0.3-0.2-0.3c-0.1,0-0.2-0.1-0.4-0.1s-0.3,0-0.4,0.1c-0.1,0.1-0.1,0.2-0.1,0.3H58
		c0-0.4,0.2-0.7,0.5-0.9c0.2-0.1,0.5-0.2,0.9-0.2c0.3,0,0.6,0.1,0.8,0.2C60.5,102.4,60.7,102.7,60.7,103z M59.9,104.3v-0.4
		c0,0-0.1,0.1-0.2,0.1s-0.2,0.1-0.4,0.1s-0.3,0.1-0.4,0.1c-0.1,0.1-0.2,0.2-0.2,0.4c0,0.1,0,0.2,0.1,0.3c0.1,0.1,0.2,0.1,0.3,0.1
		c0.2,0,0.4-0.1,0.5-0.2C59.8,104.6,59.9,104.4,59.9,104.3z"/>
	<path class="st6" d="M64.4,101.1v4.3h-0.8V105c-0.1,0.2-0.2,0.3-0.4,0.4s-0.3,0.1-0.5,0.1c-0.4,0-0.8-0.2-1-0.5s-0.3-0.7-0.3-1.2
		s0.1-0.9,0.4-1.2c0.2-0.3,0.5-0.4,0.9-0.4c0.2,0,0.5,0.1,0.6,0.2s0.2,0.2,0.3,0.3v-1.5h0.8V101.1z M62.1,103.8c0,0.2,0,0.5,0.1,0.6
		c0.1,0.2,0.3,0.3,0.5,0.3c0.3,0,0.4-0.1,0.6-0.3c0.1-0.2,0.2-0.4,0.2-0.6c0-0.3,0-0.5-0.1-0.7s-0.3-0.3-0.6-0.3
		c-0.2,0-0.4,0.1-0.6,0.3C62.2,103.3,62.1,103.5,62.1,103.8z"/>
	<path class="st6" d="M68,101.1v4.3h-0.8V105c-0.1,0.2-0.2,0.3-0.4,0.4c-0.2,0.1-0.3,0.1-0.5,0.1c-0.4,0-0.8-0.2-1-0.5
		s-0.3-0.7-0.3-1.2s0.1-0.9,0.4-1.2c0.2-0.3,0.5-0.4,0.9-0.4c0.2,0,0.5,0.1,0.6,0.2s0.2,0.2,0.3,0.3v-1.5H68V101.1z M65.8,103.8
		c0,0.2,0,0.5,0.1,0.6c0.1,0.2,0.3,0.3,0.5,0.3c0.3,0,0.4-0.1,0.6-0.3c0.1-0.2,0.2-0.4,0.2-0.6c0-0.3,0-0.5-0.1-0.7
		s-0.3-0.3-0.6-0.3c-0.2,0-0.4,0.1-0.6,0.3C65.8,103.3,65.8,103.5,65.8,103.8z"/>
	<path class="st6" d="M68.8,105.4v-3.2h0.8v0.6c0.1-0.2,0.2-0.4,0.3-0.4c0.1-0.1,0.3-0.2,0.6-0.2h0.2v0.9h-0.1h-0.1
		c-0.3,0-0.5,0.1-0.6,0.2s-0.1,0.3-0.1,0.5v1.7L68.8,105.4L68.8,105.4z"/>
	<path class="st6" d="M73,104.5h0.9c-0.1,0.4-0.3,0.6-0.6,0.8c-0.2,0.1-0.5,0.2-0.8,0.2c-0.5,0-0.9-0.1-1.1-0.4
		c-0.3-0.3-0.5-0.7-0.5-1.4c0-0.4,0.1-0.7,0.2-0.9c0.3-0.4,0.7-0.7,1.3-0.7c0.4,0,0.7,0.1,1,0.3c0.3,0.3,0.5,0.8,0.5,1.4v0.1h-2.2
		c0,0.3,0.1,0.5,0.2,0.6s0.3,0.2,0.5,0.2c0.1,0,0.2,0,0.3-0.1C72.9,104.7,73,104.6,73,104.5z M71.7,103.5H73c0-0.2-0.1-0.4-0.2-0.5
		s-0.2-0.1-0.4-0.1c-0.2,0-0.3,0.1-0.5,0.2C71.8,103.1,71.8,103.3,71.7,103.5z"/>
	<path class="st6" d="M77.1,103.2h-0.8c0-0.1-0.1-0.2-0.1-0.3c-0.1-0.1-0.2-0.1-0.4-0.1c-0.2,0-0.3,0-0.4,0.1
		c-0.1,0-0.1,0.1-0.1,0.2s0.2,0.2,0.5,0.3c0.5,0.1,0.8,0.2,1,0.3c0.3,0.2,0.5,0.4,0.5,0.8s-0.2,0.7-0.5,0.9
		c-0.2,0.1-0.5,0.2-0.9,0.2s-0.8-0.1-1-0.2c-0.3-0.2-0.5-0.5-0.5-0.9h0.9c0,0.1,0.1,0.3,0.2,0.3s0.3,0.1,0.5,0.1s0.3,0,0.4-0.1
		s0.1-0.1,0.1-0.2s-0.2-0.2-0.5-0.3c-0.5-0.1-0.8-0.2-1-0.3c-0.3-0.2-0.5-0.4-0.5-0.8c0-0.3,0.1-0.5,0.3-0.7c0.2-0.2,0.6-0.4,1-0.4
		s0.7,0.1,1,0.2C76.9,102.5,77.1,102.8,77.1,103.2z"/>
	<path class="st6" d="M80.4,103.2h-0.8c0-0.1-0.1-0.2-0.1-0.3c-0.1-0.1-0.2-0.1-0.4-0.1c-0.2,0-0.3,0-0.4,0.1
		c-0.1,0-0.1,0.1-0.1,0.2s0.2,0.2,0.5,0.3c0.5,0.1,0.8,0.2,1,0.3c0.3,0.2,0.5,0.4,0.5,0.8s-0.2,0.7-0.5,0.9
		c-0.2,0.1-0.5,0.2-0.9,0.2s-0.8-0.1-1-0.2c-0.3-0.2-0.5-0.5-0.5-0.9h0.9c0,0.1,0.1,0.3,0.2,0.3s0.3,0.1,0.5,0.1s0.3,0,0.4-0.1
		s0.1-0.1,0.1-0.2s-0.2-0.2-0.5-0.3c-0.5-0.1-0.8-0.2-1-0.3c-0.3-0.2-0.5-0.4-0.5-0.8c0-0.3,0.1-0.5,0.3-0.7c0.2-0.2,0.6-0.4,1-0.4
		s0.7,0.1,1,0.2C80.3,102.5,80.4,102.8,80.4,103.2z"/>
</g>
<g class="st5">
	<path class="st6" d="M100.7,49.8v1.6h-0.9V47h2c0.4,0,0.7,0.1,1,0.4c0.2,0.2,0.4,0.6,0.4,1c0,0.3-0.1,0.6-0.3,0.8
		c-0.2,0.4-0.6,0.5-1.1,0.5L100.7,49.8L100.7,49.8z M100.7,49h0.8c0.3,0,0.5-0.1,0.6-0.3c0.1-0.1,0.1-0.2,0.1-0.4s-0.1-0.4-0.2-0.5
		s-0.3-0.1-0.6-0.1h-0.7C100.7,47.7,100.7,49,100.7,49z"/>
	<path class="st6" d="M106.3,49v1.7c0,0.2,0,0.3,0,0.4s0.1,0.1,0.1,0.1v0.1h-0.9c0-0.1-0.1-0.2-0.1-0.4c-0.1,0.1-0.3,0.2-0.4,0.3
		c-0.2,0.1-0.4,0.2-0.7,0.2c-0.3,0-0.5-0.1-0.7-0.2c-0.2-0.2-0.3-0.4-0.3-0.7s0.1-0.5,0.2-0.7s0.4-0.3,0.7-0.3l0.8-0.1
		c0.1,0,0.2,0,0.2-0.1s0.1-0.1,0.1-0.2c0-0.2-0.1-0.3-0.2-0.3s-0.2-0.1-0.4-0.1c-0.2,0-0.3,0-0.4,0.1s-0.1,0.2-0.1,0.3h-0.8
		c0-0.4,0.2-0.7,0.5-0.9c0.2-0.1,0.5-0.2,0.9-0.2c0.3,0,0.6,0.1,0.8,0.2C106.2,48.4,106.3,48.6,106.3,49z M105.5,50.2v-0.4
		c0,0-0.1,0.1-0.2,0.1s-0.2,0.1-0.4,0.1c-0.2,0-0.3,0.1-0.4,0.1c-0.1,0.1-0.2,0.2-0.2,0.4c0,0.1,0,0.2,0.1,0.3s0.2,0.1,0.3,0.1
		c0.2,0,0.4-0.1,0.5-0.2C105.4,50.5,105.5,50.4,105.5,50.2z"/>
	<path class="st6" d="M109.9,48.1l-1.1,3.1c-0.2,0.6-0.4,1-0.5,1.1c-0.1,0.2-0.4,0.2-0.7,0.2h-0.4v-0.7h0.2c0.2,0,0.3,0,0.4-0.1
		s0.2-0.2,0.2-0.4l-1.2-3.3h0.9l0.7,2.4l0.7-2.4h0.8V48.1z"/>
	<path class="st6" d="M111.2,47v1.5c0.1-0.2,0.3-0.3,0.4-0.4s0.3-0.1,0.5-0.1c0.4,0,0.7,0.1,0.9,0.4c0.3,0.3,0.4,0.7,0.4,1.2
		s-0.1,0.9-0.3,1.2c-0.2,0.4-0.6,0.5-1,0.5c-0.2,0-0.4,0-0.5-0.1c-0.2-0.1-0.3-0.2-0.4-0.4v0.4h-0.8V47H111.2z M112.6,49.8
		c0-0.3-0.1-0.5-0.2-0.7s-0.3-0.3-0.6-0.3c-0.3,0-0.5,0.1-0.6,0.3s-0.1,0.4-0.1,0.7s0.1,0.5,0.2,0.6c0.1,0.2,0.3,0.3,0.6,0.3
		c0.2,0,0.4-0.1,0.6-0.3C112.6,50.2,112.6,50,112.6,49.8z"/>
	<path class="st6" d="M116.7,49v1.7c0,0.2,0,0.3,0,0.4s0.1,0.1,0.1,0.1v0.1H116c0-0.1-0.1-0.2-0.1-0.4c-0.1,0.1-0.3,0.2-0.4,0.3
		c-0.2,0.1-0.4,0.2-0.7,0.2c-0.3,0-0.5-0.1-0.7-0.2c-0.2-0.2-0.3-0.4-0.3-0.7s0.1-0.5,0.2-0.7s0.4-0.3,0.7-0.3l0.8-0.1
		c0.1,0,0.2,0,0.2-0.1s0.1-0.1,0.1-0.2c0-0.2-0.1-0.3-0.2-0.3s-0.2-0.1-0.4-0.1c-0.2,0-0.3,0-0.4,0.1s-0.1,0.2-0.1,0.3H114
		c0-0.4,0.2-0.7,0.5-0.9c0.2-0.1,0.5-0.2,0.9-0.2c0.3,0,0.6,0.1,0.8,0.2C116.5,48.4,116.7,48.6,116.7,49z M115.9,50.2v-0.4
		c0,0-0.1,0.1-0.2,0.1s-0.2,0.1-0.4,0.1c-0.2,0-0.3,0.1-0.4,0.1c-0.1,0.1-0.2,0.2-0.2,0.4c0,0.1,0,0.2,0.1,0.3s0.2,0.1,0.3,0.1
		c0.2,0,0.4-0.1,0.5-0.2C115.8,50.5,115.9,50.4,115.9,50.2z"/>
	<path class="st6" d="M119.3,50.2h0.9c0,0.3-0.1,0.5-0.3,0.7c-0.3,0.3-0.6,0.5-1.2,0.5c-0.5,0-0.9-0.2-1.2-0.5
		c-0.2-0.3-0.3-0.6-0.3-1c0-0.5,0.1-1,0.4-1.3s0.6-0.5,1.2-0.5c0.3,0,0.6,0.1,0.9,0.2c0.3,0.2,0.5,0.5,0.6,1h-0.9
		c0-0.2-0.1-0.3-0.2-0.4c-0.1-0.1-0.2-0.1-0.3-0.1c-0.2,0-0.4,0.1-0.5,0.3s-0.1,0.4-0.1,0.6c0,0.4,0.1,0.6,0.2,0.8s0.3,0.2,0.5,0.2
		s0.3-0.1,0.4-0.2C119.3,50.4,119.3,50.3,119.3,50.2z"/>
	<path class="st6" d="M121.6,50.3v1h-0.8V47h0.8v2.3l1.1-1.2h1l-1.1,1.2l1.2,2h-1L122,50L121.6,50.3z"/>
	<path class="st6" d="M129.4,47v2.8c0,0.6-0.2,1-0.5,1.2c-0.3,0.3-0.7,0.4-1.3,0.4c-0.3,0-0.5,0-0.7-0.1c-0.3-0.1-0.5-0.2-0.7-0.4
		c-0.2-0.3-0.3-0.6-0.3-1V47h0.9v2.8c0,0.3,0.1,0.5,0.2,0.6s0.3,0.2,0.6,0.2c0.3,0,0.5-0.1,0.7-0.2s0.2-0.3,0.2-0.6V47H129.4z"/>
	<path class="st6" d="M130.1,50h0.9c0,0.2,0.1,0.3,0.2,0.4c0.2,0.2,0.4,0.3,0.8,0.3c0.3,0,0.5,0,0.6-0.1c0.2-0.1,0.3-0.2,0.3-0.5
		c0-0.2-0.1-0.3-0.2-0.4c-0.1-0.1-0.3-0.1-0.6-0.2l-0.5-0.1c-0.5-0.1-0.8-0.2-0.9-0.3c-0.3-0.2-0.4-0.5-0.4-0.9
		c0-0.3,0.1-0.6,0.3-0.8c0.3-0.3,0.7-0.5,1.4-0.5c0.6,0,1,0.2,1.3,0.5c0.2,0.3,0.3,0.5,0.3,0.9h-0.9c0-0.2-0.1-0.3-0.1-0.4
		c-0.1-0.2-0.4-0.3-0.7-0.3c-0.2,0-0.4,0-0.5,0.1c-0.2,0.1-0.2,0.2-0.2,0.4c0,0.1,0.1,0.3,0.2,0.3c0.1,0,0.2,0.1,0.3,0.1l1.1,0.3
		c0.4,0.1,0.6,0.2,0.8,0.3c0.2,0.2,0.3,0.5,0.3,0.8c0,0.4-0.1,0.8-0.4,1c-0.3,0.3-0.7,0.4-1.3,0.4c-0.7,0-1.2-0.2-1.5-0.5
		C130.2,50.7,130.1,50.4,130.1,50z"/>
	<path class="st6" d="M134.3,51.3V47h1.9c0.6,0,1.1,0.2,1.4,0.7c0.2,0.4,0.3,0.8,0.3,1.3c0,0.6-0.1,1.1-0.4,1.5
		c-0.3,0.5-0.8,0.8-1.4,0.8H134.3z M135.2,47.8v2.8h0.9c0.3,0,0.6-0.2,0.8-0.5c0.1-0.3,0.2-0.6,0.2-1c0-0.6-0.1-0.9-0.4-1.2
		c-0.2-0.1-0.4-0.2-0.6-0.2h-0.9V47.8z"/>
	<path class="st6" d="M140.4,47.8v3.5h-0.9v-3.5h-1.3V47h3.5v0.8H140.4z"/>
	<path class="st6" d="M146.5,49v1.7c0,0.2,0,0.3,0,0.4s0.1,0.1,0.1,0.1v0.1h-0.9c0-0.1-0.1-0.2-0.1-0.4c-0.1,0.1-0.3,0.2-0.4,0.3
		c-0.2,0.1-0.4,0.2-0.7,0.2s-0.5-0.1-0.7-0.2c-0.2-0.2-0.3-0.4-0.3-0.7s0.1-0.5,0.2-0.7s0.4-0.3,0.7-0.3l0.8-0.1
		c0.1,0,0.2,0,0.2-0.1s0.1-0.1,0.1-0.2c0-0.2-0.1-0.3-0.2-0.3c-0.1,0-0.2-0.1-0.4-0.1s-0.3,0-0.4,0.1c-0.1,0.1-0.1,0.2-0.1,0.3h-0.8
		c0-0.4,0.2-0.7,0.5-0.9c0.2-0.1,0.5-0.2,0.9-0.2c0.3,0,0.6,0.1,0.8,0.2C146.3,48.4,146.5,48.6,146.5,49z M145.7,50.2v-0.4
		c0,0-0.1,0.1-0.2,0.1s-0.2,0.1-0.4,0.1s-0.3,0.1-0.4,0.1c-0.1,0.1-0.2,0.2-0.2,0.4c0,0.1,0,0.2,0.1,0.3s0.2,0.1,0.3,0.1
		c0.2,0,0.4-0.1,0.5-0.2C145.6,50.5,145.7,50.4,145.7,50.2z"/>
	<path class="st6" d="M148.2,47.3v0.9h0.5v0.6h-0.5v1.7c0,0.1,0,0.2,0.1,0.2c0,0,0.1,0.1,0.3,0.1h0.2v0.6h-0.4h-0.1
		c-0.3,0-0.6-0.1-0.7-0.2c-0.1-0.1-0.2-0.3-0.2-0.5v-1.9H147v-0.6h0.4v-0.9C147.4,47.3,148.2,47.3,148.2,47.3z"/>
	<path class="st6" d="M155.5,49.1v2.2h-0.8v-1.9c0-0.2,0-0.4-0.1-0.5s-0.2-0.1-0.3-0.1c-0.2,0-0.3,0.1-0.4,0.2
		c-0.1,0.1-0.1,0.3-0.1,0.5v1.9H153v-1.9c0-0.2,0-0.3-0.1-0.4c-0.1-0.1-0.2-0.2-0.4-0.2s-0.3,0.1-0.4,0.2c-0.1,0.1-0.1,0.3-0.1,0.5
		v1.9h-0.8v-3.2h0.8v0.5c0.1-0.2,0.2-0.3,0.3-0.4c0.2-0.1,0.4-0.2,0.6-0.2c0.2,0,0.4,0,0.5,0.1s0.2,0.2,0.4,0.4
		c0.1-0.1,0.2-0.3,0.3-0.3c0.2-0.1,0.4-0.2,0.6-0.2c0.3,0,0.6,0.1,0.8,0.3C155.4,48.5,155.5,48.8,155.5,49.1z"/>
	<path class="st6" d="M158.8,49v1.7c0,0.2,0,0.3,0,0.4s0.1,0.1,0.1,0.1v0.1H158c0-0.1-0.1-0.2-0.1-0.4c-0.1,0.1-0.3,0.2-0.4,0.3
		c-0.2,0.1-0.4,0.2-0.7,0.2s-0.5-0.1-0.7-0.2c-0.2-0.2-0.3-0.4-0.3-0.7s0.1-0.5,0.2-0.7s0.4-0.3,0.7-0.3l0.8-0.1
		c0.1,0,0.2,0,0.2-0.1s0.1-0.1,0.1-0.2c0-0.2-0.1-0.3-0.2-0.3c-0.1,0-0.2-0.1-0.4-0.1s-0.3,0-0.4,0.1c-0.1,0.1-0.1,0.2-0.1,0.3h-0.8
		c0-0.4,0.2-0.7,0.5-0.9c0.2-0.1,0.5-0.2,0.9-0.2c0.3,0,0.6,0.1,0.8,0.2C158.6,48.4,158.8,48.6,158.8,49z M158,50.2v-0.4
		c0,0-0.1,0.1-0.2,0.1s-0.2,0.1-0.4,0.1s-0.3,0.1-0.4,0.1c-0.1,0.1-0.2,0.2-0.2,0.4c0,0.1,0,0.2,0.1,0.3s0.2,0.1,0.3,0.1
		c0.2,0,0.4-0.1,0.5-0.2C157.9,50.5,158,50.4,158,50.2z"/>
	<path class="st6" d="M160.5,47.3v0.9h0.5v0.6h-0.5v1.7c0,0.1,0,0.2,0.1,0.2c0,0,0.1,0.1,0.3,0.1h0.2v0.6h-0.4h-0.1
		c-0.3,0-0.6-0.1-0.7-0.2c-0.1-0.1-0.2-0.3-0.2-0.5v-1.9h-0.4v-0.6h0.4v-0.9C159.7,47.3,160.5,47.3,160.5,47.3z"/>
	<path class="st6" d="M164.4,48.1v3.2h-0.8v-0.5c-0.2,0.4-0.5,0.5-1,0.5c-0.3,0-0.6-0.1-0.8-0.3s-0.3-0.5-0.3-0.9V48h0.8v2
		c0,0.2,0.1,0.4,0.2,0.5c0.1,0.1,0.2,0.1,0.4,0.1s0.3,0,0.4-0.1c0.1-0.1,0.2-0.3,0.2-0.6v-1.8C163.5,48.1,164.4,48.1,164.4,48.1z"/>
	<path class="st6" d="M165.2,51.3v-3.2h0.8v0.6c0.1-0.2,0.2-0.4,0.3-0.4c0.1-0.1,0.3-0.2,0.6-0.2h0.2V49H167h-0.1
		c-0.3,0-0.5,0.1-0.6,0.2c-0.1,0.1-0.1,0.3-0.1,0.5v1.7L165.2,51.3L165.2,51.3z"/>
	<path class="st6" d="M168.4,47v0.8h-0.8V47H168.4z M167.6,48.1h0.8v3.2h-0.8V48.1z"/>
	<path class="st6" d="M170.2,47.3v0.9h0.5v0.6h-0.5v1.7c0,0.1,0,0.2,0.1,0.2c0,0,0.1,0.1,0.3,0.1h0.2v0.6h-0.4h-0.1
		c-0.3,0-0.6-0.1-0.7-0.2c-0.1-0.1-0.2-0.3-0.2-0.5v-1.9H169v-0.6h0.4v-0.9C169.4,47.3,170.2,47.3,170.2,47.3z"/>
	<path class="st6" d="M174.1,48.1l-1.1,3.1c-0.2,0.6-0.4,1-0.5,1.1c-0.1,0.2-0.4,0.2-0.7,0.2h-0.4v-0.7h0.2c0.2,0,0.3,0,0.4-0.1
		c0.1-0.1,0.2-0.2,0.2-0.4L171,48h0.9l0.7,2.4l0.7-2.4h0.8V48.1z"/>
</g>
<g class="st5">
	<path class="st6" d="M105.9,59.8h-0.6c-0.3-0.4-0.6-0.8-0.7-1.2c-0.2-0.5-0.3-1-0.3-1.6c0-0.5,0.1-1.1,0.3-1.6
		c0.2-0.4,0.4-0.8,0.7-1.3h0.6c-0.3,0.4-0.5,0.9-0.6,1.2c-0.2,0.5-0.2,1-0.2,1.6c0,0.4,0,0.8,0.1,1.1s0.2,0.6,0.3,0.9
		C105.6,59.2,105.8,59.5,105.9,59.8z"/>
	<path class="st6" d="M107.4,57v1.6h-0.9v-4.3h2c0.4,0,0.7,0.1,1,0.4s0.4,0.6,0.4,1c0,0.3-0.1,0.6-0.3,0.8c-0.2,0.4-0.6,0.5-1.1,0.5
		H107.4z M107.4,56.2h0.8c0.3,0,0.5-0.1,0.6-0.3c0.1-0.1,0.1-0.2,0.1-0.4s-0.1-0.4-0.2-0.5s-0.3-0.1-0.6-0.1h-0.7
		C107.4,54.9,107.4,56.2,107.4,56.2z"/>
	<path class="st6" d="M110.4,58.5v-3.2h0.8v0.6c0.1-0.2,0.2-0.4,0.3-0.4c0.1-0.1,0.3-0.2,0.6-0.2h0.2v0.9h-0.1h-0.1
		c-0.3,0-0.5,0.1-0.6,0.2c-0.1,0.1-0.1,0.3-0.1,0.5v1.7L110.4,58.5L110.4,58.5z"/>
	<path class="st6" d="M114.7,57.6h0.9c-0.1,0.4-0.3,0.6-0.6,0.8c-0.2,0.1-0.5,0.2-0.8,0.2c-0.5,0-0.9-0.1-1.1-0.4
		c-0.3-0.3-0.5-0.7-0.5-1.4c0-0.4,0.1-0.7,0.2-0.9c0.3-0.4,0.7-0.7,1.3-0.7c0.4,0,0.7,0.1,1,0.3c0.3,0.3,0.5,0.8,0.5,1.4V57h-2.2
		c0,0.3,0.1,0.5,0.2,0.6s0.3,0.2,0.5,0.2c0.1,0,0.2,0,0.3-0.1C114.6,57.8,114.6,57.7,114.7,57.6z M113.4,56.6h1.3
		c0-0.2-0.1-0.4-0.2-0.5s-0.2-0.1-0.4-0.1c-0.2,0-0.3,0.1-0.5,0.2S113.4,56.4,113.4,56.6z"/>
	<path class="st6" d="M116.9,55.3v0.5c0.1-0.2,0.2-0.3,0.3-0.4c0.2-0.1,0.4-0.2,0.6-0.2c0.4,0,0.7,0.1,0.9,0.4
		c0.3,0.3,0.4,0.7,0.4,1.2s-0.1,0.9-0.3,1.2c-0.2,0.4-0.6,0.5-1,0.5c-0.3,0-0.5-0.1-0.6-0.2c-0.1-0.1-0.2-0.2-0.3-0.3v1.7h-0.8v-4.4
		H116.9z M116.9,57c0,0.3,0.1,0.5,0.2,0.6c0.1,0.2,0.3,0.3,0.6,0.3c0.2,0,0.4-0.1,0.6-0.3c0.1-0.2,0.1-0.4,0.1-0.6
		c0-0.3-0.1-0.5-0.2-0.7s-0.3-0.3-0.6-0.3c-0.3,0-0.5,0.1-0.6,0.3C117,56.5,116.9,56.7,116.9,57z"/>
	<path class="st6" d="M122.4,56.2v1.7c0,0.2,0,0.3,0,0.4s0.1,0.1,0.1,0.1v0.1h-0.9c0-0.1-0.1-0.2-0.1-0.4c-0.1,0.1-0.3,0.2-0.4,0.3
		c-0.2,0.1-0.4,0.2-0.7,0.2c-0.3,0-0.5-0.1-0.7-0.2c-0.2-0.2-0.3-0.4-0.3-0.7s0.1-0.5,0.2-0.7s0.4-0.3,0.7-0.3l0.8-0.1
		c0.1,0,0.2,0,0.2-0.1s0.1-0.1,0.1-0.2c0-0.2-0.1-0.3-0.2-0.3s-0.2-0.1-0.4-0.1c-0.2,0-0.3,0-0.4,0.1s-0.1,0.2-0.1,0.3h-0.8
		c0-0.4,0.2-0.7,0.5-0.9c0.2-0.1,0.5-0.2,0.9-0.2c0.3,0,0.6,0.1,0.8,0.2C122.2,55.6,122.4,55.8,122.4,56.2z M121.6,57.4V57
		c0,0-0.1,0.1-0.2,0.1s-0.2,0.1-0.4,0.1c-0.2,0-0.3,0.1-0.4,0.1c-0.1,0.1-0.2,0.2-0.2,0.4c0,0.1,0,0.2,0.1,0.3s0.2,0.1,0.3,0.1
		c0.2,0,0.4-0.1,0.5-0.2C121.5,57.7,121.6,57.6,121.6,57.4z"/>
	<path class="st6" d="M126,55.3l-1.1,3.1c-0.2,0.6-0.4,1-0.5,1.1c-0.1,0.2-0.4,0.2-0.7,0.2h-0.4V59h0.2c0.2,0,0.3,0,0.4-0.1
		s0.2-0.2,0.2-0.4l-1.2-3.3h0.9l0.7,2.4l0.7-2.4h0.8V55.3z"/>
	<path class="st6" d="M131,56.3v2.2h-0.8v-1.9c0-0.2,0-0.4-0.1-0.5s-0.2-0.1-0.3-0.1c-0.2,0-0.3,0.1-0.4,0.2
		c-0.1,0.1-0.1,0.3-0.1,0.5v1.9h-0.8v-1.9c0-0.2,0-0.3-0.1-0.4c-0.1-0.1-0.2-0.2-0.4-0.2c-0.2,0-0.3,0.1-0.4,0.2
		c-0.1,0.1-0.1,0.3-0.1,0.5v1.9h-0.8v-3.2h0.8V56c0.1-0.2,0.2-0.3,0.3-0.4c0.2-0.1,0.4-0.2,0.6-0.2s0.4,0,0.5,0.1s0.2,0.2,0.4,0.4
		c0.1-0.1,0.2-0.3,0.3-0.3c0.2-0.1,0.4-0.2,0.6-0.2c0.3,0,0.6,0.1,0.8,0.3C130.9,55.7,131,56,131,56.3z"/>
	<path class="st6" d="M133.7,57.6h0.9c-0.1,0.4-0.3,0.6-0.6,0.8c-0.2,0.1-0.5,0.2-0.8,0.2c-0.5,0-0.9-0.1-1.1-0.4
		c-0.3-0.3-0.5-0.7-0.5-1.4c0-0.4,0.1-0.7,0.2-0.9c0.3-0.4,0.7-0.7,1.3-0.7c0.4,0,0.7,0.1,1,0.3c0.3,0.3,0.5,0.8,0.5,1.4V57h-2.2
		c0,0.3,0.1,0.5,0.2,0.6c0.1,0.1,0.3,0.2,0.5,0.2c0.1,0,0.2,0,0.3-0.1C133.6,57.8,133.6,57.7,133.7,57.6z M132.4,56.6h1.3
		c0-0.2-0.1-0.4-0.2-0.5c-0.1-0.1-0.2-0.1-0.4-0.1s-0.3,0.1-0.5,0.2S132.4,56.4,132.4,56.6z"/>
	<path class="st6" d="M138,56.3v2.2h-0.8v-1.9c0-0.2,0-0.3-0.1-0.4c-0.1-0.2-0.2-0.2-0.5-0.2c-0.2,0-0.3,0.1-0.5,0.2
		c-0.1,0.1-0.2,0.3-0.2,0.5v1.8h-0.8v-3.2h0.8v0.5c0.1-0.2,0.3-0.3,0.4-0.4s0.3-0.1,0.5-0.1c0.3,0,0.6,0.1,0.8,0.3
		C137.9,55.7,138,56,138,56.3z"/>
	<path class="st6" d="M139.7,54.5v0.9h0.5V56h-0.5v1.7c0,0.1,0,0.2,0.1,0.2c0,0,0.1,0.1,0.3,0.1h0.2v0.6h-0.4h-0.1
		c-0.3,0-0.6-0.1-0.7-0.2c-0.1-0.1-0.2-0.3-0.2-0.5V56h-0.4v-0.6h0.4v-0.9C138.9,54.5,139.7,54.5,139.7,54.5z"/>
	<path class="st6" d="M145,56.2v1.7c0,0.2,0,0.3,0,0.4s0.1,0.1,0.1,0.1v0.1h-0.9c0-0.1-0.1-0.2-0.1-0.4c-0.1,0.1-0.3,0.2-0.4,0.3
		c-0.2,0.1-0.4,0.2-0.7,0.2s-0.5-0.1-0.7-0.2c-0.2-0.2-0.3-0.4-0.3-0.7s0.1-0.5,0.2-0.7s0.4-0.3,0.7-0.3l0.8-0.1
		c0.1,0,0.2,0,0.2-0.1s0.1-0.1,0.1-0.2c0-0.2-0.1-0.3-0.2-0.3c-0.1,0-0.2-0.1-0.4-0.1s-0.3,0-0.4,0.1c-0.1,0.1-0.1,0.2-0.1,0.3h-0.8
		c0-0.4,0.2-0.7,0.5-0.9c0.2-0.1,0.5-0.2,0.9-0.2c0.3,0,0.6,0.1,0.8,0.2C144.9,55.6,145,55.8,145,56.2z M144.2,57.4V57
		c0,0-0.1,0.1-0.2,0.1s-0.2,0.1-0.4,0.1s-0.3,0.1-0.4,0.1c-0.1,0.1-0.2,0.2-0.2,0.4c0,0.1,0,0.2,0.1,0.3s0.2,0.1,0.3,0.1
		c0.2,0,0.4-0.1,0.5-0.2C144.2,57.7,144.2,57.6,144.2,57.4z"/>
	<path class="st6" d="M148.7,55.3l-1.1,3.2h-0.9l-1.2-3.2h0.9l0.7,2.4l0.7-2.4H148.7z"/>
	<path class="st6" d="M151.7,56.2v1.7c0,0.2,0,0.3,0,0.4s0.1,0.1,0.1,0.1v0.1H151c0-0.1-0.1-0.2-0.1-0.4c-0.1,0.1-0.3,0.2-0.4,0.3
		c-0.2,0.1-0.4,0.2-0.7,0.2s-0.5-0.1-0.7-0.2c-0.2-0.2-0.3-0.4-0.3-0.7s0.1-0.5,0.2-0.7s0.4-0.3,0.7-0.3l0.8-0.1
		c0.1,0,0.2,0,0.2-0.1s0.1-0.1,0.1-0.2c0-0.2-0.1-0.3-0.2-0.3c-0.1,0-0.2-0.1-0.4-0.1s-0.3,0-0.4,0.1c-0.1,0.1-0.1,0.2-0.1,0.3H149
		c0-0.4,0.2-0.7,0.5-0.9c0.2-0.1,0.5-0.2,0.9-0.2c0.3,0,0.6,0.1,0.8,0.2C151.6,55.6,151.7,55.8,151.7,56.2z M150.9,57.4V57
		c0,0-0.1,0.1-0.2,0.1s-0.2,0.1-0.4,0.1s-0.3,0.1-0.4,0.1c-0.1,0.1-0.2,0.2-0.2,0.4c0,0.1,0,0.2,0.1,0.3c0.2,0,0.2,0,0.3,0
		c0.2,0,0.4-0.1,0.5-0.2C150.8,57.7,150.9,57.6,150.9,57.4z"/>
	<path class="st6" d="M153.3,54.2V55h-0.8v-0.8H153.3z M152.5,55.3h0.8v3.2h-0.8V55.3z"/>
	<path class="st6" d="M155,54.2v4.3h-0.8v-4.3H155z"/>
	<path class="st6" d="M158.4,56.2v1.7c0,0.2,0,0.3,0,0.4s0.1,0.1,0.1,0.1v0.1h-0.9c0-0.1-0.1-0.2-0.1-0.4c-0.1,0.1-0.3,0.2-0.4,0.3
		c-0.2,0.1-0.4,0.2-0.7,0.2s-0.5-0.1-0.7-0.2c-0.2-0.2-0.3-0.4-0.3-0.7s0.1-0.5,0.2-0.7s0.4-0.3,0.7-0.3l0.8-0.1
		c0.1,0,0.2,0,0.2-0.1s0.1-0.1,0.1-0.2c0-0.2-0.1-0.3-0.2-0.3c-0.1,0-0.2-0.1-0.4-0.1s-0.3,0-0.4,0.1c-0.1,0.1-0.1,0.2-0.1,0.3h-0.8
		c0-0.4,0.2-0.7,0.5-0.9c0.2-0.1,0.5-0.2,0.9-0.2c0.3,0,0.6,0.1,0.8,0.2C158.2,55.6,158.4,55.8,158.4,56.2z M157.6,57.4V57
		c0,0-0.1,0.1-0.2,0.1s-0.2,0.1-0.4,0.1s-0.3,0.1-0.4,0.1c-0.1,0.1-0.2,0.2-0.2,0.4c0,0.1,0,0.2,0.1,0.3s0.2,0.1,0.3,0.1
		c0.2,0,0.4-0.1,0.5-0.2C157.5,57.7,157.6,57.6,157.6,57.4z"/>
	<path class="st6" d="M159.9,54.2v1.5c0.1-0.2,0.3-0.3,0.4-0.4c0.2-0.1,0.3-0.1,0.5-0.1c0.4,0,0.7,0.1,0.9,0.4
		c0.3,0.3,0.4,0.7,0.4,1.2s-0.1,0.9-0.3,1.2c-0.2,0.4-0.6,0.5-1,0.5c-0.2,0-0.4,0-0.5-0.1c-0.2-0.1-0.3-0.2-0.4-0.4v0.4h-0.8v-4.3
		L159.9,54.2L159.9,54.2z M161.4,57c0-0.3-0.1-0.5-0.2-0.7c-0.1-0.2-0.3-0.3-0.6-0.3s-0.5,0.1-0.6,0.3s-0.1,0.4-0.1,0.7
		s0.1,0.5,0.2,0.6c0.1,0.2,0.3,0.3,0.6,0.3c0.2,0,0.4-0.1,0.6-0.3C161.3,57.4,161.4,57.2,161.4,57z"/>
	<path class="st6" d="M163.7,54.2v4.3h-0.8v-4.3H163.7z"/>
	<path class="st6" d="M166.4,57.6h0.9c-0.1,0.4-0.3,0.6-0.6,0.8c-0.2,0.1-0.5,0.2-0.8,0.2c-0.5,0-0.9-0.1-1.1-0.4
		c-0.3-0.3-0.5-0.7-0.5-1.4c0-0.4,0.1-0.7,0.2-0.9c0.3-0.4,0.7-0.7,1.3-0.7c0.4,0,0.7,0.1,1,0.3c0.3,0.3,0.5,0.8,0.5,1.4V57h-2.2
		c0,0.3,0.1,0.5,0.2,0.6c0.1,0.1,0.3,0.2,0.5,0.2c0.1,0,0.2,0,0.3-0.1C166.3,57.8,166.3,57.7,166.4,57.6z M165.1,56.6h1.3
		c0-0.2-0.1-0.4-0.2-0.5c-0.1-0.1-0.2-0.1-0.4-0.1s-0.3,0.1-0.5,0.2S165.1,56.4,165.1,56.6z"/>
	<path class="st6" d="M167.5,54.1h0.6c0.3,0.4,0.6,0.8,0.7,1.2c0.2,0.5,0.3,1,0.3,1.6c0,0.5-0.1,1.1-0.3,1.6
		c-0.2,0.4-0.4,0.8-0.7,1.3h-0.6c0.3-0.4,0.5-0.9,0.6-1.2c0.2-0.5,0.2-1,0.2-1.6s-0.1-1.1-0.2-1.6C168,55,167.8,54.6,167.5,54.1z"/>
</g>
<g class="st5">
	<path class="st6" d="M201.8,53.3h0.9c0,0.2,0.1,0.3,0.2,0.4c0.2,0.2,0.4,0.3,0.8,0.3c0.3,0,0.5,0,0.6-0.1c0.2-0.1,0.3-0.2,0.3-0.5
		c0-0.2-0.1-0.3-0.2-0.4c-0.1-0.1-0.3-0.1-0.6-0.2l-0.5-0.1c-0.5-0.1-0.8-0.2-0.9-0.3c-0.3-0.2-0.4-0.5-0.4-0.9
		c0-0.3,0.1-0.6,0.3-0.8c0.3-0.3,0.7-0.5,1.4-0.5c0.6,0,1,0.2,1.3,0.5c0.2,0.3,0.3,0.5,0.3,0.9h-0.9c0-0.2-0.1-0.3-0.2-0.4
		c-0.1-0.2-0.4-0.3-0.7-0.3c-0.2,0-0.4,0-0.5,0.1c-0.2,0.1-0.2,0.2-0.2,0.4c0,0.1,0.1,0.3,0.2,0.3c0.1,0,0.2,0.1,0.3,0.1l1.1,0.3
		c0.4,0.1,0.6,0.2,0.8,0.3c0.2,0.2,0.3,0.5,0.3,0.8c0,0.4-0.1,0.8-0.4,1c-0.3,0.3-0.7,0.4-1.3,0.4c-0.7,0-1.2-0.2-1.5-0.5
		C202,54,201.8,53.7,201.8,53.3z"/>
	<path class="st6" d="M210.6,52.5v2.2h-0.8v-1.9c0-0.2,0-0.4-0.1-0.5s-0.2-0.1-0.3-0.1c-0.2,0-0.3,0.1-0.4,0.2
		c-0.1,0.1-0.1,0.3-0.1,0.5v1.9h-0.8v-1.9c0-0.2,0-0.3-0.1-0.4c-0.1-0.1-0.2-0.2-0.4-0.2s-0.3,0.1-0.4,0.2c-0.1,0.1-0.1,0.3-0.1,0.5
		v1.9H206v-3.2h0.8v0.5c0.1-0.2,0.2-0.3,0.3-0.4c0.2-0.1,0.4-0.2,0.6-0.2c0.2,0,0.4,0,0.5,0.1s0.2,0.2,0.4,0.4
		c0.1-0.1,0.2-0.3,0.3-0.3c0.2-0.1,0.4-0.2,0.6-0.2c0.3,0,0.6,0.1,0.8,0.3C210.5,51.9,210.6,52.1,210.6,52.5z"/>
	<path class="st6" d="M213.9,52.3V54c0,0.2,0,0.3,0,0.4s0.1,0.1,0.1,0.1v0.1h-0.9c0-0.1-0.1-0.2-0.1-0.4c-0.1,0.1-0.3,0.2-0.4,0.3
		c-0.2,0.1-0.4,0.2-0.7,0.2s-0.5-0.1-0.7-0.2c-0.2-0.2-0.3-0.4-0.3-0.7s0.1-0.5,0.2-0.7s0.4-0.3,0.7-0.3l0.8-0.1
		c0.1,0,0.2,0,0.2-0.1s0.1-0.1,0.1-0.2c0-0.2-0.1-0.3-0.2-0.3c-0.1,0-0.2-0.1-0.4-0.1s-0.3,0-0.4,0.1c-0.1,0.1-0.1,0.2-0.1,0.3H211
		c0-0.4,0.2-0.7,0.5-0.9c0.2-0.1,0.5-0.2,0.9-0.2c0.3,0,0.6,0.1,0.8,0.2C213.8,51.7,213.9,52,213.9,52.3z M213.1,53.5v-0.4
		c0,0-0.1,0.1-0.2,0.1s-0.2,0.1-0.4,0.1s-0.3,0.1-0.4,0.1c-0.1,0.1-0.2,0.2-0.2,0.4c0,0.1,0,0.2,0.1,0.3s0.2,0.1,0.3,0.1
		c0.2,0,0.4-0.1,0.5-0.2C213,53.9,213.1,53.7,213.1,53.5z"/>
	<path class="st6" d="M214.7,54.7v-3.2h0.8v0.6c0.1-0.2,0.2-0.4,0.3-0.4c0.1-0.1,0.3-0.2,0.6-0.2h0.2v0.9h-0.1h-0.1
		c-0.3,0-0.5,0.1-0.6,0.2c-0.1,0.1-0.1,0.3-0.1,0.5v1.7L214.7,54.7L214.7,54.7z"/>
	<path class="st6" d="M218,50.6v0.9h0.5v0.6H218v1.7c0,0.1,0,0.2,0.1,0.2c0,0,0.1,0.1,0.3,0.1h0.2v0.6h-0.4H218
		c-0.3,0-0.6-0.1-0.7-0.2c-0.1-0.1-0.2-0.3-0.2-0.5v-1.9h-0.4v-0.6h0.4v-0.9C217.1,50.6,218,50.6,218,50.6z"/>
	<path class="st6" d="M224.4,51.8h-0.9c-0.1-0.2-0.1-0.4-0.2-0.5c-0.2-0.2-0.4-0.3-0.7-0.3s-0.5,0.1-0.7,0.3
		c-0.2,0.3-0.4,0.7-0.4,1.2c0,0.4,0.1,0.8,0.2,1c0.2,0.3,0.5,0.4,0.8,0.4s0.5-0.1,0.6-0.2s0.3-0.3,0.3-0.6h0.9
		c-0.1,0.5-0.3,0.9-0.6,1.1c-0.3,0.3-0.8,0.4-1.3,0.4c-0.6,0-1.1-0.2-1.4-0.6c-0.4-0.4-0.6-1-0.6-1.7s0.2-1.3,0.6-1.7
		c0.4-0.4,0.8-0.6,1.4-0.6s1,0.2,1.4,0.5C224.2,51.1,224.4,51.4,224.4,51.8z"/>
	<path class="st6" d="M228.1,53.1c0,0.5-0.2,1-0.5,1.3s-0.7,0.4-1.1,0.4s-0.8-0.1-1.1-0.4c-0.3-0.3-0.5-0.7-0.5-1.3
		c0-0.5,0.2-1,0.5-1.3s0.7-0.4,1.1-0.4s0.8,0.1,1.1,0.4C227.9,52.1,228.1,52.5,228.1,53.1z M227.2,53.1c0-0.3,0-0.5-0.1-0.6
		c-0.1-0.2-0.3-0.3-0.6-0.3s-0.5,0.1-0.6,0.3s-0.1,0.4-0.1,0.6c0,0.3,0,0.5,0.1,0.6c0.1,0.2,0.3,0.3,0.6,0.3s0.5-0.1,0.6-0.3
		C227.2,53.5,227.2,53.3,227.2,53.1z"/>
	<path class="st6" d="M231.6,52.5v2.2h-0.8v-1.9c0-0.2,0-0.3-0.1-0.4c-0.1-0.2-0.2-0.2-0.5-0.2c-0.2,0-0.3,0.1-0.5,0.2
		s-0.2,0.3-0.2,0.5v1.8h-0.8v-3.2h0.8V52c0.1-0.2,0.3-0.3,0.4-0.4c0.2-0.1,0.3-0.1,0.5-0.1c0.3,0,0.6,0.1,0.8,0.3
		C231.5,51.9,231.6,52.1,231.6,52.5z"/>
	<path class="st6" d="M233.3,50.6v0.9h0.5v0.6h-0.5v1.7c0,0.1,0,0.2,0.1,0.2c0,0,0.1,0.1,0.3,0.1h0.2v0.6h-0.4h-0.1
		c-0.3,0-0.6-0.1-0.7-0.2c-0.1-0.1-0.2-0.3-0.2-0.5v-1.9H232v-0.6h0.4v-0.9C232.4,50.6,233.3,50.6,233.3,50.6z"/>
	<path class="st6" d="M234.3,54.7v-3.2h0.8v0.6c0.1-0.2,0.2-0.4,0.3-0.4c0.1-0.1,0.3-0.2,0.6-0.2h0.2v0.9h-0.1H236
		c-0.3,0-0.5,0.1-0.6,0.2c-0.1,0.1-0.1,0.3-0.1,0.5v1.7L234.3,54.7L234.3,54.7z"/>
	<path class="st6" d="M239.3,52.3V54c0,0.2,0,0.3,0,0.4s0.1,0.1,0.1,0.1v0.1h-0.9c0-0.1-0.1-0.2-0.1-0.4c-0.1,0.1-0.3,0.2-0.4,0.3
		c-0.2,0.1-0.4,0.2-0.7,0.2s-0.5-0.1-0.7-0.2c-0.2-0.2-0.3-0.4-0.3-0.7s0.1-0.5,0.2-0.7s0.4-0.3,0.7-0.3l0.8-0.1
		c0.1,0,0.2,0,0.2-0.1c0,0,0.1-0.1,0.1-0.2c0-0.2-0.1-0.3-0.2-0.3c-0.1,0-0.2-0.1-0.4-0.1s-0.3,0-0.4,0.1c-0.1,0.1-0.1,0.2-0.1,0.3
		h-0.8c0-0.4,0.2-0.7,0.5-0.9c0.2-0.1,0.5-0.2,0.9-0.2c0.3,0,0.6,0.1,0.8,0.2C239.1,51.7,239.3,52,239.3,52.3z M238.4,53.5v-0.4
		c0,0-0.1,0.1-0.2,0.1s-0.2,0.1-0.4,0.1s-0.3,0.1-0.4,0.1c-0.1,0.1-0.2,0.2-0.2,0.4c0,0.1,0,0.2,0.1,0.3s0.2,0.1,0.3,0.1
		c0.2,0,0.4-0.1,0.5-0.2C238.4,53.9,238.4,53.7,238.4,53.5z"/>
	<path class="st6" d="M241.9,53.5h0.9c0,0.3-0.1,0.5-0.3,0.7c-0.3,0.3-0.6,0.5-1.2,0.5c-0.5,0-0.9-0.2-1.2-0.5
		c-0.2-0.3-0.3-0.6-0.3-1c0-0.5,0.1-1,0.4-1.3c0.3-0.3,0.7-0.5,1.2-0.5c0.3,0,0.6,0.1,0.9,0.2c0.3,0.2,0.5,0.5,0.6,1H242
		c0-0.2-0.1-0.3-0.2-0.4c-0.1-0.1-0.2-0.1-0.3-0.1c-0.2,0-0.4,0.1-0.5,0.3s-0.1,0.4-0.1,0.6c0,0.4,0.1,0.6,0.2,0.8s0.3,0.2,0.5,0.2
		s0.3-0.1,0.4-0.2C241.9,53.7,241.9,53.6,241.9,53.5z"/>
	<path class="st6" d="M244.3,50.6v0.9h0.5v0.6h-0.5v1.7c0,0.1,0,0.2,0.1,0.2c0,0,0.1,0.1,0.3,0.1h0.2v0.6h-0.4h-0.1
		c-0.3,0-0.6-0.1-0.7-0.2c-0.1-0.1-0.2-0.3-0.2-0.5v-1.9H243v-0.6h0.4v-0.9C243.4,50.6,244.3,50.6,244.3,50.6z"/>
	<path class="st6" d="M248,50.6v0.9h0.5v0.6H248v1.7c0,0.1,0,0.2,0.1,0.2c0,0,0.1,0.1,0.3,0.1h0.2v0.6h-0.4H248
		c-0.3,0-0.6-0.1-0.7-0.2c-0.1-0.1-0.2-0.3-0.2-0.5v-1.9h-0.4v-0.6h0.4v-0.9C247.1,50.6,248,50.6,248,50.6z"/>
	<path class="st6" d="M249,54.7v-3.2h0.8v0.6c0.1-0.2,0.2-0.4,0.3-0.4c0.1-0.1,0.3-0.2,0.6-0.2h0.2v0.9h-0.1h-0.1
		c-0.3,0-0.5,0.1-0.6,0.2c-0.1,0.1-0.1,0.3-0.1,0.5v1.7L249,54.7L249,54.7z"/>
	<path class="st6" d="M252.2,50.3v0.8h-0.8v-0.8H252.2z M251.4,51.5h0.8v3.2h-0.8V51.5z"/>
	<path class="st6" d="M255.1,51.5h0.8v3c0,0.4-0.1,0.7-0.2,0.9c-0.2,0.4-0.7,0.5-1.4,0.5c-0.4,0-0.7-0.1-0.9-0.2
		c-0.3-0.2-0.5-0.4-0.5-0.7h0.9c0,0.1,0.1,0.2,0.1,0.2c0.1,0.1,0.2,0.1,0.5,0.1c0.4,0,0.7-0.2,0.7-0.7v-0.4l0,0
		c-0.1,0.1-0.2,0.3-0.3,0.3c-0.1,0.1-0.3,0.1-0.6,0.1c-0.4,0-0.7-0.1-1-0.4c-0.3-0.3-0.4-0.7-0.4-1.2s0.1-0.9,0.4-1.2
		c0.2-0.3,0.5-0.4,0.9-0.4c0.3,0,0.5,0.1,0.7,0.2c0.1,0.1,0.2,0.2,0.3,0.4V51.5z M253.7,53.1c0,0.2,0,0.4,0.1,0.6
		c0.1,0.2,0.3,0.3,0.5,0.3c0.3,0,0.4-0.1,0.6-0.3c0.1-0.2,0.1-0.4,0.1-0.6c0-0.3-0.1-0.5-0.2-0.7s-0.3-0.3-0.5-0.3s-0.3,0.1-0.4,0.2
		C253.8,52.5,253.7,52.7,253.7,53.1z"/>
	<path class="st6" d="M258.8,51.5h0.8v3c0,0.4-0.1,0.7-0.2,0.9c-0.2,0.4-0.7,0.5-1.4,0.5c-0.4,0-0.7-0.1-0.9-0.2
		c-0.3-0.2-0.5-0.4-0.5-0.7h0.9c0,0.1,0.1,0.2,0.1,0.2c0.1,0.1,0.2,0.1,0.5,0.1c0.4,0,0.7-0.2,0.7-0.7v-0.4l0,0
		c-0.1,0.1-0.2,0.3-0.3,0.3c-0.1,0.1-0.3,0.1-0.6,0.1c-0.4,0-0.7-0.1-1-0.4c-0.3-0.3-0.4-0.7-0.4-1.2s0.1-0.9,0.4-1.2
		c0.2-0.3,0.5-0.4,0.9-0.4c0.3,0,0.5,0.1,0.7,0.2c0.1,0.1,0.2,0.2,0.3,0.4V51.5z M257.4,53.1c0,0.2,0,0.4,0.1,0.6
		c0.1,0.2,0.3,0.3,0.5,0.3c0.3,0,0.4-0.1,0.6-0.3c0.1-0.2,0.1-0.4,0.1-0.6c0-0.3-0.1-0.5-0.2-0.7s-0.3-0.3-0.5-0.3s-0.3,0.1-0.4,0.2
		C257.5,52.5,257.4,52.7,257.4,53.1z"/>
	<path class="st6" d="M262.2,53.7h0.9c-0.1,0.4-0.3,0.6-0.6,0.8c-0.2,0.1-0.5,0.2-0.8,0.2c-0.5,0-0.9-0.1-1.1-0.4
		c-0.3-0.3-0.5-0.7-0.5-1.4c0-0.4,0.1-0.7,0.2-0.9c0.3-0.4,0.7-0.7,1.3-0.7c0.4,0,0.7,0.1,1,0.3c0.3,0.3,0.5,0.8,0.5,1.4v0.1h-2.2
		c0,0.3,0.1,0.5,0.2,0.6s0.3,0.2,0.5,0.2c0.1,0,0.2,0,0.3-0.1C262.1,53.9,262.2,53.8,262.2,53.7z M261,52.8h1.3
		c0-0.2-0.1-0.4-0.2-0.5s-0.2-0.1-0.4-0.1c-0.2,0-0.3,0.1-0.5,0.2C261,52.4,261,52.5,261,52.8z"/>
	<path class="st6" d="M263.7,54.7v-3.2h0.8v0.6c0.1-0.2,0.2-0.4,0.3-0.4c0.1-0.1,0.3-0.2,0.6-0.2h0.2v0.9h-0.1h-0.1
		c-0.3,0-0.5,0.1-0.6,0.2c-0.1,0.1-0.1,0.3-0.1,0.5v1.7L263.7,54.7L263.7,54.7z"/>
	<path class="st6" d="M267.9,53.7h0.9c-0.1,0.4-0.3,0.6-0.6,0.8c-0.2,0.1-0.5,0.2-0.8,0.2c-0.5,0-0.9-0.1-1.1-0.4
		c-0.3-0.3-0.5-0.7-0.5-1.4c0-0.4,0.1-0.7,0.2-0.9c0.3-0.4,0.7-0.7,1.3-0.7c0.4,0,0.7,0.1,1,0.3c0.3,0.3,0.5,0.8,0.5,1.4v0.1h-2.2
		c0,0.3,0.1,0.5,0.2,0.6s0.3,0.2,0.5,0.2c0.1,0,0.2,0,0.3-0.1C267.8,53.9,267.9,53.8,267.9,53.7z M266.6,52.8h1.3
		c0-0.2-0.1-0.4-0.2-0.5s-0.2-0.1-0.4-0.1c-0.2,0-0.3,0.1-0.5,0.2C266.7,52.4,266.6,52.5,266.6,52.8z"/>
	<path class="st6" d="M272.3,50.4v4.3h-0.8v-0.4c-0.1,0.2-0.2,0.3-0.4,0.4c-0.2,0.1-0.3,0.1-0.5,0.1c-0.4,0-0.8-0.2-1-0.5
		s-0.3-0.7-0.3-1.2s0.1-0.9,0.4-1.2c0.2-0.3,0.5-0.4,0.9-0.4c0.2,0,0.5,0.1,0.6,0.2c0.1,0.1,0.2,0.2,0.3,0.3v-1.5L272.3,50.4
		L272.3,50.4z M270,53.1c0,0.2,0,0.5,0.1,0.6c0.1,0.2,0.3,0.3,0.5,0.3c0.3,0,0.4-0.1,0.6-0.3c0.1-0.2,0.2-0.4,0.2-0.6
		c0-0.3,0-0.5-0.1-0.7s-0.3-0.3-0.6-0.3c-0.2,0-0.4,0.1-0.6,0.3C270.1,52.6,270,52.8,270,53.1z"/>
</g>
<g class="st5">
	<path class="st6" d="M209.1,57.6v1.5c0.1-0.2,0.3-0.3,0.4-0.4c0.2-0.1,0.3-0.1,0.5-0.1c0.4,0,0.7,0.1,0.9,0.4
		c0.3,0.3,0.4,0.7,0.4,1.2s-0.1,0.9-0.3,1.2c-0.2,0.4-0.6,0.5-1,0.5c-0.2,0-0.4,0-0.5-0.1c-0.2-0.1-0.3-0.2-0.4-0.4v0.4h-0.8v-4.3
		L209.1,57.6L209.1,57.6z M210.5,60.3c0-0.3-0.1-0.5-0.2-0.7c-0.1-0.2-0.3-0.3-0.6-0.3s-0.5,0.1-0.6,0.3S209,60,209,60.3
		s0.1,0.5,0.2,0.6c0.1,0.2,0.3,0.3,0.6,0.3c0.2,0,0.4-0.1,0.6-0.3C210.5,60.7,210.5,60.5,210.5,60.3z"/>
	<path class="st6" d="M214.8,58.7l-1.1,3.1c-0.2,0.6-0.4,1-0.5,1.1c-0.1,0.2-0.4,0.2-0.7,0.2h-0.4v-0.7h0.2c0.2,0,0.3,0,0.4-0.1
		c0.1-0.1,0.2-0.2,0.2-0.4l-1.2-3.3h0.9l0.7,2.4l0.7-2.4h0.8V58.7z"/>
	<path class="st6" d="M220.1,60.3c0,0.5-0.2,1-0.5,1.3s-0.7,0.4-1.1,0.4s-0.8-0.1-1.1-0.4c-0.3-0.3-0.5-0.7-0.5-1.3
		c0-0.5,0.2-1,0.5-1.3s0.7-0.4,1.1-0.4s0.8,0.1,1.1,0.4C219.9,59.3,220.1,59.7,220.1,60.3z M219.2,60.3c0-0.3,0-0.5-0.1-0.6
		c-0.1-0.2-0.3-0.3-0.6-0.3s-0.5,0.1-0.6,0.3s-0.1,0.4-0.1,0.6c0,0.3,0,0.5,0.1,0.6c0.1,0.2,0.3,0.3,0.6,0.3s0.5-0.1,0.6-0.3
		C219.1,60.7,219.2,60.5,219.2,60.3z"/>
	<path class="st6" d="M223.5,58.7l-1.1,3.2h-0.9l-1.2-3.2h0.9l0.7,2.4l0.7-2.4H223.5z"/>
	<path class="st6" d="M225.9,60.9h0.9c-0.1,0.4-0.3,0.6-0.6,0.8c-0.2,0.1-0.5,0.2-0.8,0.2c-0.5,0-0.9-0.1-1.1-0.4
		c-0.3-0.3-0.5-0.7-0.5-1.4c0-0.4,0.1-0.7,0.2-0.9c0.3-0.4,0.7-0.7,1.3-0.7c0.4,0,0.7,0.1,1,0.3c0.3,0.3,0.5,0.8,0.5,1.4v0.1h-2.2
		c0,0.3,0.1,0.5,0.2,0.6c0.1,0.1,0.3,0.2,0.5,0.2c0.1,0,0.2,0,0.3-0.1C225.8,61.1,225.8,61,225.9,60.9z M224.6,60h1.3
		c0-0.2-0.1-0.4-0.2-0.5c-0.1-0.1-0.2-0.1-0.4-0.1s-0.3,0.1-0.5,0.2S224.6,59.7,224.6,60z"/>
	<path class="st6" d="M227.3,61.9v-3.2h0.8v0.6c0.1-0.2,0.2-0.4,0.3-0.4c0.1-0.1,0.3-0.2,0.6-0.2h0.2v0.9h-0.1H229
		c-0.3,0-0.5,0.1-0.6,0.2c-0.1,0.1-0.1,0.3-0.1,0.5V62L227.3,61.9L227.3,61.9z"/>
	<path class="st6" d="M232.6,57.6v4.3h-0.8v-0.4c-0.1,0.2-0.2,0.3-0.4,0.4c-0.2,0.1-0.3,0.1-0.5,0.1c-0.4,0-0.8-0.2-1-0.5
		s-0.3-0.7-0.3-1.2s0.1-0.9,0.4-1.2c0.2-0.3,0.5-0.4,0.9-0.4c0.2,0,0.5,0.1,0.6,0.2c0.1,0.1,0.2,0.2,0.3,0.3v-1.5L232.6,57.6
		L232.6,57.6z M230.3,60.3c0,0.2,0,0.5,0.1,0.6c0.1,0.2,0.3,0.3,0.5,0.3c0.3,0,0.4-0.1,0.6-0.3c0.1-0.2,0.2-0.4,0.2-0.6
		c0-0.3,0-0.5-0.1-0.7s-0.3-0.3-0.6-0.3c-0.2,0-0.4,0.1-0.6,0.3C230.4,59.8,230.3,60,230.3,60.3z"/>
	<path class="st6" d="M236.2,58.7v3.2h-0.8v-0.5c-0.2,0.4-0.5,0.5-1,0.5c-0.3,0-0.6-0.1-0.8-0.3s-0.3-0.5-0.3-0.9v-2.1h0.8v2
		c0,0.2,0.1,0.4,0.2,0.5c0.1,0.1,0.2,0.1,0.4,0.1s0.3,0,0.4-0.1c0.1-0.1,0.2-0.3,0.2-0.6v-1.8C235.3,58.7,236.2,58.7,236.2,58.7z"/>
	<path class="st6" d="M238.9,60.9h0.9c-0.1,0.4-0.3,0.6-0.6,0.8c-0.2,0.1-0.5,0.2-0.8,0.2c-0.5,0-0.9-0.1-1.1-0.4
		c-0.3-0.3-0.5-0.7-0.5-1.4c0-0.4,0.1-0.7,0.2-0.9c0.3-0.4,0.7-0.7,1.3-0.7c0.4,0,0.7,0.1,1,0.3c0.3,0.3,0.5,0.8,0.5,1.4v0.1h-2.2
		c0,0.3,0.1,0.5,0.2,0.6c0.1,0.1,0.3,0.2,0.5,0.2c0.1,0,0.2,0,0.3-0.1C238.8,61.1,238.8,61,238.9,60.9z M237.6,60h1.3
		c0-0.2-0.1-0.4-0.2-0.5c-0.1-0.1-0.2-0.1-0.4-0.1s-0.3,0.1-0.5,0.2S237.6,59.7,237.6,60z"/>
	<path class="st6" d="M242.8,58.7v0.5c0.1-0.2,0.2-0.3,0.3-0.4c0.2-0.1,0.4-0.2,0.6-0.2c0.4,0,0.7,0.1,0.9,0.4
		c0.3,0.3,0.4,0.7,0.4,1.2s-0.1,0.9-0.3,1.2c-0.2,0.4-0.6,0.5-1,0.5c-0.3,0-0.5-0.1-0.6-0.2c-0.1-0.1-0.2-0.2-0.3-0.3v1.7H242v-4.4
		H242.8z M242.8,60.3c0,0.3,0.1,0.5,0.2,0.6c0.1,0.2,0.3,0.3,0.6,0.3c0.2,0,0.4-0.1,0.6-0.3c0.1-0.2,0.1-0.4,0.1-0.6
		c0-0.3-0.1-0.5-0.2-0.7c-0.1-0.2-0.3-0.3-0.6-0.3s-0.5,0.1-0.6,0.3S242.8,60,242.8,60.3z"/>
	<path class="st6" d="M248.2,59.5v1.7c0,0.2,0,0.3,0,0.4s0.1,0.1,0.1,0.1v0.1h-0.9c0-0.1-0.1-0.2-0.1-0.4c-0.1,0.1-0.3,0.2-0.4,0.3
		c-0.2,0.1-0.4,0.2-0.7,0.2s-0.5-0.1-0.7-0.2c-0.2-0.2-0.3-0.4-0.3-0.7s0.1-0.5,0.2-0.7s0.4-0.3,0.7-0.3l0.8-0.1
		c0.1,0,0.2,0,0.2-0.1s0.1-0.1,0.1-0.2c0-0.2-0.1-0.3-0.2-0.3c-0.1,0-0.2-0.1-0.4-0.1s-0.3,0-0.4,0.1c-0.1,0.1-0.1,0.2-0.1,0.3h-0.8
		c0-0.4,0.2-0.7,0.5-0.9c0.2-0.1,0.5-0.2,0.9-0.2c0.3,0,0.6,0.1,0.8,0.2C248.1,58.9,248.2,59.2,248.2,59.5z M247.4,60.7v-0.4
		c0,0-0.1,0.1-0.2,0.1s-0.2,0.1-0.4,0.1s-0.3,0.1-0.4,0.1c-0.1,0.1-0.2,0.2-0.2,0.4c0,0.1,0,0.2,0.1,0.3s0.2,0.1,0.3,0.1
		c0.2,0,0.4-0.1,0.5-0.2C247.3,61.1,247.4,60.9,247.4,60.7z"/>
	<path class="st6" d="M251.8,58.7l-1.1,3.1c-0.2,0.6-0.4,1-0.5,1.1c-0.1,0.2-0.4,0.2-0.7,0.2h-0.4v-0.7h0.2c0.2,0,0.3,0,0.4-0.1
		c0.1-0.1,0.2-0.2,0.2-0.4l-1.2-3.3h0.9l0.7,2.4l0.7-2.4h0.8V58.7z"/>
	<path class="st6" d="M256.9,59.7v2.2H256V60c0-0.2,0-0.4-0.1-0.5s-0.2-0.1-0.3-0.1c-0.2,0-0.3,0.1-0.4,0.2
		c-0.1,0.1-0.1,0.3-0.1,0.5V62h-0.8v-1.9c0-0.2,0-0.3-0.1-0.4c-0.1-0.1-0.2-0.2-0.4-0.2s-0.3,0.1-0.4,0.2c-0.1,0.1-0.1,0.3-0.1,0.5
		v1.9h-0.8v-3.2h0.8v0.5c0.1-0.2,0.2-0.3,0.3-0.4c0.2-0.1,0.4-0.2,0.6-0.2c0.2,0,0.4,0,0.5,0.1s0.2,0.2,0.4,0.4
		c0.1-0.1,0.2-0.3,0.3-0.3c0.2-0.1,0.4-0.2,0.6-0.2c0.3,0,0.6,0.1,0.8,0.3C256.8,59.1,256.9,59.3,256.9,59.7z"/>
	<path class="st6" d="M259.5,60.9h0.9c-0.1,0.4-0.3,0.6-0.6,0.8c-0.2,0.1-0.5,0.2-0.8,0.2c-0.5,0-0.9-0.1-1.1-0.4
		c-0.3-0.3-0.5-0.7-0.5-1.4c0-0.4,0.1-0.7,0.2-0.9c0.3-0.4,0.7-0.7,1.3-0.7c0.4,0,0.7,0.1,1,0.3c0.3,0.3,0.5,0.8,0.5,1.4v0.1h-2.2
		c0,0.3,0.1,0.5,0.2,0.6s0.3,0.2,0.5,0.2c0.1,0,0.2,0,0.3-0.1C259.4,61.1,259.5,61,259.5,60.9z M258.3,60h1.3c0-0.2-0.1-0.4-0.2-0.5
		s-0.2-0.1-0.4-0.1c-0.2,0-0.3,0.1-0.5,0.2S258.3,59.7,258.3,60z"/>
	<path class="st6" d="M263.9,59.7v2.2H263V60c0-0.2,0-0.3-0.1-0.4c-0.1-0.2-0.2-0.2-0.5-0.2c-0.2,0-0.3,0.1-0.5,0.2
		c-0.1,0.1-0.2,0.3-0.2,0.5v1.8H261v-3.2h0.8v0.5c0.1-0.2,0.3-0.3,0.4-0.4s0.3-0.1,0.5-0.1c0.3,0,0.6,0.1,0.8,0.3
		C263.8,59.1,263.9,59.3,263.9,59.7z"/>
	<path class="st6" d="M265.6,57.8v0.9h0.5v0.6h-0.5V61c0,0.1,0,0.2,0.1,0.2c0,0,0.1,0.1,0.3,0.1h0.2v0.6h-0.4h-0.1
		c-0.3,0-0.6-0.1-0.7-0.2c-0.1-0.1-0.2-0.3-0.2-0.5v-1.9h-0.4v-0.6h0.4v-0.9C264.8,57.8,265.6,57.8,265.6,57.8z"/>
</g>
<g class="st5">
	<path class="st6" d="M105.5,135.7v-4.3h2.2c0.5,0,0.9,0.2,1.1,0.5c0.2,0.2,0.2,0.5,0.2,0.7s-0.1,0.5-0.2,0.6
		c-0.1,0.2-0.3,0.3-0.5,0.4c0.2,0.1,0.3,0.2,0.4,0.3c0.1,0.2,0.1,0.4,0.1,0.8c0,0.3,0,0.6,0,0.7c0,0.1,0.1,0.2,0.2,0.2v0.1h-1
		c0-0.1-0.1-0.2-0.1-0.4c0-0.1,0-0.3,0-0.5c0-0.3,0-0.5-0.1-0.6s-0.3-0.2-0.6-0.2h-0.9v1.7H105.5z M106.4,133.3h1.1
		c0.2,0,0.4,0,0.5-0.1s0.2-0.2,0.2-0.5c0-0.1,0-0.3-0.1-0.4c-0.1-0.1-0.3-0.2-0.5-0.2h-1.1L106.4,133.3L106.4,133.3z"/>
	<path class="st6" d="M111.6,134.7h0.9c-0.1,0.4-0.3,0.6-0.6,0.8c-0.2,0.1-0.5,0.2-0.8,0.2c-0.5,0-0.9-0.1-1.1-0.4
		c-0.3-0.3-0.5-0.7-0.5-1.4c0-0.4,0.1-0.7,0.2-0.9c0.3-0.4,0.7-0.7,1.3-0.7c0.4,0,0.7,0.1,1,0.3c0.3,0.3,0.5,0.8,0.5,1.4v0.1h-2.2
		c0,0.3,0.1,0.5,0.2,0.6s0.3,0.2,0.5,0.2c0.1,0,0.2,0,0.3-0.1C111.5,134.9,111.6,134.8,111.6,134.7z M110.4,133.8h1.3
		c0-0.2-0.1-0.4-0.2-0.5s-0.2-0.1-0.4-0.1c-0.2,0-0.3,0.1-0.5,0.2S110.4,133.5,110.4,133.8z"/>
	<path class="st6" d="M115.2,132.5h0.8v4.4h-0.8v-1.6c-0.2,0.3-0.5,0.5-0.9,0.5c-0.5,0-0.8-0.2-1-0.6c-0.2-0.3-0.3-0.7-0.3-1.1
		c0-0.5,0.1-0.9,0.3-1.2c0.2-0.4,0.6-0.5,1.1-0.5c0.2,0,0.4,0.1,0.6,0.2c0.1,0.1,0.2,0.2,0.3,0.4L115.2,132.5z M113.8,134.1
		c0,0.3,0.1,0.5,0.2,0.7s0.3,0.2,0.6,0.2c0.2,0,0.4-0.1,0.5-0.2s0.2-0.4,0.2-0.7c0-0.4-0.1-0.7-0.3-0.8c-0.1-0.1-0.3-0.2-0.4-0.2
		c-0.2,0-0.4,0.1-0.5,0.2C113.8,133.5,113.8,133.8,113.8,134.1z"/>
	<path class="st6" d="M119.6,132.5v3.2h-0.8v-0.5c-0.2,0.4-0.5,0.5-1,0.5c-0.3,0-0.6-0.1-0.8-0.3c-0.2-0.2-0.3-0.5-0.3-0.9v-2.1h0.8
		v2c0,0.2,0.1,0.4,0.2,0.5s0.2,0.1,0.4,0.1c0.2,0,0.3,0,0.4-0.1s0.2-0.3,0.2-0.6v-1.8L119.6,132.5L119.6,132.5z"/>
	<path class="st6" d="M122.3,134.7h0.9c-0.1,0.4-0.3,0.6-0.6,0.8c-0.2,0.1-0.5,0.2-0.8,0.2c-0.5,0-0.9-0.1-1.1-0.4
		c-0.3-0.3-0.5-0.7-0.5-1.4c0-0.4,0.1-0.7,0.2-0.9c0.3-0.4,0.7-0.7,1.3-0.7c0.4,0,0.7,0.1,1,0.3c0.3,0.3,0.5,0.8,0.5,1.4v0.1H121
		c0,0.3,0.1,0.5,0.2,0.6s0.3,0.2,0.5,0.2c0.1,0,0.2,0,0.3-0.1C122.2,134.9,122.3,134.8,122.3,134.7z M121,133.8h1.3
		c0-0.2-0.1-0.4-0.2-0.5s-0.2-0.1-0.4-0.1c-0.2,0-0.3,0.1-0.5,0.2S121.1,133.5,121,133.8z"/>
	<path class="st6" d="M126.4,133.4h-0.8c0-0.1-0.1-0.2-0.1-0.3c-0.1-0.1-0.2-0.1-0.4-0.1c-0.2,0-0.3,0-0.4,0.1
		c-0.1,0-0.1,0.1-0.1,0.2c0,0.1,0.2,0.2,0.5,0.3c0.5,0.1,0.8,0.2,1,0.3c0.3,0.2,0.5,0.4,0.5,0.8c0,0.4-0.2,0.7-0.5,0.9
		c-0.2,0.1-0.5,0.2-0.9,0.2s-0.8-0.1-1-0.2c-0.3-0.2-0.5-0.5-0.5-0.9h0.9c0,0.1,0.1,0.3,0.2,0.3c0.1,0.1,0.3,0.1,0.5,0.1
		s0.3,0,0.4-0.1s0.1-0.1,0.1-0.2c0-0.1-0.2-0.2-0.5-0.3c-0.5-0.1-0.8-0.2-1-0.3c-0.3-0.2-0.5-0.4-0.5-0.8c0-0.3,0.1-0.5,0.3-0.7
		c0.2-0.2,0.6-0.4,1-0.4s0.7,0.1,1,0.2C126.2,132.7,126.4,133,126.4,133.4z"/>
	<path class="st6" d="M128,131.6v0.9h0.5v0.6H128v1.7c0,0.1,0,0.2,0.1,0.2c0,0,0.1,0.1,0.3,0.1h0.2v0.6h-0.4h-0.1
		c-0.3,0-0.6-0.1-0.7-0.2c-0.1-0.1-0.2-0.3-0.2-0.5v-1.9h-0.4v-0.6h0.4v-0.9L128,131.6L128,131.6z"/>
	<path class="st6" d="M131.7,133.1v2.6h-0.8v-2.6h-0.5v-0.6h0.5v-0.3c0-0.3,0.1-0.5,0.2-0.7c0.2-0.1,0.4-0.2,0.7-0.2h0.4v0.7H132
		c-0.1,0-0.2,0-0.2,0.1c0,0,0,0.1,0,0.3v0.1h0.5v0.6L131.7,133.1L131.7,133.1z"/>
	<path class="st6" d="M135.8,134.1c0,0.5-0.2,1-0.5,1.3s-0.7,0.4-1.1,0.4s-0.8-0.1-1.1-0.4c-0.3-0.3-0.5-0.7-0.5-1.3
		c0-0.5,0.2-1,0.5-1.3s0.7-0.4,1.1-0.4s0.8,0.1,1.1,0.4C135.7,133.1,135.8,133.5,135.8,134.1z M135,134.1c0-0.3,0-0.5-0.1-0.6
		c-0.1-0.2-0.3-0.3-0.6-0.3s-0.5,0.1-0.6,0.3s-0.1,0.4-0.1,0.6c0,0.3,0,0.5,0.1,0.6c0.1,0.2,0.3,0.3,0.6,0.3s0.5-0.1,0.6-0.3
		C134.9,134.5,135,134.3,135,134.1z"/>
	<path class="st6" d="M136.4,135.7v-3.2h0.8v0.6c0.1-0.2,0.2-0.4,0.3-0.4c0.1-0.1,0.3-0.2,0.6-0.2h0.2v0.9h-0.1h-0.1
		c-0.3,0-0.5,0.1-0.6,0.2c-0.1,0.1-0.1,0.3-0.1,0.5v1.7h-1V135.7z"/>
	<path class="st6" d="M143.3,132.5v3.2h-0.8v-0.5c-0.2,0.4-0.5,0.5-1,0.5c-0.3,0-0.6-0.1-0.8-0.3s-0.3-0.5-0.3-0.9v-2.1h0.8v2
		c0,0.2,0.1,0.4,0.2,0.5c0.1,0.1,0.2,0.1,0.4,0.1s0.3,0,0.4-0.1c0.1-0.1,0.2-0.3,0.2-0.6v-1.8L143.3,132.5L143.3,132.5z"/>
	<path class="st6" d="M147,133.5v2.2h-0.8v-1.9c0-0.2,0-0.3-0.1-0.4c-0.1-0.2-0.2-0.2-0.5-0.2c-0.2,0-0.3,0.1-0.5,0.2
		c-0.1,0.1-0.2,0.3-0.2,0.5v1.8h-0.8v-3.2h0.8v0.5c0.1-0.2,0.3-0.3,0.4-0.4c0.2-0.1,0.3-0.1,0.5-0.1c0.3,0,0.6,0.1,0.8,0.3
		C146.9,132.9,147,133.1,147,133.5z"/>
	<path class="st6" d="M148.6,131.4v4.3h-0.8v-4.3H148.6z"/>
	<path class="st6" d="M152.5,134.1c0,0.5-0.2,1-0.5,1.3s-0.7,0.4-1.1,0.4s-0.8-0.1-1.1-0.4c-0.3-0.3-0.5-0.7-0.5-1.3
		c0-0.5,0.2-1,0.5-1.3s0.7-0.4,1.1-0.4s0.8,0.1,1.1,0.4C152.3,133.1,152.5,133.5,152.5,134.1z M151.6,134.1c0-0.3,0-0.5-0.1-0.6
		c-0.1-0.2-0.3-0.3-0.6-0.3s-0.5,0.1-0.6,0.3s-0.1,0.4-0.1,0.6c0,0.3,0,0.5,0.1,0.6c0.1,0.2,0.3,0.3,0.6,0.3s0.5-0.1,0.6-0.3
		C151.6,134.5,151.6,134.3,151.6,134.1z"/>
	<path class="st6" d="M155,134.5h0.9c0,0.3-0.1,0.5-0.3,0.7c-0.3,0.3-0.7,0.5-1.2,0.5s-0.9-0.2-1.2-0.5c-0.2-0.3-0.3-0.6-0.3-1
		c0-0.5,0.1-1,0.4-1.3c0.3-0.3,0.7-0.5,1.2-0.5c0.3,0,0.6,0.1,0.9,0.2c0.3,0.2,0.5,0.5,0.6,1h-1c0-0.2-0.1-0.3-0.2-0.4
		c-0.1-0.1-0.2-0.1-0.3-0.1c-0.2,0-0.4,0.1-0.5,0.3s-0.1,0.4-0.1,0.6c0,0.4,0.1,0.6,0.2,0.8s0.3,0.2,0.5,0.2s0.3-0.1,0.4-0.2
		C154.9,134.7,155,134.6,155,134.5z"/>
	<path class="st6" d="M157.3,134.7v1h-0.8v-4.3h0.8v2.3l1.1-1.2h1l-1.1,1.2l1.2,2h-1l-0.8-1.4L157.3,134.7z"/>
	<path class="st6" d="M160.7,131.3v0.8h-0.8v-0.8H160.7z M159.9,132.5h0.8v3.2h-0.8V132.5z"/>
	<path class="st6" d="M164.4,133.5v2.2h-0.8v-1.9c0-0.2,0-0.3-0.1-0.4c-0.1-0.2-0.2-0.2-0.5-0.2c-0.2,0-0.3,0.1-0.5,0.2
		c-0.1,0.1-0.2,0.3-0.2,0.5v1.8h-0.8v-3.2h0.8v0.5c0.1-0.2,0.3-0.3,0.4-0.4c0.2-0.1,0.3-0.1,0.5-0.1c0.3,0,0.6,0.1,0.8,0.3
		C164.3,132.9,164.4,133.1,164.4,133.5z"/>
	<path class="st6" d="M167.3,132.5h0.8v3c0,0.4-0.1,0.7-0.2,0.9c-0.2,0.4-0.7,0.5-1.4,0.5c-0.4,0-0.7-0.1-0.9-0.2
		c-0.3-0.2-0.5-0.4-0.5-0.7h0.9c0,0.1,0.1,0.2,0.1,0.2c0.1,0.1,0.2,0.1,0.5,0.1c0.4,0,0.7-0.2,0.7-0.7v-0.4l0,0
		c-0.1,0.1-0.2,0.3-0.3,0.3c-0.1,0.1-0.3,0.1-0.6,0.1c-0.4,0-0.7-0.1-1-0.4c-0.3-0.3-0.4-0.7-0.4-1.2s0.1-0.9,0.4-1.2
		c0.2-0.3,0.5-0.4,0.9-0.4c0.3,0,0.5,0.1,0.7,0.2c0.1,0.1,0.2,0.2,0.3,0.4V132.5z M165.9,134.1c0,0.2,0,0.4,0.1,0.6
		c0.1,0.2,0.3,0.3,0.5,0.3c0.3,0,0.4-0.1,0.6-0.3c0.1-0.2,0.1-0.4,0.1-0.6c0-0.3-0.1-0.5-0.2-0.7c-0.1-0.2-0.3-0.3-0.5-0.3
		s-0.3,0.1-0.4,0.2C166,133.5,165.9,133.7,165.9,134.1z"/>
</g>
<g class="st5">
	<path class="st4" d="M108.2,184.9h1.2c0,0.2,0.1,0.4,0.2,0.6c0.2,0.2,0.5,0.3,1,0.3c0.3,0,0.6,0,0.8-0.1c0.3-0.1,0.4-0.3,0.4-0.6
		c0-0.2-0.1-0.4-0.3-0.5c-0.1-0.1-0.4-0.1-0.8-0.2l-0.6-0.1c-0.6-0.1-1-0.3-1.3-0.4c-0.4-0.3-0.6-0.7-0.6-1.2c0-0.4,0.1-0.8,0.4-1.1
		c0.4-0.4,1-0.6,1.8-0.6s1.4,0.2,1.8,0.7c0.3,0.3,0.5,0.7,0.5,1.2h-1.1c0-0.2-0.1-0.4-0.2-0.5c-0.2-0.2-0.5-0.3-1-0.3
		c-0.3,0-0.5,0-0.7,0.1s-0.3,0.3-0.3,0.5s0.1,0.3,0.2,0.4c0.1,0.1,0.2,0.1,0.4,0.2l1.4,0.3c0.5,0.1,0.8,0.3,1,0.5
		c0.3,0.3,0.5,0.6,0.5,1.1c0,0.6-0.2,1-0.6,1.4s-1,0.5-1.7,0.5c-0.9,0-1.6-0.2-2-0.7C108.3,185.8,108.2,185.4,108.2,184.9z"/>
	<path class="st4" d="M119.8,183.7v2.9h-1.1V184c0-0.3-0.1-0.5-0.2-0.6s-0.3-0.2-0.4-0.2c-0.3,0-0.5,0.1-0.6,0.2
		c-0.1,0.2-0.2,0.4-0.2,0.6v2.6h-1.1V184c0-0.3,0-0.5-0.1-0.6c-0.1-0.2-0.3-0.3-0.6-0.3c-0.2,0-0.4,0.1-0.5,0.2s-0.2,0.4-0.2,0.6
		v2.6h-1.1v-4.3h1.1v0.6c0.1-0.2,0.3-0.4,0.4-0.5c0.2-0.2,0.5-0.3,0.8-0.3s0.5,0.1,0.7,0.2c0.2,0.1,0.3,0.3,0.5,0.5
		c0.1-0.2,0.3-0.3,0.4-0.4c0.2-0.2,0.5-0.3,0.8-0.3c0.4,0,0.8,0.1,1.1,0.4C119.7,182.9,119.8,183.3,119.8,183.7z"/>
	<path class="st4" d="M124.3,183.5v2.3c0,0.2,0,0.4,0.1,0.5s0.1,0.1,0.2,0.2v0.2h-1.2c-0.1-0.2-0.1-0.3-0.1-0.5
		c-0.2,0.2-0.3,0.3-0.5,0.4c-0.2,0.1-0.5,0.2-0.9,0.2s-0.7-0.1-0.9-0.3c-0.3-0.2-0.4-0.5-0.4-1c0-0.4,0.1-0.7,0.3-0.9
		c0.2-0.2,0.5-0.4,0.9-0.4l1-0.2c0.2,0,0.3-0.1,0.3-0.1s0.1-0.1,0.1-0.2c0-0.2-0.1-0.3-0.3-0.4c-0.1,0-0.3-0.1-0.5-0.1
		s-0.4,0.1-0.5,0.2c-0.1,0.1-0.1,0.2-0.1,0.4h-1.1c0.1-0.6,0.3-1,0.7-1.2c0.3-0.2,0.7-0.3,1.2-0.3c0.4,0,0.8,0.1,1.1,0.2
		C124.1,182.7,124.3,183.1,124.3,183.5z M123.2,185.1v-0.5c-0.1,0-0.1,0.1-0.3,0.1c-0.1,0-0.3,0.1-0.5,0.1s-0.4,0.1-0.5,0.2
		c-0.1,0.1-0.2,0.3-0.2,0.5s0.1,0.3,0.2,0.4c0.1,0.1,0.2,0.1,0.3,0.1c0.3,0,0.5-0.1,0.7-0.2C123.1,185.6,123.2,185.4,123.2,185.1z"
		/>
	<path class="st4" d="M125.3,186.7v-4.3h1.1v0.7c0.2-0.3,0.3-0.5,0.4-0.6c0.2-0.2,0.5-0.3,0.8-0.3h0.2v1.1h-0.1c0,0-0.1,0-0.2,0
		c-0.4,0-0.7,0.1-0.8,0.3c-0.1,0.2-0.2,0.4-0.2,0.7v2.2h-1.2V186.7z"/>
	<path class="st4" d="M129.7,181.3v1.2h0.7v0.8h-0.7v2.3c0,0.1,0,0.2,0.1,0.3c0.1,0,0.2,0.1,0.4,0.1h0.2v0.8h-0.5h-0.1
		c-0.5,0-0.8-0.1-0.9-0.2c-0.1-0.1-0.2-0.4-0.2-0.7v-2.6H128v-0.8h0.6v-1.2L129.7,181.3L129.7,181.3z"/>
	<path class="st4" d="M138.2,182.8H137c-0.1-0.3-0.2-0.5-0.3-0.6c-0.2-0.2-0.5-0.4-1-0.4c-0.4,0-0.7,0.1-0.9,0.4
		c-0.3,0.4-0.5,0.9-0.5,1.6c0,0.6,0.1,1,0.3,1.4c0.3,0.4,0.6,0.6,1.1,0.6c0.3,0,0.6-0.1,0.8-0.3s0.4-0.5,0.4-0.8h1.2
		c-0.1,0.7-0.4,1.2-0.8,1.5c-0.4,0.4-1,0.6-1.7,0.6c-0.8,0-1.4-0.3-1.9-0.8s-0.7-1.3-0.7-2.3s0.3-1.7,0.8-2.3
		c0.5-0.5,1.1-0.8,1.9-0.8c0.8,0,1.4,0.2,1.9,0.7C138,181.8,138.2,182.3,138.2,182.8z"/>
	<path class="st4" d="M143.2,184.5c0,0.7-0.2,1.3-0.7,1.7c-0.4,0.4-0.9,0.5-1.5,0.5s-1.1-0.2-1.5-0.5c-0.4-0.4-0.7-1-0.7-1.7
		s0.2-1.3,0.7-1.7c0.4-0.4,0.9-0.5,1.5-0.5s1.1,0.2,1.5,0.5C142.9,183.2,143.2,183.8,143.2,184.5z M142,184.5c0-0.4-0.1-0.6-0.2-0.8
		c-0.2-0.3-0.5-0.4-0.8-0.4c-0.4,0-0.7,0.1-0.8,0.4c-0.1,0.2-0.2,0.5-0.2,0.9s0.1,0.6,0.2,0.8c0.2,0.3,0.5,0.4,0.8,0.4
		c0.4,0,0.7-0.1,0.8-0.4C142,185.2,142,184.9,142,184.5z"/>
	<path class="st4" d="M147.8,183.7v2.9h-1.1V184c0-0.2,0-0.4-0.1-0.5c-0.1-0.2-0.3-0.3-0.6-0.3s-0.5,0.1-0.6,0.3
		c-0.2,0.2-0.2,0.4-0.2,0.7v2.4H144v-4.3h1.1v0.6c0.2-0.3,0.4-0.5,0.6-0.6s0.4-0.2,0.7-0.2c0.4,0,0.8,0.1,1.1,0.4
		S147.8,183.3,147.8,183.7z"/>
	<path class="st4" d="M150.1,181.3v1.2h0.7v0.8h-0.7v2.3c0,0.1,0,0.2,0.1,0.3c0,0,0.2,0.1,0.4,0.1h0.2v0.8h-0.5h-0.1
		c-0.5,0-0.8-0.1-0.9-0.2c-0.1-0.1-0.2-0.4-0.2-0.7v-2.6h-0.6v-0.8h0.6v-1.2L150.1,181.3L150.1,181.3z"/>
	<path class="st4" d="M151.5,186.7v-4.3h1.1v0.7c0.2-0.3,0.3-0.5,0.4-0.6c0.2-0.2,0.5-0.3,0.8-0.3h0.2v1.1h-0.1c0,0-0.1,0-0.2,0
		c-0.4,0-0.7,0.1-0.8,0.3s-0.2,0.4-0.2,0.7v2.2h-1.2V186.7z"/>
	<path class="st4" d="M158.1,183.5v2.3c0,0.2,0,0.4,0.1,0.5s0.1,0.1,0.2,0.2v0.2h-1.2c-0.1-0.2-0.1-0.3-0.1-0.5
		c-0.2,0.2-0.3,0.3-0.5,0.4c-0.2,0.1-0.5,0.2-0.9,0.2s-0.7-0.1-0.9-0.3c-0.3-0.2-0.4-0.5-0.4-1c0-0.4,0.1-0.7,0.3-0.9
		s0.5-0.4,0.9-0.4l1-0.2c0.2,0,0.3-0.1,0.3-0.1c0.1-0.1,0.1-0.1,0.1-0.2c0-0.2-0.1-0.3-0.3-0.4c-0.1,0-0.3-0.1-0.5-0.1
		s-0.4,0.1-0.5,0.2c-0.1,0.1-0.1,0.2-0.1,0.4h-1.1c0.1-0.6,0.3-1,0.7-1.2c0.3-0.2,0.7-0.3,1.2-0.3c0.4,0,0.8,0.1,1.1,0.2
		C157.8,182.7,158.1,183.1,158.1,183.5z M157,185.1v-0.5c-0.1,0-0.1,0.1-0.3,0.1s-0.3,0.1-0.5,0.1s-0.4,0.1-0.5,0.2
		c-0.1,0.1-0.2,0.3-0.2,0.5s0.1,0.3,0.2,0.4c0.1,0.1,0.2,0.1,0.3,0.1c0.3,0,0.5-0.1,0.7-0.2S157,185.4,157,185.1z"/>
	<path class="st4" d="M161.6,185.1h1.1c0,0.4-0.2,0.7-0.4,1c-0.4,0.4-0.9,0.7-1.5,0.7c-0.7,0-1.2-0.2-1.6-0.7
		c-0.3-0.4-0.4-0.8-0.4-1.4c0-0.7,0.2-1.3,0.5-1.7s0.9-0.7,1.6-0.7c0.4,0,0.8,0.1,1.2,0.3c0.4,0.3,0.7,0.7,0.7,1.3h-1.1
		c0-0.2-0.1-0.4-0.3-0.5c-0.1-0.1-0.3-0.1-0.5-0.1c-0.3,0-0.6,0.1-0.7,0.4c-0.1,0.2-0.2,0.5-0.2,0.8c0,0.5,0.1,0.9,0.2,1.1
		c0.1,0.2,0.4,0.3,0.7,0.3c0.2,0,0.4-0.1,0.6-0.3C161.5,185.4,161.6,185.3,161.6,185.1z"/>
	<path class="st4" d="M164.8,181.3v1.2h0.7v0.8h-0.7v2.3c0,0.1,0,0.2,0.1,0.3c0,0,0.2,0.1,0.4,0.1h0.2v0.8H165h-0.1
		c-0.5,0-0.8-0.1-0.9-0.2c-0.1-0.1-0.2-0.4-0.2-0.7v-2.6h-0.6v-0.8h0.6v-1.2L164.8,181.3L164.8,181.3z"/>
</g>
</svg>
