<?xml version="1.0" encoding="utf-8"?>
<!-- Generator: Adobe Illustrator 16.0.0, SVG Export Plug-In . SVG Version: 6.00 Build 0)  -->
<!DOCTYPE svg PUBLIC "-//W3C//DTD SVG 1.1//EN" "http://www.w3.org/Graphics/SVG/1.1/DTD/svg11.dtd">
<svg version="1.1" id="图层_1" xmlns="http://www.w3.org/2000/svg" xmlns:xlink="http://www.w3.org/1999/xlink" x="0px" y="0px"
	 width="112.519px" height="156.469px" viewBox="0 0 112.519 156.469" enable-background="new 0 0 112.519 156.469"
	 xml:space="preserve">
<g>
	<path fill="#1A1A1A" d="M14.148,146.83h3.906v4.336H17v-0.43h-4.961v0.43h-1.016v-4.297c-0.209,0.078-0.417,0.183-0.625,0.313
		c-0.183-0.286-0.378-0.56-0.586-0.82c1.094-0.391,1.771-0.859,2.031-1.406H9.891v-0.781h2.148c0.052-0.26,0.078-0.547,0.078-0.859
		H11.18c-0.183,0.261-0.43,0.534-0.742,0.82c-0.053-0.052-0.117-0.117-0.195-0.195c-0.053-0.078-0.195-0.221-0.43-0.43
		c0.572-0.494,0.977-1.08,1.211-1.758l0.938,0.078c-0.078,0.261-0.183,0.495-0.313,0.703h2.813v0.781h-1.367
		c0,0.104-0.014,0.248-0.039,0.43c0,0.209-0.014,0.352-0.039,0.43h1.719v0.781h-1.836c0.286,0.183,0.729,0.456,1.328,0.82
		c0.208,0.131,0.364,0.222,0.469,0.273L14.148,146.83z M14.148,146.83c-0.313-0.234-0.742-0.547-1.289-0.938
		c-0.156-0.13-0.287-0.221-0.391-0.273c-0.234,0.417-0.703,0.82-1.406,1.211H14.148z M12.039,147.65v0.82H17v-0.82H12.039z
		 M12.039,149.174v0.859H17v-0.859H12.039z M15.125,146.166v-3.711h3.633v3.711H15.125z M16.063,143.314v2.031h1.758v-2.031H16.063z
		"/>
	<path fill="#1A1A1A" d="M24.227,145.229c-0.104-0.182-0.222-0.352-0.352-0.508c-0.756,0.026-1.745,0.065-2.969,0.117
		c-0.104,0-0.248,0.014-0.43,0.039c-0.183,0.026-0.326,0.053-0.43,0.078l-0.352-0.859c0.26-0.13,0.481-0.313,0.664-0.547
		c0.521-0.521,0.989-1.133,1.406-1.836l1.055,0.352c-0.078,0.078-0.195,0.209-0.352,0.391c-0.6,0.703-1.068,1.225-1.406,1.563
		c0.234-0.025,0.599-0.039,1.094-0.039c0.494-0.025,0.859-0.039,1.094-0.039l-0.664-0.859l0.703-0.43
		c0.494,0.521,1.067,1.198,1.719,2.031L24.227,145.229z M20.242,151.088v-5.586h4.023v4.492c0.025,0.65-0.3,0.989-0.977,1.016
		c-0.078,0-0.234,0-0.469,0c-0.287,0.025-0.495,0.039-0.625,0.039c-0.026-0.131-0.053-0.313-0.078-0.547
		c-0.053-0.156-0.078-0.273-0.078-0.352c0.156,0.025,0.442,0.039,0.859,0.039c0.313,0,0.469-0.104,0.469-0.313v-0.586h-2.227v1.797
		H20.242z M21.141,146.283v0.781h2.227v-0.781H21.141z M21.141,147.768v0.781h2.227v-0.781H21.141z M26.375,146.166
		c-0.834,0-1.25-0.416-1.25-1.25v-3.047h0.977v1.445c0.703-0.26,1.484-0.625,2.344-1.094l0.547,0.742
		c-0.938,0.469-1.901,0.898-2.891,1.289v0.469c-0.026,0.391,0.169,0.573,0.586,0.547h0.781c0.391,0.026,0.611-0.13,0.664-0.469
		c0.052-0.338,0.091-0.664,0.117-0.977c0.052,0.026,0.143,0.053,0.273,0.078c0.156,0.053,0.364,0.131,0.625,0.234
		c-0.026,0.339-0.092,0.703-0.195,1.094c-0.104,0.625-0.534,0.938-1.289,0.938H26.375z M26.375,150.971
		c-0.834,0.025-1.25-0.378-1.25-1.211v-3.164h0.977v1.289c0.938-0.364,1.744-0.742,2.422-1.133l0.547,0.781
		c-0.703,0.365-1.693,0.808-2.969,1.328v0.703c0,0.365,0.195,0.533,0.586,0.508h0.82c0.391,0.025,0.599-0.104,0.625-0.391
		c0.052-0.286,0.091-0.638,0.117-1.055c0.104,0.026,0.247,0.078,0.43,0.156c0.208,0.078,0.364,0.131,0.469,0.156
		c-0.026,0.287-0.078,0.639-0.156,1.055v0.039c-0.156,0.625-0.586,0.938-1.289,0.938H26.375z"/>
	<path fill="#1A1A1A" d="M38.641,146.049c-0.651-0.313-1.159-0.586-1.523-0.82v0.703h-5.273v-0.625
		c-0.131,0.078-0.326,0.195-0.586,0.352c-0.417,0.234-0.729,0.417-0.938,0.547c-0.053-0.104-0.156-0.273-0.313-0.508
		c-0.131-0.208-0.222-0.364-0.273-0.469c2.057-0.963,3.528-2.122,4.414-3.477l1.25,0.078l-0.273,0.391
		c0.989,1.225,2.356,2.175,4.102,2.852C39.044,145.385,38.849,145.711,38.641,146.049z M30.984,151.166v-4.18h6.992v4.18h-1.055
		v-0.547h-4.883v0.547H30.984z M32.039,147.924v1.836h4.883v-1.836H32.039z M34.539,142.963c-0.625,0.756-1.381,1.433-2.266,2.031
		h4.492C35.932,144.447,35.189,143.771,34.539,142.963z"/>
	<path fill="#1A1A1A" d="M40.32,148.51l-0.313-0.898c0.234-0.156,0.469-0.403,0.703-0.742c0.286-0.338,0.56-0.703,0.82-1.094
		c-0.703,0-1.211,0.039-1.523,0.117l-0.273-0.898c0.208-0.13,0.403-0.364,0.586-0.703c0.547-0.911,0.989-1.744,1.328-2.5
		l1.016,0.313c-0.651,1.198-1.225,2.136-1.719,2.813c0.494,0,0.872-0.013,1.133-0.039c0.234-0.391,0.469-0.781,0.703-1.172
		l0.938,0.43c-0.729,1.198-1.484,2.305-2.266,3.32c0.182-0.025,0.508-0.064,0.977-0.117c0.442-0.052,0.755-0.078,0.938-0.078
		c0,0.053-0.014,0.131-0.039,0.234c-0.026,0.287-0.039,0.508-0.039,0.664c-0.781,0.053-1.523,0.131-2.227,0.234
		C40.802,148.419,40.555,148.458,40.32,148.51z M39.891,150.58l-0.156-0.938c1.614-0.156,2.903-0.313,3.867-0.469
		c0,0.104-0.014,0.273-0.039,0.508c0,0.209,0,0.339,0,0.391c-0.313,0.025-0.886,0.104-1.719,0.234
		C40.958,150.437,40.307,150.527,39.891,150.58z M44.109,145.854c-0.287-0.286-0.547-0.521-0.781-0.703
		c0.807-1.067,1.393-2.188,1.758-3.359l1.094,0.234c-0.026,0.053-0.053,0.117-0.078,0.195c-0.131,0.313-0.287,0.664-0.469,1.055
		h3.242c-0.026,1.719-0.092,3.698-0.195,5.938c0,1.146-0.612,1.705-1.836,1.68c-0.417,0.025-0.977,0.039-1.68,0.039
		c-0.026-0.156-0.065-0.404-0.117-0.742c-0.053-0.131-0.078-0.221-0.078-0.273c0.13,0,0.377,0,0.742,0
		c0.416,0.026,0.716,0.039,0.898,0.039c0.677,0.026,1.016-0.299,1.016-0.977c0.104-1.536,0.156-3.099,0.156-4.688h-2.656
		C44.813,144.838,44.474,145.359,44.109,145.854z M45.672,148.275c-0.443-0.703-0.925-1.393-1.445-2.07l0.781-0.508
		c0.677,0.834,1.185,1.498,1.523,1.992L45.672,148.275z"/>
	<path fill="#1A1A1A" d="M57.039,151.439h-1.25c-1.303-1.406-1.967-3.047-1.992-4.922c0.078-1.953,0.742-3.633,1.992-5.039H57
		c-1.25,1.537-1.901,3.217-1.953,5.039C55.047,148.367,55.711,150.008,57.039,151.439z"/>
	<path fill="#1A1A1A" d="M60.594,147.768v-4.531h1.992c-0.156-0.208-0.417-0.508-0.781-0.898c-0.026-0.052-0.053-0.091-0.078-0.117
		l0.898-0.469c0.182,0.183,0.481,0.508,0.898,0.977c0.078,0.104,0.13,0.17,0.156,0.195l-0.664,0.313h2.227
		c0.13-0.182,0.325-0.455,0.586-0.82c0.208-0.286,0.352-0.494,0.43-0.625l1.055,0.313c-0.131,0.183-0.352,0.482-0.664,0.898
		c-0.078,0.104-0.144,0.183-0.195,0.234h1.953v4.531h-3.359v0.898h4.141v0.938h-4.141v1.563h-1.094v-1.563h-4.18v-0.938h4.18v-0.898
		H60.594z M61.648,144.135v0.977h2.305v-0.977H61.648z M61.648,145.893v1.016h2.305v-1.016H61.648z M67.352,144.135h-2.305v0.977
		h2.305V144.135z M65.047,145.893v1.016h2.305v-1.016H65.047z"/>
	<path fill="#1A1A1A" d="M69.93,144.291v-1.016h4.258c-0.156-0.416-0.326-0.859-0.508-1.328l1.211-0.117
		c0.156,0.365,0.338,0.847,0.547,1.445h3.633v1.016h-5.625c0,0.469-0.026,0.964-0.078,1.484h4.57
		c-0.026,0.625-0.078,1.537-0.156,2.734c-0.026,0.313-0.039,0.534-0.039,0.664c-0.053,1.172-0.703,1.744-1.953,1.719
		c-0.234,0-0.534,0.013-0.898,0.039c-0.339,0-0.612,0-0.82,0c-0.026-0.183-0.092-0.469-0.195-0.859
		c-0.026-0.052-0.039-0.104-0.039-0.156c0.182,0,0.442,0,0.781,0c0.338,0.026,0.611,0.039,0.82,0.039
		c0.781,0.053,1.185-0.313,1.211-1.094c0.078-0.625,0.117-1.328,0.117-2.109h-3.477c-0.104,1.823-1.003,3.307-2.695,4.453
		l-0.859-0.82c1.666-1.016,2.5-2.447,2.5-4.297c0.052-0.729,0.078-1.328,0.078-1.797H69.93z"/>
	<path fill="#1A1A1A" d="M80.281,145.463c-0.078-0.156-0.234-0.391-0.469-0.703c-0.053-0.078-0.092-0.13-0.117-0.156
		c0.599-0.859,1.041-1.797,1.328-2.813l1.055,0.195c-0.156,0.391-0.313,0.756-0.469,1.094h1.445v0.859h-1.836
		c-0.156,0.313-0.339,0.625-0.547,0.938h2.188v0.859h-0.938v1.172h1.094v0.859h-1.094v1.719l1.094-0.703
		c0.025,0.104,0.052,0.261,0.078,0.469c0.025,0.234,0.039,0.404,0.039,0.508c-0.495,0.234-0.977,0.508-1.445,0.82
		c-0.156,0.078-0.313,0.195-0.469,0.352l-0.586-0.742c0.234-0.182,0.338-0.43,0.313-0.742v-1.68h-1.133v-0.859h1.133v-1.172h-0.586
		v-0.352L80.281,145.463z M88.641,151.127c-0.495-0.365-1.211-0.859-2.148-1.484c-0.156-0.13-0.287-0.221-0.391-0.273
		c-0.417,0.651-1.367,1.263-2.852,1.836c-0.053-0.078-0.131-0.209-0.234-0.391c-0.156-0.261-0.273-0.43-0.352-0.508
		c1.875-0.521,2.838-1.328,2.891-2.422c0.078-0.416,0.117-1.055,0.117-1.914h0.977c0,0.964-0.039,1.654-0.117,2.07
		c0,0.078-0.014,0.195-0.039,0.352c0.025-0.104,0.013-0.078-0.039,0.078c0.572,0.339,1.314,0.808,2.227,1.406
		c0.234,0.156,0.416,0.273,0.547,0.352L88.641,151.127z M84.344,144.174c-0.104-0.182-0.273-0.43-0.508-0.742
		c-0.234-0.338-0.417-0.586-0.547-0.742l0.742-0.469c0.182,0.234,0.442,0.561,0.781,0.977c0.13,0.183,0.234,0.326,0.313,0.43
		L84.344,144.174z M83.484,148.822v-4.375h2.148v-2.617h0.977v2.617h2.188v4.297h-0.938v-3.359h-3.438v3.438H83.484z
		 M87.938,144.174l-0.781-0.508c0.313-0.391,0.664-0.885,1.055-1.484l0.82,0.469c-0.026,0.053-0.078,0.131-0.156,0.234
		C88.51,143.432,88.197,143.861,87.938,144.174z"/>
	<path fill="#1A1A1A" d="M90.164,146.049v-0.938h8.672v0.938h-3.633v1.367h3.242v0.898h-3.242v1.641
		c1.146,0.026,2.486,0.026,4.023,0c-0.104,0.286-0.209,0.611-0.313,0.977c-0.469,0-1.186-0.014-2.148-0.039
		c-1.016,0-1.719-0.014-2.109-0.039c-1.328-0.053-2.292-0.534-2.891-1.445c-0.339,0.6-0.781,1.185-1.328,1.758
		c-0.078-0.131-0.234-0.313-0.469-0.547c-0.104-0.131-0.183-0.222-0.234-0.273c0.989-0.833,1.563-2.07,1.719-3.711l1.016,0.156
		c-0.078,0.521-0.183,1.016-0.313,1.484c0.494,0.938,1.158,1.484,1.992,1.641v-3.867H90.164z M97.781,144.682v-0.898h-6.563v0.898
		h-1.016v-1.836h3.828c-0.026-0.156-0.092-0.403-0.195-0.742c-0.026-0.104-0.053-0.182-0.078-0.234l1.25-0.117
		c0.078,0.313,0.156,0.678,0.234,1.094h3.594v1.836H97.781z"/>
	<path fill="#1A1A1A" d="M103.211,151.439H102c1.302-1.381,1.953-3.021,1.953-4.922c-0.053-1.822-0.703-3.502-1.953-5.039h1.25
		c1.224,1.381,1.875,3.061,1.953,5.039C105.177,148.393,104.513,150.033,103.211,151.439z"/>
</g>
<rect x="50.986" y="22.266" fill="#E0CC1E" width="3" height="35.25"/>
<rect x="50.986" y="56.302" fill="#E0CC1E" width="3" height="71.315"/>
<polygon fill="#E0CC1E" points="56.913,125.101 52.487,132.768 48.06,125.101 "/>
<path fill="#1A1A1A" d="M93.02,9.632c0,5.32-4.313,9.633-9.633,9.633H22.133c-5.321,0-9.633-4.313-9.633-9.633
	C12.5,4.313,16.813,0,22.133,0h61.253C88.706,0,93.02,4.313,93.02,9.632"/>
<rect x="20.019" y="59.868" fill="#FFFFFF" width="66" height="10.854"/>
<path fill="none" stroke="#1A1A1A" stroke-miterlimit="10" d="M112.02,146.336c0,5.319-4.313,9.633-9.633,9.633H10.133
	c-5.321,0-9.633-4.313-9.633-9.633c0-5.32,4.312-9.633,9.633-9.633h92.253C107.706,136.703,112.02,141.016,112.02,146.336z"/>
<rect fill="none" width="112.519" height="156.469"/>
<g>
	<path fill="#9B9B9B" d="M24.333,64.531v-0.586c0.109-0.219,0.242-0.547,0.398-0.984l0.609,0.094
		c-0.031,0.063-0.07,0.172-0.117,0.328c-0.109,0.281-0.188,0.477-0.234,0.586h1.031c0.125-0.422,0.219-0.828,0.281-1.219
		l0.656,0.047c-0.016,0.078-0.039,0.195-0.07,0.352c-0.078,0.359-0.148,0.633-0.211,0.82h3.094v0.563h-3.234
		c-0.063,0.203-0.133,0.414-0.211,0.633h2.859v0.516c-0.313,0.625-0.711,1.125-1.195,1.5c0.469,0.234,1.055,0.406,1.758,0.516
		c-0.125,0.234-0.234,0.445-0.328,0.633c-0.813-0.219-1.477-0.477-1.992-0.773c-0.594,0.297-1.289,0.57-2.086,0.82
		c-0.016-0.047-0.047-0.109-0.094-0.188c-0.047-0.109-0.117-0.242-0.211-0.398c0.734-0.156,1.352-0.359,1.852-0.609
		c-0.375-0.344-0.68-0.75-0.914-1.219c-0.422,0.797-0.969,1.5-1.641,2.109c-0.063-0.188-0.141-0.406-0.234-0.656
		c0.844-0.781,1.43-1.742,1.758-2.883H24.333z M28.435,65.703H26.49c0.203,0.422,0.516,0.805,0.938,1.148
		C27.88,66.523,28.216,66.141,28.435,65.703z M28.646,63.969c-0.281-0.297-0.57-0.563-0.867-0.797l0.375-0.375
		c0.078,0.063,0.203,0.164,0.375,0.305c0.266,0.203,0.453,0.344,0.563,0.422L28.646,63.969z"/>
	<path fill="#9B9B9B" d="M30.333,64.039v-0.516h0.938v-0.75h0.586v0.75h0.891v0.516h-0.891v0.75h1.055v0.516h-0.82v0.844h0.75v0.516
		h-0.75v0.961c0.234,0.047,0.523,0.07,0.867,0.07c1.234,0,2.18,0,2.836,0c-0.078,0.188-0.133,0.367-0.164,0.539
		c-1.219,0-2.133-0.008-2.742-0.023c-1.031,0.016-1.695-0.266-1.992-0.844c-0.078,0.328-0.203,0.664-0.375,1.008
		c-0.141-0.125-0.289-0.258-0.445-0.398c0.313-0.484,0.453-1.266,0.422-2.344l0.539,0.047c0,0.359-0.008,0.68-0.023,0.961
		c0.141,0.328,0.305,0.563,0.492,0.703v-2.039h-1.359v-0.516h1.125v-0.75H30.333z M34.013,67.203
		c-0.578,0.016-0.859-0.25-0.844-0.797v-1.781h1.641v-0.984h-1.734v-0.563h2.32v2.133h-1.617v1.055
		c-0.016,0.266,0.109,0.391,0.375,0.375h0.492c0.266,0.016,0.414-0.094,0.445-0.328c0.031-0.109,0.063-0.297,0.094-0.563
		c0-0.047,0-0.078,0-0.094c0.188,0.063,0.375,0.117,0.563,0.164c-0.031,0.25-0.07,0.484-0.117,0.703
		c-0.078,0.484-0.375,0.711-0.891,0.68H34.013z"/>
	<path fill="#9B9B9B" d="M36.849,68.281l-0.328-0.469c0.109-0.094,0.156-0.227,0.141-0.398v-2.156h-0.539v-0.586h1.148v2.555
		c0.172-0.125,0.336-0.258,0.492-0.398c0.016,0.078,0.031,0.203,0.047,0.375c0.031,0.141,0.047,0.234,0.047,0.281
		c-0.344,0.234-0.578,0.406-0.703,0.516C37.076,68.063,36.974,68.156,36.849,68.281z M37.107,64.156
		c-0.109-0.141-0.281-0.359-0.516-0.656c-0.109-0.141-0.195-0.25-0.258-0.328l0.492-0.305c0.063,0.078,0.164,0.195,0.305,0.352
		c0.234,0.281,0.398,0.477,0.492,0.586L37.107,64.156z M37.81,63.617v-0.422h1.594V62.75h0.609v0.445h1.688v0.422h-1.688v0.352
		h1.523v0.398h-1.523v0.352h1.781v0.422h-4.125v-0.422h1.734v-0.352h-1.5v-0.398h1.5v-0.352H37.81z M38.044,68.352v-2.883h3.352
		v2.109c0.031,0.484-0.211,0.727-0.727,0.727c-0.25,0-0.539,0-0.867,0c-0.016-0.063-0.047-0.172-0.094-0.328
		c-0.016-0.078-0.031-0.133-0.047-0.164c0.172,0.016,0.43,0.023,0.773,0.023c0.266,0.016,0.391-0.086,0.375-0.305v-0.117h-2.18
		v0.938H38.044z M38.63,65.891v0.375h2.18v-0.375H38.63z M38.63,66.641v0.375h2.18v-0.375H38.63z"/>
	<path fill="#9B9B9B" d="M42.216,64.391v-0.586h2.438V62.75h0.633v1.055h1.172c-0.063-0.063-0.164-0.164-0.305-0.305
		c-0.156-0.141-0.266-0.242-0.328-0.305l0.422-0.328c0.078,0.063,0.211,0.172,0.398,0.328c0.188,0.172,0.32,0.289,0.398,0.352
		l-0.375,0.258h1.031v0.586h-2.414v0.164c0.172,0.406,0.359,0.773,0.563,1.102c0.375-0.313,0.766-0.656,1.172-1.031l0.469,0.469
		c-0.125,0.094-0.344,0.258-0.656,0.492c-0.297,0.234-0.516,0.406-0.656,0.516c0.422,0.453,0.961,0.836,1.617,1.148
		c-0.125,0.203-0.242,0.391-0.352,0.563c-0.969-0.484-1.688-1.172-2.156-2.063v1.664c0.016,0.531-0.25,0.813-0.797,0.844
		c-0.188,0.016-0.469,0.023-0.844,0.023c-0.016-0.063-0.031-0.164-0.047-0.305c-0.031-0.125-0.055-0.219-0.07-0.281
		c0.219,0,0.438,0,0.656,0c0.344,0.016,0.5-0.141,0.469-0.469v-0.82c-0.047,0.031-0.125,0.078-0.234,0.141
		c-0.953,0.531-1.625,0.914-2.016,1.148l-0.281-0.633c0.859-0.406,1.664-0.836,2.414-1.289c0.016,0.063,0.039,0.164,0.07,0.305
		c0.016,0.141,0.031,0.242,0.047,0.305v-1.992H42.216z M43.576,65.984c-0.313-0.328-0.633-0.648-0.961-0.961l0.445-0.398
		c0.109,0.094,0.273,0.25,0.492,0.469s0.383,0.375,0.492,0.469L43.576,65.984z"/>
	<path fill="#9B9B9B" d="M52.482,68.539h-0.75c-0.781-0.844-1.18-1.828-1.195-2.953c0.047-1.172,0.445-2.18,1.195-3.023h0.727
		c-0.75,0.922-1.141,1.93-1.172,3.023C51.287,66.695,51.685,67.68,52.482,68.539z"/>
	<path fill="#9B9B9B" d="M54.193,64.367v-0.563h0.586v-1.031h0.586v1.031h0.516v0.563h-0.516v0.984l0.539-0.188
		c0,0.203,0.008,0.406,0.023,0.609c-0.188,0.047-0.375,0.109-0.563,0.188v1.711c0.016,0.406-0.18,0.625-0.586,0.656
		c-0.188,0-0.359,0.008-0.516,0.023c-0.016-0.109-0.039-0.258-0.07-0.445c-0.031-0.094-0.047-0.156-0.047-0.188
		c0.094,0,0.219,0,0.375,0c0.188,0.016,0.273-0.055,0.258-0.211v-1.336c-0.203,0.063-0.414,0.133-0.633,0.211l-0.047-0.633
		c0.078-0.031,0.195-0.07,0.352-0.117c0.141-0.047,0.25-0.078,0.328-0.094v-1.172H54.193z M56.256,68.164l-0.352-0.469
		c0.157-0.156,0.235-0.359,0.235-0.609v-3.867c1.125-0.047,2.234-0.125,3.328-0.234l0.164,0.539
		c-0.469,0.047-0.898,0.094-1.289,0.141c0,0.422,0.008,0.859,0.023,1.313h1.383v0.539h-1.336c0.047,0.828,0.195,1.453,0.445,1.875
		c0.078,0.141,0.156,0.211,0.234,0.211s0.133-0.063,0.164-0.188c0-0.031,0.008-0.086,0.023-0.164
		c0.031-0.25,0.047-0.453,0.047-0.609c0.188,0.078,0.359,0.141,0.516,0.188c0,0.031-0.008,0.086-0.023,0.164
		c-0.031,0.391-0.07,0.641-0.117,0.75c-0.078,0.328-0.266,0.5-0.563,0.516c-0.328,0-0.602-0.188-0.82-0.563
		c-0.297-0.5-0.469-1.227-0.516-2.18h-1.055v1.758l0.914-0.492c0,0.016,0,0.031,0,0.047c0.016,0.156,0.047,0.336,0.094,0.539
		l-0.211,0.117c0.188,0.188,0.359,0.398,0.516,0.633l-0.516,0.258c-0.047-0.063-0.109-0.156-0.188-0.281
		c-0.141-0.188-0.242-0.32-0.305-0.398c-0.141,0.047-0.273,0.117-0.398,0.211C56.514,67.984,56.381,68.07,56.256,68.164z
		 M57.779,64.977c-0.031-0.406-0.047-0.828-0.047-1.266c-0.328,0.031-0.656,0.047-0.984,0.047v1.219H57.779z"/>
	<path fill="#9B9B9B" d="M60.193,64.414v-0.563h0.633v-1.078h0.586v1.078h0.563v0.563h-0.563v1.031l0.563-0.141
		c0,0.203,0,0.406,0,0.609l-0.563,0.141v1.617c0.016,0.406-0.188,0.617-0.609,0.633c-0.063,0-0.148,0-0.258,0
		c-0.125,0.016-0.227,0.023-0.305,0.023c-0.016-0.219-0.047-0.422-0.094-0.609c0.047,0,0.117,0.008,0.211,0.023
		c0.094,0,0.156,0,0.188,0c0.188,0.016,0.281-0.063,0.281-0.234v-1.266L60.17,66.43l-0.07-0.656c0.078-0.016,0.188-0.039,0.328-0.07
		c0.172-0.047,0.305-0.086,0.398-0.117v-1.172H60.193z M63.592,68.375v-1.664h-0.773v0.305h-0.586v-3.914h3.328v3.914h-0.586v-0.305
		h-0.797v1.664H63.592z M62.818,63.641v1.008h0.773v-1.008H62.818z M62.818,65.164v0.984h0.773v-0.984H62.818z M64.975,63.641
		h-0.797v1.008h0.797V63.641z M64.178,65.164v0.984h0.797v-0.984H64.178z"/>
	<path fill="#9B9B9B" d="M67.271,67.32h3V68h-3.797v-4.875h3.68v0.727h-2.883v1.289h2.719v0.703h-2.719V67.32z"/>
	<path fill="#9B9B9B" d="M74.818,63.852h-1.617V68h-0.797v-4.148h-1.641v-0.703h4.055V63.852z"/>
	<path fill="#9B9B9B" d="M78.662,63.148h0.82V68h-0.82v-2.156h-2.367V68h-0.797v-4.852h0.797v1.992h2.367V63.148z"/>
	<path fill="#9B9B9B" d="M82.225,68.539h-0.727c0.781-0.828,1.172-1.813,1.172-2.953c-0.031-1.094-0.422-2.102-1.172-3.023h0.75
		c0.734,0.828,1.125,1.836,1.172,3.023C83.404,66.711,83.006,67.695,82.225,68.539z"/>
</g>
<rect x="20.019" y="70.045" fill="#FFFFFF" width="66" height="10.854"/>
<rect fill="none" width="112.519" height="156.469"/>
<g>
	<path fill="#9B9B9B" d="M23.271,76.448h3v0.68h-3.797v-4.875h3.68v0.727h-2.883v1.289h2.719v0.703h-2.719V76.448z"/>
	<path fill="#9B9B9B" d="M30.818,72.979h-1.617v4.149h-0.797v-4.149h-1.641v-0.703h4.055V72.979z"/>
	<path fill="#9B9B9B" d="M34.662,72.276h0.82v4.852h-0.82v-2.157h-2.367v2.157h-0.797v-4.852h0.797v1.992h2.367V72.276z"/>
	<path fill="#9B9B9B" d="M37.849,73.19v-0.516h0.703c0.047-0.141,0.109-0.359,0.188-0.656c0.016-0.063,0.031-0.109,0.047-0.141
		l0.609,0.07l-0.211,0.727h1.031v0.516h-1.195c-0.156,0.5-0.32,0.977-0.492,1.43h0.492v-1.031h0.586v1.031h0.609v0.539h-0.609v0.656
		c0.25-0.016,0.492-0.047,0.727-0.094l-0.023,0.563l-0.703,0.094v1.102h-0.586v-1.032l-1.172,0.141l-0.047-0.586
		c0.141-0.016,0.352-0.039,0.633-0.07c0.266-0.016,0.461-0.031,0.586-0.047v-0.727h-1.102v-0.563
		c0.188-0.484,0.344-0.953,0.469-1.406H37.849z M40.474,73.214v-0.516h0.797c0.016-0.109,0.047-0.273,0.094-0.492
		c0.031-0.125,0.055-0.219,0.07-0.281h0.633c-0.016,0.078-0.047,0.203-0.094,0.375c-0.031,0.172-0.063,0.305-0.094,0.398h1.453
		v0.516h-1.57l-0.164,0.656h1.875v0.539h-2.016l-0.188,0.633h1.922v0.563l-0.867,1.102l0.656,0.305l-0.352,0.516
		c-0.688-0.422-1.398-0.805-2.133-1.149l0.305-0.469c0.359,0.156,0.688,0.328,0.984,0.516l0.703-0.867h-1.828v-0.539l0.188-0.609
		h-0.563V73.87h0.703c0.047-0.203,0.094-0.422,0.141-0.656H40.474z"/>
	<path fill="#9B9B9B" d="M48.958,77.386c-0.969-0.719-1.727-1.79-2.273-3.211l-0.023-0.023c-0.406,1.297-1.211,2.383-2.414,3.258
		c-0.031-0.031-0.07-0.086-0.117-0.164c-0.063-0.078-0.172-0.219-0.328-0.422c1.266-0.829,2.078-1.985,2.438-3.469
		c-0.266-0.453-0.57-0.813-0.914-1.078l0.539-0.352c0.5,0.406,0.984,1.117,1.453,2.133c0.531,1.25,1.258,2.164,2.18,2.743
		C49.326,76.972,49.146,77.167,48.958,77.386z"/>
	<path fill="#9B9B9B" d="M52.451,74.901h2.344v2.602h-0.633v-0.258h-2.977v0.258h-0.609v-2.579c-0.125,0.047-0.25,0.109-0.375,0.188
		c-0.109-0.172-0.227-0.336-0.352-0.492c0.656-0.234,1.063-0.516,1.219-0.844h-1.172v-0.469h1.289
		c0.031-0.156,0.047-0.328,0.047-0.516h-0.563c-0.109,0.156-0.258,0.32-0.445,0.492c-0.031-0.031-0.07-0.07-0.117-0.117
		c-0.031-0.047-0.117-0.133-0.258-0.258c0.344-0.297,0.586-0.648,0.727-1.055l0.563,0.047c-0.047,0.156-0.109,0.297-0.188,0.422
		h1.688v0.469h-0.82c0,0.063-0.008,0.148-0.023,0.258c0,0.125-0.008,0.211-0.023,0.258h1.031v0.469h-1.102
		c0.172,0.109,0.438,0.273,0.797,0.492c0.125,0.078,0.219,0.133,0.281,0.164L52.451,74.901z M52.451,74.901
		c-0.188-0.141-0.445-0.328-0.773-0.563c-0.094-0.078-0.172-0.133-0.234-0.164c-0.141,0.25-0.422,0.492-0.844,0.727H52.451z
		 M51.185,75.394v0.492h2.977v-0.492H51.185z M51.185,76.308v0.516h2.977v-0.516H51.185z M53.037,74.503v-2.227h2.18v2.227H53.037z
		 M53.599,72.792v1.219h1.055v-1.219H53.599z"/>
	<path fill="#9B9B9B" d="M58.498,73.94c-0.063-0.109-0.133-0.211-0.211-0.305c-0.453,0.016-1.047,0.039-1.781,0.07
		c-0.063,0-0.148,0.008-0.258,0.023s-0.195,0.031-0.258,0.047l-0.211-0.516c0.156-0.078,0.29-0.188,0.399-0.328
		c0.313-0.313,0.594-0.68,0.844-1.102l0.633,0.211c-0.047,0.047-0.117,0.125-0.211,0.234c-0.359,0.422-0.641,0.734-0.844,0.938
		c0.141-0.016,0.359-0.023,0.656-0.023c0.297-0.016,0.516-0.023,0.656-0.023l-0.398-0.516l0.422-0.258
		c0.297,0.313,0.641,0.719,1.031,1.219L58.498,73.94z M56.107,77.457v-3.352h2.414V76.8c0.016,0.391-0.18,0.594-0.586,0.609
		c-0.047,0-0.141,0-0.281,0c-0.172,0.016-0.297,0.023-0.375,0.023c-0.016-0.078-0.031-0.188-0.047-0.328
		c-0.031-0.094-0.047-0.164-0.047-0.211c0.094,0.016,0.266,0.023,0.516,0.023c0.188,0,0.281-0.063,0.281-0.188v-0.352h-1.336v1.079
		H56.107z M56.646,74.573v0.469h1.336v-0.469H56.646z M56.646,75.464v0.469h1.336v-0.469H56.646z M59.787,74.503
		c-0.5,0-0.75-0.25-0.75-0.75v-1.828h0.586v0.867c0.422-0.156,0.891-0.375,1.406-0.656l0.328,0.445
		c-0.563,0.281-1.141,0.539-1.734,0.773v0.281c-0.016,0.234,0.102,0.344,0.352,0.328h0.469c0.234,0.016,0.367-0.078,0.398-0.281
		s0.055-0.398,0.07-0.586c0.031,0.016,0.086,0.031,0.164,0.047c0.094,0.031,0.219,0.078,0.375,0.141
		c-0.016,0.203-0.055,0.422-0.117,0.656c-0.063,0.375-0.32,0.563-0.773,0.563H59.787z M59.787,77.386
		c-0.5,0.016-0.75-0.227-0.75-0.727v-1.899h0.586v0.773c0.563-0.219,1.047-0.445,1.453-0.68l0.328,0.469
		c-0.422,0.219-1.016,0.484-1.781,0.797v0.422c0,0.219,0.117,0.321,0.352,0.305h0.492c0.234,0.016,0.359-0.063,0.375-0.234
		c0.031-0.172,0.055-0.383,0.07-0.633c0.063,0.016,0.148,0.047,0.258,0.094c0.125,0.047,0.219,0.078,0.281,0.094
		c-0.016,0.172-0.047,0.383-0.094,0.633v0.023c-0.094,0.375-0.352,0.563-0.773,0.563H59.787z"/>
	<path fill="#9B9B9B" d="M67.146,74.433c-0.391-0.188-0.695-0.352-0.914-0.492v0.422h-3.164v-0.375
		c-0.078,0.047-0.195,0.117-0.352,0.211c-0.25,0.141-0.438,0.25-0.563,0.328c-0.031-0.063-0.094-0.164-0.188-0.305
		c-0.078-0.125-0.133-0.219-0.164-0.281c1.234-0.578,2.117-1.273,2.648-2.086l0.75,0.047l-0.164,0.234
		c0.594,0.734,1.414,1.305,2.461,1.711C67.389,74.034,67.271,74.229,67.146,74.433z M62.553,77.503v-2.508h4.195v2.508h-0.633
		v-0.328h-2.93v0.328H62.553z M63.186,75.558v1.102h2.93v-1.102H63.186z M64.686,72.581c-0.375,0.453-0.828,0.859-1.359,1.219h2.695
		C65.521,73.472,65.076,73.065,64.686,72.581z"/>
	<path fill="#9B9B9B" d="M68.154,75.909l-0.188-0.539c0.141-0.094,0.281-0.242,0.422-0.445c0.172-0.203,0.336-0.422,0.492-0.656
		c-0.422,0-0.727,0.023-0.914,0.07L67.803,73.8c0.125-0.078,0.242-0.219,0.352-0.422c0.328-0.547,0.594-1.047,0.797-1.5l0.609,0.188
		c-0.391,0.719-0.734,1.281-1.031,1.688c0.297,0,0.523-0.008,0.68-0.023c0.141-0.234,0.281-0.469,0.422-0.703l0.563,0.258
		c-0.438,0.719-0.891,1.383-1.359,1.992c0.109-0.016,0.305-0.039,0.586-0.07c0.266-0.031,0.453-0.047,0.563-0.047
		c0,0.031-0.008,0.078-0.023,0.141c-0.016,0.172-0.023,0.305-0.023,0.398c-0.469,0.031-0.914,0.078-1.336,0.141
		C68.443,75.854,68.295,75.878,68.154,75.909z M67.896,77.152l-0.094-0.563c0.969-0.094,1.742-0.188,2.32-0.282
		c0,0.063-0.008,0.164-0.023,0.305c0,0.125,0,0.203,0,0.234c-0.188,0.016-0.531,0.063-1.031,0.141
		C68.537,77.066,68.146,77.121,67.896,77.152z M70.428,74.315c-0.172-0.172-0.328-0.313-0.469-0.422
		c0.484-0.641,0.836-1.313,1.055-2.016l0.656,0.141c-0.016,0.031-0.031,0.07-0.047,0.117c-0.078,0.188-0.172,0.398-0.281,0.633
		h1.945c-0.016,1.031-0.055,2.219-0.117,3.563c0,0.688-0.367,1.024-1.102,1.008c-0.25,0.016-0.586,0.023-1.008,0.023
		c-0.016-0.094-0.039-0.242-0.07-0.445c-0.031-0.078-0.047-0.133-0.047-0.164c0.078,0,0.227,0,0.445,0
		c0.25,0.016,0.43,0.023,0.539,0.023c0.406,0.016,0.609-0.18,0.609-0.586c0.063-0.922,0.094-1.859,0.094-2.813h-1.594
		C70.85,73.706,70.646,74.019,70.428,74.315z M71.365,75.769c-0.266-0.422-0.555-0.836-0.867-1.242l0.469-0.305
		c0.406,0.5,0.711,0.898,0.914,1.195L71.365,75.769z"/>
	<path fill="#9B9B9B" d="M78.045,75.651c-0.016-0.047-0.031-0.109-0.047-0.188c-0.031-0.156-0.063-0.281-0.094-0.375
		c0.109,0,0.234,0,0.375,0c0.188,0.016,0.289-0.102,0.305-0.352c0.031-0.469,0.047-0.852,0.047-1.148l-0.797,0.234v2.461h-0.586
		v-2.297l-0.75,0.234v2.086c-0.031,0.344,0.141,0.508,0.516,0.493h1.219c0.375,0.016,0.578-0.109,0.609-0.375
		c0.047-0.219,0.086-0.445,0.117-0.68c0.156,0.078,0.344,0.148,0.563,0.211c-0.047,0.313-0.102,0.586-0.164,0.821
		c-0.078,0.375-0.391,0.555-0.938,0.539h-1.641c-0.594,0.016-0.883-0.25-0.867-0.797v-2.109l-0.398,0.117l-0.094-0.492h-0.398v1.992
		c0.047-0.016,0.117-0.031,0.211-0.047c0.172-0.047,0.313-0.078,0.422-0.094c0,0.188,0.008,0.383,0.023,0.586
		c-0.156,0.031-0.438,0.102-0.844,0.211c-0.422,0.094-0.734,0.164-0.938,0.211l-0.117-0.586l0.68-0.141v-2.133h-0.563v-0.586h0.563
		v-1.547h0.563v1.547h0.516v0.445l0.375-0.094v-1.289h0.586v1.102l0.75-0.211v-1.5h0.586v1.336l1.383-0.398
		c0,0.875-0.023,1.539-0.07,1.992c0,0.516-0.188,0.773-0.563,0.773C78.443,75.636,78.264,75.651,78.045,75.651z"/>
	<path fill="#9B9B9B" d="M79.896,73.94v-0.586h0.656v-1.453h0.609v1.453h0.633v0.586h-0.633v1.945l0.703-0.211
		c-0.016,0.094-0.016,0.234,0,0.422c0,0.078,0,0.141,0,0.188c-0.156,0.047-0.438,0.125-0.844,0.234
		c-0.5,0.157-0.867,0.258-1.102,0.305l-0.117-0.586l0.75-0.188V73.94H79.896z M81.42,77.199V76.66h0.773v-3.563h0.609v3.563h0.773
		v-4.758h0.656v1.711h1.078v0.586h-1.078v2.461h1.266v0.539H81.42z"/>
</g>
<g>
	<path fill="#FFFFFF" d="M23.211,14.437c-0.104-0.052-0.261-0.144-0.469-0.273c-0.234-0.13-0.404-0.234-0.508-0.313
		c0.391-0.599,0.65-1.185,0.781-1.758c0.13-0.573,0.195-1.432,0.195-2.578V5.531h7.969v7.461c0.052,0.859-0.378,1.276-1.289,1.25
		c-0.339,0.026-0.756,0.039-1.25,0.039c-0.026-0.078-0.053-0.195-0.078-0.352c-0.053-0.287-0.104-0.508-0.156-0.664
		c0.13,0,0.313,0.013,0.547,0.039c0.234,0,0.403,0,0.508,0c0.469,0.026,0.689-0.143,0.664-0.508v-1.289h-2.461v2.656h-1.055v-2.656
		h-2.383C24.174,12.445,23.836,13.421,23.211,14.437z M24.305,9.515c0,0.13-0.014,0.326-0.039,0.586c0,0.208,0,0.365,0,0.469h2.344
		V9.007h-2.305V9.515z M24.305,6.507V8.07h2.305V6.507H24.305z M30.125,6.507h-2.461V8.07h2.461V6.507z M27.664,9.007v1.563h2.461
		V9.007H27.664z"/>
	<path fill="#FFFFFF" d="M33.094,14.398c-0.313-0.261-0.6-0.521-0.859-0.781c0.755-0.885,1.094-2.305,1.016-4.258V6.39h3.516
		c-0.053-0.13-0.131-0.325-0.234-0.586c-0.131-0.26-0.222-0.456-0.273-0.586l1.172-0.195c0.156,0.443,0.338,0.898,0.547,1.367h3.125
		v4.648h-1.094V10.57h-5.664C34.317,12.054,33.9,13.33,33.094,14.398z M34.344,9.359v0.195h5.664V7.406h-5.664V9.359z"/>
	<path fill="#FFFFFF" d="M50.203,14.281c-0.781,0.026-1.406-0.456-1.875-1.445c-0.443,0.261-1.198,0.586-2.266,0.977
		c-0.104-0.287-0.261-0.56-0.469-0.82c-0.443,0.261-0.859,0.56-1.25,0.898c-0.156,0.104-0.3,0.234-0.43,0.391L43.328,13.5
		c0.182-0.156,0.26-0.403,0.234-0.742v-1.719h-1.25V10.14h1.25V9.007H42.82V8.773l-0.039,0.078c-0.078-0.13-0.209-0.338-0.391-0.625
		c-0.078-0.13-0.144-0.234-0.195-0.313c0.547-0.703,1.002-1.667,1.367-2.891l0.977,0.195c-0.156,0.391-0.287,0.755-0.391,1.094h1.68
		v0.859h-2.07c-0.053,0.13-0.156,0.339-0.313,0.625c-0.078,0.156-0.144,0.273-0.195,0.352h2.305v0.859h-1.016v1.133h1.25v0.898
		h-1.25v1.758c0.156-0.13,0.416-0.338,0.781-0.625c0.182-0.13,0.313-0.234,0.391-0.313c0.025,0.13,0.052,0.326,0.078,0.586
		c0.052,0.156,0.078,0.273,0.078,0.352l-0.117,0.078c0.859-0.313,1.588-0.625,2.188-0.938c-0.156-0.547-0.3-1.159-0.43-1.836
		l-1.406,0.156l-0.156-0.898l1.445-0.195l-0.039-0.43L47.273,8.07l-1.211,0.156l-0.117-0.898l1.289-0.156
		C47.182,6.703,47.156,6,47.156,5.062h0.977c0,0.234,0.013,0.573,0.039,1.016c0,0.469,0.013,0.808,0.039,1.016l3.047-0.352
		l0.078,0.859l-3.047,0.352l0.039,0.625l0.039,0.469l3.086-0.391l0.117,0.898l-3.086,0.391c0.13,0.547,0.247,1.016,0.352,1.406
		c0.547-0.391,1.094-0.846,1.641-1.367l0.664,0.625c-0.651,0.651-1.303,1.211-1.953,1.68c0.286,0.651,0.611,0.977,0.977,0.977
		c0.234,0,0.391-0.143,0.469-0.43c0-0.052,0.013-0.117,0.039-0.195c0.078-0.182,0.156-0.534,0.234-1.055
		c0.26,0.13,0.547,0.273,0.859,0.43c-0.104,0.599-0.222,1.029-0.352,1.289C51.205,13.955,50.802,14.281,50.203,14.281z
		 M50.008,6.781c-0.391-0.313-0.834-0.625-1.328-0.938l0.625-0.664c0.494,0.287,0.938,0.586,1.328,0.898L50.008,6.781z"/>
	<path fill="#FFFFFF" d="M55.125,14.085c-1.172,0.026-1.732-0.495-1.68-1.563V8.578c-0.078,0.078-0.183,0.195-0.313,0.352
		c-0.209,0.234-0.378,0.404-0.508,0.508c-0.104-0.391-0.234-0.755-0.391-1.094c0.989-0.963,1.758-2.07,2.305-3.32l1.172,0.117
		c-0.026,0.078-0.078,0.183-0.156,0.313C55.528,5.557,55.438,5.739,55.281,6h5.391c0,1.537-0.039,3.034-0.117,4.492
		c0,1.146-0.508,1.693-1.523,1.641c-0.365,0.026-0.82,0.039-1.367,0.039c-0.026-0.078-0.065-0.195-0.117-0.352
		c-0.053-0.286-0.104-0.508-0.156-0.664h-2.93v1.25c-0.053,0.573,0.26,0.847,0.938,0.82h4.141c0.572,0.026,0.898-0.182,0.977-0.625
		c0.078-0.338,0.13-0.742,0.156-1.211c0.13,0.026,0.313,0.078,0.547,0.156s0.403,0.13,0.508,0.156
		c-0.053,0.469-0.131,0.938-0.234,1.406c-0.156,0.677-0.729,1.002-1.719,0.977H55.125z M54.695,6.976
		c-0.209,0.339-0.469,0.69-0.781,1.055h4.102v3.125h0.703c0.521,0.026,0.794-0.234,0.82-0.781c0.052-1.067,0.078-2.2,0.078-3.398
		H54.695z M54.461,8.929v1.328H57V8.929H54.461z"/>
	<path fill="#FFFFFF" d="M69.305,11.312c-0.026-0.078-0.053-0.182-0.078-0.313c-0.053-0.26-0.104-0.469-0.156-0.625
		c0.182,0,0.391,0,0.625,0c0.313,0.026,0.481-0.169,0.508-0.586c0.052-0.781,0.078-1.419,0.078-1.914l-1.328,0.391v4.102h-0.977
		V8.539l-1.25,0.391v3.477c-0.053,0.573,0.234,0.847,0.859,0.82h2.031c0.625,0.026,0.963-0.182,1.016-0.625
		c0.078-0.364,0.143-0.742,0.195-1.133c0.26,0.13,0.572,0.248,0.938,0.352c-0.078,0.521-0.17,0.977-0.273,1.367
		c-0.131,0.625-0.651,0.924-1.563,0.898h-2.734c-0.99,0.026-1.472-0.417-1.445-1.328V9.242l-0.664,0.195l-0.156-0.82h-0.664v3.32
		c0.078-0.026,0.195-0.052,0.352-0.078c0.286-0.078,0.521-0.13,0.703-0.156c0,0.313,0.013,0.638,0.039,0.977
		c-0.261,0.052-0.729,0.169-1.406,0.352c-0.703,0.156-1.225,0.273-1.563,0.352l-0.195-0.977l1.133-0.234V8.617h-0.938V7.64h0.938
		V5.062h0.938V7.64h0.859v0.742l0.625-0.156V6.078h0.977v1.836l1.25-0.352v-2.5h0.977v2.227l2.305-0.664
		c0,1.458-0.039,2.565-0.117,3.32c0,0.859-0.313,1.289-0.938,1.289C69.969,11.286,69.669,11.312,69.305,11.312z"/>
	<path fill="#FFFFFF" d="M72.391,8.46V7.484h1.094V5.062H74.5v2.422h1.055V8.46H74.5v3.242l1.172-0.352
		c-0.026,0.156-0.026,0.391,0,0.703c0,0.13,0,0.234,0,0.313c-0.261,0.078-0.729,0.208-1.406,0.391
		c-0.834,0.261-1.445,0.43-1.836,0.508l-0.195-0.977l1.25-0.313V8.46H72.391z M74.93,13.89v-0.898h1.289V7.054h1.016v5.938h1.289
		v-7.93h1.094v2.852h1.797V8.89h-1.797v4.102h2.109v0.898H74.93z"/>
</g>
</svg>
