<?xml version="1.0" encoding="utf-8"?>
<!-- Generator: Adobe Illustrator 16.0.0, SVG Export Plug-In . SVG Version: 6.00 Build 0)  -->
<!DOCTYPE svg PUBLIC "-//W3C//DTD SVG 1.1//EN" "http://www.w3.org/Graphics/SVG/1.1/DTD/svg11.dtd">
<svg version="1.1" id="图层_1" xmlns="http://www.w3.org/2000/svg" xmlns:xlink="http://www.w3.org/1999/xlink" x="0px" y="0px"
	 width="225.089px" height="174.602px" viewBox="0 0 225.089 174.602" enable-background="new 0 0 225.089 174.602"
	 xml:space="preserve">
<g>
	<path fill="#181919" d="M69.185,157.187h3.906v4.336h-1.055v-0.43h-4.961v0.43H66.06v-4.297c-0.209,0.078-0.417,0.184-0.625,0.313
		c-0.183-0.285-0.378-0.559-0.586-0.82c1.094-0.391,1.771-0.859,2.031-1.406h-1.953v-0.781h2.148
		c0.052-0.26,0.078-0.547,0.078-0.859h-0.938c-0.183,0.262-0.43,0.535-0.742,0.82c-0.053-0.051-0.117-0.117-0.195-0.195
		c-0.053-0.078-0.195-0.221-0.43-0.43c0.572-0.494,0.977-1.08,1.211-1.758l0.938,0.078c-0.078,0.262-0.183,0.496-0.313,0.703h2.813
		v0.781H68.13c0,0.105-0.014,0.248-0.039,0.43c0,0.209-0.014,0.352-0.039,0.43h1.719v0.781h-1.836
		c0.286,0.184,0.729,0.457,1.328,0.82c0.208,0.131,0.364,0.223,0.469,0.273L69.185,157.187z M69.185,157.187
		c-0.313-0.234-0.742-0.547-1.289-0.938c-0.156-0.129-0.287-0.221-0.391-0.273c-0.234,0.418-0.703,0.82-1.406,1.211H69.185z
		 M67.075,158.007v0.82h4.961v-0.82H67.075z M67.075,159.531v0.859h4.961v-0.859H67.075z M70.161,156.523v-3.711h3.633v3.711H70.161
		z M71.099,153.671v2.031h1.758v-2.031H71.099z"/>
	<path fill="#181919" d="M79.263,155.585c-0.104-0.182-0.222-0.352-0.352-0.508c-0.756,0.027-1.745,0.066-2.969,0.117
		c-0.104,0-0.248,0.014-0.43,0.039c-0.183,0.027-0.326,0.053-0.43,0.078l-0.352-0.859c0.26-0.129,0.481-0.313,0.664-0.547
		c0.521-0.52,0.989-1.133,1.406-1.836l1.055,0.352c-0.078,0.078-0.195,0.209-0.352,0.391c-0.6,0.703-1.068,1.225-1.406,1.563
		c0.234-0.025,0.599-0.039,1.094-0.039c0.494-0.025,0.859-0.039,1.094-0.039l-0.664-0.859l0.703-0.43
		c0.494,0.521,1.067,1.199,1.719,2.031L79.263,155.585z M75.278,161.445v-5.586h4.023v4.492c0.025,0.65-0.3,0.99-0.977,1.016
		c-0.078,0-0.234,0-0.469,0c-0.287,0.025-0.495,0.039-0.625,0.039c-0.026-0.131-0.053-0.313-0.078-0.547
		c-0.053-0.156-0.078-0.273-0.078-0.352c0.156,0.025,0.442,0.039,0.859,0.039c0.313,0,0.469-0.104,0.469-0.313v-0.586h-2.227v1.797
		H75.278z M76.177,156.64v0.781h2.227v-0.781H76.177z M76.177,158.125v0.781h2.227v-0.781H76.177z M81.411,156.523
		c-0.834,0-1.25-0.416-1.25-1.25v-3.047h0.977v1.445c0.703-0.26,1.484-0.625,2.344-1.094l0.547,0.742
		c-0.938,0.469-1.901,0.898-2.891,1.289v0.469c-0.026,0.391,0.169,0.574,0.586,0.547h0.781c0.391,0.027,0.611-0.129,0.664-0.469
		c0.052-0.338,0.091-0.664,0.117-0.977c0.052,0.027,0.143,0.053,0.273,0.078c0.156,0.053,0.364,0.131,0.625,0.234
		c-0.026,0.34-0.092,0.703-0.195,1.094c-0.104,0.625-0.534,0.938-1.289,0.938H81.411z M81.411,161.328
		c-0.834,0.025-1.25-0.377-1.25-1.211v-3.164h0.977v1.289c0.938-0.363,1.744-0.742,2.422-1.133l0.547,0.781
		c-0.703,0.365-1.693,0.809-2.969,1.328v0.703c0,0.365,0.195,0.533,0.586,0.508h0.82c0.391,0.025,0.599-0.104,0.625-0.391
		c0.052-0.285,0.091-0.637,0.117-1.055c0.104,0.027,0.247,0.078,0.43,0.156c0.208,0.078,0.364,0.131,0.469,0.156
		c-0.026,0.287-0.078,0.639-0.156,1.055v0.039c-0.156,0.625-0.586,0.938-1.289,0.938H81.411z"/>
	<path fill="#181919" d="M93.677,156.406c-0.651-0.313-1.159-0.586-1.523-0.82v0.703H86.88v-0.625
		c-0.131,0.078-0.326,0.195-0.586,0.352c-0.417,0.234-0.729,0.418-0.938,0.547c-0.053-0.104-0.156-0.273-0.313-0.508
		c-0.131-0.207-0.222-0.363-0.273-0.469c2.057-0.963,3.528-2.121,4.414-3.477l1.25,0.078l-0.273,0.391
		c0.989,1.225,2.356,2.176,4.102,2.852C94.08,155.742,93.885,156.068,93.677,156.406z M86.021,161.523v-4.18h6.992v4.18h-1.055
		v-0.547h-4.883v0.547H86.021z M87.075,158.281v1.836h4.883v-1.836H87.075z M89.575,153.32c-0.625,0.756-1.381,1.434-2.266,2.031
		h4.492C90.968,154.804,90.226,154.128,89.575,153.32z"/>
	<path fill="#181919" d="M95.356,158.867l-0.313-0.898c0.234-0.156,0.469-0.402,0.703-0.742c0.286-0.338,0.56-0.703,0.82-1.094
		c-0.703,0-1.211,0.039-1.523,0.117l-0.273-0.898c0.208-0.129,0.403-0.363,0.586-0.703c0.547-0.91,0.989-1.744,1.328-2.5
		l1.016,0.313c-0.651,1.199-1.225,2.137-1.719,2.813c0.494,0,0.872-0.012,1.133-0.039c0.234-0.391,0.469-0.781,0.703-1.172
		l0.938,0.43c-0.729,1.199-1.484,2.305-2.266,3.32c0.182-0.025,0.508-0.064,0.977-0.117c0.442-0.051,0.755-0.078,0.938-0.078
		c0,0.053-0.014,0.131-0.039,0.234c-0.026,0.287-0.039,0.508-0.039,0.664c-0.781,0.053-1.523,0.131-2.227,0.234
		C95.838,158.777,95.591,158.816,95.356,158.867z M94.927,160.937L94.771,160c1.614-0.156,2.903-0.313,3.867-0.469
		c0,0.105-0.014,0.273-0.039,0.508c0,0.209,0,0.34,0,0.391c-0.313,0.025-0.886,0.104-1.719,0.234
		C95.994,160.794,95.343,160.884,94.927,160.937z M99.146,156.21c-0.287-0.285-0.547-0.52-0.781-0.703
		c0.807-1.066,1.393-2.188,1.758-3.359l1.094,0.234c-0.026,0.053-0.053,0.117-0.078,0.195c-0.131,0.313-0.287,0.664-0.469,1.055
		h3.242c-0.026,1.719-0.092,3.699-0.195,5.938c0,1.146-0.612,1.705-1.836,1.68c-0.417,0.025-0.977,0.039-1.68,0.039
		c-0.026-0.156-0.065-0.404-0.117-0.742c-0.053-0.131-0.078-0.221-0.078-0.273c0.13,0,0.377,0,0.742,0
		c0.416,0.027,0.716,0.039,0.898,0.039c0.677,0.027,1.016-0.299,1.016-0.977c0.104-1.535,0.156-3.098,0.156-4.688h-2.656
		C99.849,155.195,99.51,155.716,99.146,156.21z M100.708,158.632c-0.443-0.703-0.925-1.393-1.445-2.07l0.781-0.508
		c0.677,0.834,1.185,1.498,1.523,1.992L100.708,158.632z"/>
	<path fill="#181919" d="M112.075,161.796h-1.25c-1.303-1.406-1.967-3.047-1.992-4.922c0.078-1.953,0.742-3.633,1.992-5.039h1.211
		c-1.25,1.537-1.901,3.217-1.953,5.039C110.083,158.724,110.747,160.365,112.075,161.796z"/>
	<path fill="#181919" d="M118.286,160.234l-0.859-1.367c-0.495,0.809-1.159,1.615-1.992,2.422c-0.104-0.156-0.313-0.416-0.625-0.781
		c-0.026-0.025-0.053-0.053-0.078-0.078c0.938-0.859,1.627-1.705,2.07-2.539c-0.313-0.52-0.82-1.289-1.523-2.305
		c-0.156-0.234-0.273-0.402-0.352-0.508l0.859-0.547l1.523,2.266c0.286-0.781,0.508-1.77,0.664-2.969h-3.008v-0.977h4.023v0.977
		c-0.234,1.719-0.573,3.047-1.016,3.984c0.391,0.574,0.781,1.16,1.172,1.758L118.286,160.234z M123.638,161.367
		c-0.99-0.65-1.719-1.262-2.188-1.836c-0.521,0.652-1.354,1.314-2.5,1.992c-0.053-0.078-0.156-0.209-0.313-0.391
		c-0.183-0.234-0.313-0.404-0.391-0.508c1.067-0.52,1.927-1.172,2.578-1.953c-0.729-1.041-1.237-2.551-1.523-4.531l0.977-0.195
		c0.26,1.668,0.664,2.943,1.211,3.828c0.599-0.938,1.002-2.252,1.211-3.945h-3.438v-0.977h4.531v1.016
		c-0.365,2.137-0.925,3.738-1.68,4.805c0.521,0.678,1.25,1.264,2.188,1.758C124.041,160.716,123.819,161.029,123.638,161.367z"/>
	<path fill="#181919" d="M124.966,154.648v-1.016h4.258c-0.156-0.416-0.326-0.859-0.508-1.328l1.211-0.117
		c0.156,0.365,0.338,0.848,0.547,1.445h3.633v1.016h-5.625c0,0.469-0.026,0.965-0.078,1.484h4.57
		c-0.026,0.625-0.078,1.537-0.156,2.734c-0.026,0.313-0.039,0.535-0.039,0.664c-0.053,1.172-0.703,1.744-1.953,1.719
		c-0.234,0-0.534,0.014-0.898,0.039c-0.339,0-0.612,0-0.82,0c-0.026-0.182-0.092-0.469-0.195-0.859
		c-0.026-0.051-0.039-0.104-0.039-0.156c0.182,0,0.442,0,0.781,0c0.338,0.027,0.611,0.039,0.82,0.039
		c0.781,0.053,1.185-0.313,1.211-1.094c0.078-0.625,0.117-1.328,0.117-2.109h-3.477c-0.104,1.824-1.003,3.307-2.695,4.453
		l-0.859-0.82c1.666-1.016,2.5-2.447,2.5-4.297c0.052-0.729,0.078-1.328,0.078-1.797H124.966z"/>
	<path fill="#181919" d="M135.317,155.82c-0.078-0.156-0.234-0.391-0.469-0.703c-0.053-0.078-0.092-0.129-0.117-0.156
		c0.599-0.859,1.041-1.797,1.328-2.813l1.055,0.195c-0.156,0.391-0.313,0.756-0.469,1.094h1.445v0.859h-1.836
		c-0.156,0.313-0.339,0.625-0.547,0.938h2.188v0.859h-0.938v1.172h1.094v0.859h-1.094v1.719l1.094-0.703
		c0.025,0.105,0.052,0.262,0.078,0.469c0.025,0.234,0.039,0.404,0.039,0.508c-0.495,0.234-0.977,0.508-1.445,0.82
		c-0.156,0.078-0.313,0.195-0.469,0.352l-0.586-0.742c0.234-0.182,0.338-0.43,0.313-0.742v-1.68h-1.133v-0.859h1.133v-1.172h-0.586
		v-0.352L135.317,155.82z M143.677,161.484c-0.495-0.365-1.211-0.859-2.148-1.484c-0.156-0.129-0.287-0.221-0.391-0.273
		c-0.417,0.652-1.367,1.264-2.852,1.836c-0.053-0.078-0.131-0.209-0.234-0.391c-0.156-0.26-0.273-0.43-0.352-0.508
		c1.875-0.52,2.838-1.328,2.891-2.422c0.078-0.416,0.117-1.055,0.117-1.914h0.977c0,0.965-0.039,1.654-0.117,2.07
		c0,0.078-0.014,0.195-0.039,0.352c0.025-0.104,0.013-0.078-0.039,0.078c0.572,0.34,1.314,0.809,2.227,1.406
		c0.234,0.156,0.416,0.273,0.547,0.352L143.677,161.484z M139.38,154.531c-0.104-0.182-0.273-0.43-0.508-0.742
		c-0.234-0.338-0.417-0.586-0.547-0.742l0.742-0.469c0.182,0.234,0.442,0.561,0.781,0.977c0.13,0.184,0.234,0.326,0.313,0.43
		L139.38,154.531z M138.521,159.179v-4.375h2.148v-2.617h0.977v2.617h2.188v4.297h-0.938v-3.359h-3.438v3.438H138.521z
		 M142.974,154.531l-0.781-0.508c0.313-0.391,0.664-0.885,1.055-1.484l0.82,0.469c-0.026,0.053-0.078,0.131-0.156,0.234
		C143.546,153.789,143.233,154.218,142.974,154.531z"/>
	<path fill="#181919" d="M145.2,156.406v-0.938h8.672v0.938h-3.633v1.367h3.242v0.898h-3.242v1.641c1.146,0.027,2.486,0.027,4.023,0
		c-0.104,0.287-0.209,0.611-0.313,0.977c-0.469,0-1.186-0.014-2.148-0.039c-1.016,0-1.719-0.014-2.109-0.039
		c-1.328-0.053-2.292-0.533-2.891-1.445c-0.339,0.6-0.781,1.186-1.328,1.758c-0.078-0.131-0.234-0.313-0.469-0.547
		c-0.104-0.131-0.183-0.221-0.234-0.273c0.989-0.832,1.563-2.07,1.719-3.711l1.016,0.156c-0.078,0.521-0.183,1.016-0.313,1.484
		c0.494,0.938,1.158,1.484,1.992,1.641v-3.867H145.2z M152.817,155.039v-0.898h-6.563v0.898h-1.016v-1.836h3.828
		c-0.026-0.156-0.092-0.402-0.195-0.742c-0.026-0.104-0.053-0.182-0.078-0.234l1.25-0.117c0.078,0.313,0.156,0.678,0.234,1.094
		h3.594v1.836H152.817z"/>
	<path fill="#181919" d="M158.247,161.796h-1.211c1.302-1.381,1.953-3.02,1.953-4.922c-0.053-1.822-0.703-3.502-1.953-5.039h1.25
		c1.224,1.381,1.875,3.061,1.953,5.039C160.213,158.75,159.549,160.39,158.247,161.796z"/>
</g>
<rect x="107.271" y="32.746" fill="#E0CC1E" width="3" height="35.25"/>
<polygon fill="#E0CC1E" points="113.197,65.48 108.771,73.148 104.344,65.48 "/>
<rect x="107.271" y="101.847" fill="#E0CC1E" width="3" height="36.25"/>
<polygon fill="#E0CC1E" points="113.197,135.582 108.771,143.248 104.344,135.582 "/>
<path fill="none" stroke="#1A1A1A" stroke-miterlimit="10" d="M149.304,17.787c0,5.32-4.313,9.634-9.633,9.634H78.417
	c-5.32,0-9.633-4.313-9.633-9.634c0-5.319,4.313-9.633,9.633-9.633h61.254C144.99,8.154,149.304,12.467,149.304,17.787z"/>
<rect x="76.304" y="39.33" fill="#FFFFFF" width="65.999" height="10.854"/>
<path fill="none" stroke="#1A1A1A" stroke-miterlimit="10" d="M168.304,156.816c0,5.32-4.313,9.633-9.633,9.633H66.417
	c-5.32,0-9.633-4.313-9.633-9.633s4.313-9.633,9.633-9.633h92.254C163.99,147.183,168.304,151.496,168.304,156.816z"/>
<rect x="76.304" y="111.544" fill="#FFFFFF" width="65.999" height="10.854"/>
<path fill="#1A1A1A" d="M149.029,86.898c0,5.32-4.313,9.633-9.633,9.633H78.143c-5.32,0-9.633-4.313-9.633-9.633
	s4.313-9.633,9.633-9.633h61.254C144.716,77.265,149.029,81.578,149.029,86.898"/>
<g>
	<path fill="#FFFFFF" d="M79.221,91.703c-0.104-0.053-0.261-0.145-0.469-0.273c-0.234-0.131-0.404-0.234-0.508-0.313
		c0.391-0.6,0.65-1.186,0.781-1.758c0.13-0.572,0.195-1.432,0.195-2.578v-3.984h7.969v7.461c0.052,0.859-0.378,1.275-1.289,1.25
		c-0.339,0.025-0.756,0.039-1.25,0.039c-0.026-0.078-0.053-0.195-0.078-0.352c-0.053-0.287-0.104-0.508-0.156-0.664
		c0.13,0,0.313,0.012,0.547,0.039c0.234,0,0.403,0,0.508,0c0.469,0.025,0.689-0.143,0.664-0.508v-1.289h-2.461v2.656h-1.055v-2.656
		h-2.383C80.184,89.71,79.846,90.687,79.221,91.703z M80.314,86.781c0,0.131-0.014,0.326-0.039,0.586c0,0.209,0,0.365,0,0.469h2.344
		v-1.563h-2.305V86.781z M80.314,83.773v1.563h2.305v-1.563H80.314z M86.135,83.773h-2.461v1.563h2.461V83.773z M83.674,86.273
		v1.563h2.461v-1.563H83.674z"/>
	<path fill="#FFFFFF" d="M89.104,91.664c-0.313-0.262-0.6-0.521-0.859-0.781c0.755-0.885,1.094-2.305,1.016-4.258v-2.969h3.516
		c-0.053-0.13-0.131-0.325-0.234-0.586c-0.131-0.26-0.222-0.455-0.273-0.586l1.172-0.195c0.156,0.443,0.338,0.898,0.547,1.367h3.125
		v4.648h-1.094v-0.469h-5.664C90.327,89.32,89.91,90.595,89.104,91.664z M90.354,86.625v0.195h5.664v-2.148h-5.664V86.625z"/>
	<path fill="#FFFFFF" d="M106.213,91.546c-0.781,0.025-1.406-0.457-1.875-1.445c-0.443,0.26-1.198,0.586-2.266,0.977
		c-0.104-0.287-0.261-0.561-0.469-0.82c-0.443,0.26-0.859,0.559-1.25,0.898c-0.156,0.104-0.3,0.234-0.43,0.391l-0.586-0.781
		c0.182-0.156,0.26-0.404,0.234-0.742v-1.719h-1.25v-0.898h1.25v-1.133H98.83v-0.234l-0.039,0.078
		c-0.078-0.13-0.209-0.338-0.391-0.625c-0.078-0.13-0.144-0.234-0.195-0.313c0.547-0.703,1.002-1.666,1.367-2.891l0.977,0.195
		c-0.156,0.391-0.287,0.756-0.391,1.094h1.68v0.859h-2.07c-0.053,0.131-0.156,0.339-0.313,0.625
		c-0.078,0.156-0.144,0.273-0.195,0.352h2.305v0.859h-1.016v1.133h1.25v0.898h-1.25v1.758c0.156-0.131,0.416-0.338,0.781-0.625
		c0.182-0.131,0.313-0.234,0.391-0.313c0.025,0.131,0.052,0.326,0.078,0.586c0.052,0.156,0.078,0.273,0.078,0.352l-0.117,0.078
		c0.859-0.313,1.588-0.625,2.188-0.938c-0.156-0.547-0.3-1.158-0.43-1.836l-1.406,0.156l-0.156-0.898l1.445-0.195L103.361,86
		l-0.078-0.664l-1.211,0.156l-0.117-0.898l1.289-0.156c-0.053-0.469-0.078-1.172-0.078-2.109h0.977c0,0.234,0.013,0.573,0.039,1.016
		c0,0.469,0.013,0.808,0.039,1.016l3.047-0.352l0.078,0.859l-3.047,0.352l0.039,0.625l0.039,0.469l3.086-0.391l0.117,0.898
		l-3.086,0.391c0.13,0.547,0.247,1.016,0.352,1.406c0.547-0.391,1.094-0.846,1.641-1.367l0.664,0.625
		c-0.651,0.651-1.303,1.211-1.953,1.68c0.286,0.65,0.611,0.977,0.977,0.977c0.234,0,0.391-0.143,0.469-0.43
		c0-0.053,0.013-0.117,0.039-0.195c0.078-0.182,0.156-0.533,0.234-1.055c0.26,0.131,0.547,0.273,0.859,0.43
		c-0.104,0.6-0.222,1.029-0.352,1.289C107.215,91.22,106.812,91.546,106.213,91.546z M106.018,84.046
		c-0.391-0.313-0.834-0.625-1.328-0.938l0.625-0.664c0.494,0.287,0.938,0.586,1.328,0.898L106.018,84.046z"/>
	<path fill="#FFFFFF" d="M111.135,91.351c-1.172,0.025-1.732-0.496-1.68-1.563v-3.945c-0.078,0.078-0.183,0.195-0.313,0.352
		c-0.209,0.234-0.378,0.404-0.508,0.508c-0.104-0.391-0.234-0.755-0.391-1.094c0.989-0.963,1.758-2.07,2.305-3.32l1.172,0.117
		c-0.026,0.078-0.078,0.183-0.156,0.313c-0.026,0.104-0.117,0.287-0.273,0.547h5.391c0,1.537-0.039,3.034-0.117,4.492
		c0,1.146-0.508,1.693-1.523,1.641c-0.365,0.025-0.82,0.039-1.367,0.039c-0.026-0.078-0.065-0.195-0.117-0.352
		c-0.053-0.286-0.104-0.508-0.156-0.664h-2.93v1.25c-0.053,0.572,0.26,0.846,0.938,0.82h4.141c0.572,0.025,0.898-0.182,0.977-0.625
		c0.078-0.338,0.13-0.742,0.156-1.211c0.13,0.026,0.313,0.078,0.547,0.156s0.403,0.131,0.508,0.156
		c-0.053,0.469-0.131,0.938-0.234,1.406c-0.156,0.676-0.729,1.002-1.719,0.977H111.135z M110.705,84.242
		c-0.209,0.339-0.469,0.69-0.781,1.055h4.102v3.125h0.703c0.521,0.026,0.794-0.234,0.82-0.781c0.052-1.067,0.078-2.2,0.078-3.398
		H110.705z M110.471,86.195v1.328h2.539v-1.328H110.471z"/>
	<path fill="#FFFFFF" d="M125.314,88.578c-0.026-0.078-0.053-0.182-0.078-0.313c-0.053-0.26-0.104-0.469-0.156-0.625
		c0.182,0,0.391,0,0.625,0c0.313,0.026,0.481-0.169,0.508-0.586c0.052-0.781,0.078-1.419,0.078-1.914l-1.328,0.391v4.102h-0.977
		v-3.828l-1.25,0.391v3.477c-0.053,0.572,0.234,0.846,0.859,0.82h2.031c0.625,0.025,0.963-0.182,1.016-0.625
		c0.078-0.365,0.143-0.742,0.195-1.133c0.26,0.131,0.572,0.248,0.938,0.352c-0.078,0.521-0.17,0.977-0.273,1.367
		c-0.131,0.625-0.651,0.924-1.563,0.898h-2.734c-0.99,0.025-1.472-0.418-1.445-1.328v-3.516l-0.664,0.195l-0.156-0.82h-0.664v3.32
		c0.078-0.025,0.195-0.053,0.352-0.078c0.286-0.078,0.521-0.13,0.703-0.156c0,0.313,0.013,0.639,0.039,0.977
		c-0.261,0.053-0.729,0.17-1.406,0.352c-0.703,0.156-1.225,0.273-1.563,0.352l-0.195-0.977l1.133-0.234v-3.555H118.4v-0.977h0.938
		v-2.578h0.938v2.578h0.859v0.742l0.625-0.156v-2.148h0.977v1.836l1.25-0.352v-2.5h0.977v2.227l2.305-0.664
		c0,1.459-0.039,2.565-0.117,3.32c0,0.859-0.313,1.289-0.938,1.289C125.979,88.552,125.679,88.578,125.314,88.578z"/>
	<path fill="#FFFFFF" d="M128.4,85.726V84.75h1.094v-2.422h1.016v2.422h1.055v0.977h-1.055v3.242l1.172-0.352
		c-0.026,0.156-0.026,0.391,0,0.703c0,0.131,0,0.234,0,0.313c-0.261,0.078-0.729,0.209-1.406,0.391
		c-0.834,0.26-1.445,0.43-1.836,0.508l-0.195-0.977l1.25-0.313v-3.516H128.4z M130.939,91.156v-0.898h1.289V84.32h1.016v5.938h1.289
		v-7.93h1.094v2.852h1.797v0.977h-1.797v4.102h2.109v0.898H130.939z"/>
</g>
<g>
	<path fill="#9B9B9B" d="M81.097,44.764c-0.063-0.063-0.156-0.188-0.281-0.375c-0.047-0.063-0.078-0.109-0.094-0.141v3.188h-0.609
		v-1.594c-0.172,0.078-0.391,0.195-0.656,0.352c-0.031,0.031-0.055,0.047-0.07,0.047c-0.141,0.078-0.25,0.156-0.328,0.234
		l-0.328-0.563c0.156-0.141,0.227-0.313,0.211-0.516v-2.836h0.563v2.953c0.25-0.125,0.453-0.234,0.609-0.328v-3.305h0.609v2.367
		c0.531-0.719,0.922-1.523,1.172-2.414l0.633,0.094c-0.016,0.047-0.039,0.117-0.07,0.211c-0.109,0.313-0.203,0.547-0.281,0.703
		h2.133v0.586h-0.539c-0.109,1.031-0.383,1.867-0.82,2.508c0.359,0.375,0.828,0.672,1.406,0.891
		c-0.141,0.203-0.273,0.398-0.398,0.586c-0.578-0.328-1.047-0.656-1.406-0.984c-0.359,0.344-0.82,0.688-1.383,1.031
		c-0.125-0.188-0.258-0.367-0.398-0.539c0.578-0.281,1.039-0.609,1.383-0.984c-0.313-0.469-0.539-1.047-0.68-1.734
		c-0.031,0.063-0.094,0.156-0.188,0.281C81.206,44.607,81.144,44.701,81.097,44.764z M82.55,45.443
		c0.328-0.5,0.539-1.172,0.633-2.016h-1.289v0.023C82.003,44.326,82.222,44.99,82.55,45.443z"/>
	<path fill="#9B9B9B" d="M84.823,45.678v-0.563h1.195v-0.586h0.609v0.586H87.8v0.563h-1.172v0.844l1.313-0.141
		c-0.016,0.125-0.023,0.305-0.023,0.539c-0.25,0.031-0.625,0.07-1.125,0.117c-0.859,0.094-1.531,0.172-2.016,0.234l-0.094-0.586
		c0.25-0.016,0.648-0.047,1.195-0.094c-0.375,0.031-0.328,0.023,0.141-0.023v-0.891H84.823z M84.753,42.701v-0.563h3.164v0.563
		h-1.523c-0.016,0.031-0.047,0.078-0.094,0.141c-0.281,0.438-0.508,0.766-0.68,0.984c0.172-0.016,0.445-0.031,0.82-0.047
		c0.234-0.016,0.414-0.023,0.539-0.023c-0.094-0.172-0.211-0.352-0.352-0.539l0.469-0.258c0.031,0.063,0.086,0.148,0.164,0.258
		c0.344,0.5,0.586,0.867,0.727,1.102l-0.492,0.305c-0.078-0.125-0.141-0.242-0.188-0.352c-0.859,0.031-1.461,0.063-1.805,0.094
		c-0.078,0-0.195,0.016-0.352,0.047c-0.078,0.016-0.133,0.023-0.164,0.023l-0.211-0.539c0.109-0.063,0.195-0.125,0.258-0.188
		c0.234-0.297,0.461-0.633,0.68-1.008H84.753z M88.222,46.029V42.49h0.586v3.539H88.222z M88.456,47.365
		c-0.031-0.234-0.07-0.43-0.117-0.586c0.281,0,0.539,0,0.773,0c0.25,0,0.367-0.125,0.352-0.375v-4.523h0.633v4.688
		c0.031,0.516-0.219,0.781-0.75,0.797C89.065,47.365,88.769,47.365,88.456,47.365z"/>
	<path fill="#9B9B9B" d="M91.831,46.404h3v0.68h-3.797v-4.875h3.68v0.727h-2.883v1.289h2.719v0.703h-2.719V46.404z"/>
	<path fill="#9B9B9B" d="M99.378,42.936h-1.617v4.148h-0.797v-4.148h-1.641v-0.703h4.055V42.936z"/>
	<path fill="#9B9B9B" d="M103.222,42.232h0.82v4.852h-0.82v-2.156h-2.367v2.156h-0.797v-4.852h0.797v1.992h2.367V42.232z"/>
	<path fill="#9B9B9B" d="M106.503,45.818v0.938c-0.047,0.531-0.32,0.797-0.82,0.797v-0.375c0.203-0.031,0.305-0.18,0.305-0.445
		h-0.375v-0.914H106.503z"/>
	<path fill="#9B9B9B" d="M111.261,44.506v-2.109h0.633v1.5h1.313v-2.016h0.68v2.016h1.313v-1.5h0.656v2.109h-1.969v2.109h1.523
		v-1.523h0.633v2.297h-0.633v-0.234h-4.359v-2.063h0.633v1.523h1.523v-2.109H111.261z"/>
	<path fill="#9B9B9B" d="M117.354,47.459v-2.953c-0.156,0.266-0.32,0.516-0.492,0.75c0-0.031-0.008-0.07-0.023-0.117
		c-0.063-0.203-0.109-0.422-0.141-0.656c0.469-0.766,0.828-1.641,1.078-2.625l0.633,0.141c-0.125,0.453-0.281,0.891-0.469,1.313
		v4.148H117.354z M118.479,43.076v-0.516h0.703v-0.68h0.609v0.68h1.055v-0.68h0.609v0.68h0.75v0.516h-0.75v0.656h0.914v0.516h-4.078
		v-0.516h0.891v-0.656H118.479z M118.667,47.459v-2.766h3.305v2.766h-0.609v-0.328h-2.086v0.328H118.667z M119.276,45.209v0.516
		h2.086v-0.516H119.276z M119.276,46.17v0.516h2.086V46.17H119.276z M119.792,43.076v0.656h1.055v-0.656H119.792z"/>
	<path fill="#9B9B9B" d="M126.284,42.232h0.797v2.813c0.047,1.469-0.633,2.172-2.039,2.109c-1.344,0.047-2-0.656-1.969-2.109v-2.813
		h0.797v2.813c-0.016,0.984,0.375,1.461,1.172,1.43c0.859,0.031,1.273-0.445,1.242-1.43V42.232z"/>
	<path fill="#9B9B9B" d="M131.839,43.475l-0.82,0.234c-0.141-0.594-0.5-0.883-1.078-0.867c-0.656,0-0.992,0.219-1.008,0.656
		c-0.063,0.313,0.305,0.539,1.102,0.68c1.328,0.25,1.977,0.773,1.945,1.57c-0.047,0.906-0.68,1.375-1.898,1.406
		c-1.219,0.047-1.938-0.453-2.156-1.5l0.797-0.234c0.078,0.719,0.523,1.063,1.336,1.031c0.719,0,1.078-0.242,1.078-0.727
		c0.063-0.359-0.344-0.625-1.219-0.797c-1.266-0.25-1.875-0.727-1.828-1.43c0.047-0.875,0.656-1.328,1.828-1.359
		C130.979,42.154,131.62,42.6,131.839,43.475z"/>
	<path fill="#9B9B9B" d="M134.581,47.061h-1.758v-4.852h1.805c1.578,0.016,2.375,0.828,2.391,2.438
		C137.065,46.303,136.253,47.107,134.581,47.061z M134.604,42.936h-0.984v3.469h0.961c1.094,0.016,1.633-0.563,1.617-1.734
		C136.183,43.529,135.651,42.951,134.604,42.936z"/>
	<path fill="#9B9B9B" d="M141.565,42.936h-1.617v4.148h-0.797v-4.148h-1.641v-0.703h4.055V42.936z"/>
</g>
<g>
	<path fill="#9B9B9B" d="M70.331,116.944c-0.297-0.281-0.594-0.539-0.891-0.773l0.398-0.445c0.313,0.234,0.617,0.477,0.914,0.727
		L70.331,116.944z M70.167,119.639l-0.633-0.164c0.219-0.641,0.422-1.336,0.609-2.086c0.188,0.063,0.391,0.133,0.609,0.211
		C70.456,118.553,70.26,119.233,70.167,119.639z M70.471,115.397c-0.125-0.125-0.313-0.297-0.563-0.516
		c-0.141-0.125-0.25-0.219-0.328-0.281l0.398-0.422c0.031,0.016,0.07,0.047,0.117,0.094c0.328,0.25,0.594,0.461,0.797,0.633
		L70.471,115.397z M71.081,119.733c-0.141-0.141-0.297-0.266-0.469-0.375c0.484-0.344,0.734-0.805,0.75-1.383
		c0-0.25,0-0.531,0-0.844h0.586c0,0.328-0.008,0.625-0.023,0.891C71.909,118.725,71.627,119.295,71.081,119.733z M70.987,115.303
		v-0.539h1.688c-0.016-0.063-0.055-0.164-0.117-0.305c-0.047-0.125-0.086-0.219-0.117-0.281l0.703-0.094
		c0.031,0.063,0.078,0.172,0.141,0.328s0.102,0.273,0.117,0.352h1.547v0.539h-1.969c-0.344,0.375-0.695,0.711-1.055,1.008
		l1.852-0.047l-0.445-0.516l0.469-0.281c0.516,0.531,0.914,0.969,1.195,1.313l-0.539,0.328l-0.281-0.352
		c-0.422,0-0.984,0.016-1.688,0.047c-0.281,0.016-0.492,0.023-0.633,0.023c-0.156,0-0.344,0.016-0.563,0.047c0.016,0,0,0-0.047,0
		l-0.234-0.516c0.031-0.016,0.078-0.047,0.141-0.094c0.125-0.063,0.219-0.125,0.281-0.188c0.266-0.219,0.516-0.477,0.75-0.773
		H70.987z M72.487,119.569v-2.438h0.609v2.438H72.487z M74.221,119.569c-0.406,0.016-0.602-0.172-0.586-0.563v-1.898h0.563v1.781
		c0,0.125,0.055,0.18,0.164,0.164h0.117c0.109,0,0.172-0.063,0.188-0.188c0-0.016,0-0.031,0-0.047
		c0.031-0.266,0.047-0.508,0.047-0.727c0.156,0.047,0.305,0.094,0.445,0.141c-0.016,0.313-0.047,0.578-0.094,0.797
		c-0.063,0.375-0.258,0.555-0.586,0.539H74.221z"/>
	<path fill="#9B9B9B" d="M75.51,116.358v-0.586h0.75v-0.797c-0.063,0-0.164,0-0.305,0c-0.156,0.016-0.273,0.023-0.352,0.023
		c-0.016-0.203-0.039-0.383-0.07-0.539c0.703-0.031,1.352-0.078,1.945-0.141l0.094,0.539c-0.25,0.016-0.492,0.039-0.727,0.07v0.844
		h0.703v0.586h-0.703v0.492l0.023-0.023c0.109,0.094,0.266,0.219,0.469,0.375c0.156,0.125,0.273,0.219,0.352,0.281l-0.305,0.469
		c-0.172-0.172-0.352-0.336-0.539-0.492v2.25H76.26v-2.18c-0.172,0.438-0.375,0.82-0.609,1.148
		c-0.016-0.078-0.055-0.188-0.117-0.328c-0.047-0.141-0.086-0.242-0.117-0.305c0.359-0.5,0.641-1.063,0.844-1.688H75.51z
		 M77.667,117.155v-0.492h3.305v0.492h-1.359v0.656h1.242v0.516h-1.242v0.68h1.523v0.445h-3.75v-0.445h1.617v-0.68H77.76v-0.516
		h1.242v-0.656H77.667z M77.854,116.147v-1.734h2.93v1.734H77.854z M78.44,114.905v0.75h1.758v-0.75H78.44z"/>
	<path fill="#9B9B9B" d="M81.604,117.741v-0.563h5.367v0.563h-1.734v0.914c-0.016,0.25,0.117,0.375,0.398,0.375h0.375
		c0.281,0,0.422-0.102,0.422-0.305c0.047-0.172,0.078-0.375,0.094-0.609c0.156,0.063,0.359,0.133,0.609,0.211
		c0,0.031-0.008,0.086-0.023,0.164c-0.047,0.281-0.086,0.461-0.117,0.539c-0.078,0.375-0.352,0.555-0.82,0.539h-0.82
		c-0.516,0-0.773-0.25-0.773-0.75v-1.078h-0.844c0.063,0.984-0.555,1.641-1.852,1.969c-0.141-0.25-0.266-0.438-0.375-0.563
		c1.109-0.219,1.633-0.688,1.57-1.406H81.604z M81.721,115.959v-1.219h2.32l-0.234-0.586l0.727-0.07
		c0.078,0.203,0.156,0.422,0.234,0.656h2.109v1.219h-0.633v-0.656h-3.891v0.656H81.721z M82.284,116.545v-0.563h4.031v0.563H82.284z
		"/>
	<path fill="#9B9B9B" d="M92.268,119.663c-0.406,0.016-0.75-0.266-1.031-0.844c-0.281,0.266-0.625,0.547-1.031,0.844
		c-0.109-0.141-0.25-0.297-0.422-0.469c0.484-0.313,0.891-0.648,1.219-1.008c-0.188-0.641-0.305-1.469-0.352-2.484h-2.063v0.773
		h1.594c0,0.328-0.016,0.805-0.047,1.43c0,0.063,0,0.117,0,0.164c0,0.594-0.266,0.891-0.797,0.891
		c-0.141,0.016-0.336,0.023-0.586,0.023c0-0.078-0.016-0.18-0.047-0.305c-0.016-0.141-0.031-0.242-0.047-0.305
		c0.188,0,0.352,0,0.492,0c0.266,0.016,0.398-0.109,0.398-0.375c0.016-0.125,0.023-0.289,0.023-0.492
		c0.016-0.219,0.023-0.383,0.023-0.492h-1.008c0.031,1.078-0.172,1.984-0.609,2.719c-0.031-0.016-0.078-0.047-0.141-0.094
		c-0.188-0.141-0.32-0.234-0.398-0.281c0.219-0.375,0.367-0.734,0.445-1.078c0.063-0.328,0.094-0.828,0.094-1.5v-1.641h2.648
		c-0.016-0.219-0.023-0.57-0.023-1.055h0.609c0,0.469,0.008,0.82,0.023,1.055h1.852v0.563H91.26c0.047,0.797,0.125,1.43,0.234,1.898
		c0.219-0.328,0.477-0.828,0.773-1.5l0.563,0.234c-0.391,0.859-0.766,1.508-1.125,1.945c0.016,0.016,0.023,0.039,0.023,0.07
		c0.172,0.453,0.344,0.68,0.516,0.68c0.109,0,0.188-0.086,0.234-0.258c0.078-0.297,0.125-0.563,0.141-0.797
		c0.094,0.047,0.227,0.102,0.398,0.164c0.063,0.016,0.102,0.023,0.117,0.023c-0.047,0.422-0.102,0.727-0.164,0.914
		C92.846,119.467,92.612,119.663,92.268,119.663z M92.268,115.116c-0.234-0.219-0.477-0.43-0.727-0.633l0.422-0.305
		c0.266,0.188,0.516,0.391,0.75,0.609L92.268,115.116z"/>
	<path fill="#9B9B9B" d="M95.245,118.069v0.938c-0.047,0.531-0.32,0.797-0.82,0.797v-0.375c0.203-0.031,0.305-0.18,0.305-0.445
		h-0.375v-0.914H95.245z"/>
	<path fill="#9B9B9B" d="M99.838,119.709c-0.016-0.016-0.031-0.031-0.047-0.047c-0.172-0.141-0.297-0.234-0.375-0.281
		c0.25-0.328,0.367-0.953,0.352-1.875v-1.523l-0.047,0.07c-0.031-0.063-0.102-0.18-0.211-0.352
		c-0.047-0.047-0.078-0.086-0.094-0.117c0.438-0.406,0.781-0.906,1.031-1.5l0.539,0.094c-0.063,0.141-0.133,0.281-0.211,0.422h1.078
		v0.492l-0.375,0.516h0.563v3.422c0.016,0.391-0.172,0.586-0.563,0.586c-0.031,0-0.086,0-0.164,0
		c-0.125,0.016-0.219,0.023-0.281,0.023c0-0.031-0.016-0.086-0.047-0.164c-0.016-0.141-0.031-0.25-0.047-0.328h-0.258v-0.867h-0.445
		C100.206,118.858,100.073,119.334,99.838,119.709z M100.495,115.092c-0.016,0.031-0.047,0.078-0.094,0.141
		c-0.047,0.078-0.141,0.203-0.281,0.375h0.797l0.375-0.516H100.495z M100.26,116.077v0.633h0.422v-0.633H100.26z M100.26,117.506
		v0.305h0.422v-0.633h-0.422V117.506z M101.573,116.077h-0.445v0.633h0.445V116.077z M101.127,117.178v0.633h0.445v-0.633H101.127z
		 M101.315,119.124c0.188,0.016,0.273-0.063,0.258-0.234v-0.609h-0.445v0.844H101.315z M102.417,117.811v-2.625h0.961v-1.055h0.539
		v1.055h0.961v2.461h-0.961v1.148l0.469-0.047c-0.016-0.047-0.039-0.125-0.07-0.234c-0.047-0.141-0.086-0.242-0.117-0.305
		l0.445-0.141c0.047,0.156,0.125,0.375,0.234,0.656c0.156,0.375,0.258,0.648,0.305,0.82l-0.492,0.141l-0.141-0.469
		c-0.422,0.047-0.563,0.063-0.422,0.047c-0.859,0.094-1.469,0.156-1.828,0.188l-0.094-0.539c0.016,0,0.039,0,0.07,0
		c0.328-0.016,0.695-0.047,1.102-0.094v-1.172h-0.469v0.164H102.417z M102.909,115.725v1.383h0.516v-1.383H102.909z
		 M104.385,115.725h-0.516v1.383h0.516V115.725z"/>
	<path fill="#9B9B9B" d="M105.674,115.866v-0.586c0.109-0.219,0.242-0.547,0.398-0.984l0.609,0.094
		c-0.031,0.063-0.07,0.172-0.117,0.328c-0.109,0.281-0.188,0.477-0.234,0.586h1.031c0.125-0.422,0.219-0.828,0.281-1.219
		l0.656,0.047c-0.016,0.078-0.039,0.195-0.07,0.352c-0.078,0.359-0.148,0.633-0.211,0.82h3.094v0.563h-3.234
		c-0.063,0.203-0.133,0.414-0.211,0.633h2.859v0.516c-0.313,0.625-0.711,1.125-1.195,1.5c0.469,0.234,1.055,0.406,1.758,0.516
		c-0.125,0.234-0.234,0.445-0.328,0.633c-0.813-0.219-1.477-0.477-1.992-0.773c-0.594,0.297-1.289,0.57-2.086,0.82
		c-0.016-0.047-0.047-0.109-0.094-0.188c-0.047-0.109-0.117-0.242-0.211-0.398c0.734-0.156,1.352-0.359,1.852-0.609
		c-0.375-0.344-0.68-0.75-0.914-1.219c-0.422,0.797-0.969,1.5-1.641,2.109c-0.063-0.188-0.141-0.406-0.234-0.656
		c0.844-0.781,1.43-1.742,1.758-2.883H105.674z M109.776,117.038h-1.945c0.203,0.422,0.516,0.805,0.938,1.148
		C109.221,117.858,109.557,117.475,109.776,117.038z M109.987,115.303c-0.281-0.297-0.57-0.563-0.867-0.797l0.375-0.375
		c0.078,0.063,0.203,0.164,0.375,0.305c0.266,0.203,0.453,0.344,0.563,0.422L109.987,115.303z"/>
	<path fill="#9B9B9B" d="M114.088,117.108h2.344v2.602h-0.633v-0.258h-2.977v0.258h-0.609v-2.578
		c-0.125,0.047-0.25,0.109-0.375,0.188c-0.109-0.172-0.227-0.336-0.352-0.492c0.656-0.234,1.062-0.516,1.218-0.844h-1.171v-0.469
		h1.289c0.031-0.156,0.047-0.328,0.047-0.516h-0.563c-0.109,0.156-0.258,0.32-0.445,0.492c-0.031-0.031-0.07-0.07-0.117-0.117
		c-0.031-0.047-0.117-0.133-0.258-0.258c0.344-0.297,0.585-0.648,0.726-1.055l0.563,0.047c-0.047,0.156-0.109,0.297-0.188,0.422
		h1.688v0.469h-0.82c0,0.063-0.008,0.148-0.023,0.258c0,0.125-0.008,0.211-0.023,0.258h1.031v0.469h-1.102
		c0.172,0.109,0.438,0.273,0.797,0.492c0.125,0.078,0.219,0.133,0.281,0.164L114.088,117.108z M114.088,117.108
		c-0.188-0.141-0.445-0.328-0.773-0.563c-0.094-0.078-0.172-0.133-0.234-0.164c-0.141,0.25-0.422,0.492-0.844,0.727H114.088z
		 M112.822,117.6v0.492h2.977V117.6H112.822z M112.822,118.514v0.516h2.977v-0.516H112.822z M114.674,116.709v-2.227h2.18v2.227
		H114.674z M115.236,114.999v1.219h1.055v-1.219H115.236z"/>
	<path fill="#9B9B9B" d="M120.135,116.147c-0.063-0.109-0.133-0.211-0.211-0.305c-0.453,0.016-1.047,0.039-1.781,0.07
		c-0.063,0-0.148,0.008-0.258,0.023s-0.195,0.031-0.258,0.047l-0.211-0.516c0.156-0.078,0.289-0.188,0.398-0.328
		c0.313-0.313,0.594-0.68,0.844-1.102l0.633,0.211c-0.047,0.047-0.117,0.125-0.211,0.234c-0.359,0.422-0.641,0.734-0.844,0.938
		c0.141-0.016,0.359-0.023,0.656-0.023c0.297-0.016,0.516-0.023,0.656-0.023l-0.398-0.516l0.422-0.258
		c0.297,0.313,0.641,0.719,1.031,1.219L120.135,116.147z M117.744,119.663v-3.352h2.414v2.695c0.016,0.391-0.18,0.594-0.586,0.609
		c-0.047,0-0.141,0-0.281,0c-0.172,0.016-0.297,0.023-0.375,0.023c-0.016-0.078-0.031-0.188-0.047-0.328
		c-0.031-0.094-0.047-0.164-0.047-0.211c0.094,0.016,0.266,0.023,0.516,0.023c0.188,0,0.281-0.063,0.281-0.188v-0.352h-1.336v1.078
		H117.744z M118.283,116.78v0.469h1.336v-0.469H118.283z M118.283,117.67v0.469h1.336v-0.469H118.283z M121.424,116.709
		c-0.5,0-0.75-0.25-0.75-0.75v-1.828h0.586v0.867c0.422-0.156,0.891-0.375,1.406-0.656l0.328,0.445
		c-0.563,0.281-1.141,0.539-1.734,0.773v0.281c-0.016,0.234,0.102,0.344,0.352,0.328h0.469c0.234,0.016,0.367-0.078,0.398-0.281
		s0.055-0.398,0.07-0.586c0.031,0.016,0.086,0.031,0.164,0.047c0.094,0.031,0.219,0.078,0.375,0.141
		c-0.016,0.203-0.055,0.422-0.117,0.656c-0.063,0.375-0.32,0.563-0.773,0.563H121.424z M121.424,119.592
		c-0.5,0.016-0.75-0.227-0.75-0.727v-1.898h0.586v0.773c0.563-0.219,1.047-0.445,1.453-0.68l0.328,0.469
		c-0.422,0.219-1.016,0.484-1.781,0.797v0.422c0,0.219,0.117,0.32,0.352,0.305h0.492c0.234,0.016,0.359-0.063,0.375-0.234
		c0.031-0.172,0.055-0.383,0.07-0.633c0.063,0.016,0.148,0.047,0.258,0.094c0.125,0.047,0.219,0.078,0.281,0.094
		c-0.016,0.172-0.047,0.383-0.094,0.633v0.023c-0.094,0.375-0.352,0.563-0.773,0.563H121.424z"/>
	<path fill="#9B9B9B" d="M128.783,116.639c-0.391-0.188-0.695-0.352-0.914-0.492v0.422h-3.164v-0.375
		c-0.078,0.047-0.195,0.117-0.352,0.211c-0.25,0.141-0.438,0.25-0.563,0.328c-0.031-0.063-0.094-0.164-0.188-0.305
		c-0.078-0.125-0.133-0.219-0.164-0.281c1.234-0.578,2.117-1.273,2.648-2.086l0.75,0.047l-0.164,0.234
		c0.594,0.734,1.414,1.305,2.461,1.711C129.025,116.241,128.908,116.436,128.783,116.639z M124.189,119.709v-2.508h4.195v2.508
		h-0.633v-0.328h-2.93v0.328H124.189z M124.822,117.764v1.102h2.93v-1.102H124.822z M126.322,114.788
		c-0.375,0.453-0.828,0.859-1.359,1.219h2.695C127.158,115.678,126.713,115.272,126.322,114.788z"/>
	<path fill="#9B9B9B" d="M129.791,118.116l-0.188-0.539c0.141-0.094,0.281-0.242,0.422-0.445c0.172-0.203,0.336-0.422,0.492-0.656
		c-0.422,0-0.727,0.023-0.914,0.07l-0.164-0.539c0.125-0.078,0.242-0.219,0.352-0.422c0.328-0.547,0.594-1.047,0.797-1.5
		l0.609,0.188c-0.391,0.719-0.734,1.281-1.031,1.688c0.297,0,0.523-0.008,0.68-0.023c0.141-0.234,0.281-0.469,0.422-0.703
		l0.563,0.258c-0.438,0.719-0.891,1.383-1.359,1.992c0.109-0.016,0.305-0.039,0.586-0.07c0.266-0.031,0.453-0.047,0.563-0.047
		c0,0.031-0.008,0.078-0.023,0.141c-0.016,0.172-0.023,0.305-0.023,0.398c-0.469,0.031-0.914,0.078-1.336,0.141
		C130.08,118.061,129.932,118.084,129.791,118.116z M129.533,119.358l-0.094-0.563c0.969-0.094,1.742-0.188,2.32-0.281
		c0,0.063-0.008,0.164-0.023,0.305c0,0.125,0,0.203,0,0.234c-0.188,0.016-0.531,0.063-1.031,0.141
		C130.174,119.272,129.783,119.327,129.533,119.358z M132.064,116.522c-0.172-0.172-0.328-0.313-0.469-0.422
		c0.484-0.641,0.836-1.313,1.055-2.016l0.656,0.141c-0.016,0.031-0.031,0.07-0.047,0.117c-0.078,0.188-0.172,0.398-0.281,0.633
		h1.945c-0.016,1.031-0.055,2.219-0.117,3.563c0,0.688-0.367,1.023-1.102,1.008c-0.25,0.016-0.586,0.023-1.008,0.023
		c-0.016-0.094-0.039-0.242-0.07-0.445c-0.031-0.078-0.047-0.133-0.047-0.164c0.078,0,0.227,0,0.445,0
		c0.25,0.016,0.43,0.023,0.539,0.023c0.406,0.016,0.609-0.18,0.609-0.586c0.063-0.922,0.094-1.859,0.094-2.813h-1.594
		C132.486,115.913,132.283,116.225,132.064,116.522z M133.002,117.975c-0.266-0.422-0.555-0.836-0.867-1.242l0.469-0.305
		c0.406,0.5,0.711,0.898,0.914,1.195L133.002,117.975z"/>
	<path fill="#9B9B9B" d="M135.768,116.288c-0.047-0.094-0.141-0.234-0.281-0.422c-0.031-0.047-0.055-0.078-0.07-0.094
		c0.359-0.516,0.625-1.078,0.797-1.688l0.633,0.117c-0.094,0.234-0.188,0.453-0.281,0.656h0.867v0.516h-1.102
		c-0.094,0.188-0.203,0.375-0.328,0.563h1.313v0.516h-0.563v0.703h0.656v0.516h-0.656v1.031l0.656-0.422
		c0.016,0.063,0.031,0.156,0.047,0.281c0.016,0.141,0.023,0.242,0.023,0.305c-0.297,0.141-0.586,0.305-0.867,0.492
		c-0.094,0.047-0.188,0.117-0.281,0.211l-0.352-0.445c0.141-0.109,0.203-0.258,0.188-0.445v-1.008h-0.68v-0.516h0.68v-0.703h-0.352
		v-0.211L135.768,116.288z M140.783,119.686c-0.297-0.219-0.727-0.516-1.289-0.891c-0.094-0.078-0.172-0.133-0.234-0.164
		c-0.25,0.391-0.82,0.758-1.711,1.102c-0.031-0.047-0.078-0.125-0.141-0.234c-0.094-0.156-0.164-0.258-0.211-0.305
		c1.125-0.313,1.703-0.797,1.734-1.453c0.047-0.25,0.07-0.633,0.07-1.148h0.586c0,0.578-0.023,0.992-0.07,1.242
		c0,0.047-0.008,0.117-0.023,0.211c0.016-0.063,0.008-0.047-0.023,0.047c0.344,0.203,0.789,0.484,1.336,0.844
		c0.141,0.094,0.25,0.164,0.328,0.211L140.783,119.686z M138.205,115.514c-0.063-0.109-0.164-0.258-0.305-0.445
		c-0.141-0.203-0.25-0.352-0.328-0.445l0.445-0.281c0.109,0.141,0.266,0.336,0.469,0.586c0.078,0.109,0.141,0.195,0.188,0.258
		L138.205,115.514z M137.689,118.303v-2.625h1.289v-1.57h0.586v1.57h1.313v2.578h-0.563v-2.016h-2.063v2.063H137.689z
		 M140.361,115.514l-0.469-0.305c0.188-0.234,0.398-0.531,0.633-0.891l0.492,0.281c-0.016,0.031-0.047,0.078-0.094,0.141
		C140.705,115.069,140.518,115.327,140.361,115.514z"/>
	<path fill="#9B9B9B" d="M141.697,116.639v-0.563h5.203v0.563h-2.18v0.82h1.945v0.539h-1.945v0.984c0.688,0.016,1.492,0.016,2.414,0
		c-0.063,0.172-0.125,0.367-0.188,0.586c-0.281,0-0.711-0.008-1.289-0.023c-0.609,0-1.031-0.008-1.266-0.023
		c-0.797-0.031-1.375-0.32-1.734-0.867c-0.203,0.359-0.469,0.711-0.797,1.055c-0.047-0.078-0.141-0.188-0.281-0.328
		c-0.063-0.078-0.109-0.133-0.141-0.164c0.594-0.5,0.938-1.242,1.031-2.227l0.609,0.094c-0.047,0.313-0.109,0.609-0.188,0.891
		c0.297,0.563,0.695,0.891,1.195,0.984v-2.32H141.697z M146.268,115.819v-0.539h-3.938v0.539h-0.609v-1.102h2.297
		c-0.016-0.094-0.055-0.242-0.117-0.445c-0.016-0.063-0.031-0.109-0.047-0.141l0.75-0.07c0.047,0.188,0.094,0.406,0.141,0.656h2.156
		v1.102H146.268z"/>
</g>
<g>
	<path d="M97.385,17.195c-0.651-0.313-1.159-0.586-1.523-0.82v0.703h-5.273v-0.625c-0.131,0.078-0.326,0.195-0.586,0.352
		c-0.417,0.234-0.729,0.417-0.938,0.547c-0.053-0.104-0.156-0.273-0.313-0.508c-0.131-0.208-0.222-0.364-0.273-0.469
		c2.057-0.963,3.528-2.122,4.414-3.477l1.25,0.078l-0.273,0.391c0.989,1.225,2.356,2.175,4.102,2.852
		C97.788,16.531,97.593,16.857,97.385,17.195z M89.729,22.312v-4.18h6.992v4.18h-1.055v-0.547h-4.883v0.547H89.729z M90.783,19.07
		v1.836h4.883V19.07H90.783z M93.283,14.109c-0.625,0.756-1.381,1.433-2.266,2.031h4.492C94.676,15.593,93.934,14.917,93.283,14.109
		z"/>
	<path d="M99.064,19.656l-0.313-0.898c0.234-0.156,0.469-0.403,0.703-0.742c0.286-0.338,0.56-0.703,0.82-1.094
		c-0.703,0-1.211,0.039-1.523,0.117l-0.273-0.898c0.208-0.13,0.403-0.364,0.586-0.703c0.547-0.911,0.989-1.744,1.328-2.5
		l1.016,0.313c-0.651,1.198-1.225,2.136-1.719,2.813c0.494,0,0.872-0.013,1.133-0.039c0.234-0.391,0.469-0.781,0.703-1.172
		l0.938,0.43c-0.729,1.198-1.484,2.305-2.266,3.32c0.182-0.025,0.508-0.064,0.977-0.117c0.442-0.052,0.755-0.078,0.938-0.078
		c0,0.053-0.014,0.131-0.039,0.234c-0.026,0.287-0.039,0.508-0.039,0.664c-0.781,0.053-1.523,0.131-2.227,0.234
		C99.546,19.565,99.299,19.604,99.064,19.656z M98.635,21.726l-0.156-0.938c1.614-0.156,2.903-0.313,3.867-0.469
		c0,0.104-0.014,0.273-0.039,0.508c0,0.209,0,0.339,0,0.391c-0.313,0.025-0.886,0.104-1.719,0.234
		C99.702,21.583,99.051,21.673,98.635,21.726z M102.854,17c-0.287-0.286-0.547-0.521-0.781-0.703
		c0.807-1.067,1.393-2.188,1.758-3.359l1.094,0.234c-0.026,0.053-0.053,0.117-0.078,0.195c-0.131,0.313-0.287,0.664-0.469,1.055
		h3.242c-0.026,1.719-0.092,3.698-0.195,5.938c0,1.146-0.612,1.705-1.836,1.68c-0.417,0.025-0.977,0.039-1.68,0.039
		c-0.026-0.156-0.065-0.404-0.117-0.742c-0.053-0.131-0.078-0.221-0.078-0.273c0.13,0,0.377,0,0.742,0
		c0.416,0.026,0.716,0.039,0.898,0.039c0.677,0.026,1.016-0.299,1.016-0.977c0.104-1.536,0.156-3.099,0.156-4.688h-2.656
		C103.557,15.984,103.218,16.505,102.854,17z M104.416,19.421c-0.443-0.703-0.925-1.393-1.445-2.07l0.781-0.508
		c0.677,0.834,1.185,1.498,1.523,1.992L104.416,19.421z"/>
	<path d="M115.549,19.226c-0.026-0.078-0.053-0.182-0.078-0.313c-0.053-0.26-0.104-0.469-0.156-0.625c0.182,0,0.391,0,0.625,0
		c0.313,0.026,0.481-0.169,0.508-0.586c0.052-0.781,0.078-1.419,0.078-1.914l-1.328,0.391v4.102h-0.977v-3.828l-1.25,0.391v3.477
		c-0.053,0.573,0.234,0.847,0.859,0.82h2.031c0.625,0.026,0.963-0.182,1.016-0.625c0.078-0.364,0.143-0.742,0.195-1.133
		c0.26,0.131,0.572,0.248,0.938,0.352c-0.078,0.521-0.17,0.977-0.273,1.367c-0.131,0.625-0.651,0.924-1.563,0.898h-2.734
		c-0.99,0.025-1.472-0.417-1.445-1.328v-3.516l-0.664,0.195l-0.156-0.82h-0.664v3.32c0.078-0.025,0.195-0.052,0.352-0.078
		c0.286-0.078,0.521-0.13,0.703-0.156c0,0.313,0.013,0.639,0.039,0.977c-0.261,0.053-0.729,0.17-1.406,0.352
		c-0.703,0.156-1.225,0.273-1.563,0.352l-0.195-0.977l1.133-0.234v-3.555h-0.938v-0.977h0.938v-2.578h0.938v2.578h0.859v0.742
		l0.625-0.156v-2.148h0.977v1.836l1.25-0.352v-2.5h0.977v2.227l2.305-0.664c0,1.459-0.039,2.565-0.117,3.32
		c0,0.859-0.313,1.289-0.938,1.289C116.213,19.201,115.913,19.226,115.549,19.226z"/>
	<path d="M118.635,16.375v-0.977h1.094v-2.422h1.016v2.422h1.055v0.977h-1.055v3.242l1.172-0.352c-0.026,0.156-0.026,0.391,0,0.703
		c0,0.131,0,0.234,0,0.313c-0.261,0.078-0.729,0.209-1.406,0.391c-0.834,0.261-1.445,0.43-1.836,0.508l-0.195-0.977l1.25-0.313
		v-3.516H118.635z M121.174,21.804v-0.898h1.289v-5.938h1.016v5.938h1.289v-7.93h1.094v2.852h1.797v0.977h-1.797v4.102h2.109v0.898
		H121.174z"/>
</g>
</svg>
