<?xml version="1.0" encoding="utf-8"?>
<!-- Generator: Adobe Illustrator 16.0.0, SVG Export Plug-In . SVG Version: 6.00 Build 0)  -->
<!DOCTYPE svg PUBLIC "-//W3C//DTD SVG 1.1//EN" "http://www.w3.org/Graphics/SVG/1.1/DTD/svg11.dtd">
<svg version="1.1" id="图层_1" xmlns="http://www.w3.org/2000/svg" xmlns:xlink="http://www.w3.org/1999/xlink" x="0px" y="0px"
	 width="284.518px" height="189.246px" viewBox="0 0 284.518 189.246" enable-background="new 0 0 284.518 189.246"
	 xml:space="preserve">
<path fill="#D9DBDB" d="M172.786,10.633h53.494c5.425,0,9.839,4.414,9.839,9.838v59.662h3V20.471
	c0-7.079-5.759-12.838-12.839-12.838h-53.494c-0.283,0-0.561,0.024-0.838,0.042v3C172.225,10.652,172.503,10.633,172.786,10.633"/>
<path fill="#D7C42A" d="M59.115,93.353v74.494c0,5.425,4.414,9.839,9.838,9.839h6.662v3h-6.662c-7.079,0-12.838-5.759-12.838-12.839
	V93.353c0-0.283,0.024-0.56,0.042-0.838h3C59.134,92.792,59.115,93.069,59.115,93.353"/>
<path fill="#D7C42A" d="M59.115,109.983V20.489c0-5.425,4.414-9.839,9.838-9.839h6.662v-3h-6.662
	c-7.079,0-12.838,5.759-12.838,12.839v89.494c0,0.283,0.024,0.56,0.042,0.838h3C59.134,110.544,59.115,110.267,59.115,109.983"/>
<polygon fill="#D9DBDB" points="242.046,78.742 237.619,86.409 233.192,78.742 "/>
<path fill="none" stroke="#181919" stroke-miterlimit="10" d="M163.188,101.129c0,5.319-4.313,9.633-9.633,9.633H92.302
	c-5.321,0-9.633-4.313-9.633-9.633c0-5.32,4.312-9.633,9.633-9.633h61.253C158.875,91.496,163.188,95.809,163.188,101.129z"/>
<g>
	<path fill="#181919" d="M92.077,179.606h3.906v4.336h-1.055v-0.43h-4.961v0.43h-1.016v-4.297c-0.208,0.078-0.417,0.183-0.625,0.313
		c-0.183-0.286-0.378-0.56-0.586-0.82c1.094-0.391,1.771-0.859,2.031-1.406h-1.953v-0.781h2.148c0.052-0.26,0.078-0.547,0.078-0.859
		h-0.938c-0.183,0.261-0.43,0.534-0.742,0.82c-0.052-0.052-0.117-0.117-0.195-0.195c-0.052-0.078-0.195-0.221-0.43-0.43
		c0.573-0.494,0.977-1.08,1.211-1.758l0.938,0.078c-0.078,0.261-0.183,0.495-0.313,0.703h2.813v0.781h-1.367
		c0,0.104-0.013,0.248-0.039,0.43c0,0.209-0.013,0.352-0.039,0.43h1.719v0.781h-1.836c0.286,0.183,0.729,0.456,1.328,0.82
		c0.208,0.131,0.364,0.222,0.469,0.273L92.077,179.606z M92.077,179.606c-0.313-0.234-0.742-0.547-1.289-0.938
		c-0.156-0.13-0.287-0.221-0.391-0.273c-0.234,0.417-0.703,0.82-1.406,1.211H92.077z M89.967,180.427v0.82h4.961v-0.82H89.967z
		 M89.967,181.95v0.859h4.961v-0.859H89.967z M93.053,178.942v-3.711h3.633v3.711H93.053z M93.991,176.091v2.031h1.758v-2.031
		H93.991z"/>
	<path fill="#181919" d="M102.155,178.005c-0.104-0.182-0.222-0.352-0.352-0.508c-0.755,0.026-1.745,0.065-2.969,0.117
		c-0.104,0-0.248,0.014-0.43,0.039c-0.183,0.026-0.326,0.053-0.43,0.078l-0.352-0.859c0.26-0.13,0.481-0.313,0.664-0.547
		c0.521-0.521,0.989-1.133,1.406-1.836l1.055,0.352c-0.078,0.078-0.195,0.209-0.352,0.391c-0.599,0.703-1.068,1.225-1.406,1.563
		c0.234-0.025,0.599-0.039,1.094-0.039c0.495-0.025,0.859-0.039,1.094-0.039l-0.664-0.859l0.703-0.43
		c0.495,0.521,1.067,1.198,1.719,2.031L102.155,178.005z M98.17,183.864v-5.586h4.023v4.492c0.026,0.65-0.3,0.989-0.977,1.016
		c-0.078,0-0.234,0-0.469,0c-0.287,0.025-0.495,0.039-0.625,0.039c-0.026-0.131-0.052-0.313-0.078-0.547
		c-0.052-0.156-0.078-0.273-0.078-0.352c0.156,0.025,0.442,0.039,0.859,0.039c0.313,0,0.469-0.104,0.469-0.313v-0.586h-2.227v1.797
		H98.17z M99.069,179.06v0.781h2.227v-0.781H99.069z M99.069,180.544v0.781h2.227v-0.781H99.069z M104.303,178.942
		c-0.833,0-1.25-0.416-1.25-1.25v-3.047h0.977v1.445c0.703-0.26,1.484-0.625,2.344-1.094l0.547,0.742
		c-0.938,0.469-1.901,0.898-2.891,1.289v0.469c-0.026,0.391,0.169,0.573,0.586,0.547h0.781c0.391,0.026,0.612-0.13,0.664-0.469
		c0.052-0.338,0.091-0.664,0.117-0.977c0.052,0.026,0.143,0.053,0.273,0.078c0.156,0.053,0.364,0.131,0.625,0.234
		c-0.026,0.339-0.091,0.703-0.195,1.094c-0.104,0.625-0.534,0.938-1.289,0.938H104.303z M104.303,183.747
		c-0.833,0.025-1.25-0.378-1.25-1.211v-3.164h0.977v1.289c0.938-0.364,1.745-0.742,2.422-1.133l0.547,0.781
		c-0.703,0.365-1.693,0.808-2.969,1.328v0.703c0,0.365,0.195,0.533,0.586,0.508h0.82c0.391,0.025,0.599-0.104,0.625-0.391
		c0.052-0.286,0.091-0.638,0.117-1.055c0.104,0.026,0.247,0.078,0.43,0.156c0.208,0.078,0.364,0.131,0.469,0.156
		c-0.026,0.287-0.078,0.639-0.156,1.055v0.039c-0.156,0.625-0.586,0.938-1.289,0.938H104.303z"/>
	<path fill="#181919" d="M116.569,178.825c-0.651-0.313-1.159-0.586-1.523-0.82v0.703h-5.273v-0.625
		c-0.13,0.078-0.326,0.195-0.586,0.352c-0.417,0.234-0.729,0.417-0.938,0.547c-0.052-0.104-0.156-0.273-0.313-0.508
		c-0.13-0.208-0.222-0.364-0.273-0.469c2.057-0.963,3.528-2.122,4.414-3.477l1.25,0.078l-0.273,0.391
		c0.989,1.225,2.356,2.175,4.102,2.852C116.972,178.161,116.777,178.487,116.569,178.825z M108.913,183.942v-4.18h6.992v4.18h-1.055
		v-0.547h-4.883v0.547H108.913z M109.967,180.7v1.836h4.883V180.7H109.967z M112.467,175.739c-0.625,0.756-1.38,1.433-2.266,2.031
		h4.492C113.86,177.224,113.118,176.547,112.467,175.739z"/>
	<path fill="#181919" d="M118.249,181.286l-0.313-0.898c0.234-0.156,0.469-0.403,0.703-0.742c0.286-0.338,0.56-0.703,0.82-1.094
		c-0.703,0-1.211,0.039-1.523,0.117l-0.273-0.898c0.208-0.13,0.403-0.364,0.586-0.703c0.547-0.911,0.989-1.744,1.328-2.5
		l1.016,0.313c-0.651,1.198-1.224,2.136-1.719,2.813c0.495,0,0.872-0.013,1.133-0.039c0.234-0.391,0.469-0.781,0.703-1.172
		l0.938,0.43c-0.729,1.198-1.484,2.305-2.266,3.32c0.182-0.025,0.508-0.064,0.977-0.117c0.442-0.052,0.755-0.078,0.938-0.078
		c0,0.053-0.013,0.131-0.039,0.234c-0.026,0.287-0.039,0.508-0.039,0.664c-0.781,0.053-1.523,0.131-2.227,0.234
		C118.73,181.195,118.483,181.234,118.249,181.286z M117.819,183.356l-0.156-0.938c1.614-0.156,2.903-0.313,3.867-0.469
		c0,0.104-0.013,0.273-0.039,0.508c0,0.209,0,0.339,0,0.391c-0.313,0.025-0.886,0.104-1.719,0.234
		C118.886,183.213,118.235,183.304,117.819,183.356z M122.038,178.63c-0.287-0.286-0.547-0.521-0.781-0.703
		c0.807-1.067,1.393-2.188,1.758-3.359l1.094,0.234c-0.026,0.053-0.052,0.117-0.078,0.195c-0.13,0.313-0.287,0.664-0.469,1.055
		h3.242c-0.026,1.719-0.091,3.698-0.195,5.938c0,1.146-0.612,1.705-1.836,1.68c-0.417,0.025-0.977,0.039-1.68,0.039
		c-0.026-0.156-0.065-0.404-0.117-0.742c-0.052-0.131-0.078-0.221-0.078-0.273c0.13,0,0.377,0,0.742,0
		c0.417,0.026,0.716,0.039,0.898,0.039c0.677,0.026,1.016-0.299,1.016-0.977c0.104-1.536,0.156-3.099,0.156-4.688h-2.656
		C122.741,177.614,122.402,178.136,122.038,178.63z M123.6,181.052c-0.443-0.703-0.925-1.393-1.445-2.07l0.781-0.508
		c0.677,0.834,1.185,1.498,1.523,1.992L123.6,181.052z"/>
	<path fill="#181919" d="M134.967,184.216h-1.25c-1.302-1.406-1.966-3.047-1.992-4.922c0.078-1.953,0.742-3.633,1.992-5.039h1.211
		c-1.25,1.537-1.901,3.217-1.953,5.039C132.975,181.144,133.639,182.784,134.967,184.216z"/>
	<path fill="#181919" d="M139.811,183.005v-1.445h-0.781c-0.052,0.886-0.273,1.68-0.664,2.383c-0.078-0.053-0.183-0.131-0.313-0.234
		c-0.208-0.156-0.352-0.261-0.43-0.313c0.442-0.599,0.651-1.641,0.625-3.125v-2.461l-0.078,0.078
		c-0.052-0.078-0.13-0.208-0.234-0.391c-0.13-0.182-0.222-0.313-0.273-0.391c0.703-0.729,1.263-1.575,1.68-2.539l0.938,0.156
		c-0.052,0.131-0.13,0.287-0.234,0.469c-0.052,0.104-0.091,0.183-0.117,0.234h1.875v0.82l-0.547,0.859h0.898v5.703
		c0.026,0.625-0.299,0.95-0.976,0.977c-0.052,0-0.144,0-0.273,0c-0.208,0.025-0.365,0.039-0.469,0.039
		c0-0.053-0.026-0.144-0.078-0.273c-0.026-0.234-0.052-0.417-0.078-0.547H139.811z M139.459,176.247
		c-0.078,0.156-0.234,0.391-0.469,0.703c-0.052,0.078-0.091,0.131-0.117,0.156h1.367l0.586-0.859H139.459z M139.069,180.271
		c0,0.183-0.013,0.352-0.039,0.508h0.781v-1.055h-0.742V180.271z M139.069,177.888v1.055h0.742v-1.055H139.069z M141.374,177.888
		h-0.781v1.055h0.781V177.888z M140.592,179.724v1.055h0.781v-1.055H140.592z M140.866,182.966c0.364,0.025,0.534-0.104,0.508-0.391
		v-1.016h-0.781v1.406C140.696,182.966,140.788,182.966,140.866,182.966z M142.896,178.435c-0.208-0.234-0.43-0.455-0.664-0.664
		c0.912-0.442,1.354-1.067,1.328-1.875h-0.938v-0.82h4.18l-0.078,1.836c-0.052,0.781-0.442,1.172-1.172,1.172
		c-0.364,0-0.703,0-1.016,0l-0.156-0.82c0.313,0,0.6,0,0.859,0c0.365,0,0.547-0.169,0.547-0.508
		c0.026-0.208,0.039-0.494,0.039-0.859h-1.328C144.524,176.989,143.99,177.836,142.896,178.435z M143.053,181.013
		c-0.234-0.13-0.481-0.234-0.742-0.313c0.365-0.65,0.612-1.38,0.742-2.188l0.82,0.117c0,0.078-0.025,0.195-0.078,0.352
		c-0.025,0.156-0.052,0.273-0.078,0.352h0.82v-0.938h0.898v0.938h1.484v0.82h-1.484v1.172h1.68v0.859h-1.68v1.719h-0.898v-1.719
		h-2.148v-0.859h2.148v-1.172h-1.094C143.34,180.466,143.209,180.753,143.053,181.013z"/>
	<path fill="#181919" d="M148.209,178.239c-0.078-0.156-0.234-0.391-0.469-0.703c-0.053-0.078-0.092-0.13-0.117-0.156
		c0.599-0.859,1.041-1.797,1.328-2.813l1.055,0.195c-0.156,0.391-0.313,0.756-0.469,1.094h1.445v0.859h-1.836
		c-0.156,0.313-0.339,0.625-0.547,0.938h2.188v0.859h-0.938v1.172h1.094v0.859h-1.094v1.719l1.094-0.703
		c0.025,0.104,0.052,0.261,0.078,0.469c0.025,0.234,0.039,0.404,0.039,0.508c-0.495,0.234-0.977,0.508-1.445,0.82
		c-0.156,0.078-0.313,0.195-0.469,0.352l-0.586-0.742c0.234-0.182,0.338-0.43,0.313-0.742v-1.68h-1.133v-0.859h1.133v-1.172h-0.586
		v-0.352L148.209,178.239z M156.568,183.903c-0.495-0.365-1.211-0.859-2.148-1.484c-0.156-0.13-0.287-0.221-0.391-0.273
		c-0.417,0.651-1.367,1.263-2.852,1.836c-0.053-0.078-0.131-0.209-0.234-0.391c-0.156-0.261-0.273-0.43-0.352-0.508
		c1.875-0.521,2.838-1.328,2.891-2.422c0.078-0.416,0.117-1.055,0.117-1.914h0.977c0,0.964-0.039,1.654-0.117,2.07
		c0,0.078-0.014,0.195-0.039,0.352c0.025-0.104,0.013-0.078-0.039,0.078c0.572,0.339,1.314,0.808,2.227,1.406
		c0.234,0.156,0.416,0.273,0.547,0.352L156.568,183.903z M152.271,176.95c-0.104-0.182-0.273-0.43-0.508-0.742
		c-0.234-0.338-0.417-0.586-0.547-0.742l0.742-0.469c0.182,0.234,0.442,0.561,0.781,0.977c0.13,0.183,0.234,0.326,0.313,0.43
		L152.271,176.95z M151.412,181.599v-4.375h2.148v-2.617h0.977v2.617h2.188v4.297h-0.938v-3.359h-3.438v3.438H151.412z
		 M155.865,176.95l-0.781-0.508c0.313-0.391,0.664-0.885,1.055-1.484l0.82,0.469c-0.026,0.053-0.078,0.131-0.156,0.234
		C156.438,176.208,156.125,176.638,155.865,176.95z"/>
	<path fill="#181919" d="M161.139,184.216h-1.211c1.302-1.381,1.953-3.021,1.953-4.922c-0.053-1.822-0.703-3.502-1.953-5.039h1.25
		c1.224,1.381,1.875,3.061,1.953,5.039C163.104,181.169,162.44,182.81,161.139,184.216z"/>
</g>
<path fill="none" stroke="#181919" stroke-miterlimit="10" d="M170.947,179.113c0,5.319-4.313,9.633-9.633,9.633H88.062
	c-5.321,0-9.633-4.313-9.633-9.633c0-5.32,4.312-9.633,9.633-9.633h73.253C166.635,169.48,170.947,173.793,170.947,179.113z"/>
<path fill="none" stroke="#181919" stroke-miterlimit="10" d="M284.018,101.129c0,5.319-4.313,9.633-9.633,9.633h-79.259
	c-5.321,0-9.634-4.313-9.634-9.633c0-5.32,4.313-9.633,9.634-9.633h79.259C279.704,91.496,284.018,95.809,284.018,101.129z"/>
<rect x="122.688" y="24.008" fill="#D7C42A" width="3" height="57.25"/>
<polygon fill="#D7C42A" points="128.614,78.742 124.188,86.409 119.761,78.742 "/>
<polygon fill="#D7C42A" points="73.708,4.207 81.375,8.632 73.708,13.06 "/>
<rect x="122.688" y="114.568" fill="#D7C42A" width="3" height="44.25"/>
<polygon fill="#D7C42A" points="128.614,156.303 124.188,163.97 119.761,156.303 "/>
<rect x="89.688" y="49.882" fill="#FFFFFF" width="66" height="11.756"/>
<g>
	<path fill="#9B9B9B" d="M80.978,57.498v-0.563h1.195V56.35h0.609v0.586h1.172v0.563h-1.172v0.844l1.313-0.141
		c-0.016,0.125-0.023,0.305-0.023,0.539c-0.25,0.031-0.625,0.07-1.125,0.117c-0.859,0.094-1.531,0.172-2.016,0.234l-0.094-0.586
		c0.25-0.016,0.648-0.047,1.195-0.094c-0.375,0.031-0.328,0.023,0.141-0.023v-0.891H80.978z M80.908,54.521v-0.563h3.164v0.563
		h-1.523c-0.016,0.031-0.047,0.078-0.094,0.141c-0.281,0.438-0.508,0.766-0.68,0.984c0.172-0.016,0.445-0.031,0.82-0.047
		c0.234-0.016,0.414-0.023,0.539-0.023c-0.094-0.172-0.211-0.352-0.352-0.539l0.469-0.258c0.031,0.063,0.086,0.148,0.164,0.258
		c0.344,0.5,0.586,0.867,0.727,1.102l-0.492,0.305c-0.078-0.125-0.141-0.242-0.188-0.352c-0.859,0.031-1.461,0.063-1.805,0.094
		c-0.078,0-0.195,0.016-0.352,0.047c-0.078,0.016-0.133,0.023-0.164,0.023l-0.211-0.539c0.109-0.063,0.195-0.125,0.258-0.188
		c0.234-0.297,0.461-0.633,0.68-1.008H80.908z M84.376,57.85v-3.539h0.586v3.539H84.376z M84.611,59.186
		c-0.031-0.234-0.07-0.43-0.117-0.586c0.281,0,0.539,0,0.773,0c0.25,0,0.367-0.125,0.352-0.375v-4.523h0.633v4.688
		c0.031,0.516-0.219,0.781-0.75,0.797C85.22,59.186,84.923,59.186,84.611,59.186z"/>
	<path fill="#9B9B9B" d="M86.908,54.826v-0.516h0.375v-0.586h0.586v0.586H88.9v-0.609h0.586v0.609h0.375v0.516h-0.375v2.555h0.445
		v0.516h-3.094v-0.516h0.445v-2.555H86.908z M87.283,59.256c-0.219-0.219-0.367-0.352-0.445-0.398
		c0.391-0.344,0.688-0.648,0.891-0.914l0.492,0.328C87.892,58.646,87.58,58.975,87.283,59.256z M87.869,54.826v0.539H88.9v-0.539
		H87.869z M87.869,55.834v0.539H88.9v-0.539H87.869z M87.869,56.842v0.539H88.9v-0.539H87.869z M89.205,59.068
		c-0.078-0.094-0.203-0.234-0.375-0.422c-0.141-0.156-0.25-0.281-0.328-0.375l0.422-0.328c0.266,0.266,0.508,0.5,0.727,0.703
		c0.359-0.453,0.523-1.25,0.492-2.391v-2.391h2.109v4.711c0,0.391-0.188,0.594-0.563,0.609c-0.063,0-0.18,0-0.352,0
		c-0.172,0.016-0.297,0.023-0.375,0.023c-0.016-0.047-0.039-0.148-0.07-0.305c-0.031-0.125-0.055-0.219-0.07-0.281
		c0.203,0.016,0.383,0.023,0.539,0.023c0.219,0.016,0.32-0.07,0.305-0.258v-0.984h-0.984c-0.063,0.719-0.297,1.352-0.703,1.898
		c-0.094-0.078-0.227-0.18-0.398-0.305c-0.047-0.047-0.086-0.078-0.117-0.094c0.016-0.016,0.039-0.039,0.07-0.07
		c0.016-0.031,0.031-0.055,0.047-0.07L89.205,59.068z M90.728,56.303c0,0.188-0.008,0.375-0.023,0.563h0.961v-0.938h-0.938V56.303z
		 M90.728,54.451v0.938h0.938v-0.938H90.728z"/>
	<path fill="#9B9B9B" d="M92.978,57.17c-0.016-0.109-0.047-0.273-0.094-0.492c-0.031-0.156-0.055-0.273-0.07-0.352
		c0.453-0.719,0.82-1.594,1.102-2.625l0.609,0.164c-0.125,0.438-0.281,0.859-0.469,1.266v4.125h-0.563V56.35
		C93.337,56.631,93.166,56.904,92.978,57.17z M94.431,56.045v-1.078h1.664v-1.266h0.633v1.266h1.711v1.078h-0.633v-0.563h-2.789
		v0.563H94.431z M97.947,59.256l-0.281-0.305c-0.672,0-1.414,0.031-2.227,0.094c-0.25,0.016-0.469,0.047-0.656,0.094L94.525,58.6
		c0.172-0.047,0.344-0.156,0.516-0.328c0.188-0.188,0.375-0.398,0.563-0.633h-1.148V57.1h3.961v0.539H96.33
		c-0.359,0.422-0.641,0.727-0.844,0.914l1.711-0.047l-0.445-0.492l0.422-0.305c0.109,0.109,0.281,0.273,0.516,0.492
		c0.359,0.328,0.602,0.563,0.727,0.703L97.947,59.256z M95.322,54.896c-0.281-0.344-0.492-0.586-0.633-0.727l0.422-0.305
		c0.047,0.047,0.117,0.117,0.211,0.211c0.219,0.203,0.375,0.359,0.469,0.469L95.322,54.896z M94.994,56.584v-0.539h2.836v0.539
		H94.994z M97.501,54.92l-0.445-0.352c0.266-0.234,0.492-0.469,0.68-0.703l0.469,0.328c-0.078,0.078-0.203,0.203-0.375,0.375
		C97.673,54.74,97.564,54.857,97.501,54.92z"/>
	<path fill="#9B9B9B" d="M99.095,59.232L98.814,58.6c0.078-0.078,0.203-0.195,0.375-0.352c0.125-0.125,0.219-0.219,0.281-0.281
		v-1.711h-0.609v-0.609h1.242v2.297c0.203,0.406,0.602,0.609,1.195,0.609c1.406,0,2.477-0.008,3.211-0.023
		c-0.016,0.063-0.047,0.156-0.094,0.281c-0.031,0.141-0.063,0.242-0.094,0.305c-1.078,0-2.133-0.016-3.164-0.047
		c-0.656-0.016-1.109-0.219-1.359-0.609c-0.156,0.125-0.352,0.336-0.586,0.633C99.166,59.154,99.126,59.201,99.095,59.232z
		 M99.798,55.131c-0.219-0.375-0.461-0.75-0.727-1.125l0.516-0.281c0.016,0.016,0.039,0.047,0.07,0.094
		c0.313,0.406,0.539,0.734,0.68,0.984L99.798,55.131z M100.595,54.686V54.1h3.75v0.586h-1.5c-0.141,0.328-0.297,0.633-0.469,0.914
		h0.328v2.672h-0.656v-2.18c-0.359,0.469-0.836,0.945-1.43,1.43c-0.031-0.047-0.086-0.125-0.164-0.234
		c-0.109-0.125-0.188-0.219-0.234-0.281c0.922-0.688,1.57-1.461,1.945-2.32H100.595z M104.017,57.381
		c-0.188-0.234-0.469-0.547-0.844-0.938c-0.156-0.188-0.281-0.328-0.375-0.422l0.445-0.352c0.484,0.453,0.906,0.883,1.266,1.289
		L104.017,57.381z"/>
	<path fill="#9B9B9B" d="M110.064,54.053h0.797v2.813c0.047,1.469-0.633,2.172-2.039,2.109c-1.344,0.047-2-0.656-1.969-2.109v-2.813
		h0.797v2.813c-0.016,0.984,0.375,1.461,1.172,1.43c0.859,0.031,1.273-0.445,1.242-1.43V54.053z"/>
	<path fill="#9B9B9B" d="M115.619,55.295l-0.82,0.234c-0.141-0.594-0.5-0.883-1.078-0.867c-0.656,0-0.992,0.219-1.008,0.656
		c-0.063,0.313,0.305,0.539,1.102,0.68c1.328,0.25,1.977,0.773,1.945,1.57c-0.047,0.906-0.68,1.375-1.898,1.406
		c-1.219,0.047-1.938-0.453-2.156-1.5l0.797-0.234c0.078,0.719,0.523,1.063,1.336,1.031c0.719,0,1.078-0.242,1.078-0.727
		c0.063-0.359-0.344-0.625-1.219-0.797c-1.266-0.25-1.875-0.727-1.828-1.43c0.047-0.875,0.656-1.328,1.828-1.359
		C114.759,53.975,115.4,54.42,115.619,55.295z"/>
	<path fill="#9B9B9B" d="M118.361,58.881h-1.758v-4.852h1.805c1.578,0.016,2.375,0.828,2.391,2.438
		C120.845,58.123,120.033,58.928,118.361,58.881z M118.384,54.756H117.4v3.469h0.961c1.094,0.016,1.633-0.563,1.617-1.734
		C119.962,55.35,119.431,54.771,118.384,54.756z"/>
	<path fill="#9B9B9B" d="M125.345,54.756h-1.617v4.148h-0.797v-4.148h-1.641v-0.703h4.055V54.756z"/>
	<path fill="#9B9B9B" d="M130.745,59.443h-0.75c-0.781-0.844-1.179-1.828-1.194-2.953c0.047-1.172,0.445-2.18,1.194-3.023h0.727
		c-0.75,0.922-1.14,1.93-1.171,3.023C129.55,57.6,129.949,58.584,130.745,59.443z"/>
	<path fill="#9B9B9B" d="M166.462,59.443h-0.727c0.781-0.828,1.172-1.813,1.172-2.953c-0.031-1.094-0.422-2.102-1.172-3.023h0.75
		c0.734,0.828,1.125,1.836,1.172,3.023C167.642,57.615,167.243,58.6,166.462,59.443z"/>
</g>
<g>
	<path fill="#9B9B9B" d="M133.561,54.676V54.09h5.672v0.586h-0.773v3.656c0.016,0.563-0.281,0.859-0.891,0.891
		c-0.344,0-0.695,0-1.055,0c-0.031-0.188-0.07-0.383-0.117-0.586c0.328,0,0.625,0,0.891,0c0.375,0.016,0.547-0.148,0.516-0.492
		v-3.469H133.561z M134.17,58.262v-2.813h2.648v2.414h-2.016v0.398H134.17z M134.803,55.988v1.336h1.383v-1.336H134.803z"/>
	<path fill="#9B9B9B" d="M139.608,55.426V54.84h0.633v-1.125h0.563v1.125h0.539v0.586h-0.539v0.914l0.492-0.164
		c0,0.219,0.008,0.422,0.023,0.609l-0.516,0.164v1.57c0.016,0.469-0.18,0.711-0.586,0.727c-0.125,0.016-0.289,0.023-0.492,0.023
		c-0.031-0.219-0.07-0.422-0.117-0.609c0.109,0,0.234,0,0.375,0c0.172,0.016,0.258-0.07,0.258-0.258V57.16
		c-0.203,0.063-0.414,0.133-0.633,0.211l-0.07-0.633c0.234-0.078,0.469-0.148,0.703-0.211v-1.102H139.608z M141.319,57.043v-0.492
		h3.869v0.492h-1.618v0.539H145v0.469h-1.431v0.609c0.501,0,1.063,0,1.688,0c-0.047,0.172-0.094,0.336-0.141,0.492
		c-0.594,0-1.181,0-1.759,0c-0.625,0-1.078-0.227-1.36-0.68c-0.125,0.281-0.328,0.563-0.609,0.844
		c-0.141-0.094-0.297-0.203-0.469-0.328c0.469-0.406,0.727-0.984,0.773-1.734l0.563,0.047c-0.016,0.203-0.039,0.391-0.07,0.563
		c0.219,0.438,0.492,0.695,0.82,0.773v-1.594H141.319z M141.717,56.176v-2.227h3.072v2.227H141.717z M142.28,54.418v0.422h1.923
		v-0.422H142.28z M142.28,55.262v0.445h1.923v-0.445H142.28z"/>
	<path fill="#9B9B9B" d="M145.586,54.98v-0.539h1.548l-0.469-0.609l0.633-0.141c0.156,0.156,0.359,0.406,0.609,0.75h-0.023h1.032
		c0.219-0.281,0.406-0.531,0.563-0.75l0.681,0.141c-0.047,0.063-0.133,0.172-0.259,0.328c-0.109,0.125-0.188,0.219-0.234,0.281
		h1.548v0.539H145.586z M145.938,59.316v-3.844h2.557v3.07c0.016,0.422-0.203,0.648-0.657,0.68c-0.188,0-0.43,0-0.727,0
		c0-0.063-0.016-0.156-0.047-0.281c-0.016-0.125-0.031-0.219-0.047-0.281c0.109,0.016,0.305,0.023,0.586,0.023
		c0.219,0.016,0.32-0.063,0.305-0.234v-0.422h-1.406v1.289H145.938z M146.501,55.988v0.539h1.406v-0.539H146.501z M146.501,56.996
		v0.539h1.406v-0.539H146.501z M149.08,58.168V55.59h0.539v2.578H149.08z M149.291,59.223l-0.094-0.586c0.063,0,0.156,0,0.281,0
		c0.156,0.016,0.281,0.023,0.375,0.023c0.298,0.016,0.438-0.109,0.423-0.375v-2.953h0.586v3.094c0.031,0.531-0.219,0.797-0.75,0.797
		C149.846,59.223,149.572,59.223,149.291,59.223z"/>
	<path fill="#9B9B9B" d="M151.823,59.27l-0.281-0.633c0.078-0.078,0.203-0.195,0.375-0.352c0.125-0.125,0.219-0.219,0.281-0.281
		v-1.711h-0.609v-0.609h1.242v2.297c0.203,0.406,0.602,0.609,1.195,0.609c1.406,0,2.477-0.008,3.211-0.023
		c-0.016,0.063-0.047,0.156-0.094,0.281c-0.031,0.141-0.063,0.242-0.094,0.305c-1.078,0-2.133-0.016-3.164-0.047
		c-0.656-0.016-1.109-0.219-1.359-0.609c-0.156,0.125-0.352,0.336-0.586,0.633C151.894,59.191,151.854,59.238,151.823,59.27z
		 M152.526,55.168c-0.219-0.375-0.461-0.75-0.727-1.125l0.516-0.281c0.016,0.016,0.039,0.047,0.07,0.094
		c0.313,0.406,0.539,0.734,0.68,0.984L152.526,55.168z M153.323,54.723v-0.586h3.75v0.586h-1.5
		c-0.141,0.328-0.297,0.633-0.469,0.914h0.328v2.672h-0.656v-2.18c-0.359,0.469-0.836,0.945-1.43,1.43
		c-0.031-0.047-0.086-0.125-0.164-0.234c-0.109-0.125-0.188-0.219-0.234-0.281c0.922-0.688,1.57-1.461,1.945-2.32H153.323z
		 M156.745,57.418c-0.188-0.234-0.469-0.547-0.844-0.938c-0.156-0.188-0.281-0.328-0.375-0.422l0.445-0.352
		c0.484,0.453,0.906,0.883,1.266,1.289L156.745,57.418z"/>
	<path fill="#9B9B9B" d="M157.964,58.895c-0.078-0.047-0.188-0.102-0.328-0.164c-0.063-0.031-0.109-0.055-0.141-0.07
		c0.234-0.344,0.422-0.688,0.563-1.031l0.469,0.164c-0.031,0.047-0.063,0.117-0.094,0.211
		C158.261,58.395,158.104,58.691,157.964,58.895z M157.589,54.699v-0.492h1.172v-0.516h0.586v0.516h1.172v0.492h-1.172v0.445h0.938
		v0.492h-2.531v-0.492h1.008v-0.445H157.589z M157.589,57.441v-0.492h2.93v0.492h-1.125v1.148c0.016,0.406-0.18,0.617-0.586,0.633
		h-0.563c-0.016-0.047-0.031-0.109-0.047-0.188c-0.031-0.156-0.063-0.273-0.094-0.352c0.031,0,0.086,0,0.164,0
		c0.125,0.016,0.211,0.016,0.258,0c0.203,0,0.297-0.07,0.281-0.211v-1.031H157.589z M157.823,56.527v-0.469h2.438v0.469H157.823z
		 M160.026,58.637c-0.141-0.25-0.305-0.516-0.492-0.797l0.422-0.211c0.203,0.281,0.383,0.547,0.539,0.797L160.026,58.637z
		 M160.495,59.34c-0.016-0.016-0.039-0.047-0.07-0.094c-0.141-0.188-0.258-0.336-0.352-0.445c0.859-0.641,1.297-1.453,1.313-2.438
		c0-0.094,0.008-0.258,0.023-0.492c0-0.203,0-0.344,0-0.422h0.586l-0.023,0.727c0.125,1.141,0.555,1.992,1.289,2.555
		c-0.109,0.141-0.242,0.328-0.398,0.563c-0.594-0.516-0.969-1.148-1.125-1.898C161.597,58.098,161.183,58.746,160.495,59.34z
		 M162.862,56.105c-0.109-0.047-0.281-0.086-0.516-0.117h-0.023l0.281-0.914h-1.289c-0.109,0.375-0.273,0.758-0.492,1.148
		c-0.141-0.141-0.297-0.281-0.469-0.422c0.375-0.719,0.625-1.422,0.75-2.109l0.609,0.094c-0.047,0.25-0.109,0.492-0.188,0.727h1.617
		v0.586L162.862,56.105z"/>
</g>
<rect x="189.379" y="54.029" fill="#FFFFFF" width="66" height="11.707"/>
<rect y="86.408" fill="#FFFFFF" width="71" height="18.308"/>
<g>
	<path fill="#9B9B9B" d="M5.648,91.787h2.344v2.602H7.359v-0.258H4.383v0.258H3.773v-2.578c-0.125,0.047-0.25,0.109-0.375,0.188
		c-0.109-0.172-0.227-0.336-0.352-0.492c0.656-0.234,1.063-0.516,1.219-0.844H3.094v-0.469h1.289
		c0.031-0.156,0.047-0.328,0.047-0.516H3.867c-0.109,0.156-0.258,0.32-0.445,0.492c-0.031-0.031-0.07-0.07-0.117-0.117
		c-0.031-0.047-0.117-0.133-0.258-0.258c0.344-0.297,0.586-0.648,0.727-1.055l0.563,0.047c-0.047,0.156-0.109,0.297-0.188,0.422
		h1.688v0.469h-0.82c0,0.063-0.008,0.148-0.023,0.258c0,0.125-0.008,0.211-0.023,0.258H6v0.469H4.898
		c0.172,0.109,0.438,0.273,0.797,0.492c0.125,0.078,0.219,0.133,0.281,0.164L5.648,91.787z M5.648,91.787
		c-0.188-0.141-0.445-0.328-0.773-0.563c-0.094-0.078-0.172-0.133-0.234-0.164c-0.141,0.25-0.422,0.492-0.844,0.727H5.648z
		 M4.383,92.279v0.492h2.977v-0.492H4.383z M4.383,93.193v0.516h2.977v-0.516H4.383z M6.234,91.389v-2.227h2.18v2.227H6.234z
		 M6.797,89.678v1.219h1.055v-1.219H6.797z"/>
	<path fill="#9B9B9B" d="M11.695,90.826c-0.063-0.109-0.133-0.211-0.211-0.305c-0.453,0.016-1.047,0.039-1.781,0.07
		c-0.063,0-0.148,0.008-0.258,0.023s-0.195,0.031-0.258,0.047l-0.211-0.516c0.156-0.078,0.289-0.188,0.398-0.328
		c0.313-0.313,0.594-0.68,0.844-1.102l0.633,0.211c-0.047,0.047-0.117,0.125-0.211,0.234C10.281,89.584,10,89.896,9.797,90.1
		c0.141-0.016,0.359-0.023,0.656-0.023c0.297-0.016,0.516-0.023,0.656-0.023l-0.398-0.516l0.422-0.258
		c0.297,0.313,0.641,0.719,1.031,1.219L11.695,90.826z M9.305,94.342V90.99h2.414v2.695c0.016,0.391-0.18,0.594-0.586,0.609
		c-0.047,0-0.141,0-0.281,0c-0.172,0.016-0.297,0.023-0.375,0.023c-0.016-0.078-0.031-0.188-0.047-0.328
		c-0.031-0.094-0.047-0.164-0.047-0.211c0.094,0.016,0.266,0.023,0.516,0.023c0.188,0,0.281-0.063,0.281-0.188v-0.352H9.844v1.078
		H9.305z M9.844,91.459v0.469h1.336v-0.469H9.844z M9.844,92.35v0.469h1.336V92.35H9.844z M12.984,91.389
		c-0.5,0-0.75-0.25-0.75-0.75v-1.828h0.586v0.867c0.422-0.156,0.891-0.375,1.406-0.656l0.328,0.445
		c-0.563,0.281-1.141,0.539-1.734,0.773v0.281c-0.016,0.234,0.102,0.344,0.352,0.328h0.469c0.234,0.016,0.367-0.078,0.398-0.281
		s0.055-0.398,0.07-0.586c0.031,0.016,0.086,0.031,0.164,0.047c0.094,0.031,0.219,0.078,0.375,0.141
		c-0.016,0.203-0.055,0.422-0.117,0.656c-0.063,0.375-0.32,0.563-0.773,0.563H12.984z M12.984,94.271
		c-0.5,0.016-0.75-0.227-0.75-0.727v-1.898h0.586v0.773c0.563-0.219,1.047-0.445,1.453-0.68l0.328,0.469
		c-0.422,0.219-1.016,0.484-1.781,0.797v0.422c0,0.219,0.117,0.32,0.352,0.305h0.492c0.234,0.016,0.359-0.063,0.375-0.234
		c0.031-0.172,0.055-0.383,0.07-0.633c0.063,0.016,0.148,0.047,0.258,0.094c0.125,0.047,0.219,0.078,0.281,0.094
		c-0.016,0.172-0.047,0.383-0.094,0.633v0.023c-0.094,0.375-0.352,0.563-0.773,0.563H12.984z"/>
	<path fill="#9B9B9B" d="M20.344,91.318c-0.391-0.188-0.695-0.352-0.914-0.492v0.422h-3.164v-0.375
		c-0.078,0.047-0.195,0.117-0.352,0.211c-0.25,0.141-0.438,0.25-0.563,0.328c-0.031-0.063-0.094-0.164-0.188-0.305
		c-0.078-0.125-0.133-0.219-0.164-0.281c1.234-0.578,2.117-1.273,2.648-2.086l0.75,0.047l-0.164,0.234
		c0.594,0.734,1.414,1.305,2.461,1.711C20.586,90.92,20.469,91.115,20.344,91.318z M15.75,94.389v-2.508h4.195v2.508h-0.633v-0.328
		h-2.93v0.328H15.75z M16.383,92.443v1.102h2.93v-1.102H16.383z M17.883,89.467c-0.375,0.453-0.828,0.859-1.359,1.219h2.695
		C18.719,90.357,18.273,89.951,17.883,89.467z"/>
	<path fill="#9B9B9B" d="M21.352,92.795l-0.188-0.539c0.141-0.094,0.281-0.242,0.422-0.445c0.172-0.203,0.336-0.422,0.492-0.656
		c-0.422,0-0.727,0.023-0.914,0.07L21,90.686c0.125-0.078,0.242-0.219,0.352-0.422c0.328-0.547,0.594-1.047,0.797-1.5l0.609,0.188
		c-0.391,0.719-0.734,1.281-1.031,1.688c0.297,0,0.523-0.008,0.68-0.023c0.141-0.234,0.281-0.469,0.422-0.703l0.563,0.258
		c-0.438,0.719-0.891,1.383-1.359,1.992c0.109-0.016,0.305-0.039,0.586-0.07c0.266-0.031,0.453-0.047,0.563-0.047
		c0,0.031-0.008,0.078-0.023,0.141c-0.016,0.172-0.023,0.305-0.023,0.398c-0.469,0.031-0.914,0.078-1.336,0.141
		C21.641,92.74,21.492,92.764,21.352,92.795z M21.094,94.037L21,93.475c0.969-0.094,1.742-0.188,2.32-0.281
		c0,0.063-0.008,0.164-0.023,0.305c0,0.125,0,0.203,0,0.234c-0.188,0.016-0.531,0.063-1.031,0.141
		C21.734,93.951,21.344,94.006,21.094,94.037z M23.625,91.201c-0.172-0.172-0.328-0.313-0.469-0.422
		c0.484-0.641,0.836-1.313,1.055-2.016l0.656,0.141c-0.016,0.031-0.031,0.07-0.047,0.117c-0.078,0.188-0.172,0.398-0.281,0.633
		h1.945c-0.016,1.031-0.055,2.219-0.117,3.563c0,0.688-0.367,1.023-1.102,1.008c-0.25,0.016-0.586,0.023-1.008,0.023
		c-0.016-0.094-0.039-0.242-0.07-0.445c-0.031-0.078-0.047-0.133-0.047-0.164c0.078,0,0.227,0,0.445,0
		c0.25,0.016,0.43,0.023,0.539,0.023c0.406,0.016,0.609-0.18,0.609-0.586c0.063-0.922,0.094-1.859,0.094-2.813h-1.594
		C24.047,90.592,23.844,90.904,23.625,91.201z M24.563,92.654c-0.266-0.422-0.555-0.836-0.867-1.242l0.469-0.305
		c0.406,0.5,0.711,0.898,0.914,1.195L24.563,92.654z"/>
	<path fill="#9B9B9B" d="M27.563,94.389V89.49h1.523c0.078-0.266,0.141-0.508,0.188-0.727l0.75,0.07
		c-0.063,0.188-0.133,0.406-0.211,0.656h2.344v4.898H31.5v-0.375h-3.281v0.375H27.563z M28.219,90.053v0.797H31.5v-0.797H28.219z
		 M28.219,91.389v0.797H31.5v-0.797H28.219z M28.219,92.701v0.797H31.5v-0.797H28.219z"/>
	<path fill="#9B9B9B" d="M33.023,91.318v-0.563h2.719v0.563h-1.195c-0.25,0.672-0.5,1.273-0.75,1.805
		c0.047,0,0.117-0.008,0.211-0.023c0.438-0.016,0.773-0.039,1.008-0.07c-0.141-0.344-0.281-0.68-0.422-1.008l0.516-0.188
		c0.266,0.578,0.492,1.125,0.68,1.641c0.406-0.531,0.609-1.445,0.609-2.742c0-0.016,0-0.047,0-0.094
		c0.016-0.063,0.023-0.109,0.023-0.141h-0.656v-0.563h0.656c0.016-0.344,0.023-0.727,0.023-1.148h0.609
		c-0.016,0.359-0.023,0.742-0.023,1.148h1.477c0,0.094,0,0.242,0,0.445c-0.031,1.531-0.055,2.539-0.07,3.023
		c-0.016,0.547-0.281,0.828-0.797,0.844c-0.234,0-0.508,0-0.82,0c-0.016-0.141-0.063-0.336-0.141-0.586c0.078,0,0.195,0,0.352,0
		c0.156,0.016,0.273,0.023,0.352,0.023c0.281,0,0.422-0.156,0.422-0.469c0.063-0.922,0.094-1.828,0.094-2.719h-0.891
		c0,0.094,0,0.18,0,0.258c0.016,1.625-0.375,2.844-1.172,3.656c-0.156-0.109-0.336-0.234-0.539-0.375
		c0.141-0.141,0.266-0.273,0.375-0.398l-0.375,0.117l-0.023-0.047c-0.016-0.063-0.031-0.109-0.047-0.141
		c-0.125,0.016-0.297,0.031-0.516,0.047c-0.422,0.031-0.727,0.055-0.914,0.07c-0.203,0.016-0.383,0.039-0.539,0.07l-0.234-0.492
		c0.125-0.094,0.219-0.227,0.281-0.398c0.25-0.547,0.445-1.063,0.586-1.547H33.023z M33.305,89.771v-0.586h2.25v0.586H33.305z"/>
	<path fill="#9B9B9B" d="M40.289,93.826v-0.867H39.82c-0.031,0.531-0.164,1.008-0.398,1.43c-0.047-0.031-0.109-0.078-0.188-0.141
		c-0.125-0.094-0.211-0.156-0.258-0.188c0.266-0.359,0.391-0.984,0.375-1.875v-1.477l-0.047,0.047
		c-0.031-0.047-0.078-0.125-0.141-0.234c-0.078-0.109-0.133-0.188-0.164-0.234c0.422-0.438,0.758-0.945,1.008-1.523l0.563,0.094
		c-0.031,0.078-0.078,0.172-0.141,0.281c-0.031,0.063-0.055,0.109-0.07,0.141h1.125v0.492l-0.328,0.516h0.539v3.422
		c0.016,0.375-0.18,0.57-0.586,0.586c-0.031,0-0.086,0-0.164,0c-0.125,0.016-0.219,0.023-0.281,0.023
		c0-0.031-0.016-0.086-0.047-0.164c-0.016-0.141-0.031-0.25-0.047-0.328H40.289z M40.078,89.771
		c-0.047,0.094-0.141,0.234-0.281,0.422c-0.031,0.047-0.055,0.078-0.07,0.094h0.82l0.352-0.516H40.078z M39.844,92.186
		c0,0.109-0.008,0.211-0.023,0.305h0.469v-0.633h-0.445V92.186z M39.844,90.756v0.633h0.445v-0.633H39.844z M41.227,90.756h-0.469
		v0.633h0.469V90.756z M40.758,91.857v0.633h0.469v-0.633H40.758z M40.922,93.803c0.219,0.016,0.32-0.063,0.305-0.234v-0.609h-0.469
		v0.844C40.82,93.803,40.875,93.803,40.922,93.803z M42.141,91.084c-0.125-0.141-0.258-0.273-0.398-0.398
		c0.547-0.266,0.813-0.641,0.797-1.125h-0.563v-0.492h2.508l-0.047,1.102c-0.031,0.469-0.266,0.703-0.703,0.703
		c-0.219,0-0.422,0-0.609,0l-0.094-0.492c0.188,0,0.359,0,0.516,0c0.219,0,0.328-0.102,0.328-0.305
		c0.016-0.125,0.023-0.297,0.023-0.516h-0.797C43.117,90.217,42.797,90.725,42.141,91.084z M42.234,92.631
		c-0.141-0.078-0.289-0.141-0.445-0.188c0.219-0.391,0.367-0.828,0.445-1.313l0.492,0.07c0,0.047-0.016,0.117-0.047,0.211
		c-0.016,0.094-0.031,0.164-0.047,0.211h0.492v-0.563h0.539v0.563h0.891v0.492h-0.891v0.703h1.008v0.516h-1.008v1.031h-0.539v-1.031
		h-1.289v-0.516h1.289v-0.703h-0.656C42.406,92.303,42.328,92.475,42.234,92.631z"/>
	<path fill="#9B9B9B" d="M45.328,90.967c-0.047-0.094-0.141-0.234-0.281-0.422c-0.031-0.047-0.055-0.078-0.07-0.094
		c0.359-0.516,0.625-1.078,0.797-1.688l0.633,0.117c-0.094,0.234-0.188,0.453-0.281,0.656h0.867v0.516h-1.102
		c-0.094,0.188-0.203,0.375-0.328,0.563h1.313v0.516h-0.563v0.703h0.656v0.516h-0.656v1.031l0.656-0.422
		c0.016,0.063,0.031,0.156,0.047,0.281c0.016,0.141,0.023,0.242,0.023,0.305c-0.297,0.141-0.586,0.305-0.867,0.492
		c-0.094,0.047-0.188,0.117-0.281,0.211l-0.352-0.445c0.141-0.109,0.203-0.258,0.188-0.445V92.35h-0.68v-0.516h0.68v-0.703h-0.352
		V90.92L45.328,90.967z M50.344,94.365c-0.297-0.219-0.727-0.516-1.289-0.891c-0.094-0.078-0.172-0.133-0.234-0.164
		c-0.25,0.391-0.82,0.758-1.711,1.102c-0.031-0.047-0.078-0.125-0.141-0.234c-0.094-0.156-0.164-0.258-0.211-0.305
		c1.125-0.313,1.703-0.797,1.734-1.453c0.047-0.25,0.07-0.633,0.07-1.148h0.586c0,0.578-0.023,0.992-0.07,1.242
		c0,0.047-0.008,0.117-0.023,0.211c0.016-0.063,0.008-0.047-0.023,0.047c0.344,0.203,0.789,0.484,1.336,0.844
		c0.141,0.094,0.25,0.164,0.328,0.211L50.344,94.365z M47.766,90.193c-0.063-0.109-0.164-0.258-0.305-0.445
		c-0.141-0.203-0.25-0.352-0.328-0.445l0.445-0.281c0.109,0.141,0.266,0.336,0.469,0.586c0.078,0.109,0.141,0.195,0.188,0.258
		L47.766,90.193z M47.25,92.982v-2.625h1.289v-1.57h0.586v1.57h1.313v2.578h-0.563V90.92h-2.063v2.063H47.25z M49.922,90.193
		l-0.469-0.305c0.188-0.234,0.398-0.531,0.633-0.891l0.492,0.281c-0.016,0.031-0.047,0.078-0.094,0.141
		C50.266,89.748,50.078,90.006,49.922,90.193z"/>
	<path fill="#9B9B9B" d="M51.094,90.381v-0.563h0.586v-1.031h0.586v1.031h0.516v0.563h-0.516v0.984l0.539-0.188
		c0,0.203,0.008,0.406,0.023,0.609c-0.188,0.047-0.375,0.109-0.563,0.188v1.711c0.016,0.406-0.18,0.625-0.586,0.656
		c-0.188,0-0.359,0.008-0.516,0.023c-0.016-0.109-0.039-0.258-0.07-0.445c-0.031-0.094-0.047-0.156-0.047-0.188
		c0.094,0,0.219,0,0.375,0c0.188,0.016,0.273-0.055,0.258-0.211v-1.336c-0.203,0.063-0.414,0.133-0.633,0.211L51,91.764
		c0.078-0.031,0.195-0.07,0.352-0.117c0.141-0.047,0.25-0.078,0.328-0.094v-1.172H51.094z M53.156,94.178l-0.352-0.469
		c0.156-0.156,0.234-0.359,0.234-0.609v-3.867c1.125-0.047,2.234-0.125,3.328-0.234l0.164,0.539
		c-0.469,0.047-0.898,0.094-1.289,0.141c0,0.422,0.008,0.859,0.023,1.313h1.383v0.539h-1.336c0.047,0.828,0.195,1.453,0.445,1.875
		c0.078,0.141,0.156,0.211,0.234,0.211s0.133-0.063,0.164-0.188c0-0.031,0.008-0.086,0.023-0.164
		c0.031-0.25,0.047-0.453,0.047-0.609c0.188,0.078,0.359,0.141,0.516,0.188c0,0.031-0.008,0.086-0.023,0.164
		c-0.031,0.391-0.07,0.641-0.117,0.75c-0.078,0.328-0.266,0.5-0.563,0.516c-0.328,0-0.602-0.188-0.82-0.563
		c-0.297-0.5-0.469-1.227-0.516-2.18h-1.055v1.758l0.914-0.492c0,0.016,0,0.031,0,0.047c0.016,0.156,0.047,0.336,0.094,0.539
		l-0.211,0.117c0.188,0.188,0.359,0.398,0.516,0.633l-0.516,0.258c-0.047-0.063-0.109-0.156-0.188-0.281
		c-0.141-0.188-0.242-0.32-0.305-0.398c-0.141,0.047-0.273,0.117-0.398,0.211C53.414,93.998,53.281,94.084,53.156,94.178z
		 M54.68,90.99c-0.031-0.406-0.047-0.828-0.047-1.266c-0.328,0.031-0.656,0.047-0.984,0.047v1.219H54.68z"/>
	<path fill="#9B9B9B" d="M57.094,90.428v-0.563h0.633v-1.078h0.586v1.078h0.563v0.563h-0.563v1.031l0.563-0.141
		c0,0.203,0,0.406,0,0.609l-0.563,0.141v1.617c0.016,0.406-0.188,0.617-0.609,0.633c-0.063,0-0.148,0-0.258,0
		c-0.125,0.016-0.227,0.023-0.305,0.023c-0.016-0.219-0.047-0.422-0.094-0.609c0.047,0,0.117,0.008,0.211,0.023
		c0.094,0,0.156,0,0.188,0c0.188,0.016,0.281-0.063,0.281-0.234v-1.266l-0.656,0.188L57,91.787c0.078-0.016,0.188-0.039,0.328-0.07
		c0.172-0.047,0.305-0.086,0.398-0.117v-1.172H57.094z M60.492,94.389v-1.664h-0.773v0.305h-0.586v-3.914h3.328v3.914h-0.586v-0.305
		h-0.797v1.664H60.492z M59.719,89.654v1.008h0.773v-1.008H59.719z M59.719,91.178v0.984h0.773v-0.984H59.719z M61.875,89.654
		h-0.797v1.008h0.797V89.654z M61.078,91.178v0.984h0.797v-0.984H61.078z"/>
	<path fill="#9B9B9B" d="M65.836,93.334h3v0.68h-3.797v-4.875h3.68v0.727h-2.883v1.289h2.719v0.703h-2.719V93.334z"/>
	<path fill="#9B9B9B" d="M73.383,89.865h-1.617v4.148h-0.797v-4.148h-1.641v-0.703h4.055V89.865z"/>
	<path fill="#9B9B9B" d="M77.227,89.162h0.82v4.852h-0.82v-2.156h-2.367v2.156h-0.797v-4.852h0.797v1.992h2.367V89.162z"/>
</g>
<rect x="89.928" y="128.882" fill="#FFFFFF" width="66" height="10.854"/>
<g>
	<path fill="#9B9B9B" d="M106.967,137.279c-0.016-0.016-0.032-0.031-0.047-0.047c-0.172-0.141-0.297-0.234-0.375-0.281
		c0.25-0.328,0.367-0.953,0.352-1.875v-1.523l-0.047,0.07c-0.032-0.063-0.102-0.18-0.211-0.352
		c-0.047-0.047-0.079-0.086-0.094-0.117c0.437-0.406,0.781-0.906,1.031-1.5l0.539,0.094c-0.063,0.141-0.133,0.281-0.211,0.422h1.078
		v0.492l-0.375,0.516h0.563v3.422c0.015,0.391-0.172,0.586-0.563,0.586c-0.032,0-0.086,0-0.164,0
		c-0.125,0.016-0.219,0.023-0.281,0.023c0-0.031-0.016-0.086-0.047-0.164c-0.016-0.141-0.032-0.25-0.047-0.328h-0.258v-0.867h-0.445
		C107.334,136.428,107.202,136.904,106.967,137.279z M107.624,132.662c-0.016,0.031-0.047,0.078-0.094,0.141
		c-0.047,0.078-0.141,0.203-0.281,0.375h0.797l0.375-0.516H107.624z M107.389,133.646v0.633h0.422v-0.633H107.389z M107.389,135.076
		v0.305h0.422v-0.633h-0.422V135.076z M108.702,133.646h-0.445v0.633h0.445V133.646z M108.256,134.748v0.633h0.445v-0.633H108.256z
		 M108.444,136.693c0.188,0.016,0.273-0.063,0.258-0.234v-0.609h-0.445v0.844H108.444z M109.545,135.381v-2.625h0.961v-1.055h0.539
		v1.055h0.961v2.461h-0.961v1.148l0.469-0.047c-0.016-0.047-0.039-0.125-0.07-0.234c-0.047-0.141-0.086-0.242-0.117-0.305
		l0.445-0.141c0.047,0.156,0.125,0.375,0.234,0.656c0.156,0.375,0.258,0.648,0.305,0.82l-0.492,0.141l-0.141-0.469
		c-0.422,0.047-0.563,0.063-0.422,0.047c-0.859,0.094-1.469,0.156-1.828,0.188l-0.094-0.539c0.015,0,0.039,0,0.07,0
		c0.328-0.016,0.695-0.047,1.102-0.094v-1.172h-0.469v0.164H109.545z M110.038,133.295v1.383h0.516v-1.383H110.038z
		 M111.514,133.295h-0.516v1.383h0.516V133.295z"/>
	<path fill="#9B9B9B" d="M112.803,133.436v-0.586c0.109-0.219,0.242-0.547,0.398-0.984l0.609,0.094
		c-0.032,0.063-0.07,0.172-0.117,0.328c-0.109,0.281-0.188,0.477-0.234,0.586h1.031c0.125-0.422,0.219-0.828,0.281-1.219
		l0.656,0.047c-0.016,0.078-0.039,0.195-0.07,0.352c-0.079,0.359-0.149,0.633-0.211,0.82h3.094v0.563h-3.234
		c-0.063,0.203-0.133,0.414-0.211,0.633h2.859v0.516c-0.313,0.625-0.711,1.125-1.195,1.5c0.469,0.234,1.055,0.406,1.758,0.516
		c-0.125,0.234-0.234,0.445-0.328,0.633c-0.813-0.219-1.477-0.477-1.992-0.773c-0.594,0.297-1.289,0.57-2.086,0.82
		c-0.016-0.047-0.047-0.109-0.094-0.188c-0.047-0.109-0.117-0.242-0.211-0.398c0.734-0.156,1.351-0.359,1.852-0.609
		c-0.375-0.344-0.68-0.75-0.914-1.219c-0.422,0.797-0.969,1.5-1.641,2.109c-0.063-0.188-0.141-0.406-0.234-0.656
		c0.844-0.781,1.43-1.742,1.758-2.883H112.803z M116.905,134.607h-1.945c0.203,0.422,0.516,0.805,0.938,1.148
		C116.35,135.428,116.686,135.045,116.905,134.607z M117.116,132.873c-0.281-0.297-0.571-0.563-0.867-0.797l0.375-0.375
		c0.078,0.063,0.203,0.164,0.375,0.305c0.266,0.203,0.453,0.344,0.563,0.422L117.116,132.873z"/>
	<path fill="#9B9B9B" d="M120.678,136.506l-0.516-0.82c-0.297,0.484-0.695,0.969-1.195,1.453c-0.063-0.094-0.188-0.25-0.375-0.469
		c-0.016-0.016-0.032-0.031-0.047-0.047c0.563-0.516,0.976-1.023,1.242-1.523c-0.188-0.313-0.492-0.773-0.914-1.383
		c-0.094-0.141-0.164-0.242-0.211-0.305l0.516-0.328l0.914,1.359c0.172-0.469,0.305-1.063,0.398-1.781h-1.805v-0.586h2.414v0.586
		c-0.141,1.031-0.344,1.828-0.609,2.391c0.234,0.344,0.469,0.695,0.703,1.055L120.678,136.506z M123.889,137.186
		c-0.594-0.391-1.031-0.758-1.313-1.102c-0.313,0.391-0.813,0.789-1.5,1.195c-0.032-0.047-0.094-0.125-0.188-0.234
		c-0.109-0.141-0.188-0.242-0.234-0.305c0.641-0.313,1.156-0.703,1.547-1.172c-0.438-0.625-0.742-1.531-0.914-2.719l0.586-0.117
		c0.156,1,0.398,1.766,0.727,2.297c0.359-0.563,0.601-1.352,0.727-2.367h-2.063v-0.586h2.719v0.609
		c-0.219,1.281-0.555,2.242-1.008,2.883c0.313,0.406,0.75,0.758,1.313,1.055C124.131,136.795,123.998,136.982,123.889,137.186z"/>
	<path fill="#9B9B9B" d="M124.686,133.154v-0.609h2.555c-0.094-0.25-0.196-0.516-0.305-0.797l0.727-0.07
		c0.094,0.219,0.203,0.508,0.328,0.867h2.18v0.609h-3.375c0,0.281-0.016,0.578-0.047,0.891h2.742
		c-0.016,0.375-0.047,0.922-0.094,1.641c-0.016,0.188-0.023,0.32-0.023,0.398c-0.032,0.703-0.422,1.047-1.172,1.031
		c-0.141,0-0.32,0.008-0.539,0.023c-0.203,0-0.367,0-0.492,0c-0.016-0.109-0.055-0.281-0.117-0.516
		c-0.016-0.031-0.023-0.063-0.023-0.094c0.109,0,0.266,0,0.469,0c0.203,0.016,0.367,0.023,0.492,0.023
		c0.469,0.031,0.711-0.188,0.727-0.656c0.047-0.375,0.07-0.797,0.07-1.266h-2.086c-0.063,1.094-0.602,1.984-1.617,2.672
		l-0.516-0.492c1-0.609,1.5-1.469,1.5-2.578c0.031-0.438,0.047-0.797,0.047-1.078H124.686z"/>
	<path fill="#9B9B9B" d="M131.858,136.717v-0.867h-0.469c-0.032,0.531-0.164,1.008-0.398,1.43c-0.047-0.031-0.109-0.078-0.188-0.141
		c-0.125-0.094-0.211-0.156-0.258-0.188c0.266-0.359,0.39-0.984,0.375-1.875V133.6l-0.047,0.047
		c-0.032-0.047-0.079-0.125-0.141-0.234c-0.079-0.109-0.133-0.188-0.164-0.234c0.422-0.438,0.758-0.945,1.008-1.523l0.563,0.094
		c-0.032,0.078-0.079,0.172-0.141,0.281c-0.032,0.063-0.055,0.109-0.07,0.141h1.125v0.492l-0.328,0.516h0.539v3.422
		c0.015,0.375-0.18,0.57-0.586,0.586c-0.032,0-0.086,0-0.164,0c-0.125,0.016-0.219,0.023-0.281,0.023
		c0-0.031-0.016-0.086-0.047-0.164c-0.016-0.141-0.032-0.25-0.047-0.328H131.858z M131.647,132.662
		c-0.047,0.094-0.141,0.234-0.281,0.422c-0.032,0.047-0.055,0.078-0.07,0.094h0.82l0.352-0.516H131.647z M131.413,135.076
		c0,0.109-0.008,0.211-0.023,0.305h0.469v-0.633h-0.445V135.076z M131.413,133.646v0.633h0.445v-0.633H131.413z M132.795,133.646
		h-0.469v0.633h0.469V133.646z M132.327,134.748v0.633h0.469v-0.633H132.327z M132.491,136.693c0.219,0.016,0.32-0.063,0.305-0.234
		v-0.609h-0.469v0.844C132.389,136.693,132.444,136.693,132.491,136.693z M133.709,133.975c-0.125-0.141-0.258-0.273-0.398-0.398
		c0.547-0.266,0.812-0.641,0.797-1.125h-0.563v-0.492h2.508l-0.047,1.102c-0.032,0.469-0.266,0.703-0.703,0.703
		c-0.219,0-0.422,0-0.609,0l-0.094-0.492c0.188,0,0.359,0,0.516,0c0.219,0,0.328-0.102,0.328-0.305
		c0.015-0.125,0.023-0.297,0.023-0.516h-0.797C134.686,133.107,134.366,133.615,133.709,133.975z M133.803,135.521
		c-0.141-0.078-0.29-0.141-0.445-0.188c0.219-0.391,0.367-0.828,0.445-1.313l0.492,0.07c0,0.047-0.016,0.117-0.047,0.211
		c-0.016,0.094-0.032,0.164-0.047,0.211h0.492v-0.563h0.539v0.563h0.891v0.492h-0.891v0.703h1.008v0.516h-1.008v1.031h-0.539v-1.031
		h-1.289v-0.516h1.289v-0.703h-0.656C133.975,135.193,133.897,135.365,133.803,135.521z"/>
	<path fill="#9B9B9B" d="M136.897,133.857c-0.047-0.094-0.141-0.234-0.281-0.422c-0.032-0.047-0.055-0.078-0.07-0.094
		c0.359-0.516,0.625-1.078,0.797-1.688l0.633,0.117c-0.094,0.234-0.188,0.453-0.281,0.656h0.867v0.516h-1.102
		c-0.094,0.188-0.203,0.375-0.328,0.563h1.313v0.516h-0.563v0.703h0.656v0.516h-0.656v1.031l0.656-0.422
		c0.015,0.063,0.031,0.156,0.047,0.281c0.015,0.141,0.023,0.242,0.023,0.305c-0.297,0.141-0.586,0.305-0.867,0.492
		c-0.094,0.047-0.188,0.117-0.281,0.211l-0.352-0.445c0.141-0.109,0.203-0.258,0.188-0.445v-1.008h-0.68v-0.516h0.68v-0.703h-0.352
		v-0.211L136.897,133.857z M141.913,137.256c-0.297-0.219-0.727-0.516-1.289-0.891c-0.094-0.078-0.172-0.133-0.234-0.164
		c-0.25,0.391-0.82,0.758-1.711,1.102c-0.032-0.047-0.079-0.125-0.141-0.234c-0.094-0.156-0.164-0.258-0.211-0.305
		c1.125-0.313,1.703-0.797,1.734-1.453c0.047-0.25,0.07-0.633,0.07-1.148h0.586c0,0.578-0.023,0.992-0.07,1.242
		c0,0.047-0.008,0.117-0.023,0.211c0.015-0.063,0.008-0.047-0.023,0.047c0.343,0.203,0.789,0.484,1.336,0.844
		c0.14,0.094,0.25,0.164,0.328,0.211L141.913,137.256z M139.334,133.084c-0.063-0.109-0.164-0.258-0.305-0.445
		c-0.141-0.203-0.25-0.352-0.328-0.445l0.445-0.281c0.109,0.141,0.266,0.336,0.469,0.586c0.078,0.109,0.141,0.195,0.188,0.258
		L139.334,133.084z M138.819,135.873v-2.625h1.289v-1.57h0.586v1.57h1.312v2.578h-0.562v-2.016h-2.063v2.063H138.819z
		 M141.491,133.084l-0.469-0.305c0.188-0.234,0.398-0.531,0.633-0.891l0.492,0.281c-0.016,0.031-0.047,0.078-0.094,0.141
		C141.834,132.639,141.646,132.896,141.491,133.084z"/>
</g>
<path fill="#181919" d="M166.947,9.633c0,5.32-4.313,9.633-9.633,9.633H96.062c-5.321,0-9.633-4.313-9.633-9.633S90.741,0,96.062,0
	h61.253C162.635,0,166.947,4.313,166.947,9.633"/>
<g>
	<path fill="#FFFFFF" d="M97.139,14.438c-0.104-0.053-0.261-0.144-0.469-0.273c-0.234-0.131-0.404-0.234-0.508-0.313
		c0.391-0.599,0.651-1.185,0.781-1.758c0.13-0.572,0.195-1.432,0.195-2.578V5.531h7.969v7.461c0.052,0.859-0.378,1.275-1.289,1.25
		c-0.339,0.025-0.755,0.039-1.25,0.039c-0.026-0.078-0.052-0.195-0.078-0.352c-0.052-0.287-0.104-0.508-0.156-0.664
		c0.13,0,0.313,0.013,0.547,0.039c0.234,0,0.403,0,0.508,0c0.469,0.025,0.69-0.143,0.664-0.508v-1.289h-2.461v2.656h-1.055v-2.656
		h-2.383C98.103,12.445,97.764,13.422,97.139,14.438z M98.233,9.516c0,0.131-0.013,0.326-0.039,0.586c0,0.209,0,0.365,0,0.469h2.344
		V9.008h-2.305V9.516z M98.233,6.508V8.07h2.305V6.508H98.233z M104.053,6.508h-2.461V8.07h2.461V6.508z M101.592,9.008v1.563h2.461
		V9.008H101.592z"/>
	<path fill="#FFFFFF" d="M107.022,14.398c-0.313-0.261-0.599-0.521-0.859-0.781c0.755-0.885,1.094-2.305,1.016-4.258V6.391h3.516
		c-0.052-0.13-0.13-0.325-0.234-0.586c-0.13-0.26-0.222-0.455-0.273-0.586l1.172-0.195c0.156,0.443,0.338,0.898,0.547,1.367h3.125
		v4.648h-1.094V10.57h-5.664C108.246,12.055,107.829,13.33,107.022,14.398z M108.272,9.359v0.195h5.664V7.406h-5.664V9.359z"/>
	<path fill="#FFFFFF" d="M124.131,14.281c-0.781,0.025-1.406-0.456-1.875-1.445c-0.443,0.261-1.198,0.586-2.266,0.977
		c-0.104-0.287-0.261-0.56-0.469-0.82c-0.443,0.261-0.859,0.56-1.25,0.898c-0.156,0.104-0.3,0.234-0.43,0.391l-0.586-0.781
		c0.182-0.156,0.26-0.403,0.234-0.742v-1.719h-1.25v-0.898h1.25V9.008h-0.742V8.773l-0.039,0.078
		c-0.078-0.13-0.208-0.338-0.391-0.625c-0.078-0.13-0.144-0.234-0.195-0.313c0.547-0.703,1.002-1.666,1.367-2.891l0.977,0.195
		c-0.156,0.391-0.287,0.756-0.391,1.094h1.68v0.859h-2.07c-0.052,0.131-0.156,0.339-0.313,0.625
		c-0.078,0.156-0.144,0.273-0.195,0.352h2.305v0.859h-1.016v1.133h1.25v0.898h-1.25v1.758c0.156-0.13,0.417-0.338,0.781-0.625
		c0.182-0.13,0.313-0.234,0.391-0.313c0.026,0.131,0.052,0.326,0.078,0.586c0.052,0.156,0.078,0.273,0.078,0.352l-0.117,0.078
		c0.859-0.313,1.588-0.625,2.188-0.938c-0.156-0.547-0.3-1.158-0.43-1.836l-1.406,0.156l-0.156-0.898l1.445-0.195l-0.039-0.43
		l-0.078-0.664l-1.211,0.156l-0.117-0.898l1.289-0.156c-0.052-0.469-0.078-1.172-0.078-2.109h0.977c0,0.234,0.013,0.573,0.039,1.016
		c0,0.469,0.013,0.808,0.039,1.016l3.047-0.352l0.078,0.859l-3.047,0.352l0.039,0.625l0.039,0.469l3.086-0.391l0.117,0.898
		l-3.086,0.391c0.13,0.547,0.247,1.016,0.352,1.406c0.547-0.391,1.094-0.846,1.641-1.367l0.664,0.625
		c-0.651,0.651-1.302,1.211-1.953,1.68c0.286,0.651,0.612,0.977,0.977,0.977c0.234,0,0.391-0.143,0.469-0.43
		c0-0.052,0.013-0.117,0.039-0.195c0.078-0.182,0.156-0.533,0.234-1.055c0.26,0.131,0.547,0.273,0.859,0.43
		c-0.104,0.6-0.222,1.029-0.352,1.289C125.134,13.955,124.73,14.281,124.131,14.281z M123.936,6.781
		c-0.391-0.313-0.833-0.625-1.328-0.938l0.625-0.664c0.495,0.287,0.938,0.586,1.328,0.898L123.936,6.781z"/>
	<path fill="#FFFFFF" d="M129.053,14.086c-1.172,0.025-1.732-0.495-1.68-1.563V8.578c-0.078,0.078-0.183,0.195-0.313,0.352
		c-0.208,0.234-0.378,0.404-0.508,0.508c-0.104-0.391-0.234-0.755-0.391-1.094c0.989-0.963,1.758-2.07,2.305-3.32l1.172,0.117
		c-0.026,0.078-0.078,0.183-0.156,0.313c-0.026,0.104-0.117,0.287-0.273,0.547h5.391c0,1.537-0.039,3.034-0.117,4.492
		c0,1.146-0.508,1.693-1.523,1.641c-0.365,0.026-0.82,0.039-1.367,0.039c-0.026-0.078-0.065-0.195-0.117-0.352
		c-0.052-0.286-0.104-0.508-0.156-0.664h-2.93v1.25c-0.052,0.573,0.26,0.847,0.938,0.82h4.141c0.573,0.026,0.898-0.182,0.977-0.625
		c0.078-0.338,0.13-0.742,0.156-1.211c0.13,0.026,0.313,0.078,0.547,0.156s0.403,0.131,0.508,0.156
		c-0.052,0.469-0.13,0.938-0.234,1.406c-0.156,0.677-0.729,1.002-1.719,0.977H129.053z M128.624,6.977
		c-0.208,0.339-0.469,0.69-0.781,1.055h4.102v3.125h0.703c0.521,0.026,0.794-0.234,0.82-0.781c0.052-1.067,0.078-2.2,0.078-3.398
		H128.624z M128.389,8.93v1.328h2.539V8.93H128.389z"/>
	<path fill="#FFFFFF" d="M143.232,11.313c-0.025-0.078-0.052-0.182-0.078-0.313c-0.052-0.26-0.104-0.469-0.156-0.625
		c0.183,0,0.391,0,0.625,0c0.313,0.026,0.482-0.169,0.508-0.586c0.053-0.781,0.078-1.419,0.078-1.914l-1.328,0.391v4.102h-0.976
		V8.539l-1.25,0.391v3.477c-0.052,0.573,0.234,0.847,0.859,0.82h2.031c0.625,0.026,0.964-0.182,1.016-0.625
		c0.078-0.364,0.144-0.742,0.195-1.133c0.261,0.131,0.573,0.248,0.938,0.352c-0.078,0.521-0.169,0.977-0.273,1.367
		c-0.13,0.625-0.65,0.924-1.563,0.898h-2.734c-0.99,0.025-1.472-0.417-1.445-1.328V9.242l-0.664,0.195l-0.156-0.82h-0.664v3.32
		c0.078-0.025,0.195-0.052,0.352-0.078c0.286-0.078,0.521-0.13,0.703-0.156c0,0.313,0.013,0.639,0.039,0.977
		c-0.261,0.053-0.729,0.17-1.406,0.352c-0.703,0.156-1.224,0.273-1.563,0.352l-0.195-0.977l1.133-0.234V8.617h-0.938V7.641h0.938
		V5.063h0.938v2.578h0.859v0.742l0.625-0.156V6.078h0.977v1.836l1.25-0.352v-2.5h0.976v2.227l2.305-0.664
		c0,1.459-0.039,2.565-0.117,3.32c0,0.859-0.313,1.289-0.938,1.289C143.896,11.287,143.598,11.313,143.232,11.313z"/>
	<path fill="#FFFFFF" d="M146.318,8.461V7.484h1.094V5.063h1.016v2.422h1.055v0.977h-1.055v3.242l1.172-0.352
		c-0.026,0.156-0.026,0.391,0,0.703c0,0.131,0,0.234,0,0.313c-0.261,0.078-0.729,0.209-1.406,0.391
		c-0.834,0.261-1.445,0.43-1.836,0.508l-0.195-0.977l1.25-0.313V8.461H146.318z M148.857,13.891v-0.898h1.289V7.055h1.016v5.938
		h1.289v-7.93h1.094v2.852h1.797v0.977h-1.797v4.102h2.109v0.898H148.857z"/>
</g>
<g>
	<path d="M113.448,100.903c-0.651-0.313-1.159-0.586-1.523-0.82v0.703h-5.273v-0.625c-0.131,0.078-0.326,0.195-0.586,0.352
		c-0.417,0.234-0.729,0.417-0.938,0.547c-0.053-0.104-0.156-0.273-0.313-0.508c-0.131-0.208-0.222-0.364-0.273-0.469
		c2.057-0.963,3.528-2.122,4.414-3.477l1.25,0.078l-0.273,0.391c0.989,1.225,2.356,2.175,4.102,2.852
		C113.851,100.239,113.656,100.565,113.448,100.903z M105.792,106.021v-4.18h6.992v4.18h-1.055v-0.547h-4.883v0.547H105.792z
		 M106.846,102.778v1.836h4.883v-1.836H106.846z M109.346,97.817c-0.625,0.756-1.381,1.433-2.266,2.031h4.492
		C110.739,99.302,109.997,98.625,109.346,97.817z"/>
	<path d="M115.127,103.364l-0.313-0.898c0.234-0.156,0.469-0.403,0.703-0.742c0.286-0.338,0.56-0.703,0.82-1.094
		c-0.703,0-1.211,0.039-1.523,0.117l-0.273-0.898c0.208-0.13,0.403-0.364,0.586-0.703c0.547-0.911,0.989-1.744,1.328-2.5
		l1.016,0.313c-0.651,1.198-1.225,2.136-1.719,2.813c0.494,0,0.872-0.013,1.133-0.039c0.234-0.391,0.469-0.781,0.703-1.172
		l0.938,0.43c-0.729,1.198-1.484,2.305-2.266,3.32c0.182-0.025,0.508-0.064,0.977-0.117c0.442-0.052,0.755-0.078,0.938-0.078
		c0,0.053-0.014,0.131-0.039,0.234c-0.026,0.287-0.039,0.508-0.039,0.664c-0.781,0.053-1.523,0.131-2.227,0.234
		C115.609,103.273,115.362,103.313,115.127,103.364z M114.698,105.435l-0.156-0.938c1.614-0.156,2.903-0.313,3.867-0.469
		c0,0.104-0.014,0.273-0.039,0.508c0,0.209,0,0.339,0,0.391c-0.313,0.025-0.886,0.104-1.719,0.234
		C115.765,105.291,115.114,105.382,114.698,105.435z M118.917,100.708c-0.287-0.286-0.547-0.521-0.781-0.703
		c0.807-1.067,1.393-2.188,1.758-3.359l1.094,0.234c-0.026,0.053-0.053,0.117-0.078,0.195c-0.131,0.313-0.287,0.664-0.469,1.055
		h3.242c-0.026,1.719-0.092,3.698-0.195,5.938c0,1.146-0.612,1.705-1.836,1.68c-0.417,0.025-0.977,0.039-1.68,0.039
		c-0.026-0.156-0.065-0.404-0.117-0.742c-0.053-0.131-0.078-0.221-0.078-0.273c0.13,0,0.377,0,0.742,0
		c0.416,0.026,0.716,0.039,0.898,0.039c0.677,0.026,1.016-0.299,1.016-0.977c0.104-1.536,0.156-3.099,0.156-4.688h-2.656
		C119.62,99.692,119.281,100.214,118.917,100.708z M120.479,103.13c-0.443-0.703-0.925-1.393-1.445-2.07l0.781-0.508
		c0.677,0.834,1.185,1.498,1.523,1.992L120.479,103.13z"/>
	<path d="M131.612,102.935c-0.026-0.078-0.053-0.182-0.078-0.313c-0.053-0.26-0.104-0.469-0.156-0.625c0.182,0,0.391,0,0.625,0
		c0.313,0.026,0.481-0.169,0.508-0.586c0.052-0.781,0.078-1.419,0.078-1.914l-1.328,0.391v4.102h-0.977v-3.828l-1.25,0.391v3.477
		c-0.053,0.573,0.234,0.847,0.859,0.82h2.031c0.625,0.026,0.963-0.182,1.016-0.625c0.078-0.364,0.143-0.742,0.195-1.133
		c0.26,0.131,0.572,0.248,0.938,0.352c-0.078,0.521-0.17,0.977-0.273,1.367c-0.131,0.625-0.651,0.924-1.563,0.898h-2.734
		c-0.99,0.025-1.472-0.417-1.445-1.328v-3.516l-0.664,0.195l-0.156-0.82h-0.664v3.32c0.078-0.025,0.195-0.052,0.352-0.078
		c0.286-0.078,0.521-0.13,0.703-0.156c0,0.313,0.013,0.639,0.039,0.977c-0.261,0.053-0.729,0.17-1.406,0.352
		c-0.703,0.156-1.225,0.273-1.563,0.352l-0.195-0.977l1.133-0.234v-3.555h-0.938v-0.977h0.938v-2.578h0.938v2.578h0.859v0.742
		l0.625-0.156V97.7h0.977v1.836l1.25-0.352v-2.5h0.977v2.227l2.305-0.664c0,1.459-0.039,2.565-0.117,3.32
		c0,0.859-0.313,1.289-0.938,1.289C132.276,102.909,131.976,102.935,131.612,102.935z"/>
	<path d="M134.698,100.083v-0.977h1.094v-2.422h1.016v2.422h1.055v0.977h-1.055v3.242l1.172-0.352c-0.026,0.156-0.026,0.391,0,0.703
		c0,0.131,0,0.234,0,0.313c-0.261,0.078-0.729,0.209-1.406,0.391c-0.834,0.261-1.445,0.43-1.836,0.508l-0.195-0.977l1.25-0.313
		v-3.516H134.698z M137.237,105.513v-0.898h1.289v-5.938h1.016v5.938h1.289v-7.93h1.094v2.852h1.796v0.977h-1.796v4.102h2.109v0.898
		H137.237z"/>
</g>
<g>
	<path fill="#9B9B9B" d="M14.836,97.656v-0.516h0.703c0.047-0.141,0.109-0.359,0.188-0.656c0.016-0.063,0.031-0.109,0.047-0.141
		l0.609,0.07l-0.211,0.727h1.031v0.516h-1.195c-0.156,0.5-0.32,0.977-0.492,1.43h0.492v-1.031h0.586v1.031h0.609v0.539h-0.609v0.656
		c0.25-0.016,0.492-0.047,0.727-0.094l-0.023,0.563l-0.703,0.094v1.102h-0.586v-1.031l-1.172,0.141l-0.047-0.586
		c0.141-0.016,0.352-0.039,0.633-0.07c0.266-0.016,0.461-0.031,0.586-0.047v-0.727h-1.102v-0.563
		c0.188-0.484,0.344-0.953,0.469-1.406H14.836z M17.461,97.68v-0.516h0.797c0.016-0.109,0.047-0.273,0.094-0.492
		c0.031-0.125,0.055-0.219,0.07-0.281h0.633c-0.016,0.078-0.047,0.203-0.094,0.375c-0.031,0.172-0.063,0.305-0.094,0.398h1.453
		v0.516h-1.57l-0.164,0.656h1.875v0.539h-2.016l-0.188,0.633h1.922v0.563l-0.867,1.102l0.656,0.305l-0.352,0.516
		c-0.688-0.422-1.398-0.805-2.133-1.148l0.305-0.469c0.359,0.156,0.688,0.328,0.984,0.516l0.703-0.867h-1.828v-0.539l0.188-0.609
		h-0.563v-0.539h0.703c0.047-0.203,0.094-0.422,0.141-0.656H17.461z"/>
	<path fill="#9B9B9B" d="M21.07,101.945v-5.273h5.133v5.273H25.57v-0.375h-3.867v0.375H21.07z M21.703,97.234v3.844h3.867v-3.844
		H21.703z M22.43,100.258v-2.25h2.438v2.25H22.43z M22.992,98.523v1.195h1.289v-1.195H22.992z"/>
	<path fill="#9B9B9B" d="M27.375,101.992c-0.063-0.031-0.156-0.086-0.281-0.164c-0.141-0.078-0.242-0.141-0.305-0.188
		c0.234-0.359,0.391-0.711,0.469-1.055s0.117-0.859,0.117-1.547v-2.391h4.781v4.477c0.031,0.516-0.227,0.766-0.773,0.75
		c-0.203,0.016-0.453,0.023-0.75,0.023c-0.016-0.047-0.031-0.117-0.047-0.211c-0.031-0.172-0.063-0.305-0.094-0.398
		c0.078,0,0.188,0.008,0.328,0.023c0.141,0,0.242,0,0.305,0c0.281,0.016,0.414-0.086,0.398-0.305v-0.773h-1.477v1.594h-0.633v-1.594
		h-1.43C27.953,100.797,27.75,101.383,27.375,101.992z M28.031,99.039c0,0.078-0.008,0.195-0.023,0.352c0,0.125,0,0.219,0,0.281
		h1.406v-0.938h-1.383V99.039z M28.031,97.234v0.938h1.383v-0.938H28.031z M31.523,97.234h-1.477v0.938h1.477V97.234z
		 M30.047,98.734v0.938h1.477v-0.938H30.047z"/>
	<path fill="#9B9B9B" d="M33.305,101.969c-0.188-0.156-0.359-0.313-0.516-0.469c0.453-0.531,0.656-1.383,0.609-2.555v-1.781h2.109
		c-0.031-0.078-0.078-0.195-0.141-0.352c-0.078-0.156-0.133-0.273-0.164-0.352l0.703-0.117c0.094,0.266,0.203,0.539,0.328,0.82
		h1.875v2.789h-0.656v-0.281h-3.398C34.039,100.563,33.789,101.328,33.305,101.969z M34.055,98.945v0.117h3.398v-1.289h-3.398
		V98.945z"/>
	<path fill="#9B9B9B" d="M43.57,101.898c-0.469,0.016-0.844-0.273-1.125-0.867c-0.266,0.156-0.719,0.352-1.359,0.586
		c-0.063-0.172-0.156-0.336-0.281-0.492c-0.266,0.156-0.516,0.336-0.75,0.539c-0.094,0.063-0.18,0.141-0.258,0.234l-0.352-0.469
		c0.109-0.094,0.156-0.242,0.141-0.445v-1.031h-0.75v-0.539h0.75v-0.68h-0.445v-0.141l-0.023,0.047
		c-0.047-0.078-0.125-0.203-0.234-0.375c-0.047-0.078-0.086-0.141-0.117-0.188c0.328-0.422,0.602-1,0.82-1.734l0.586,0.117
		c-0.094,0.234-0.172,0.453-0.234,0.656h1.008v0.516h-1.242c-0.031,0.078-0.094,0.203-0.188,0.375
		c-0.047,0.094-0.086,0.164-0.117,0.211h1.383v0.516h-0.609v0.68h0.75v0.539h-0.75v1.055c0.094-0.078,0.25-0.203,0.469-0.375
		c0.109-0.078,0.188-0.141,0.234-0.188c0.016,0.078,0.031,0.195,0.047,0.352c0.031,0.094,0.047,0.164,0.047,0.211l-0.07,0.047
		c0.516-0.188,0.953-0.375,1.313-0.563c-0.094-0.328-0.18-0.695-0.258-1.102l-0.844,0.094l-0.094-0.539l0.867-0.117l-0.023-0.258
		l-0.047-0.398l-0.727,0.094l-0.07-0.539l0.773-0.094c-0.031-0.281-0.047-0.703-0.047-1.266h0.586c0,0.141,0.008,0.344,0.023,0.609
		c0,0.281,0.008,0.484,0.023,0.609l1.828-0.211l0.047,0.516l-1.828,0.211l0.023,0.375l0.023,0.281l1.852-0.234l0.07,0.539
		l-1.852,0.234c0.078,0.328,0.148,0.609,0.211,0.844c0.328-0.234,0.656-0.508,0.984-0.82l0.398,0.375
		c-0.391,0.391-0.781,0.727-1.172,1.008c0.172,0.391,0.367,0.586,0.586,0.586c0.141,0,0.234-0.086,0.281-0.258
		c0-0.031,0.008-0.07,0.023-0.117c0.047-0.109,0.094-0.32,0.141-0.633c0.156,0.078,0.328,0.164,0.516,0.258
		c-0.063,0.359-0.133,0.617-0.211,0.773C44.172,101.703,43.93,101.898,43.57,101.898z M43.453,97.398
		c-0.234-0.188-0.5-0.375-0.797-0.563l0.375-0.398c0.297,0.172,0.563,0.352,0.797,0.539L43.453,97.398z"/>
	<path fill="#9B9B9B" d="M46.523,101.781c-0.703,0.016-1.039-0.297-1.008-0.938v-2.367c-0.047,0.047-0.109,0.117-0.188,0.211
		c-0.125,0.141-0.227,0.242-0.305,0.305c-0.063-0.234-0.141-0.453-0.234-0.656c0.594-0.578,1.055-1.242,1.383-1.992l0.703,0.07
		c-0.016,0.047-0.047,0.109-0.094,0.188c-0.016,0.063-0.07,0.172-0.164,0.328h3.234c0,0.922-0.023,1.82-0.07,2.695
		c0,0.688-0.305,1.016-0.914,0.984c-0.219,0.016-0.492,0.023-0.82,0.023c-0.016-0.047-0.039-0.117-0.07-0.211
		c-0.031-0.172-0.063-0.305-0.094-0.398h-1.758v0.75c-0.031,0.344,0.156,0.508,0.563,0.492h2.484
		c0.344,0.016,0.539-0.109,0.586-0.375c0.047-0.203,0.078-0.445,0.094-0.727c0.078,0.016,0.188,0.047,0.328,0.094
		s0.242,0.078,0.305,0.094c-0.031,0.281-0.078,0.563-0.141,0.844c-0.094,0.406-0.438,0.602-1.031,0.586H46.523z M46.266,97.516
		c-0.125,0.203-0.281,0.414-0.469,0.633h2.461v1.875h0.422c0.313,0.016,0.477-0.141,0.492-0.469c0.031-0.641,0.047-1.32,0.047-2.039
		H46.266z M46.125,98.688v0.797h1.523v-0.797H46.125z"/>
	<path fill="#9B9B9B" d="M55.031,100.117c-0.016-0.047-0.031-0.109-0.047-0.188c-0.031-0.156-0.063-0.281-0.094-0.375
		c0.109,0,0.234,0,0.375,0c0.188,0.016,0.289-0.102,0.305-0.352c0.031-0.469,0.047-0.852,0.047-1.148l-0.797,0.234v2.461h-0.586
		v-2.297l-0.75,0.234v2.086c-0.031,0.344,0.141,0.508,0.516,0.492h1.219c0.375,0.016,0.578-0.109,0.609-0.375
		c0.047-0.219,0.086-0.445,0.117-0.68c0.156,0.078,0.344,0.148,0.563,0.211c-0.047,0.313-0.102,0.586-0.164,0.82
		c-0.078,0.375-0.391,0.555-0.938,0.539h-1.641c-0.594,0.016-0.883-0.25-0.867-0.797v-2.109L52.5,98.992L52.406,98.5h-0.398v1.992
		c0.047-0.016,0.117-0.031,0.211-0.047c0.172-0.047,0.313-0.078,0.422-0.094c0,0.188,0.008,0.383,0.023,0.586
		c-0.156,0.031-0.438,0.102-0.844,0.211c-0.422,0.094-0.734,0.164-0.938,0.211l-0.117-0.586l0.68-0.141V98.5h-0.563v-0.586h0.563
		v-1.547h0.563v1.547h0.516v0.445l0.375-0.094v-1.289h0.586v1.102l0.75-0.211v-1.5h0.586v1.336l1.383-0.398
		c0,0.875-0.023,1.539-0.07,1.992c0,0.516-0.188,0.773-0.563,0.773C55.43,100.102,55.25,100.117,55.031,100.117z"/>
	<path fill="#9B9B9B" d="M56.883,98.406V97.82h0.656v-1.453h0.609v1.453h0.633v0.586h-0.633v1.945l0.703-0.211
		c-0.016,0.094-0.016,0.234,0,0.422c0,0.078,0,0.141,0,0.188c-0.156,0.047-0.438,0.125-0.844,0.234
		c-0.5,0.156-0.867,0.258-1.102,0.305l-0.117-0.586l0.75-0.188v-2.109H56.883z M58.406,101.664v-0.539h0.773v-3.563h0.609v3.563
		h0.773v-4.758h0.656v1.711h1.078v0.586h-1.078v2.461h1.266v0.539H58.406z"/>
</g>
<g>
	<path fill="#9B9B9B" d="M202.268,62.295l-0.281-0.633c0.25-0.203,0.477-0.406,0.68-0.609v-1.781h-0.586v-0.586h1.148v2.367
		c0.266,0.391,0.688,0.594,1.266,0.609c0.563,0.016,1.648,0.008,3.258-0.023c-0.094,0.234-0.156,0.422-0.188,0.563
		c-0.391,0-0.922-0.008-1.594-0.023c-0.734,0-1.266-0.008-1.594-0.023c-0.656-0.016-1.125-0.219-1.406-0.609
		C202.721,61.795,202.486,62.045,202.268,62.295z M202.9,58.006c-0.234-0.344-0.453-0.664-0.656-0.961l0.492-0.281
		c0.047,0.063,0.125,0.164,0.234,0.305c0.203,0.25,0.359,0.453,0.469,0.609L202.9,58.006z M204.564,58.311v-0.328
		c-0.141,0.109-0.391,0.25-0.75,0.422c-0.063,0.031-0.109,0.055-0.141,0.07c-0.031-0.047-0.078-0.125-0.141-0.234
		c-0.078-0.094-0.133-0.164-0.164-0.211c0.875-0.344,1.539-0.797,1.992-1.359l0.609,0.07l-0.117,0.141
		c0.531,0.469,1.164,0.82,1.898,1.055c-0.125,0.188-0.219,0.344-0.281,0.469c-0.375-0.141-0.688-0.281-0.938-0.422v0.328H204.564z
		 M203.768,61.405v-2.789h1.781v2.227c0.016,0.344-0.148,0.516-0.492,0.516c-0.094,0.016-0.242,0.023-0.445,0.023
		c0-0.047-0.016-0.125-0.047-0.234c-0.016-0.094-0.031-0.164-0.047-0.211c0.125,0.016,0.227,0.023,0.305,0.023
		c0.156,0,0.234-0.086,0.234-0.258v-0.234h-0.773v0.938H203.768z M204.283,58.991v0.375h0.773v-0.375H204.283z M204.283,59.741
		v0.375h0.773v-0.375H204.283z M205.549,57.233c-0.328,0.313-0.609,0.539-0.844,0.68h1.711
		C206.088,57.709,205.799,57.483,205.549,57.233z M206.064,61.381c-0.031-0.156-0.07-0.305-0.117-0.445c0.203,0,0.367,0,0.492,0
		c0.234,0,0.344-0.094,0.328-0.281v-2.086h0.516v2.18c0.016,0.406-0.195,0.617-0.633,0.633
		C206.494,61.381,206.299,61.381,206.064,61.381z M205.947,60.561v-1.758h0.445v1.758H205.947z"/>
	<path fill="#9B9B9B" d="M208.127,57.866V57.35h0.375v-0.586h0.586v0.586h1.031v-0.609h0.586v0.609h0.375v0.516h-0.375v2.555h0.445
		v0.516h-3.094V60.42h0.445v-2.555H208.127z M208.502,62.295c-0.219-0.219-0.367-0.352-0.445-0.398
		c0.391-0.344,0.688-0.648,0.891-0.914l0.492,0.328C209.111,61.686,208.799,62.014,208.502,62.295z M209.088,57.866v0.539h1.031
		v-0.539H209.088z M209.088,58.874v0.539h1.031v-0.539H209.088z M209.088,59.881v0.539h1.031v-0.539H209.088z M210.424,62.108
		c-0.078-0.094-0.203-0.234-0.375-0.422c-0.141-0.156-0.25-0.281-0.328-0.375l0.422-0.328c0.266,0.266,0.508,0.5,0.727,0.703
		c0.359-0.453,0.523-1.25,0.492-2.391v-2.391h2.109v4.711c0,0.391-0.188,0.594-0.563,0.609c-0.063,0-0.18,0-0.352,0
		c-0.172,0.016-0.297,0.023-0.375,0.023c-0.016-0.047-0.039-0.148-0.07-0.305c-0.031-0.125-0.055-0.219-0.07-0.281
		c0.203,0.016,0.383,0.023,0.539,0.023c0.219,0.016,0.32-0.07,0.305-0.258v-0.984H211.9c-0.063,0.719-0.297,1.352-0.703,1.898
		c-0.094-0.078-0.227-0.18-0.398-0.305c-0.047-0.047-0.086-0.078-0.117-0.094c0.016-0.016,0.039-0.039,0.07-0.07
		c0.016-0.031,0.031-0.055,0.047-0.07L210.424,62.108z M211.947,59.342c0,0.188-0.008,0.375-0.023,0.563h0.961v-0.938h-0.938V59.342
		z M211.947,57.491v0.938h0.938v-0.938H211.947z"/>
	<path fill="#9B9B9B" d="M214.455,58.194v-0.586h2.109v-0.891h0.656v0.891h2.109v0.586h-2.109v0.867h2.438v0.609h-2.156
		c0.531,0.719,1.273,1.273,2.227,1.664c-0.047,0.063-0.109,0.156-0.188,0.281c-0.094,0.125-0.164,0.219-0.211,0.281
		c-0.984-0.484-1.688-1.078-2.109-1.781v2.203h-0.656v-2.203c-0.516,0.797-1.227,1.414-2.133,1.852
		c-0.047-0.078-0.141-0.203-0.281-0.375c-0.047-0.063-0.078-0.109-0.094-0.141c1-0.5,1.742-1.094,2.227-1.781h-2.18v-0.609h2.461
		v-0.867H214.455z"/>
	<path fill="#9B9B9B" d="M220.338,60.772V57.28h0.609v3.492H220.338z M220.971,62.342c-0.047-0.047-0.133-0.125-0.258-0.234
		s-0.203-0.18-0.234-0.211c0.469-0.391,0.766-0.766,0.891-1.125c0.141-0.344,0.211-0.938,0.211-1.781v-2.25h0.633v2.25
		c0,0.922-0.086,1.602-0.258,2.039C221.799,61.467,221.471,61.905,220.971,62.342z M222.33,61.803v-0.539h2.461v-1.547h-2.133
		v-0.586h2.133v-1.406h-2.227v-0.586h2.883v4.992h-0.656v-0.328H222.33z"/>
	<path fill="#9B9B9B" d="M226.314,62.272l-0.281-0.633c0.078-0.078,0.203-0.195,0.375-0.352c0.125-0.125,0.219-0.219,0.281-0.281
		v-1.711h-0.609v-0.609h1.242v2.297c0.203,0.406,0.602,0.609,1.195,0.609c1.406,0,2.477-0.008,3.211-0.023
		c-0.016,0.063-0.047,0.156-0.094,0.281c-0.031,0.141-0.063,0.242-0.094,0.305c-1.078,0-2.133-0.016-3.164-0.047
		c-0.656-0.016-1.109-0.219-1.359-0.609c-0.156,0.125-0.352,0.336-0.586,0.633C226.385,62.194,226.346,62.241,226.314,62.272z
		 M227.018,58.17c-0.219-0.375-0.461-0.75-0.727-1.125l0.516-0.281c0.016,0.016,0.039,0.047,0.07,0.094
		c0.313,0.406,0.539,0.734,0.68,0.984L227.018,58.17z M227.814,57.725v-0.586h3.75v0.586h-1.5c-0.141,0.328-0.297,0.633-0.469,0.914
		h0.328v2.672h-0.656v-2.18c-0.359,0.469-0.836,0.945-1.43,1.43c-0.031-0.047-0.086-0.125-0.164-0.234
		c-0.109-0.125-0.188-0.219-0.234-0.281c0.922-0.688,1.57-1.461,1.945-2.32H227.814z M231.236,60.42
		c-0.188-0.234-0.469-0.547-0.844-0.938c-0.156-0.188-0.281-0.328-0.375-0.422l0.445-0.352c0.484,0.453,0.906,0.883,1.266,1.289
		L231.236,60.42z"/>
	<path fill="#9B9B9B" d="M233.838,60.678v0.938c-0.047,0.531-0.32,0.797-0.82,0.797v-0.375c0.203-0.031,0.305-0.18,0.305-0.445
		h-0.375v-0.914H233.838z"/>
	<path fill="#9B9B9B" d="M238.432,62.319c-0.016-0.016-0.031-0.031-0.047-0.047c-0.172-0.141-0.297-0.234-0.375-0.281
		c0.25-0.328,0.367-0.953,0.352-1.875v-1.523l-0.047,0.07c-0.031-0.063-0.102-0.18-0.211-0.352
		c-0.047-0.047-0.078-0.086-0.094-0.117c0.438-0.406,0.781-0.906,1.031-1.5l0.539,0.094c-0.063,0.141-0.133,0.281-0.211,0.422h1.078
		v0.492l-0.375,0.516h0.563v3.422c0.016,0.391-0.172,0.586-0.563,0.586c-0.031,0-0.086,0-0.164,0
		c-0.125,0.016-0.219,0.023-0.281,0.023c0-0.031-0.016-0.086-0.047-0.164c-0.016-0.141-0.031-0.25-0.047-0.328h-0.258v-0.867h-0.445
		C238.799,61.467,238.666,61.944,238.432,62.319z M239.088,57.702c-0.016,0.031-0.047,0.078-0.094,0.141
		c-0.047,0.078-0.141,0.203-0.281,0.375h0.797l0.375-0.516H239.088z M238.854,58.686v0.633h0.422v-0.633H238.854z M238.854,60.116
		v0.305h0.422v-0.633h-0.422V60.116z M240.166,58.686h-0.445v0.633h0.445V58.686z M239.721,59.788v0.633h0.445v-0.633H239.721z
		 M239.908,61.733c0.188,0.016,0.273-0.063,0.258-0.234v-0.609h-0.445v0.844H239.908z M241.01,60.42v-2.625h0.961v-1.055h0.539
		v1.055h0.961v2.461h-0.961v1.148l0.469-0.047c-0.016-0.047-0.039-0.125-0.07-0.234c-0.047-0.141-0.086-0.242-0.117-0.305
		l0.445-0.141c0.047,0.156,0.125,0.375,0.234,0.656c0.156,0.375,0.258,0.648,0.305,0.82l-0.492,0.141l-0.141-0.469
		c-0.422,0.047-0.563,0.063-0.422,0.047c-0.859,0.094-1.469,0.156-1.828,0.188l-0.094-0.539c0.016,0,0.039,0,0.07,0
		c0.328-0.016,0.695-0.047,1.102-0.094v-1.172h-0.469v0.164H241.01z M241.502,58.334v1.383h0.516v-1.383H241.502z M242.979,58.334
		h-0.516v1.383h0.516V58.334z"/>
	<path fill="#9B9B9B" d="M244.268,58.475v-0.586c0.109-0.219,0.242-0.547,0.398-0.984l0.609,0.094
		c-0.031,0.063-0.07,0.172-0.117,0.328c-0.109,0.281-0.188,0.477-0.234,0.586h1.031c0.125-0.422,0.219-0.828,0.281-1.219
		l0.656,0.047c-0.016,0.078-0.039,0.195-0.07,0.352c-0.078,0.359-0.148,0.633-0.211,0.82h3.094v0.563h-3.234
		c-0.063,0.203-0.133,0.414-0.211,0.633h2.859v0.516c-0.313,0.625-0.711,1.125-1.195,1.5c0.469,0.234,1.055,0.406,1.758,0.516
		c-0.125,0.234-0.234,0.445-0.328,0.633c-0.813-0.219-1.477-0.477-1.992-0.773c-0.594,0.297-1.289,0.57-2.086,0.82
		c-0.016-0.047-0.047-0.109-0.094-0.188c-0.047-0.109-0.117-0.242-0.211-0.398c0.734-0.156,1.352-0.359,1.852-0.609
		c-0.375-0.344-0.68-0.75-0.914-1.219c-0.422,0.797-0.969,1.5-1.641,2.109c-0.063-0.188-0.141-0.406-0.234-0.656
		c0.844-0.781,1.43-1.742,1.758-2.883H244.268z M248.369,59.647h-1.945c0.203,0.422,0.516,0.805,0.938,1.148
		C247.814,60.467,248.15,60.084,248.369,59.647z M248.58,57.913c-0.281-0.297-0.57-0.563-0.867-0.797l0.375-0.375
		c0.078,0.063,0.203,0.164,0.375,0.305c0.266,0.203,0.453,0.344,0.563,0.422L248.58,57.913z"/>
	<path fill="#9B9B9B" d="M252.682,59.717h2.344v2.602h-0.633v-0.258h-2.977v0.258h-0.609v-2.578
		c-0.125,0.047-0.25,0.109-0.375,0.188c-0.109-0.172-0.227-0.336-0.352-0.492c0.656-0.234,1.063-0.516,1.219-0.844h-1.172v-0.469
		h1.289c0.031-0.156,0.047-0.328,0.047-0.516H250.9c-0.109,0.156-0.258,0.32-0.445,0.492c-0.031-0.031-0.07-0.07-0.117-0.117
		c-0.031-0.047-0.117-0.133-0.258-0.258c0.344-0.297,0.586-0.648,0.727-1.055l0.563,0.047c-0.047,0.156-0.109,0.297-0.188,0.422
		h1.688v0.469h-0.82c0,0.063-0.008,0.148-0.023,0.258c0,0.125-0.008,0.211-0.023,0.258h1.031v0.469h-1.102
		c0.172,0.109,0.438,0.273,0.797,0.492c0.125,0.078,0.219,0.133,0.281,0.164L252.682,59.717z M252.682,59.717
		c-0.188-0.141-0.445-0.328-0.773-0.563c-0.094-0.078-0.172-0.133-0.234-0.164c-0.141,0.25-0.422,0.492-0.844,0.727H252.682z
		 M251.416,60.209v0.492h2.977v-0.492H251.416z M251.416,61.124v0.516h2.977v-0.516H251.416z M253.268,59.319v-2.227h2.18v2.227
		H253.268z M253.83,57.608v1.219h1.055v-1.219H253.83z"/>
	<path fill="#9B9B9B" d="M258.729,58.756c-0.063-0.109-0.133-0.211-0.211-0.305c-0.453,0.016-1.047,0.039-1.781,0.07
		c-0.063,0-0.148,0.008-0.258,0.023s-0.195,0.031-0.258,0.047l-0.211-0.516c0.156-0.078,0.289-0.188,0.398-0.328
		c0.313-0.313,0.594-0.68,0.844-1.102l0.633,0.211c-0.047,0.047-0.117,0.125-0.211,0.234c-0.359,0.422-0.641,0.734-0.844,0.938
		c0.141-0.016,0.359-0.023,0.656-0.023c0.297-0.016,0.516-0.023,0.656-0.023l-0.398-0.516l0.422-0.258
		c0.297,0.313,0.641,0.719,1.031,1.219L258.729,58.756z M256.338,62.272V58.92h2.414v2.695c0.016,0.391-0.18,0.594-0.586,0.609
		c-0.047,0-0.141,0-0.281,0c-0.172,0.016-0.297,0.023-0.375,0.023c-0.016-0.078-0.031-0.188-0.047-0.328
		c-0.031-0.094-0.047-0.164-0.047-0.211c0.094,0.016,0.266,0.023,0.516,0.023c0.188,0,0.281-0.063,0.281-0.188v-0.352h-1.336v1.078
		H256.338z M256.877,59.389v0.469h1.336v-0.469H256.877z M256.877,60.28v0.469h1.336V60.28H256.877z M260.018,59.319
		c-0.5,0-0.75-0.25-0.75-0.75v-1.828h0.586v0.867c0.422-0.156,0.891-0.375,1.406-0.656l0.328,0.445
		c-0.563,0.281-1.141,0.539-1.734,0.773v0.281c-0.016,0.234,0.102,0.344,0.352,0.328h0.469c0.234,0.016,0.367-0.078,0.398-0.281
		s0.055-0.398,0.07-0.586c0.031,0.016,0.086,0.031,0.164,0.047c0.094,0.031,0.219,0.078,0.375,0.141
		c-0.016,0.203-0.055,0.422-0.117,0.656c-0.063,0.375-0.32,0.563-0.773,0.563H260.018z M260.018,62.202
		c-0.5,0.016-0.75-0.227-0.75-0.727v-1.898h0.586v0.773c0.563-0.219,1.047-0.445,1.453-0.68l0.328,0.469
		c-0.422,0.219-1.016,0.484-1.781,0.797v0.422c0,0.219,0.117,0.32,0.352,0.305h0.492c0.234,0.016,0.359-0.063,0.375-0.234
		c0.031-0.172,0.055-0.383,0.07-0.633c0.063,0.016,0.148,0.047,0.258,0.094c0.125,0.047,0.219,0.078,0.281,0.094
		c-0.016,0.172-0.047,0.383-0.094,0.633v0.023c-0.094,0.375-0.352,0.563-0.773,0.563H260.018z"/>
	<path fill="#9B9B9B" d="M267.377,59.249c-0.391-0.188-0.695-0.352-0.914-0.492v0.422h-3.164v-0.375
		c-0.078,0.047-0.195,0.117-0.352,0.211c-0.25,0.141-0.438,0.25-0.563,0.328c-0.031-0.063-0.094-0.164-0.188-0.305
		c-0.078-0.125-0.133-0.219-0.164-0.281c1.234-0.578,2.117-1.273,2.648-2.086l0.75,0.047l-0.164,0.234
		c0.594,0.734,1.414,1.305,2.461,1.711C267.619,58.85,267.502,59.045,267.377,59.249z M262.783,62.319v-2.508h4.195v2.508h-0.633
		v-0.328h-2.93v0.328H262.783z M263.416,60.374v1.102h2.93v-1.102H263.416z M264.916,57.397c-0.375,0.453-0.828,0.859-1.359,1.219
		h2.695C265.752,58.288,265.307,57.881,264.916,57.397z"/>
	<path fill="#9B9B9B" d="M268.385,60.725l-0.188-0.539c0.141-0.094,0.281-0.242,0.422-0.445c0.172-0.203,0.336-0.422,0.492-0.656
		c-0.422,0-0.727,0.023-0.914,0.07l-0.164-0.539c0.125-0.078,0.242-0.219,0.352-0.422c0.328-0.547,0.594-1.047,0.797-1.5
		l0.609,0.188c-0.391,0.719-0.734,1.281-1.031,1.688c0.297,0,0.523-0.008,0.68-0.023c0.141-0.234,0.281-0.469,0.422-0.703
		l0.563,0.258c-0.438,0.719-0.891,1.383-1.359,1.992c0.109-0.016,0.305-0.039,0.586-0.07c0.266-0.031,0.453-0.047,0.563-0.047
		c0,0.031-0.008,0.078-0.023,0.141c-0.016,0.172-0.023,0.305-0.023,0.398c-0.469,0.031-0.914,0.078-1.336,0.141
		C268.674,60.67,268.525,60.694,268.385,60.725z M268.127,61.967l-0.094-0.563c0.969-0.094,1.742-0.188,2.32-0.281
		c0,0.063-0.008,0.164-0.023,0.305c0,0.125,0,0.203,0,0.234c-0.188,0.016-0.531,0.063-1.031,0.141
		C268.768,61.881,268.377,61.936,268.127,61.967z M270.658,59.131c-0.172-0.172-0.328-0.313-0.469-0.422
		c0.484-0.641,0.836-1.313,1.055-2.016l0.656,0.141c-0.016,0.031-0.031,0.07-0.047,0.117c-0.078,0.188-0.172,0.398-0.281,0.633
		h1.945c-0.016,1.031-0.055,2.219-0.117,3.563c0,0.688-0.367,1.023-1.102,1.008c-0.25,0.016-0.586,0.023-1.008,0.023
		c-0.016-0.094-0.039-0.242-0.07-0.445c-0.031-0.078-0.047-0.133-0.047-0.164c0.078,0,0.227,0,0.445,0
		c0.25,0.016,0.43,0.023,0.539,0.023c0.406,0.016,0.609-0.18,0.609-0.586c0.063-0.922,0.094-1.859,0.094-2.813h-1.594
		C271.08,58.522,270.877,58.834,270.658,59.131z M271.596,60.584c-0.266-0.422-0.555-0.836-0.867-1.242l0.469-0.305
		c0.406,0.5,0.711,0.898,0.914,1.195L271.596,60.584z"/>
</g>
<g>
	<path fill="#9B9B9B" d="M79.782,93.053v0.938c-0.047,0.531-0.32,0.797-0.82,0.797v-0.375c0.203-0.031,0.305-0.18,0.305-0.445
		h-0.375v-0.914H79.782z"/>
</g>
<g>
	<path d="M199.641,101.513h3.906v4.336h-1.055v-0.43h-4.961v0.43h-1.016v-4.297c-0.209,0.078-0.417,0.183-0.625,0.313
		c-0.183-0.286-0.378-0.56-0.586-0.82c1.094-0.391,1.771-0.859,2.031-1.406h-1.953v-0.781h2.148c0.052-0.26,0.078-0.547,0.078-0.859
		h-0.938c-0.183,0.261-0.43,0.534-0.742,0.82c-0.053-0.052-0.117-0.117-0.195-0.195c-0.053-0.078-0.195-0.221-0.43-0.43
		c0.572-0.494,0.977-1.08,1.211-1.758l0.938,0.078c-0.078,0.261-0.183,0.495-0.313,0.703h2.813v0.781h-1.367
		c0,0.104-0.014,0.248-0.039,0.43c0,0.209-0.014,0.352-0.039,0.43h1.719v0.781h-1.836c0.286,0.183,0.729,0.456,1.328,0.82
		c0.208,0.131,0.364,0.222,0.469,0.273L199.641,101.513z M199.641,101.513c-0.313-0.234-0.742-0.547-1.289-0.938
		c-0.156-0.13-0.287-0.221-0.391-0.273c-0.234,0.417-0.703,0.82-1.406,1.211H199.641z M197.531,102.333v0.82h4.961v-0.82H197.531z
		 M197.531,103.856v0.859h4.961v-0.859H197.531z M200.617,100.849v-3.711h3.633v3.711H200.617z M201.555,97.997v2.031h1.758v-2.031
		H201.555z"/>
	<path d="M209.719,99.911c-0.104-0.182-0.222-0.352-0.352-0.508c-0.756,0.026-1.745,0.065-2.969,0.117
		c-0.104,0-0.248,0.014-0.43,0.039c-0.183,0.026-0.326,0.053-0.43,0.078l-0.352-0.859c0.26-0.13,0.481-0.313,0.664-0.547
		c0.521-0.521,0.989-1.133,1.406-1.836l1.055,0.352c-0.078,0.078-0.195,0.209-0.352,0.391c-0.6,0.703-1.068,1.225-1.406,1.563
		c0.234-0.025,0.599-0.039,1.094-0.039c0.494-0.025,0.859-0.039,1.094-0.039l-0.664-0.859l0.703-0.43
		c0.494,0.521,1.067,1.198,1.719,2.031L209.719,99.911z M205.734,105.771v-5.586h4.023v4.492c0.025,0.65-0.3,0.989-0.977,1.016
		c-0.078,0-0.234,0-0.469,0c-0.287,0.025-0.495,0.039-0.625,0.039c-0.026-0.131-0.053-0.313-0.078-0.547
		c-0.053-0.156-0.078-0.273-0.078-0.352c0.156,0.025,0.442,0.039,0.859,0.039c0.313,0,0.469-0.104,0.469-0.313v-0.586h-2.227v1.797
		H205.734z M206.633,100.966v0.781h2.227v-0.781H206.633z M206.633,102.45v0.781h2.227v-0.781H206.633z M211.867,100.849
		c-0.834,0-1.25-0.416-1.25-1.25v-3.047h0.977v1.445c0.703-0.26,1.484-0.625,2.344-1.094l0.547,0.742
		c-0.938,0.469-1.901,0.898-2.891,1.289v0.469c-0.026,0.391,0.169,0.573,0.586,0.547h0.781c0.391,0.026,0.611-0.13,0.664-0.469
		c0.052-0.338,0.091-0.664,0.117-0.977c0.052,0.026,0.143,0.053,0.273,0.078c0.156,0.053,0.364,0.131,0.625,0.234
		c-0.026,0.339-0.092,0.703-0.195,1.094c-0.104,0.625-0.534,0.938-1.289,0.938H211.867z M211.867,105.653
		c-0.834,0.025-1.25-0.378-1.25-1.211v-3.164h0.977v1.289c0.938-0.364,1.744-0.742,2.422-1.133l0.547,0.781
		c-0.703,0.365-1.693,0.808-2.969,1.328v0.703c0,0.365,0.195,0.533,0.586,0.508H213c0.391,0.025,0.599-0.104,0.625-0.391
		c0.052-0.286,0.091-0.638,0.117-1.055c0.104,0.026,0.247,0.078,0.43,0.156c0.208,0.078,0.364,0.131,0.469,0.156
		c-0.026,0.287-0.078,0.639-0.156,1.055v0.039c-0.156,0.625-0.586,0.938-1.289,0.938H211.867z"/>
	<path d="M224.133,100.731c-0.651-0.313-1.159-0.586-1.523-0.82v0.703h-5.273v-0.625c-0.131,0.078-0.326,0.195-0.586,0.352
		c-0.417,0.234-0.729,0.417-0.938,0.547c-0.053-0.104-0.156-0.273-0.313-0.508c-0.131-0.208-0.222-0.364-0.273-0.469
		c2.057-0.963,3.528-2.122,4.414-3.477l1.25,0.078l-0.273,0.391c0.989,1.225,2.356,2.175,4.102,2.852
		C224.536,100.067,224.341,100.394,224.133,100.731z M216.477,105.849v-4.18h6.992v4.18h-1.055v-0.547h-4.883v0.547H216.477z
		 M217.531,102.606v1.836h4.883v-1.836H217.531z M220.031,97.646c-0.625,0.756-1.381,1.433-2.266,2.031h4.492
		C221.424,99.13,220.682,98.453,220.031,97.646z"/>
	<path d="M225.813,103.192l-0.313-0.898c0.234-0.156,0.469-0.403,0.703-0.742c0.286-0.338,0.56-0.703,0.82-1.094
		c-0.703,0-1.211,0.039-1.523,0.117l-0.273-0.898c0.208-0.13,0.403-0.364,0.586-0.703c0.547-0.911,0.989-1.744,1.328-2.5
		l1.016,0.313c-0.651,1.198-1.225,2.136-1.719,2.813c0.494,0,0.872-0.013,1.133-0.039c0.234-0.391,0.469-0.781,0.703-1.172
		l0.938,0.43c-0.729,1.198-1.484,2.305-2.266,3.32c0.182-0.025,0.508-0.064,0.977-0.117c0.442-0.052,0.755-0.078,0.938-0.078
		c0,0.053-0.014,0.131-0.039,0.234c-0.026,0.287-0.039,0.508-0.039,0.664c-0.781,0.053-1.523,0.131-2.227,0.234
		C226.294,103.102,226.047,103.141,225.813,103.192z M225.383,105.263l-0.156-0.938c1.614-0.156,2.903-0.313,3.867-0.469
		c0,0.104-0.014,0.273-0.039,0.508c0,0.209,0,0.339,0,0.391c-0.313,0.025-0.886,0.104-1.719,0.234
		C226.45,105.119,225.799,105.21,225.383,105.263z M229.602,100.536c-0.287-0.286-0.547-0.521-0.781-0.703
		c0.807-1.067,1.393-2.188,1.758-3.359l1.094,0.234c-0.026,0.053-0.053,0.117-0.078,0.195c-0.131,0.313-0.287,0.664-0.469,1.055
		h3.242c-0.026,1.719-0.092,3.698-0.195,5.938c0,1.146-0.612,1.705-1.836,1.68c-0.417,0.025-0.977,0.039-1.68,0.039
		c-0.026-0.156-0.065-0.404-0.117-0.742c-0.053-0.131-0.078-0.221-0.078-0.273c0.13,0,0.377,0,0.742,0
		c0.416,0.026,0.716,0.039,0.898,0.039c0.677,0.026,1.016-0.299,1.016-0.977c0.104-1.536,0.156-3.099,0.156-4.688h-2.656
		C230.305,99.521,229.966,100.042,229.602,100.536z M231.164,102.958c-0.443-0.703-0.925-1.393-1.445-2.07l0.781-0.508
		c0.677,0.834,1.185,1.498,1.523,1.992L231.164,102.958z"/>
	<path d="M239.516,105.56h-0.75c-0.781-0.844-1.18-1.828-1.195-2.953c0.047-1.172,0.445-2.18,1.195-3.023h0.727
		c-0.75,0.922-1.141,1.93-1.172,3.023C238.32,103.716,238.719,104.7,239.516,105.56z"/>
	<path d="M241.227,100.661v-0.445h0.75c0.047-0.078,0.102-0.188,0.164-0.328c0.031-0.063,0.055-0.109,0.07-0.141l0.586,0.047
		l-0.234,0.422h1.406v0.445h-1.664c-0.109,0.203-0.227,0.391-0.352,0.563h0.563v-0.352h0.563v0.352h0.773v0.422h-0.773v0.375
		l0.82-0.047c-0.016,0.141-0.023,0.289-0.023,0.445c-0.156,0-0.398,0.016-0.727,0.047c0.234-0.031,0.211-0.031-0.07,0v0.328h-0.563
		v-0.305l-1.336,0.07l-0.023-0.469c0.156-0.016,0.383-0.023,0.68-0.023c0.297-0.016,0.523-0.023,0.68-0.023v-0.398h-1.148V101.2
		c0.125-0.172,0.242-0.352,0.352-0.539H241.227z M241.906,105.396v-2.461h4.195v2.461h-0.609v-0.258h-2.977v0.258H241.906z
		 M242.516,103.427v0.422h2.977v-0.422H242.516z M242.516,104.271v0.445h2.977v-0.445H242.516z M245.516,102.747v-1.102h-0.727
		c-0.031,0.438-0.195,0.852-0.492,1.242c-0.063-0.047-0.172-0.117-0.328-0.211c-0.094-0.047-0.156-0.086-0.188-0.117
		c0.344-0.359,0.5-0.898,0.469-1.617v-0.82c0.938-0.047,1.695-0.117,2.273-0.211l0.117,0.516c-0.578,0.094-1.188,0.148-1.828,0.164
		v0.516v0.047h1.969v0.492h-0.703v1.102H245.516z"/>
	<path d="M247.203,101.481v-0.586H248v-1.078h0.633v1.078h0.727v0.586h-0.727v0.984l0.727-0.141c0,0.219,0.008,0.414,0.023,0.586
		l-0.75,0.188v1.523c0.016,0.453-0.211,0.688-0.68,0.703c-0.078,0-0.195,0.008-0.352,0.023c-0.125,0-0.211,0-0.258,0
		c0-0.016,0-0.047,0-0.094c-0.031-0.219-0.07-0.391-0.117-0.516c0.125,0,0.273,0,0.445,0c0.234,0.016,0.344-0.078,0.328-0.281
		v-1.219l-0.797,0.188l-0.07-0.656l0.867-0.164v-1.125H247.203z M249.641,105.278v-4.992h2.883v4.992h-0.633v-0.633h-1.617v0.633
		H249.641z M250.273,100.872v3.188h1.617v-3.188H250.273z"/>
	<path d="M255.969,104.341h3v0.68h-3.797v-4.875h3.68v0.727h-2.883v1.289h2.719v0.703h-2.719V104.341z"/>
	<path d="M263.516,100.872h-1.617v4.148h-0.797v-4.148h-1.641v-0.703h4.055V100.872z"/>
	<path d="M267.359,100.169h0.82v4.852h-0.82v-2.156h-2.367v2.156h-0.797v-4.852h0.797v1.992h2.367V100.169z"/>
	<path d="M270.922,105.56h-0.727c0.781-0.828,1.172-1.813,1.172-2.953c-0.031-1.094-0.422-2.102-1.172-3.023h0.75
		c0.734,0.828,1.125,1.836,1.172,3.023C272.102,103.731,271.703,104.716,270.922,105.56z"/>
</g>
</svg>
